<?xml version="1.0" standalone="no"?>
<!DOCTYPE svg PUBLIC "-//W3C//DTD SVG 1.1//EN" "http://www.w3.org/Graphics/SVG/1.1/DTD/svg11.dtd" >
<svg>
<metadata>
Created by FontForge 20090914 at Mon Aug 11 03:45:12 2014
 By www-data
Copyright (c) 2011 by Pablo Impallari. www.impallari.com. All rights reserved.
</metadata>
<defs>
<font id="DancingScript" horiz-adv-x="592" >
  <font-face 
    font-family="Dancing Script"
    font-weight="400"
    font-stretch="normal"
    units-per-em="1000"
    panose-1="3 8 6 0 4 5 7 0 13 0"
    ascent="800"
    descent="-200"
    x-height="297.999"
    cap-height="717.997"
    bbox="-239 -280 999.997 919.998"
    underline-thickness="50"
    underline-position="-50"
    unicode-range="U+0020-U+FB02"
  />
<missing-glyph horiz-adv-x="278" 
 />
    <glyph glyph-name="uniFB01" unicode="fi" horiz-adv-x="554" 
d="M-68 -192c0 51.333 14.668 127.665 44.001 228.998s65 202.666 107 303.999s88.833 189.833 140.5 265.5s97.167 113.5 136.5 113.5c22.667 0 34 -14.333 34 -43c0 -54.667 -27.5 -118.834 -82.5 -192.501s-116.5 -134.5 -184.5 -182.5c-7.33301 -16 -13 -30.667 -17 -44
c10.667 -4 18.334 -12.333 23.001 -25c17.333 -56.667 47.333 -85 90 -85c40 0 81.667 21.667 125 65c15.333 36.667 32.166 66.834 50.499 90.501s36.166 35.5 53.499 35.5c14.667 0 22 -7.33301 22 -22c0 -8 -8.66699 -26.333 -26 -55s-34.666 -61.167 -51.999 -97.5
s-26 -68.166 -26 -95.499c0 -23.333 3.83301 -39.166 11.5 -47.499s20.167 -12.5 37.5 -12.5c51.333 0 102.666 51 153.999 153l9 -10c-18.667 -56 -46.167 -99.667 -82.5 -131s-74.5 -47 -114.5 -47c-24.667 0 -43.667 7.83301 -57 23.5s-20 35.834 -20 60.501
c0 29.333 8 67.333 24 114c-40.667 -33.333 -82.667 -50 -126 -50c-22.667 0 -45.667 5.33301 -69 16c2.66699 -18.667 4 -40 4 -64c0 -55.333 -7.33301 -110.5 -22 -165.5s-34.167 -100.167 -58.5 -135.5s-48.833 -53 -73.5 -53c-14 0 -26.667 6.5 -38 19.5
s-17 35.833 -17 68.5zM-5.99902 -184.001c0 -32 6.33398 -47.999 19.001 -47.999c19.333 0 41.166 35.667 65.499 107s36.5 138.666 36.5 201.999c0 57.333 -10 94.333 -30 111c-60.667 -175.333 -91 -299.333 -91 -372zM143.002 343c60 55.333 110.333 112.832 151 172.499
s61 100.834 61 123.501c0 9.33301 -4.66699 14 -14 14c-24.667 0 -54.667 -28.833 -90 -86.5s-71.333 -132.167 -108 -223.5zM464.002 464.999c0 13.333 8 25.334 24 36.001s32.333 16 49 16c22 0 33 -10.333 33 -31c0 -12.667 -6.83301 -24.834 -20.5 -36.501
s-28.5 -17.5 -44.5 -17.5c-27.333 0 -41 11 -41 33z" />
    <glyph glyph-name="uniFB02" unicode="fl" horiz-adv-x="548" 
d="M-68 -192c0 51.333 14.667 127.67 44 229.003s65 202.666 107 303.999s88.833 189.833 140.5 265.5s97.167 113.5 136.5 113.5c22.667 0 34 -14.333 34 -43c0 -54.667 -27.5 -118.834 -82.5 -192.501s-116.5 -134.5 -184.5 -182.5c-7.33301 -16 -13 -30.667 -17 -44
c12.667 -4 20.334 -14.333 23.001 -31c8 -67.333 38.667 -101 92 -101c30.667 0 64.667 11 102 33c15.333 68.667 43.5 148 84.5 238s82.333 166.333 124 229s72.167 94 91.5 94c9.33301 0 17.166 -8.33301 23.499 -25s9.5 -33 9.5 -49c0 -50 -27.333 -126.167 -82 -228.5
s-116 -181.5 -184 -237.5c-8.66699 -38.667 -13 -72.334 -13 -101.001c0 -51.333 14.667 -77 44 -77c24.667 0 49.667 15.5 75 46.5s48 68.833 68 113.5l16 -8c-57.333 -122.667 -120 -184 -188 -184c-53.333 0 -80 34.333 -80 103c0 18 2 38 6 60
c-37.333 -20.667 -74.333 -31 -111 -31c-25.333 0 -49.333 6.33301 -72 19c1.33301 -21.333 2 -37 2 -47c0 -55.333 -7.33301 -110.5 -22 -165.5s-34.167 -100.167 -58.5 -135.5s-48.833 -53 -73.5 -53c-14 0 -26.667 6.5 -38 19.5s-17 35.833 -17 68.5zM-6 -183.996
c0 -32 6.33398 -48 19.001 -48c19.333 0 41.166 35.5 65.499 106.5s36.5 136.833 36.5 197.5c0 52.667 -10.333 90 -31 112c-60 -175.333 -90 -298 -90 -368zM143.001 343.004c60 55.333 110.333 112.832 151 172.499s61 100.834 61 123.501c0 9.33301 -4.66699 14 -14 14
c-24.667 0 -54.667 -28.833 -90 -86.5s-71.333 -132.167 -108 -223.5zM403.001 214.003c54.667 55.333 106 128.167 154 218.5s72 153.833 72 190.5c0 10.667 -2.33301 16 -7 16c-9.33301 0 -27.833 -21.5 -55.5 -64.5s-57.5 -98.833 -89.5 -167.5s-56.667 -133 -74 -193z
" />
    <glyph glyph-name="b_r" unicode="br" horiz-adv-x="742" 
d="M-10 53c0 63.333 20.1689 148.666 60.502 255.999s85.5 201.666 135.5 282.999s88.333 122 115 122c10 0 17.833 -6.5 23.5 -19.5s8.5 -27.5 8.5 -43.5c0 -31.333 -10.5 -72.166 -31.5 -122.499s-49.667 -100.333 -86 -150s-73.166 -85.834 -110.499 -108.501
c-8.66699 -16 -18.834 -46 -30.501 -90s-17.5 -84.333 -17.5 -121c0 -62.667 18.333 -94 55 -94c19.333 0 39.333 7.83301 60 23.5s37.334 35.834 50.001 60.501c-23.333 12 -41.333 29.833 -54 53.5s-19 48.834 -19 75.501c0 31.333 8.16699 56.833 24.5 76.5
s36.166 29.5 59.499 29.5c19.333 0 34.666 -8 45.999 -24s17 -38.667 17 -68c0 -44.667 -11 -89 -33 -133c4.66699 -1.33301 11.667 -2 21 -2c20.667 0 40.334 6.66699 59.001 20s34 27.833 46 43.5s24.667 38 38 67s22.666 50.833 27.999 65.5s12.666 36 21.999 64
c-6.66699 6.66699 -10 15.334 -10 26.001c0 16 5.16699 31 15.5 45s19.833 21 28.5 21c8 0 12 -7.66699 12 -23c0 -4 -1.83301 -10.833 -5.5 -20.5s-5.5 -16.167 -5.5 -19.5c0 -6.66699 5.33301 -14.334 16 -23.001s22.334 -17.167 35.001 -25.5s24.334 -20.5 35.001 -36.5
s16 -33.667 16 -53c0 -21.333 -8.33301 -51.5 -25 -90.5s-25 -65.167 -25 -78.5c0 -19.333 10 -29 30 -29c29.333 0 61.5 16.667 96.5 50s59.5 66.333 73.5 99l13 -10c-20.667 -46 -50.667 -86.667 -90 -122s-79 -53 -119 -53c-22.667 0 -40.5 5.83301 -53.5 17.5
s-19.5 27.834 -19.5 48.501c0 19.333 9.16699 50.833 27.5 94.5s27.5 74.5 27.5 92.5c0 6.66699 -1 13 -3 19s-3.83301 10.833 -5.5 14.5s-5.16699 8 -10.5 13l-10.5 10c-1.66699 1.66699 -6.33398 5 -14.001 10s-11.834 7.83301 -12.501 8.5l-18 -56
c-4 -12.667 -11.167 -31.667 -21.5 -57s-20.5 -45.166 -30.5 -59.499s-22.167 -29.833 -36.5 -46.5s-30.5 -28.834 -48.5 -36.501s-37.333 -11.5 -58 -11.5c-9.33301 0 -19 1 -29 3c-44 -74 -97 -111 -159 -111c-34 0 -59.667 11.167 -77 33.5s-26 53.166 -26 92.499z
M116.002 309c42.667 34 83.832 87.832 123.499 161.499s59.5 125.167 59.5 154.5c0 5.33301 -1.33301 8 -4 8c-7.33301 0 -22.166 -16 -44.499 -48s-46.833 -74.167 -73.5 -126.5s-47 -102.166 -61 -149.499zM184 172.999c0 -48 15.999 -82.6689 47.999 -104.002
c15.333 32.667 23 66.334 23 101.001c0 22.667 -3.16699 40.834 -9.5 54.501s-14.166 20.5 -23.499 20.5c-10 0 -18.833 -7 -26.5 -21s-11.5 -31 -11.5 -51z" />
    <glyph glyph-name="e_e" unicode="ee" horiz-adv-x="668" 
d="M-14 72c0 61.333 28 124.668 84 190.001s112.667 98 170 98c41.333 0 62 -20.333 62 -61c0 -48.667 -26 -91.667 -78 -129s-108.667 -59 -170 -65c-2.66699 -11.333 -4 -23.333 -4 -36c0 -56 26.333 -84 79 -84c34 0 68.333 12 103 36s65.667 55.333 93 94
c12.667 57.333 42.5 110.166 89.5 158.499s95.5 72.5 145.5 72.5c41.333 0 62 -20.333 62 -61c0 -48 -23.667 -88.5 -71 -121.5s-101.666 -52.5 -162.999 -58.5c-2.66699 -11.333 -4 -23.333 -4 -36c0 -59.333 25.667 -89 77 -89c40.667 0 82.334 17.667 125.001 53
s77 78.333 103 129l12 -9c-26.667 -60 -64.334 -108.667 -113.001 -146s-98 -56 -148 -56c-38.667 0 -68.334 11.5 -89.001 34.5s-31 51.833 -31 86.5v5c-28.667 -38 -61.667 -67.667 -99 -89s-75 -32 -113 -32c-39.333 0 -69.5 10.833 -90.5 32.5s-31.5 49.5 -31.5 83.5z
M59 124.002c46.667 16.667 91.5 41.667 134.5 75s64.5 69 64.5 107c0 15.333 -7 23 -21 23c-31.333 0 -65.333 -21.833 -102 -65.5s-62 -90.167 -76 -139.5zM393 124.002c29.333 10.667 56.5 22.3311 81.5 34.998s48.833 30.834 71.5 54.501s34 48.834 34 75.501
c0 17.333 -7.66699 26 -23 26c-30.667 0 -62.167 -19.5 -94.5 -58.5s-55.5 -83.167 -69.5 -132.5z" />
    <glyph glyph-name="l_l" unicode="ll" horiz-adv-x="473" 
d="M3 73c0 45.333 13.001 105.833 39.001 181.5s56.167 147.334 90.5 215.001s69 126.334 104 176.001s60.833 74.5 77.5 74.5c9.33301 0 17.166 -8.33301 23.499 -25s9.5 -33 9.5 -49c0 -50 -27.333 -126.167 -82 -228.5s-116 -181.5 -184 -237.5
c-8.66699 -38.667 -13 -72.334 -13 -101.001c0 -51.333 14.667 -77 44 -77c22.667 0 46 13.5 70 40.5s45.667 60.5 65 100.5c12.667 66 37.5 142 74.5 228s75.333 159 115 219s69.5 90 89.5 90c9.33301 0 17.166 -8.33301 23.499 -25s9.5 -33 9.5 -49
c0 -50 -23.167 -119.5 -69.5 -208.5s-103.5 -161.5 -171.5 -217.5c-8.66699 -38.667 -13 -72.334 -13 -101.001c0 -51.333 14.667 -77 44 -77c24.667 0 49.834 15.667 75.501 47s48.5 69 68.5 113l15 -8c-57.333 -122.667 -120 -184 -188 -184c-53.333 0 -80 34.333 -80 103
c0 10 0.333008 17.667 1 23c-50 -84 -102.667 -126 -158 -126c-53.333 0 -80 34.333 -80 103zM90.001 214c54.667 55.333 106 128.167 154 218.5s72 153.833 72 190.5c0 10.667 -2.33301 16 -7 16c-9.33301 0 -27.833 -21.5 -55.5 -64.5s-57.5 -98.833 -89.5 -167.5
s-56.667 -133 -74 -193zM327.001 214.001c54.667 54.667 101.832 120.667 141.499 198s59.5 134.333 59.5 171c0 10.667 -2.33301 16 -7 16c-9.33301 0 -25.666 -18.167 -48.999 -54.5s-49 -85.5 -77 -147.5s-50.667 -123 -68 -183z" />
    <glyph glyph-name="o_r" unicode="or" horiz-adv-x="753" 
d="M-12 55c0 36 11.668 76.998 35.001 122.998s54.333 86.5 93 121.5s76.667 52.5 114 52.5c21.333 0 35.666 -7 42.999 -21c1.33301 0.666992 3.66602 1 6.99902 1c11.333 0 19.833 -4.5 25.5 -13.5s8.5 -17.5 8.5 -25.5c0 -6 -6.5 -23.5 -19.5 -52.5
s-19.5 -53.5 -19.5 -73.5c0 -36.667 19.667 -55 59 -55c24.667 0 53.167 22.5 85.5 67.5s54.833 90.833 67.5 137.5c-6.66699 6.66699 -10 14.667 -10 24c0 18 5.16699 33.833 15.5 47.5s19.166 20.5 26.499 20.5c9.33301 0 14 -8 14 -24
c0 -2.66699 -1.83301 -9.16699 -5.5 -19.5s-5.5 -16.166 -5.5 -17.499c0 -8 5.33301 -16.5 16 -25.5s22.334 -17.5 35.001 -25.5s24.334 -19.833 35.001 -35.5s16 -33.167 16 -52.5c0 -22 -8.33301 -52.5 -25 -91.5s-25 -64.833 -25 -77.5c0 -20 10 -30 30 -30
c29.333 0 61.5 16.667 96.5 50s59.5 66.333 73.5 99l13 -10c-20.667 -46 -50.667 -86.667 -90 -122s-79 -53 -119 -53c-22.667 0 -40.5 6 -53.5 18s-19.5 27.667 -19.5 47c0 20 9.16699 51.833 27.5 95.5s27.5 74.167 27.5 91.5c0 6.66699 -1 13.167 -3 19.5
s-3.83301 11.333 -5.5 15s-5.16699 8 -10.5 13s-9 8.33301 -11 10s-6.5 4.83398 -13.5 9.50098s-11.167 7.66699 -12.5 9c-18 -54 -43.167 -103.167 -75.5 -147.5s-65.833 -66.5 -100.5 -66.5c-40.667 0 -69 15.333 -85 46c-22 -50.667 -48.167 -91 -78.5 -121
s-62.5 -45 -96.5 -45c-25.333 0 -45 8 -59 24s-21 37 -21 63zM52.001 61.998c0 -15.333 3.33301 -27.667 10 -37s16 -14 28 -14c22.667 0 47.667 14.833 75 44.5s50 66.167 68 109.5c-4 16 -6 35 -6 57c0 41.333 6.33301 71.666 19 90.999
c-34.667 0 -67.667 -15.833 -99 -47.5s-55 -66.667 -71 -105s-24 -71.166 -24 -98.499z" />
    <glyph glyph-name="t_h" unicode="th" horiz-adv-x="762" 
d="M-4 53c0 56.667 20.9951 141.336 62.9951 254.003c-5.33301 0.666992 -12.333 3 -21 7s-13.667 6.33301 -15 7v18c2 0 8 -1.5 18 -4.5s18.667 -4.83301 26 -5.5c29.333 75.333 59.833 138.833 91.5 190.5s57.5 77.5 77.5 77.5c5.33301 0 10.166 -2 14.499 -6
s6.5 -9.33301 6.5 -16c0 -10 -6.5 -27.333 -19.5 -52s-31.333 -57.667 -55 -99s-43.167 -78.333 -58.5 -111c36.667 -6.66699 69 -10 97 -10c34.667 0 77.667 5.33301 129 16c36.667 100 79 190.833 127 272.5s86 122.5 114 122.5c10.667 0 18.834 -6.5 24.501 -19.5
s8.5 -27.5 8.5 -43.5c0 -49.333 -22.167 -110.666 -66.5 -183.999s-94.833 -127 -151.5 -161c-12 -28.667 -23.167 -67.834 -33.5 -117.501s-15.5 -88.167 -15.5 -115.5c0 -10.667 0.666992 -22 2 -34c59.333 172.667 127 259 203 259c25.333 0 44.333 -8.83301 57 -26.5
s19 -38.834 19 -63.501c0 -22 -7.16699 -51.667 -21.5 -89s-21.5 -63.666 -21.5 -78.999c0 -25.333 10 -38 30 -38c22.667 0 49.334 15.833 80.001 47.5s56 69.167 76 112.5l13 -12c-22 -50.667 -50.167 -92.334 -84.5 -125.001s-70.166 -49 -107.499 -49
c-22 0 -39 5.83301 -51 17.5s-18 26.834 -18 45.501c0 13.333 5.16699 37.666 15.5 72.999s15.5 61.333 15.5 78c0 32 -12.667 48 -38 48c-22 0 -43.167 -14.333 -63.5 -43s-36.666 -60.334 -48.999 -95.001s-25.666 -66.334 -39.999 -95.001s-27.833 -43 -40.5 -43
c-12 0 -21.833 10.333 -29.5 31s-11.5 45 -11.5 73c0 12 1 25.667 3 41c-26 -46 -57.667 -83 -95 -111s-75.666 -42 -114.999 -42c-59.333 0 -89 33 -89 99zM57.9951 71.002c0 -28.667 4.33301 -49.165 13 -61.498s23 -18.5 43 -18.5c34 0 67.667 15.167 101 45.5
s63 72.166 89 125.499c9.33301 45.333 21 88.666 35 129.999c-39.333 -9.33301 -80.333 -14 -123 -14c-28 0 -62.333 3.66699 -103 11c-36.667 -84 -55 -156.667 -55 -218zM418.995 345.004c42.667 34.667 81.832 82.832 117.499 144.499s53.5 106.834 53.5 135.501
c0 5.33301 -1.33301 8 -4 8c-7.33301 0 -20.666 -12.167 -39.999 -36.5s-41.5 -59.833 -66.5 -106.5s-45.167 -95 -60.5 -145z" />
    <glyph glyph-name="v_r" unicode="vr" horiz-adv-x="756" 
d="M10 71c0 12.667 1.99902 56.332 5.99902 130.999c0.666992 14 1.66699 23.667 3 29s4.16602 9.66602 8.49902 12.999s11.166 5 20.499 5c11.333 0 18.5 -2.16699 21.5 -6.5s4.5 -12.833 4.5 -25.5c0 -14 -1.5 -39.833 -4.5 -77.5s-4.5 -65.5 -4.5 -83.5
c0 -37.333 7.66699 -56 23 -56c22 0 48.667 22.5 80 67.5s59.666 95.5 84.999 151.5c2.66699 75.333 18 113 46 113c11.333 0 20.166 -4.16699 26.499 -12.5s9.5 -16.833 9.5 -25.5l-7 -20c-5.33301 -14 -10.333 -30.667 -15 -50s-7 -36.666 -7 -51.999
c0 -37.333 15.333 -56 46 -56c16 0 31.333 6.5 46 19.5s28.334 32.167 41.001 57.5s22 45.666 28 60.999s13.667 36.333 23 63c-6.66699 6.66699 -10 14.667 -10 24c0 18 5.16699 33.833 15.5 47.5s19.166 20.5 26.499 20.5c9.33301 0 14 -8 14 -24
c0 -2.66699 -1.83301 -9.16699 -5.5 -19.5s-5.5 -16.166 -5.5 -17.499c0 -8 5.33301 -16.5 16 -25.5s22.334 -17.5 35.001 -25.5s24.334 -19.833 35.001 -35.5s16 -33.167 16 -52.5c0 -22 -8.33301 -52.5 -25 -91.5s-25 -64.833 -25 -77.5c0 -20 10 -30 30 -30
c29.333 0 61.5 16.667 96.5 50s59.5 66.333 73.5 99l13 -10c-20.667 -46 -50.667 -86.667 -90 -122s-79 -53 -119 -53c-22.667 0 -40.5 6 -53.5 18s-19.5 27.667 -19.5 47c0 20 9.16699 51.833 27.5 95.5s27.5 74.167 27.5 91.5c0 6.66699 -1 13.167 -3 19.5
s-3.83301 11.333 -5.5 15s-5.16699 8 -10.5 13s-9 8.33301 -11 10s-6.5 4.83398 -13.5 9.50098s-11.167 7.66699 -12.5 9l-21 -55c-4.66699 -12.667 -12.5 -30.5 -23.5 -53.5s-21.667 -40.667 -32 -53s-23.166 -23.5 -38.499 -33.5s-31.666 -15 -48.999 -15
c-22 0 -41.167 6.5 -57.5 19.5s-26.166 29.5 -29.499 49.5c-27.333 -54.667 -58.5 -101.667 -93.5 -141s-67.5 -59 -97.5 -59c-36.667 0 -55 36.667 -55 110z" />
    <glyph glyph-name="w_r" unicode="wr" horiz-adv-x="966" 
d="M0 71c0 38 10.9961 85.334 32.9961 142.001s40.333 85 55 85c5.33301 0 12.833 -2 22.5 -6s14.5 -8.66699 14.5 -14c-14 -21.333 -28.667 -52.833 -44 -94.5s-23 -77.167 -23 -106.5c0 -44.667 11.667 -67 35 -67c35.333 0 85.333 63.667 150 191c8 40 14.167 65 18.5 75
s11.5 15 21.5 15c19.333 0 29 -7.33301 29 -22c0 -2 -0.666992 -5.66699 -2 -11c-18.667 -60.667 -28 -130.334 -28 -209.001c0 -32.667 7.33301 -49 22 -49c18.667 0 44 23.667 76 71s61 98.666 87 153.999c0 32.667 2 57.167 6 73.5s8.5 26 13.5 29s12.5 4.5 22.5 4.5
c11.333 0 20.166 -4.16699 26.499 -12.5s9.5 -16.833 9.5 -25.5c-1.33301 -2.66699 -4 -9.16699 -8 -19.5s-7.16699 -18.833 -9.5 -25.5s-4.66602 -16.167 -6.99902 -28.5s-3.5 -24.833 -3.5 -37.5c0 -37.333 16.667 -56 50 -56c44.667 0 89 63.333 133 190
c-6.66699 6.66699 -10 14.667 -10 24c0 18 5.16699 33.833 15.5 47.5s19.166 20.5 26.499 20.5c9.33301 0 14 -8 14 -24c0 -2.66699 -1.83301 -9.16699 -5.5 -19.5s-5.5 -16.166 -5.5 -17.499c0 -8 5.33301 -16.5 16 -25.5s22.334 -17.5 35.001 -25.5
s24.334 -19.833 35.001 -35.5s16 -33.167 16 -52.5c0 -22 -8.33301 -52.5 -25 -91.5s-25 -64.833 -25 -77.5c0 -20 10 -30 30 -30c29.333 0 61.5 16.667 96.5 50s59.5 66.333 73.5 99l13 -10c-20.667 -46 -50.667 -86.667 -90 -122s-79 -53 -119 -53
c-22.667 0 -40.5 6 -53.5 18s-19.5 27.667 -19.5 47c0 20 9.16699 51.833 27.5 95.5s27.5 74.167 27.5 91.5c0 6.66699 -1 13.167 -3 19.5s-3.83301 11.333 -5.5 15s-5.16699 7.83398 -10.5 12.501l-11 10c-2 2 -6.5 5.33301 -13.5 10s-11.167 7.66699 -12.5 9
c-45.333 -134.667 -98.333 -202 -159 -202c-42 0 -70 22.667 -84 68c-29.333 -54.667 -61.666 -102.834 -96.999 -144.501s-67 -62.5 -95 -62.5c-36 0 -54 32.333 -54 97c0 24 2.33301 54 7 90c-59.333 -118.667 -112.666 -178 -159.999 -178
c-21.333 0 -39.166 9.83301 -53.499 29.5s-21.5 43.5 -21.5 71.5z" />
    <glyph glyph-name=".notdef" horiz-adv-x="278" 
 />
    <glyph glyph-name="space" unicode=" " horiz-adv-x="259" 
 />
    <glyph glyph-name="exclam" unicode="!" horiz-adv-x="260" 
d="M-21 17c0 10.667 6.33301 20.167 19 28.5s25.667 12.5 39 12.5c17.333 0 26 -8 26 -24c0 -10 -5.5 -19.833 -16.5 -29.5s-22.833 -14.5 -35.5 -14.5c-21.333 0 -32 9 -32 27zM40 103c0 31.333 18.3311 94.668 54.998 190.001l39 101l38 94c16 39.333 29.333 70 40 92
l37 70c13.333 24.667 25.333 42.5 36 53.5s20.334 16.5 29.001 16.5c5.33301 0 10 -2.16699 14 -6.5s6 -9.83301 6 -16.5c0 -26.667 -39.167 -117.834 -117.5 -273.501s-137.166 -262.5 -176.499 -320.5z" />
    <glyph glyph-name="quotedbl" unicode="&#x22;" horiz-adv-x="245" 
d="M131 613c0 22 6.66602 45.3311 19.999 69.998s27 37 41 37c6.66699 0 12.5 -2.83301 17.5 -8.5s7.5 -12.167 7.5 -19.5c-6 -6 -11.667 -12.5 -17 -19.5s-9.66602 -13.167 -12.999 -18.5s-7.16602 -12.166 -11.499 -20.499l-9.5 -18.5l-10 -20
c-4.66699 -9.33301 -7.33398 -15.666 -8.00098 -18.999c-11.333 6.66699 -17 19 -17 37zM250.999 612.998c0 22 6.66602 45.332 19.999 69.999s27 37 41 37c6.66699 0 12.5 -2.83301 17.5 -8.5s7.5 -12.167 7.5 -19.5c-6 -6 -11.667 -12.5 -17 -19.5
s-9.66602 -13.167 -12.999 -18.5l-12 -20l-9 -19l-9 -20c-4.66699 -9.33301 -7.66699 -15.666 -9 -18.999c-11.333 6.66699 -17 19 -17 37z" />
    <glyph glyph-name="numbersign" unicode="#" horiz-adv-x="668" 
d="M9 155c3.33301 43.333 75.334 66.6729 216.001 70.0059c6 30.667 10.667 52 14 64c-82.667 -6 -128 -9.33301 -136 -10l-57 -5c3.33301 42.667 71.666 65.667 204.999 69l38 188c14.667 74.667 24.334 122.667 29.001 144c2 8 3.83301 14.167 5.5 18.5
s5.83398 9.16602 12.501 14.499s15.667 9.33301 27 12c-2 -8.66699 -6.33301 -31.334 -13 -68.001l-27 -144l-31 -164h4c29.333 0 70.666 -1.33301 123.999 -4l68 335c2 8 3.83301 14.167 5.5 18.5s5.83398 9.16602 12.501 14.499s15.667 9.33301 27 12
c-2 -8.66699 -6.33301 -32 -13 -70l-28 -146l-32 -166c18 -0.666992 41.167 -2 69.5 -4s53.166 -3.66699 74.499 -5s40.666 -2 57.999 -2c-24.667 -21.333 -58.334 -32 -101.001 -32c-14.667 0 -34 -0.166992 -58 -0.5s-41 -0.5 -51 -0.5l-15 -76
c116.667 -6.66699 179 -10 187 -10c-24.667 -21.333 -58 -32 -100 -32c-44.667 0 -76.667 -0.333008 -96 -1c-10 -50.667 -18.667 -91.334 -26 -122.001s-15.666 -61.334 -24.999 -92.001s-18.833 -54 -28.5 -70s-20.834 -28.833 -33.501 -38.5s-27 -14.5 -43 -14.5
c30.667 37.333 67.667 148.666 111 333.999h-126l-22 -102c-5.33301 -24.667 -12 -51.834 -20 -81.501s-15.333 -52.167 -22 -67.5s-14.667 -30.166 -24 -44.499s-19.5 -24.333 -30.5 -30s-23.167 -8.5 -36.5 -8.5c30.667 37.333 67.334 148 110.001 332
c-42.667 -2 -91.667 -5.33301 -147 -10zM268.001 225.007c30.667 0 72.667 -1.33301 126 -4l16 72c-36.667 0 -79.667 -0.666992 -129 -2z" />
    <glyph glyph-name="dollar" unicode="$" horiz-adv-x="531" 
d="M1 95c0 41.333 13.5 73.5 40.5 96.5s56.167 34.5 87.5 34.5c-36.667 -40 -55 -84.333 -55 -133c0 -34 10.333 -61 31 -81s50.334 -32 89.001 -36c21.333 72 45.333 167.667 72 287c-22.667 13.333 -39.667 23.833 -51 31.5s-25 18.667 -41 33s-27.5 30.166 -34.5 47.499
s-10.5 36.666 -10.5 57.999c0 54 21.333 101.667 64 143s93.667 66.666 153 75.999c0 1.33301 1 6 3 14s3.66699 13.667 5 17s3.66602 8 6.99902 14s7.83301 10.833 13.5 14.5s12.834 6.5 21.501 8.5c-4.66699 -23.333 -8.66699 -45 -12 -65c42 0 71.333 -9 88 -27
s25 -43.667 25 -77c0 -52.667 -16 -106.334 -48 -161.001c-11.333 2.66699 -20 7.83398 -26 15.501s-9 16.5 -9 26.5s6.16699 33.667 18.5 71s18.5 63.666 18.5 78.999c0 32.667 -24 49 -72 49l-59 -312c22 -12 39.333 -22.167 52 -30.5s27 -19.666 43 -33.999
s27.667 -30.666 35 -48.999s11 -39.166 11 -62.499c0 -56.667 -22 -102.667 -66 -138s-97.333 -55.666 -160 -60.999c-26.667 -70.667 -60 -106 -100 -106c14.667 18.667 31 54 49 106c-52.667 3.33301 -96.334 17.833 -131.001 43.5s-52 61.5 -52 107.5zM192 458
c0 -27.333 7.83301 -49.833 23.5 -67.5s38.167 -34.834 67.5 -51.501l58 288c-43.333 -9.33301 -79 -30.666 -107 -63.999s-42 -68.333 -42 -105zM245 -24c45.333 4.66699 81.167 19.333 107.5 44s39.5 55.667 39.5 93c0 49.333 -29.333 92 -88 128
c-29.333 -146.667 -49 -235 -59 -265z" />
    <glyph glyph-name="percent" unicode="%" horiz-adv-x="698" 
d="M78 -87c44.667 44.667 118.168 158.667 220.501 342s172.166 323.333 209.499 420c3.33301 10 14.333 20 33 30s35.667 15 51 15c-12.667 -32 -60.667 -127.833 -144 -287.5s-145 -271.5 -185 -335.5c-38 -60.667 -71.667 -106.5 -101 -137.5s-57.333 -46.5 -84 -46.5z
M98.001 455c0 48.667 14.168 96.499 42.501 143.499s62.5 70.5 102.5 70.5c25.333 0 45.666 -9.5 60.999 -28.5s23 -44.167 23 -75.5c0 -47.333 -14.5 -95.5 -43.5 -144.5s-63.5 -73.5 -103.5 -73.5c-26.667 0 -47 10.333 -61 31s-21 46.334 -21 77.001zM153.002 446.999
c0 -41.333 11.001 -61.999 33.001 -61.999c22.667 0 43.167 21.167 61.5 63.5s27.5 83.833 27.5 124.5c0 40 -10.667 60 -32 60c-26.667 0 -48.334 -21.333 -65.001 -64s-25 -83.334 -25 -122.001zM421.003 108c0 48.667 14.168 96.499 42.501 143.499s62.5 70.5 102.5 70.5
c25.333 0 45.666 -9.5 60.999 -28.5s23 -44.167 23 -75.5c0 -47.333 -14.5 -95.5 -43.5 -144.5s-63.5 -73.5 -103.5 -73.5c-26.667 0 -47 10.333 -61 31s-21 46.334 -21 77.001zM476.004 100.999c0 -42 11.001 -63 33.001 -63c22.667 0 43.167 21.167 61.5 63.5
s27.5 83.833 27.5 124.5c0 40 -10.667 60 -32 60c-26.667 0 -48.334 -21.167 -65.001 -63.5s-25 -82.833 -25 -121.5z" />
    <glyph glyph-name="ampersand" unicode="&#x26;" horiz-adv-x="616" 
d="M-3 95c0 62 25.334 119.001 76.001 171.001s111.667 81.333 183 88c-50.667 42 -76 94.667 -76 158c0 54.667 19.833 102.834 59.5 144.501s88.834 62.5 147.501 62.5c72.667 0 109 -35.333 109 -106c0 -36.667 -8.5 -71.334 -25.5 -104.001s-33.833 -49 -50.5 -49
c-14.667 0 -27 10.667 -37 32c54.667 48 82 93.667 82 137c0 21.333 -5.66699 38.333 -17 51s-28.333 19 -51 19c-44.667 0 -79.834 -19.833 -105.501 -59.5s-38.5 -87.834 -38.5 -144.501c0 -67.333 19.333 -117.666 58 -150.999
c-64 -10.667 -116.833 -41.334 -158.5 -92.001s-62.5 -104 -62.5 -160c0 -38 10.5 -71.667 31.5 -101s53.167 -44 96.5 -44c69.333 0 133 32.5 191 97.5s91.667 138.167 101 219.5c-30 -1.33301 -65.667 -6 -107 -14l-24 -5c2 46.667 36.667 70 104 70
c22 0 50.167 -2.83301 84.5 -8.5s57.166 -8.5 68.499 -8.5c-10 -21.333 -24 -32 -42 -32c-15.333 -0.666992 -34.666 -1 -57.999 -1c-9.33301 -92.667 -48 -174.5 -116 -245.5s-144 -106.5 -228 -106.5c-58.667 0 -105.834 17.5 -141.501 52.5s-53.5 78.167 -53.5 129.5z
" />
    <glyph glyph-name="quotesingle" unicode="'" horiz-adv-x="125" 
d="M131 613c0 22 6.66602 45.3311 19.999 69.998s27 37 41 37c6.66699 0 12.5 -2.83301 17.5 -8.5s7.5 -12.167 7.5 -19.5c-6 -6 -11.667 -12.5 -17 -19.5s-9.66602 -13.167 -12.999 -18.5s-7.16602 -12.166 -11.499 -20.499l-9.5 -18.5l-10 -20
c-4.66699 -9.33301 -7.33398 -15.666 -8.00098 -18.999c-11.333 6.66699 -17 19 -17 37z" />
    <glyph glyph-name="parenleft" unicode="(" horiz-adv-x="258" 
d="M57 189c0 60.667 7.83105 119.666 23.498 176.999s35.334 106.833 59.001 148.5s49.5 78.334 77.5 110.001s55 55.5 81 71.5s48 24 66 24c-83.333 -59.333 -145.666 -139.833 -186.999 -241.5s-62 -207.167 -62 -316.5c0 -100 15.667 -176 47 -228
c-4 -9.33301 -10.667 -16.333 -20 -21c-24.667 14.667 -45 48 -61 100s-24 110.667 -24 176z" />
    <glyph glyph-name="parenright" unicode=")" horiz-adv-x="268" 
d="M-61 -63c74.667 52.667 136.167 125.67 184.5 219.003s72.5 199.666 72.5 318.999c0 98 -23.667 179.667 -71 245c30.667 -8 58.667 -37.833 84 -89.5s38 -116.834 38 -195.501c0 -70.667 -11.5 -139.834 -34.5 -207.501s-50.5 -123.5 -82.5 -167.5
s-63.5 -79.5 -94.5 -106.5s-55.833 -40.5 -74.5 -40.5c-8 2 -15.333 10 -22 24z" />
    <glyph glyph-name="asterisk" unicode="*" horiz-adv-x="391" 
d="M116 572c12.667 0.666992 51.6621 2.32715 116.995 4.99414c-32 52.667 -48 91 -48 115c0 6.66699 4.66699 15.334 14 26.001c28.667 -61.333 51.334 -104.666 68.001 -129.999l10 20l9 22c2 4.66699 5 10.834 9 18.501s7.16699 13.334 9.5 17.001l9 14.5
c3.66699 6 7.16699 10.667 10.5 14l11 11c4 3.33301 8.33301 6 13 8s9.33398 3.66699 14.001 5c-4.66699 -12.667 -15.667 -36.334 -33 -71.001s-28.666 -58 -33.999 -70c30 2 47.333 3 52 3c40 0 68.667 -9.66699 86 -29l-130 -12c2 -3.33301 6.5 -10.166 13.5 -20.499
s12 -18.166 15 -23.499s6.83301 -13 11.5 -23s7.83398 -20.5 9.50098 -31.5s2.5 -23.167 2.5 -36.5c-11.333 13.333 -41 56 -89 128c-20.667 -40 -39 -70.667 -55 -92s-32 -32 -48 -32c8 11.333 15.333 22.833 22 34.5s11.834 21.334 15.501 29.001s8.5 18.5 14.5 32.5
s11.333 25.667 16 35h-26c-54 0 -83.667 11 -89 33z" />
    <glyph glyph-name="plus" unicode="+" horiz-adv-x="408" 
d="M3 144c10.667 30.667 63.667 46.999 159 48.999v50c0 42 9.66699 76.333 29 103c5.33301 -46 8.33301 -97 9 -153c58.667 -0.666992 112 -3.66699 160 -9c-26.667 -19.333 -61 -29 -103 -29h-57c-2 -99.333 -18.333 -154.666 -49 -165.999c7.33301 46 11 101.333 11 166
c-61.333 0 -114.333 -3.66699 -159 -11z" />
    <glyph glyph-name="comma" unicode="," horiz-adv-x="196" 
d="M-10 -51c0 22 6.66602 45.3311 19.999 69.998s27 37 41 37c6.66699 0 12.5 -2.83301 17.5 -8.5s7.5 -12.167 7.5 -19.5c-6 -6 -11.667 -12.5 -17 -19.5s-9.66602 -13.167 -12.999 -18.5s-7.16602 -12.166 -11.499 -20.499l-9.5 -18.5l-10 -20
c-4.66699 -9.33301 -7.33398 -15.666 -8.00098 -18.999c-11.333 6.66699 -17 19 -17 37z" />
    <glyph glyph-name="hyphen" unicode="-" horiz-adv-x="484" 
d="M36 144c12 32.667 75 49 189 49c54 0 110 -3 168 -9c-26.667 -19.333 -61 -29 -103 -29h-95c-60 0 -113 -3.66699 -159 -11z" />
    <glyph glyph-name="period" unicode="." horiz-adv-x="214" 
d="M8 17c0 10.667 6.33301 20.167 19 28.5s25.667 12.5 39 12.5c17.333 0 26 -8 26 -24c0 -10 -5.5 -19.833 -16.5 -29.5s-22.833 -14.5 -35.5 -14.5c-21.333 0 -32 9 -32 27z" />
    <glyph glyph-name="slash" unicode="/" horiz-adv-x="330" 
d="M-68 -162c62 62 188.666 341.001 379.999 837.001c3.33301 10 14.333 20 33 30s35.667 15 51 15c-32.667 -84.667 -129 -317.334 -289 -698.001c-24.667 -58 -52.667 -103.167 -84 -135.5s-61.666 -48.5 -90.999 -48.5z" />
    <glyph glyph-name="zero" unicode="0" horiz-adv-x="630" 
d="M53 174c0 78 14.834 158.501 44.501 241.501s73.167 154.5 130.5 214.5s119.666 90 186.999 90c60.667 0 108.834 -22.333 144.501 -67s53.5 -104.334 53.5 -179.001c0 -90.667 -15.833 -178.834 -47.5 -264.501s-76.334 -156.5 -134.001 -212.5s-120.167 -84 -187.5 -84
c-62.667 0 -110.167 24.833 -142.5 74.5s-48.5 111.834 -48.5 186.501zM137.001 153.001c0 -62.667 10.833 -112.668 32.5 -150.001s51.167 -56 88.5 -56c48 0 94 30.5 138 91.5s78.5 133.667 103.5 218s37.5 163.833 37.5 238.5c0 60.667 -9.66699 108.834 -29 144.501
s-50 53.5 -92 53.5c-42.667 0 -82.5 -19.333 -119.5 -58s-66.5 -86.667 -88.5 -144s-39.333 -116 -52 -176s-19 -114 -19 -162z" />
    <glyph glyph-name="one" unicode="1" horiz-adv-x="365" 
d="M-46 -46c13.333 -1.33301 24 -2.00098 32 -2.00098c29.333 0 65.333 3.66699 108 11c24 56 53.667 172.5 89 349.5s53.666 267.5 54.999 271.5c-62 -44 -100.333 -66 -115 -66c-8.66699 0 -15 2 -19 6s-6 11.667 -6 23c22 11.333 54.333 34 97 68s80.334 69 113.001 105
c6 -5.33301 9 -15.666 9 -30.999c0 -12 -3.5 -31.167 -10.5 -57.5s-11.167 -44.5 -12.5 -54.5c-40.667 -276 -91.334 -478.333 -152.001 -607c14 2 27.333 3 40 3c28 0 50.167 -4 66.5 -12s26.5 -22.667 30.5 -44c-30 3.33301 -56.333 5 -79 5c-22 0 -51.5 -1.5 -88.5 -4.5
s-64.167 -4.5 -81.5 -4.5c-13.333 0 -27.166 3.66699 -41.499 11s-25.833 17.333 -34.5 30z" />
    <glyph glyph-name="two" unicode="2" horiz-adv-x="559" 
d="M-19 0c0 32 25.001 48 75.001 48c23.333 0 58.333 -4.66699 105 -14c66.667 59.333 128 139.5 184 240.5s84 193.167 84 276.5c0 48 -9.66699 83.667 -29 107s-45 35 -77 35c-42.667 0 -76.167 -19 -100.5 -57s-36.5 -86.333 -36.5 -145c0 -23.333 4 -46 12 -68h-5
c-24 6 -41.667 15.667 -53 29s-17 33.333 -17 60c0 55.333 20.5 103.833 61.5 145.5s92.5 62.5 154.5 62.5c48 0 86.667 -17.333 116 -52s44 -78 44 -130c0 -62 -15.667 -127.667 -47 -197c-26 -58 -61 -115.667 -105 -173s-90 -105.666 -138 -144.999l28 -6
c89.333 -20.667 151.666 -31 186.999 -31c22.667 0 48 8.33301 76 25c-16 -65.333 -50 -98 -102 -98c-36.667 0 -100.667 19.333 -192 58c-4 1.33301 -10.833 4.16602 -20.5 8.49902s-17.167 7.5 -22.5 9.5c-44.667 -28.667 -82.667 -43 -114 -43c-20 0 -36.333 5 -49 15
s-19 23 -19 39zM12.001 -2c0 -7.33301 3.66797 -13.333 11.001 -18s15.666 -7 24.999 -7c19.333 0 44.333 10.333 75 31c-34 12 -59.333 18 -76 18c-12 0 -20.833 -2.5 -26.5 -7.5s-8.5 -10.5 -8.5 -16.5z" />
    <glyph glyph-name="three" unicode="3" horiz-adv-x="510" 
d="M6 55c0 28 7.33203 52.998 21.999 74.998s34.334 33 59.001 33c8.66699 0 14.667 -0.333008 18 -1c-9.33301 -8 -17 -21 -23 -39s-9 -36 -9 -54c0 -33.333 9.83301 -62.333 29.5 -87s45.167 -37 76.5 -37c41.333 0 78.666 21.167 111.999 63.5s50 95.5 50 159.5
c0 44 -8.83301 83 -26.5 117s-45.834 56 -84.501 66c47.333 21.333 86.166 56.333 116.499 105s45.5 95.334 45.5 140.001c0 33.333 -8.66699 57.833 -26 73.5s-38.666 23.5 -63.999 23.5c-30 0 -56.5 -9.83301 -79.5 -29.5s-34.5 -45.834 -34.5 -78.501
c0 -22.667 5.33301 -45 16 -67c-3.33301 -7.33301 -9.16602 -13.833 -17.499 -19.5s-15.833 -8.5 -22.5 -8.5c-11.333 0 -20.333 8.33301 -27 25s-10 34.667 -10 54c0 46 19 82.667 57 110s81.333 41 130 41c42.667 0 79 -11.167 109 -33.5s45 -54.166 45 -95.499
c0 -46 -17.333 -92.667 -52 -140s-75.667 -77.333 -123 -90c52 -13.333 90 -38.5 114 -75.5s36 -76.167 36 -117.5c0 -65.333 -26.667 -124.166 -80 -176.499s-117.666 -78.5 -192.999 -78.5c-56 0 -97.333 14.5 -124 43.5s-40 61.833 -40 98.5z" />
    <glyph glyph-name="four" unicode="4" horiz-adv-x="478" 
d="M-8 221c0 18 6.00293 31.998 18.0029 41.998c25.333 30 68.5 73.667 129.5 131s118.167 114 171.5 170s93.666 108 120.999 156c7.33301 -2.66699 11 -11.334 11 -26.001c0 -15.333 -6.33301 -33.666 -19 -54.999c-18.667 -78.667 -42.667 -195.667 -72 -351h42
c25.333 0 45.333 2 60 6c-12 -17.333 -26.833 -31.5 -44.5 -42.5s-32.834 -16.5 -45.501 -16.5h-22c-5.33301 -26.667 -9 -46.667 -11 -60c-6.66699 -35.333 -14 -83.166 -22 -143.499s-12 -99.833 -12 -118.5c-51.333 4.66699 -77 20.334 -77 47.001
c2.66699 24.667 12 81.334 28 170.001c0.666992 5.33301 8 40.666 22 105.999c-10.667 0 -25.334 0.166992 -44.001 0.5s-31.667 0.5 -39 0.5c-78.667 0 -143.667 -5.33301 -195 -16zM80.0029 287.998c24 3.33301 57.668 4.99902 101.001 4.99902
c27.333 0 61 -0.666992 101 -2c26.667 118 47.667 202.667 63 254c-21.333 -22 -60.5 -59.167 -117.5 -111.5s-97.167 -91.166 -120.5 -116.499c-4 -4 -8.83301 -9.16699 -14.5 -15.5s-9.83398 -10.833 -12.501 -13.5z" />
    <glyph glyph-name="five" unicode="5" horiz-adv-x="483" 
d="M-3 54c0 28.667 7.33105 54.0039 21.998 76.0039s34.334 33 59.001 33c8.66699 0 14.667 -0.333008 18 -1c-21.333 -18 -32 -50.333 -32 -97c0 -34 8.33301 -62.5 25 -85.5s42.334 -34.5 77.001 -34.5c50 0 90.5 23.667 121.5 71s46.5 100 46.5 158
c0 45.333 -11 82.666 -33 111.999s-55.667 44 -101 44c-24.667 0 -55.334 -3.66699 -92.001 -11c4 27.333 13 67.666 27 120.999l47 167l30 106c34.667 -8.66699 70 -13 106 -13c39.333 0 91 6.66699 155 20c2.66699 -10 4 -19 4 -27c0 -26.667 -12 -45.834 -36 -57.501
s-53 -17.5 -87 -17.5c-18.667 0 -40 2.16699 -64 6.5s-39 6.5 -45 6.5s-10.333 -1.16699 -13 -3.5s-6 -7.83301 -10 -16.5c-8 -18.667 -18 -48.667 -30 -90s-22.667 -80.333 -32 -117s-14 -55.334 -14 -56.001c31.333 6.66699 60.333 10 87 10
c64.667 0 113.834 -17.333 147.501 -52s50.5 -80.334 50.5 -137.001c0 -72.667 -25 -133.5 -75 -182.5s-113.333 -73.5 -190 -73.5c-58.667 0 -101.5 14.333 -128.5 43s-40.5 61.334 -40.5 98.001z" />
    <glyph glyph-name="six" unicode="6" horiz-adv-x="561" 
d="M49 160c0 38 4.16992 78.167 12.5029 120.5s20.166 84.333 35.499 126s34.5 81.334 57.5 119.001s48.333 71 76 100s59.167 52 94.5 69s71.666 25.5 108.999 25.5c28.667 0 51.5 -4.83301 68.5 -14.5s25.5 -24.167 25.5 -43.5c0 -22.667 -15.333 -38.667 -46 -48
c0 3.33301 0.333008 7.66602 1 12.999s1 10.333 1 15c0 36.667 -18.333 55 -55 55c-40 0 -78.833 -20.333 -116.5 -61s-68.667 -89.167 -93 -145.5s-44.166 -116.833 -59.499 -181.5c46.667 43.333 103 65 169 65c53.333 0 97.166 -16.333 131.499 -49s51.5 -81 51.5 -145
c0 -76 -24.333 -139.5 -73 -190.5s-110.667 -76.5 -186 -76.5c-70.667 0 -122.334 22.667 -155.001 68s-49 105 -49 179zM138.003 140c0 -21.333 1.66797 -42.167 5.00098 -62.5s9 -41 17 -62s20.5 -38 37.5 -51s37.167 -19.5 60.5 -19.5c48.667 0 88.667 25 120 75
s47 105.333 47 166c0 50.667 -11.833 89 -35.5 115s-53.5 39 -89.5 39c-56.667 0 -97.834 -18.833 -123.501 -56.5s-38.5 -85.5 -38.5 -143.5z" />
    <glyph glyph-name="seven" unicode="7" horiz-adv-x="403" 
d="M59 289c0.666992 18.667 8.82715 33.165 24.4941 43.498s32.334 16.5 50.001 18.5s39.834 3 66.501 3h24c20.667 39.333 51.334 93 92.001 161l73 120c-11.333 0 -37 -1 -77 -3s-68 -3 -84 -3c-68 0 -102 15.667 -102 47c0 12 4.33301 26 13 42
c6 -0.666992 18.5 -2.83398 37.5 -6.50098s33.167 -6.16699 42.5 -7.5s23.5 -2.66602 42.5 -3.99902s39.167 -2 60.5 -2c72.667 0 128.667 6.66699 168 20c-20.667 -33.333 -38.667 -58.333 -54 -75c-54 -79.333 -107.333 -176.666 -160 -291.999
c61.333 -3.33301 94.333 -5 99 -5c13.333 0 24 1 32 3c-23.333 -34 -49.666 -51 -78.999 -51c-28.667 0 -54 0.333008 -76 1l-18 -43c-9.33301 -22 -16 -38.667 -20 -50l-18 -49c-7.33301 -20.667 -13.166 -38 -17.499 -52s-8 -29.667 -11 -47s-4.5 -33 -4.5 -47
c0 -19.333 4 -32 12 -38c-9.33301 -20 -22 -35 -38 -45s-30 -15 -42 -15c-9.33301 0 -17.333 4 -24 12s-10 19 -10 33c0 47.333 44.667 161 134 341c-57.333 -1.33301 -102.666 -4.66602 -135.999 -9.99902z" />
    <glyph glyph-name="eight" unicode="8" horiz-adv-x="527" 
d="M29 77c0 16 1.83301 31.167 5.5 45.5s10.5 28.833 20.5 43.5l25 35c6.66699 9.33301 19 21.666 37 36.999s31 26 39 32l46 34l43 32c-36 39.333 -63.667 75.333 -83 108s-29 69.334 -29 110.001c0 54.667 18.5 95.834 55.5 123.501s80.167 41.5 129.5 41.5
c46 0 82.667 -12.5 110 -37.5s41 -60.5 41 -106.5c0 -44.667 -12.5 -84.5 -37.5 -119.5s-60.167 -70.5 -105.5 -106.5c28 -30.667 48.833 -54.167 62.5 -70.5s27.667 -39.333 42 -69s21.5 -58.834 21.5 -87.501c0 -62 -25 -112.333 -75 -151s-107.667 -58 -173 -58
c-60.667 0 -105 16.833 -133 50.5s-42 71.5 -42 113.5zM90 80c0 -38 12.501 -68.833 37.501 -92.5s53.833 -35.5 86.5 -35.5c39.333 0 75.166 15.833 107.499 47.5s48.5 71.167 48.5 118.5c0 34 -8.5 65.167 -25.5 93.5s-41.5 60.166 -73.5 95.499
c-30.667 -22 -53.667 -39.333 -69 -52s-33.333 -29.167 -54 -49.5s-35.5 -40.666 -44.5 -60.999s-13.5 -41.833 -13.5 -64.5zM211.001 567c0 -34 7.66602 -65.667 22.999 -95s37.333 -60.333 66 -93c74 62 111 127.667 111 197c0 37.333 -8.83301 66 -26.5 86
s-39.5 30 -65.5 30c-27.333 0 -52.166 -10.333 -74.499 -31s-33.5 -52 -33.5 -94z" />
    <glyph glyph-name="nine" unicode="9" horiz-adv-x="566" 
d="M86 462c0 74 23.3311 135.503 69.998 184.503s106.667 73.5 180 73.5s127.166 -24.167 161.499 -72.5s51.5 -111.5 51.5 -189.5c0 -57.333 -8.66699 -117.5 -26 -180.5s-41.166 -121.833 -71.499 -176.5s-69.166 -99.667 -116.499 -135s-98 -53 -152 -53
c-64 0 -96 20 -96 60c0 21.333 14.667 36.666 44 45.999c0 -3.33301 -0.166992 -7.33301 -0.5 -12s-0.5 -9 -0.5 -13c0 -38.667 19 -58 57 -58c30.667 0 60.167 11.5 88.5 34.5s53 53.667 74 92s39.333 79.666 55 123.999s28.167 90.166 37.5 137.499
c-43.333 -43.333 -98.666 -65 -165.999 -65c-54.667 0 -100 17.167 -136 51.5s-54 84.833 -54 151.5zM172.998 456.003c0 -54 12.5029 -94.668 37.5029 -122.001s56.167 -41 93.5 -41c51.333 0 89.666 15.667 114.999 47s38 74.333 38 129
c0 27.333 -1.83301 52.833 -5.5 76.5s-9.83398 46.834 -18.501 69.501s-21.667 40.5 -39 53.5s-38 19.5 -62 19.5c-46.667 0 -84.834 -23.833 -114.501 -71.5s-44.5 -101.167 -44.5 -160.5z" />
    <glyph glyph-name="colon" unicode=":" horiz-adv-x="216" 
d="M10 17c0 10.667 6.33301 20.167 19 28.5s25.667 12.5 39 12.5c17.333 0 26 -8 26 -24c0 -10 -5.5 -19.833 -16.5 -29.5s-22.833 -14.5 -35.5 -14.5c-21.333 0 -32 9 -32 27zM70 267c0 10.667 6.33301 20.167 19 28.5s25.667 12.5 39 12.5c17.333 0 26 -8 26 -24
c0 -10 -5.5 -19.833 -16.5 -29.5s-22.833 -14.5 -35.5 -14.5c-21.333 0 -32 9 -32 27z" />
    <glyph glyph-name="semicolon" unicode=";" horiz-adv-x="213" 
d="M1 -51c0 22 6.66602 45.332 19.999 69.999s27 37 41 37c6.66699 0 12.5 -2.83301 17.5 -8.5s7.5 -12.167 7.5 -19.5c-6 -6 -11.667 -12.5 -17 -19.5s-9.66602 -13.167 -12.999 -18.5s-7.33301 -12.333 -12 -21l-9 -18l-9 -20
c-4.66699 -9.33301 -7.66699 -15.666 -9 -18.999c-11.333 6.66699 -17 19 -17 37zM69.999 266.999c0 10.667 6.33301 20.167 19 28.5s25.667 12.5 39 12.5c17.333 0 26 -8 26 -24c0 -10 -5.5 -19.833 -16.5 -29.5s-22.833 -14.5 -35.5 -14.5c-21.333 0 -32 9 -32 27z" />
    <glyph glyph-name="less" unicode="&#x3c;" horiz-adv-x="310" 
d="M21 158c32.667 14 67.167 36.332 103.5 66.999s65.166 61 86.499 91c3.33301 -5.33301 5 -12.666 5 -21.999c0 -39.333 -56.333 -88.333 -169 -147l43 -30c10 -6.66699 25 -15 45 -25s44.667 -20.667 74 -32c-9.33301 -10.667 -19 -16 -29 -16c-24 0 -55.167 14 -93.5 42
s-60.166 52 -65.499 72z" />
    <glyph glyph-name="equal" unicode="=" horiz-adv-x="503" 
d="M52 106c12 32.667 75 49 189 49c54 0 110 -3 168 -9c-26.667 -19.333 -61 -29 -103 -29h-101c-57.333 0 -108.333 -3.66699 -153 -11zM52 206c12 32.667 75 49 189 49c54 0 110 -3 168 -9c-26.667 -19.333 -61 -29 -103 -29h-101c-57.333 0 -108.333 -3.66699 -153 -11z
" />
    <glyph glyph-name="greater" unicode="&#x3e;" horiz-adv-x="324" 
d="M61 294c0 9.33301 1.66699 16.667 5 22c21.333 -30 50.166 -60.333 86.499 -91s70.833 -53 103.5 -67c-5.33301 -20 -27.166 -44 -65.499 -72s-69.5 -42 -93.5 -42c-10 0 -19.667 5.33301 -29 16c29.333 11.333 54 22 74 32s35 18.333 45 25l43 30
c-112.667 58.667 -169 107.667 -169 147z" />
    <glyph glyph-name="question" unicode="?" horiz-adv-x="437" 
d="M108 500c0 58.667 20.001 110 60.001 154s90 66 150 66c42 0 75 -11.5 99 -34.5s36 -55.833 36 -98.5c0 -27.333 -5.33301 -53 -16 -77s-24.334 -45.667 -41.001 -65l-50 -59c-17.333 -19.333 -34.333 -42 -51 -68s-29 -53 -37 -81
c-4 -13.333 -7.83301 -32.5 -11.5 -57.5s-8.16699 -43.5 -13.5 -55.5c-12.667 6.66699 -21 12.834 -25 18.501s-6 15.167 -6 28.5c0 29.333 6.5 57.833 19.5 85.5s29.167 53.167 48.5 76.5l56 71c18.667 23.333 34.5 50.166 47.5 80.499s19.5 61.833 19.5 94.5
c0 36 -7.33301 63.833 -22 83.5s-33.667 29.5 -57 29.5c-36.667 0 -71 -21.167 -103 -63.5s-48 -91.833 -48 -148.5c0 -16 2.33301 -35 7 -57c-24 4 -40.333 12.333 -49 25s-13 30 -13 52zM160.001 16c0 11.333 6.16699 21.167 18.5 29.5s25.5 12.5 39.5 12.5
c17.333 0 26 -7.33301 26 -22c0 -11.333 -5.33301 -21.833 -16 -31.5s-22.667 -14.5 -36 -14.5c-8.66699 0 -16.167 2.33301 -22.5 7s-9.5 11 -9.5 19z" />
    <glyph glyph-name="at" unicode="@" horiz-adv-x="583" 
d="M3 88c0 80 30.335 151.17 91.002 213.503s136.667 93.5 228 93.5c68.667 0 121 -17.833 157 -53.5s54 -78.167 54 -127.5c0 -50.667 -17.5 -97.5 -52.5 -140.5s-75.5 -64.5 -121.5 -64.5c-42.667 0 -64 19.667 -64 59c0 4 0.666992 10.667 2 20
c-46 -62 -89.667 -93 -131 -93c-17.333 0 -31.5 5.66699 -42.5 17s-16.5 27.666 -16.5 48.999c0 50 24.5 103.5 73.5 160.5s98.5 85.5 148.5 85.5c20.667 0 38 -5.5 52 -16.5s21 -25.5 21 -43.5c0 -22.667 -13.333 -34 -40 -34c2.66699 7.33301 4 16.333 4 27
c0 30 -12.667 45 -38 45c-36 0 -72.667 -27.167 -110 -81.5s-56 -102.166 -56 -143.499c0 -21.333 7.33301 -32 22 -32c12 0 25.5 5.66699 40.5 17s31.5 28.166 49.5 50.499s31.667 39.833 41 52.5l37 54c6.66699 -0.666992 13.667 -2.83398 21 -6.50098
s11 -8.16699 11 -13.5c0 -4.66699 -7.66699 -20.667 -23 -48s-23 -49 -23 -65c0 -22 11.333 -33 34 -33c31.333 0 60.666 18 87.999 54s41 75.333 41 118s-15 79.5 -45 110.5s-74.667 46.5 -134 46.5c-81.333 0 -148.833 -29 -202.5 -87s-80.5 -122.667 -80.5 -194
c0 -50.667 15 -93.334 45 -128.001s76 -52 138 -52c78 0 149.333 28.333 214 85l6 -8c-60 -68 -135.333 -102 -226 -102c-70.667 0 -123.834 20.167 -159.501 60.5s-53.5 89.833 -53.5 148.5z" />
    <glyph glyph-name="A" unicode="A" 
d="M-17 -35c0 50 50.665 154.331 151.998 312.998c-40.667 3.33301 -76.667 5 -108 5h-35c12.667 34.667 47.334 52 104.001 52c17.333 0 41.333 -2.33301 72 -7c51.333 77.333 103.5 150.166 156.5 218.499s94.833 116.833 125.5 145.5c19.333 18.667 35.333 28 48 28
c14 0 31.667 -10.667 53 -32c-22 -17.333 -53.5 -100.166 -94.5 -248.499s-61.5 -263.5 -61.5 -345.5c0 -53.333 12.333 -80 37 -80c36.667 0 80.334 49.333 131.001 148l10 -10c-20.667 -54.667 -46.5 -98.667 -77.5 -132s-62.833 -50 -95.5 -50c-52 0 -78 44.667 -78 134
c0 42.667 5.66699 92.334 17 149.001c-42.667 6.66699 -92 13.334 -148 20.001c-65.333 -120 -123.333 -240 -174 -360c-22.667 12.667 -34 30 -34 52zM216.998 318.998l73 -17c31.333 -7.33301 50 -12 56 -14c28 131.333 68 254.333 120 369
c-60.667 -37.333 -143.667 -150 -249 -338z" />
    <glyph glyph-name="B" unicode="B" horiz-adv-x="608" 
d="M19 -7c0 2 1.66699 3.00195 5 3.00195c1.33301 0 5.33301 -0.833008 12 -2.5s17 -3.33398 31 -5.00098s31 -2.5 51 -2.5c112 0 206.333 23.833 283 71.5s115 102.834 115 165.501c0 84 -84 126 -252 126c-9.33301 0 -22.333 -0.166992 -39 -0.5s-28.667 -0.5 -36 -0.5
l-90 -322c-16.667 0 -30.667 4.66699 -42 14s-17 20.666 -17 33.999c0 6 4.66699 25 14 57c10.667 36 25.334 82 44.001 138s44.667 127.667 78 215s63.333 156.666 90 207.999c-24.667 -4.66699 -47.5 -11.5 -68.5 -20.5s-37.167 -16.833 -48.5 -23.5s-18.333 -10 -21 -10
c-5.33301 0 -12 3.33301 -20 10s-12 12.334 -12 17.001c29.333 12 52.666 21.167 69.999 27.5s41.333 12.5 72 18.5s62.334 9 95.001 9c26.667 0 51.667 -2 75 -6s47.666 -11 72.999 -21s45.5 -26.333 60.5 -49s22.5 -50.334 22.5 -83.001
c0 -104.667 -76.333 -169.667 -229 -195c152 -9.33301 228 -63 228 -161c0 -46 -15.333 -88.333 -46 -127s-69 -69.5 -115 -92.5s-93 -40.833 -141 -53.5s-91.667 -19 -131 -19c-74 0 -111 26.667 -111 80zM195 371.002c39.333 1.33301 76.166 5.66699 110.499 13
s67 18.333 98 33s55.5 35 73.5 61s27 56.333 27 91c0 86.667 -56.333 130 -169 130c-8.66699 0 -15 -0.333008 -19 -1c-39.333 -76.667 -79.666 -185.667 -120.999 -327z" />
    <glyph glyph-name="C" unicode="C" horiz-adv-x="534" 
d="M22 157c0 64 12.6689 130.167 38.002 198.5s57.333 129 96 182s83 96.5 133 130.5s98 51 144 51c61.333 0 92 -28.667 92 -86c0 -41.333 -12.833 -87.166 -38.5 -137.499s-51.5 -75.5 -77.5 -75.5c-13.333 0 -23.666 7.66699 -30.999 23c24.667 28 48.667 62 72 102
s35 73 35 99c0 30 -16.333 45 -49 45c-46 0 -95.5 -29.833 -148.5 -89.5s-97.167 -132.834 -132.5 -219.501s-53 -166.667 -53 -240c0 -54.667 11.667 -100.5 35 -137.5s58.666 -55.5 105.999 -55.5c51.333 0 102.666 21 153.999 63s90.666 92.667 117.999 152l14 -10
c-36 -70.667 -80.833 -128.167 -134.5 -172.5s-112.167 -66.5 -175.5 -66.5c-66 0 -115.333 23.667 -148 71s-49 105 -49 173z" />
    <glyph glyph-name="D" unicode="D" horiz-adv-x="653" 
d="M56 -42c17.333 83.333 45.168 186.833 83.501 310.5s68.166 213.5 89.499 269.5c24 62.667 50 94 78 94c9.33301 0 18.666 -3.33301 27.999 -10c-40 -92.667 -80.5 -204 -121.5 -334s-72.5 -245 -94.5 -345c16 -2.66699 30.333 -4 43 -4
c68.667 0 134.667 25.833 198 77.5s114 117.5 152 197.5s57 161 57 243c0 78 -18.333 136.833 -55 176.5s-86.667 59.5 -150 59.5c-65.333 0 -119.833 -18.667 -163.5 -56s-65.5 -83.666 -65.5 -138.999c0 -14.667 1.66699 -27 5 -37c-40 0 -60 18.667 -60 56
c0 48.667 31.667 94.667 95 138s136.333 65 219 65c84.667 0 147.334 -25 188.001 -75s61 -116.333 61 -199c0 -70 -14.167 -138.167 -42.5 -204.5s-65 -123.333 -110 -171s-96.333 -85.834 -154 -114.501s-115.5 -43 -173.5 -43c-50 0 -85.667 15 -107 45z" />
    <glyph glyph-name="E" unicode="E" horiz-adv-x="498" 
d="M-15 95c0 62 25.334 118.999 76.001 170.999s111.667 81.333 183 88c-50.667 42 -76 94.667 -76 158c0 54.667 19.833 102.834 59.5 144.501s88.5 62.5 146.5 62.5c36.667 0 64.834 -9.33301 84.501 -28s29.5 -45.334 29.5 -80.001c0 -36 -9 -70.167 -27 -102.5
s-35.667 -48.5 -53 -48.5c-14.667 0 -27 10.667 -37 32c56 48.667 84 95 84 139c0 43.333 -23.667 65 -71 65c-44.667 0 -79.667 -19.167 -105 -57.5s-38 -86.166 -38 -143.499c0 -67.333 19.333 -117.666 58 -150.999c-64 -10.667 -116.833 -41.334 -158.5 -92.001
s-62.5 -104 -62.5 -160c0 -38 10.5 -71.667 31.5 -101s53.167 -44 96.5 -44c51.333 0 102.666 21 153.999 63s90.666 92.667 117.999 152l14 -10c-37.333 -72 -82.666 -129.833 -135.999 -173.5s-112 -65.5 -176 -65.5c-58.667 0 -105.834 17.5 -141.501 52.5
s-53.5 78.167 -53.5 129.5z" />
    <glyph glyph-name="F" unicode="F" horiz-adv-x="482" 
d="M66 539c0 51.333 26.5 93.4941 79.5 126.494s118.167 49.5 195.5 49.5c24 0 58 -2.5 102 -7.5s76.333 -7.5 97 -7.5c26.667 0 51.334 3.33301 74.001 10c-23.333 -26.667 -43.333 -45 -60 -55s-34.334 -15 -53.001 -15c-11.333 0 -33.666 2.33301 -66.999 7l-75 10
c-18.667 -45.333 -50.667 -139.666 -96 -282.999c21.333 -1.33301 51.666 -4.16602 90.999 -8.49902s67.333 -6.83301 84 -7.5c-10.667 -15.333 -25.834 -24.666 -45.501 -27.999s-67.834 -5.66602 -144.501 -6.99902l-44 -149c-33.333 -112 -50.666 -199 -51.999 -261
c-28 2 -46.333 9.33301 -55 22s-13 31.667 -13 57c0 10 0.833008 20.833 2.5 32.5s4.83398 25.834 9.50098 42.501l12 42c3.33301 12 9 29.333 17 52l17 49c3.33301 10 10.333 29 21 57l19 52c-16.667 -1.33301 -42.334 -4.33301 -77.001 -9l-34 -5
c2.66699 44 46.334 67.333 131.001 70c43.333 119.333 82 214.333 116 285c-17.333 1.33301 -30.333 2 -39 2c-62 0 -104.167 -9.5 -126.5 -28.5s-33.5 -50.167 -33.5 -93.5c0 -27.333 4.33301 -53.666 13 -78.999c-44 7.33301 -66 33.333 -66 78z" />
    <glyph glyph-name="G" unicode="G" horiz-adv-x="554" 
d="M22 161c0 83.333 20.833 168.834 62.5 256.501s94.834 159.834 159.501 216.501s127.667 85 189 85c35.333 0 61.5 -10.667 78.5 -32s25.5 -48.333 25.5 -81c0 -36 -8.83301 -69.333 -26.5 -100s-38.167 -46 -61.5 -46c-13.333 0 -23.666 7.66699 -30.999 23
c16 11.333 33 33.333 51 66s27 61.667 27 87c0 35.333 -19.667 53 -59 53h-1c-46 0 -95.5 -30 -148.5 -90s-97.167 -133.333 -132.5 -220s-53 -166 -53 -238c0 -59.333 12.5 -106.5 37.5 -141.5s57.167 -52.5 96.5 -52.5c49.333 0 93.666 32.667 132.999 98
s61.666 133.666 66.999 204.999c-38.667 8.66699 -73 13 -103 13c-5.33301 0 -14.666 -0.166992 -27.999 -0.5s-24.333 -0.5 -33 -0.5c8 34.667 30.667 52 68 52c22 0 54.833 -7.66699 98.5 -23s67.167 -23.333 70.5 -24l-7 -32c-40.667 -106 -61 -187.333 -61 -244
c0 -10 0.666992 -23.833 2 -41.5s2 -29.834 2 -36.501c-36 14 -54 37.667 -54 71c0 15.333 2.33301 31 7 47c-56.667 -78.667 -119.334 -118 -188.001 -118h-1c-54 0 -98.667 22.167 -134 66.5s-53 104.833 -53 181.5z" />
    <glyph glyph-name="H" unicode="H" horiz-adv-x="617" 
d="M55 -87c16 90.667 52.6641 224.333 109.997 401l-66 -7c0.666992 29.333 28.334 49.666 83.001 60.999l85 251c9.33301 27.333 14 46.666 14 57.999c0 10 -4.66699 15 -14 15c-30 0 -58.167 -22.167 -84.5 -66.5s-39.5 -84.833 -39.5 -121.5c0 -12.667 1.66699 -24 5 -34
c-40 0 -60 19 -60 57c0 43.333 23.5 86.333 70.5 129s90.167 64 129.5 64c30.667 0 46 -16 46 -48c0 -11.333 -2.66699 -25.666 -8 -42.999l-78 -254c24 1.33301 43.333 2 58 2c52 0 108.667 -3 170 -9c49.333 162 83 262 101 300c16 34.667 34.333 52 55 52
c-28 -74 -63 -192.667 -105 -356c6.66699 0 18.5 -0.666992 35.5 -2s30.167 -2 39.5 -2c-20 -21.333 -47.333 -32 -82 -32h-2c-14 -57.333 -24.333 -103 -31 -137c-22 -103.333 -33 -183 -33 -239v-3c0 -12 0.666992 -24 2 -36
c-25.333 2.66699 -43.166 9.83398 -53.499 21.501s-15.5 30.5 -15.5 56.5c0 38.667 8 89 24 151c10.667 44 28.334 105.667 53.001 185c-111.333 -0.666992 -189 -3 -233 -7c-57.333 -180.667 -93 -295 -107 -343c-6.66699 -21.333 -16.667 -37.333 -30 -48
s-26.333 -16 -39 -16z" />
    <glyph glyph-name="I" unicode="I" horiz-adv-x="459" 
d="M-38 -88c2 17.333 7.33496 31.6641 16.002 42.9971s21.167 19.5 37.5 24.5s32.5 8.33301 48.5 10s36.333 2.5 61 2.5c28 60.667 63.333 181.667 106 363s68 283.333 76 306c-88.667 -2 -163.667 -8.66699 -225 -20c9.33301 51.333 76.666 77 201.999 77h2
c80.667 0 168 -7 262 -21c-23.333 -23.333 -55 -35 -95 -35h-2c-52 0 -88.333 -0.333008 -109 -1c-49.333 -265.333 -82.333 -431.666 -99 -498.999c-23.333 -92 -51.333 -149 -84 -171c19.333 -1.33301 54.5 -4.66602 105.5 -9.99902s88.167 -8.33301 111.5 -9
c-28.667 -28.667 -66.334 -43 -113.001 -43h-61c-32.667 0 -54.834 -0.333008 -66.501 -1s-29.667 -1.5 -54 -2.5s-45.666 -2.66699 -63.999 -5s-36.833 -5.16602 -55.5 -8.49902z" />
    <glyph glyph-name="J" unicode="J" horiz-adv-x="411" 
d="M-31 44c0 42 7.16992 80.5 21.5029 115.5s32.5 52.5 54.5 52.5c8 0 17.333 -2.66699 28 -8c-24 -61.333 -36 -114.666 -36 -159.999c0 -63.333 20.667 -95 62 -95h1c18 0 33.667 7.66699 47 23s27.333 42.666 42 81.999c23.333 64.667 50.166 161 80.499 289
s53.833 236 70.5 324c-82 -0.666992 -149.333 -7.33398 -202 -20.001c7.33301 47.333 61.666 71 162.999 71c65.333 0 135 -7 209 -21c-11.333 -19.333 -37 -29 -77 -29c-9.33301 0 -21.833 -0.166992 -37.5 -0.5s-26.834 -0.5 -33.501 -0.5c14 -11.333 21 -27 21 -47
c0 -32.667 -15 -114.667 -45 -246s-62.333 -235.666 -97 -312.999c-24.667 -56 -50 -94.5 -76 -115.5s-55.333 -31.5 -88 -31.5c-72 0 -108 43.333 -108 130z" />
    <glyph glyph-name="K" unicode="K" horiz-adv-x="590" 
d="M30 -69l17.998 41.9971c6 14.667 13.333 33.667 22 57l24 65l31 92l38 110l50 146l60 176c8.66699 24 13 40.333 13 49c0 16 -8 24 -24 24c-30 0 -58.167 -22.167 -84.5 -66.5s-39.5 -84.833 -39.5 -121.5c0 -12.667 1.66699 -24 5 -34c-40 0 -60 19 -60 57
c0 43.333 23.5 86.333 70.5 129s90.167 64 129.5 64c30.667 0 46 -16 46 -48c0 -11.333 -2.66699 -25.666 -8 -42.999l-84 -272c4.66699 6 10.5 12.5 17.5 19.5s13.167 12.833 18.5 17.5l25 19l25 20c50 40 100.833 86.333 152.5 139s91.834 102 120.501 148
c6 -8 9 -22.667 9 -44c0 -72.667 -121.333 -190.667 -364 -354l48 -81c8.66699 -14.667 23.667 -37.5 45 -68.5s40.5 -56 57.5 -75s39.167 -42.167 66.5 -69.5s57.666 -54.666 90.999 -81.999c-11.333 -22 -29 -33 -53 -33h-1c-32.667 0 -78.167 42.833 -136.5 128.5
s-105.833 168.834 -142.5 249.501l-97 -314c-3.33301 -10.667 -8.16602 -19.5 -14.499 -26.5s-14.333 -11.667 -24 -14s-17.667 -3.83301 -24 -4.5s-15.166 -1 -26.499 -1z" />
    <glyph glyph-name="L" unicode="L" horiz-adv-x="570" 
d="M-74 34c0 29.333 24.3311 44.002 72.998 44.002c29.333 0 70.333 -7 123 -21c11.333 19.333 23 44.333 35 75s21.5 56.167 28.5 76.5s17.833 53.833 32.5 100.5l29 91c-30.667 10 -54.834 24.667 -72.501 44s-26.5 40.333 -26.5 63c0 19.333 5.83301 37.333 17.5 54
s26.5 25 44.5 25c-8.66699 -12 -13 -32.667 -13 -62c0 -48 19 -82.333 57 -103c14.667 44.667 28.667 83 42 115s28.833 63 46.5 93s37.167 52.667 58.5 68s44 23 68 23c24.667 0 47 -8 67 -24s30 -42 30 -78c0 -24 -5 -49 -15 -75s-24.333 -50.833 -43 -74.5
s-43.834 -43 -75.501 -58s-67.167 -22.5 -106.5 -22.5h-16c-56.667 -170.667 -104.667 -285.334 -144 -344.001c6 -2 21 -6.66699 45 -14l49 -15c8 -2.66699 22.333 -6.66699 43 -12s36.667 -9.16602 48 -11.499s24.5 -4.5 39.5 -6.5s28.5 -3 40.5 -3
c26.667 0 50.334 5.33301 71.001 16c-20 -56.667 -55 -85 -105 -85c-17.333 0 -38.166 3.5 -62.499 10.5s-43.666 13.5 -57.999 19.5s-39.166 17.167 -74.499 33.5s-57 26.166 -65 29.499c-35.333 -39.333 -72.333 -59 -111 -59c-30 0 -54.167 9.66699 -72.5 29
s-27.5 38.666 -27.5 57.999zM-27.002 -4.99805c14 -12.667 30.333 -18.999 49 -18.999c28 0 53.667 15.333 77 46c-49.333 20 -87.333 30 -114 30c-22 0 -33 -6.33301 -33 -19s7 -25.334 21 -38.001zM315.998 407.003c54.667 0.666992 101 28.668 139 84.001
s57 106.666 57 153.999c0 33.333 -12 50 -36 50c-14.667 0 -29 -7 -43 -21s-28 -36.5 -42 -67.5s-26 -60.167 -36 -87.5z" />
    <glyph glyph-name="M" unicode="M" horiz-adv-x="763" 
d="M-17 -87l317.002 702.997c6.66699 14.667 10 28.334 10 41.001c0 17.333 -11.333 26 -34 26c-39.333 0 -69.833 -18.833 -91.5 -56.5s-32.5 -79.5 -32.5 -125.5c0 -8.66699 0.666992 -19 2 -31c-17.333 0 -30.5 8.66699 -39.5 26s-13.5 36 -13.5 56
c0 42.667 21.167 81.334 63.5 116.001s86.166 52 131.499 52c34.667 0 60.167 -15.833 76.5 -47.5s24.5 -90.5 24.5 -176.5c0 -47.333 -3.33301 -118.5 -10 -213.5s-10.334 -155.167 -11.001 -180.5c16 61.333 45.667 135.666 89 222.999s81 157.333 113 210
s59.667 96.334 83 131.001c7.33301 10.667 12.833 18.334 16.5 23.001s8.33398 8.83398 14.001 12.501s12.167 5.5 19.5 5.5c9.33301 0 20 -2.33301 32 -7c-16.667 -40 -31.667 -86.667 -45 -140c-22.667 -88 -43.5 -189.167 -62.5 -303.5s-28.5 -201.5 -28.5 -261.5
c0 -10.667 0.5 -19.834 1.5 -27.501s1.83301 -13.334 2.5 -17.001s2.33398 -9.5 5.00098 -17.5s4.66699 -14.667 6 -20c-33.333 0 -55.333 8 -66 24s-16 45.333 -16 88c0 50 5.33301 107.667 16 173s21.667 121.666 33 168.999l51 197
c-42.667 -54.667 -91.334 -142.167 -146.001 -262.5s-95.334 -219.833 -122.001 -298.5c-7.33301 -2.66699 -12.333 -4 -15 -4c-16.667 0 -28.167 9.83301 -34.5 29.5s-9.5 50.5 -9.5 92.5c0 36.667 2.66699 108 8 214s8 176.333 8 211c0 18.667 -0.666992 37.334 -2 56.001
l-66 -154l-55 -134l-46 -111l-40 -93l-34 -73c-12 -24 -21.833 -42.833 -29.5 -56.5s-16 -26.167 -25 -37.5s-17.333 -19.166 -25 -23.499s-15.5 -6.5 -23.5 -6.5z" />
    <glyph glyph-name="N" unicode="N" horiz-adv-x="640" 
d="M46 -87c9.33301 36 22.668 82.333 40.001 139l74 242l98 325c4.66699 16.667 7 30.334 7 41.001c0 15.333 -5 23 -15 23c-30 0 -56.833 -20.5 -80.5 -61.5s-35.5 -79.833 -35.5 -116.5c0 -13.333 1.66699 -25 5 -35c-40 0 -60 19 -60 57c0 44 23.167 87.167 69.5 129.5
s89.833 63.5 130.5 63.5c12.667 0 24.167 -3.66699 34.5 -11s19.333 -19.166 27 -35.499s14.167 -32.333 19.5 -48s10.333 -37.667 15 -66s8.16699 -52 10.5 -71l9.5 -80.5c14 -124.667 28.667 -236.667 44 -336c12 81.333 38.667 194 80 338s68.333 231 81 261
c4.66699 10.667 13 21.5 25 32.5s24.667 16.5 38 16.5c-38.667 -102.667 -81.334 -244.667 -128.001 -426s-70.334 -308.333 -71.001 -381c-21.333 0 -38.333 6.16699 -51 18.5s-21.667 33.166 -27 62.499c-18 94.667 -48.333 293 -91 595
c-89.333 -320.667 -145.666 -511.334 -168.999 -572.001c-22 -60.667 -43.667 -94.667 -65 -102c-4.66699 -1.33301 -9.66699 -2 -15 -2z" />
    <glyph glyph-name="O" unicode="O" horiz-adv-x="623" 
d="M21 161c0 62.667 12.6631 127.836 37.9961 195.503s57.666 127.834 96.999 180.501s84 96.167 134 130.5s98.333 51.5 145 51.5c24.667 0 44.667 -4 60 -12h-11c-41.333 0 -84.833 -17.833 -130.5 -53.5s-86.167 -80.667 -121.5 -135s-64.666 -115 -87.999 -182
s-35 -130.167 -35 -189.5c0 -58 11.167 -105.833 33.5 -143.5s55.833 -56.5 100.5 -56.5c59.333 0 114.333 30.333 165 91s89.334 133.5 116.001 218.5s40 167.833 40 248.5c0 34 -3.66699 65.5 -11 94.5s-18.666 43.5 -33.999 43.5c-22.667 0 -48.5 -25 -77.5 -75
s-48.167 -96.333 -57.5 -139c-32 7.33301 -48 23.666 -48 48.999c0 35.333 21.833 76.166 65.5 122.499s82.167 69.5 115.5 69.5c16 0 30 -6.16699 42 -18.5s20.833 -28.833 26.5 -49.5s9.83398 -41.167 12.501 -61.5s4 -41.5 4 -63.5
c0 -86.667 -12.667 -166.834 -38 -240.501s-57.5 -133.334 -96.5 -179.001s-80.833 -81.167 -125.5 -106.5s-87.667 -38 -129 -38c-57.333 0 -103.666 22.667 -138.999 68s-53 105.333 -53 180z" />
    <glyph glyph-name="P" unicode="P" horiz-adv-x="527" 
d="M18 -37c0 10 4.66699 28.333 14 55l80 246c19.333 57.333 43.666 124.666 72.999 201.999s60.333 153 93 227c-22.667 -4.66699 -44.667 -11.5 -66 -20.5s-38.166 -17 -50.499 -24s-19.833 -10.5 -22.5 -10.5c-4.66699 0 -11 3.33301 -19 10s-12 12.334 -12 17.001
c85.333 36.667 159 55 221 55c41.333 0 81 -6.83301 119 -20.5s70.5 -35.667 97.5 -66s40.5 -65.833 40.5 -106.5c0 -39.333 -11.333 -74 -34 -104s-49.5 -52.667 -80.5 -68s-66 -27.833 -105 -37.5s-71 -15.667 -96 -18s-46.833 -3.5 -65.5 -3.5h-10l-108 -383
c-18 0 -34 4.83301 -48 14.5s-21 21.5 -21 35.5zM199 312c38.667 2 76.167 8.16602 112.5 18.499s70.333 24.5 102 42.5s57.167 41.833 76.5 71.5s29 62.834 29 99.501c0 50.667 -17.333 89 -52 115s-77.667 39.333 -129 40c-40.667 -80.667 -87 -209.667 -139 -387z" />
    <glyph glyph-name="Q" unicode="Q" horiz-adv-x="693" 
d="M88 443c35.333 80 83.834 146.165 145.501 198.498s127.5 78.5 197.5 78.5c63.333 0 113 -21.667 149 -65s54 -102.666 54 -177.999c0 -84.667 -21.5 -173.5 -64.5 -266.5s-96.833 -164.5 -161.5 -214.5c55.333 -30.667 104.666 -46 147.999 -46c12 0 31.333 4 58 12
c-16 -54 -48.667 -81 -98 -81c-19.333 0 -39.166 4.5 -59.499 13.5s-37 18.333 -50 28s-29.833 23.167 -50.5 40.5c-34.667 -17.333 -68 -26 -100 -26c-21.333 0 -39.833 3.5 -55.5 10.5s-27.167 15.667 -34.5 26s-12.5 19.833 -15.5 28.5s-4.5 16.334 -4.5 23.001
c0 13.333 6.16699 25.333 18.5 36s30.5 16 54.5 16c17.333 0 35.833 -3.5 55.5 -10.5s35.834 -14 48.501 -21s31 -17.833 55 -32.5c55.333 50 100.166 125.333 134.499 226s51.5 190.667 51.5 270c0 57.333 -10.833 102.333 -32.5 135s-54.834 49 -99.501 49
c-46 0 -90 -17.833 -132 -53.5s-77 -80.667 -105 -135s-50.167 -113.5 -66.5 -177.5s-24.5 -125 -24.5 -183c0 -31.333 2.66699 -59.333 8 -84c-51.333 0 -77 45.667 -77 137c0 84 17.667 166 53 246zM172.001 23.998c0 -13.333 6.5 -27 19.5 -41s34.5 -21 64.5 -21
c26 0 52 7 78 21c-51.333 45.333 -93 68 -125 68c-24.667 0 -37 -9 -37 -27z" />
    <glyph glyph-name="R" unicode="R" horiz-adv-x="577" 
d="M16 -37c0 10 4.66504 28.332 13.998 54.999c84 259.333 168.333 485 253 677c-24.667 -4 -48.5 -10.833 -71.5 -20.5s-41 -18.167 -54 -25.5s-20.833 -11 -23.5 -11c-4.66699 0 -11 3.33301 -19 10s-12 12.334 -12 17.001c84.667 36.667 159.667 55 225 55
c41.333 0 80.333 -6 117 -18s68.5 -32.667 95.5 -62s40.5 -65 40.5 -107c0 -37.333 -11 -70.166 -33 -98.499s-47.833 -49.666 -77.5 -63.999s-63.667 -26 -102 -35s-69.833 -14.5 -94.5 -16.5s-46.667 -3 -66 -3l39 -67l40 -71
c8.66699 -14.667 22.167 -35.834 40.5 -63.501s35.333 -50.667 51 -69s35.5 -39.5 59.5 -63.5s49.667 -47.333 77 -70c-4 -8.66699 -11.167 -16.334 -21.5 -23.001s-20.166 -10 -29.499 -10c-23.333 0 -54 24 -92 72s-73.167 101.333 -105.5 160s-59.5 114 -81.5 166
l-103 -364c-17.333 0 -32.666 4.83301 -45.999 14.5s-20 21.5 -20 35.5zM200.998 331.999c52.667 3.33301 101.5 12.499 146.5 27.499s84 39.333 117 73s49.5 74.167 49.5 121.5c0 50.667 -17.167 87.5 -51.5 110.5s-76.833 34.5 -127.5 34.5
c-40 -79.333 -84.667 -201.666 -134 -366.999z" />
    <glyph glyph-name="S" unicode="S" horiz-adv-x="536" 
d="M-6 92c0 47.333 13.001 81.5 39.001 102.5s55.667 31.5 89 31.5c-36.667 -40 -55 -84.667 -55 -134c0 -40 13.167 -73.333 39.5 -100s64.166 -40 113.499 -40s92.666 13 129.999 39s56 61.667 56 107c0 31.333 -10.5 59.5 -31.5 84.5s-46.5 46.5 -76.5 64.5l-89 53
c-29.333 18 -54.5 39.833 -75.5 65.5s-31.5 54.834 -31.5 87.501c0 38.667 11.333 78.167 34 118.5s56.5 75.166 101.5 104.499s94.833 44 149.5 44c70 0 105 -33.333 105 -100c0 -33.333 -8 -70.666 -24 -111.999s-33.667 -77.333 -53 -108c-22 4.66699 -33 19 -33 43
c0 18.667 9.83301 53.5 29.5 104.5s29.5 86.167 29.5 105.5c0 28.667 -18.667 43 -56 43c-58.667 0 -110 -25 -154 -75s-66 -98.333 -66 -145c0 -27.333 10.333 -51.833 31 -73.5s45.667 -40.5 75 -56.5l87 -51c29.333 -17.333 54.333 -40.5 75 -69.5s31 -62.167 31 -99.5
c0 -64.667 -26.667 -116.334 -80 -155.001s-113.666 -58 -180.999 -58c-58.667 0 -108.167 15.5 -148.5 46.5s-60.5 75.167 -60.5 132.5z" />
    <glyph glyph-name="T" unicode="T" horiz-adv-x="490" 
d="M69 632c4.66699 58.667 85.999 87.999 243.999 87.999c50 0 109.167 -3.66699 177.5 -11s116.5 -11 144.5 -11c-35.333 -31.333 -92.333 -47 -171 -47c-7.33301 0 -19 0.166992 -35 0.5s-28 0.5 -36 0.5c-54.667 -136.667 -107 -295.667 -157 -477l-10.5 -37.5
l-10.5 -36.5l-7 -31c-3.33301 -14 -6 -24.333 -8 -31l-5 -26c-2.66699 -11.333 -4.5 -20.666 -5.5 -27.999s-1.83301 -15.5 -2.5 -24.5s-1 -17.5 -1 -25.5c0 -10 0.333008 -17.333 1 -22c-52.667 0 -79 23.667 -79 71c0 26 12.333 74.667 37 146
c74 214.667 142 388.667 204 522c-119.333 -2 -212.666 -8.66699 -279.999 -20z" />
    <glyph glyph-name="U" unicode="U" horiz-adv-x="706" 
d="M25 539c0 43.333 19.333 84.3359 58 123.003s83 58 133 58c68.667 0 103 -40.333 103 -121c0 -50 -20.5 -140 -61.5 -270s-61.5 -218 -61.5 -264c0 -33.333 6.83301 -60.333 20.5 -81s34.834 -31 63.501 -31c26 0 50.833 8.83301 74.5 26.5s44 40.834 61 69.501
s31.333 57.667 43 87s21.167 58.666 28.5 87.999l41 167c10.667 41.333 24.667 91.666 42 150.999s33.666 103.833 48.999 133.5s29.333 44.5 42 44.5c13.333 0 30 -10.667 50 -32c-20 -14 -55.667 -103.833 -107 -269.5s-77 -291.167 -77 -376.5
c0 -44.667 6 -75.334 18 -92.001s32.667 -25 62 -25c-23.333 -16 -45.333 -24 -66 -24c-24 0 -43.5 10.333 -58.5 31s-22.5 45.667 -22.5 75c0 20.667 3 51 9 91c-56.667 -123.333 -128.667 -185 -216 -185c-41.333 0 -73.333 12.667 -96 38s-34 58 -34 98
c0 41.333 20.833 131.166 62.5 269.499s62.5 233.5 62.5 285.5c0 58.667 -18.667 88 -56 88c-32.667 0 -58.5 -19 -77.5 -57s-28.5 -76.667 -28.5 -116c0 -20 2.66699 -36.333 8 -49c-46 0 -69 23 -69 69z" />
    <glyph glyph-name="V" unicode="V" horiz-adv-x="632" 
d="M25 542c0 42.667 18.667 83.002 56 121.002s79.666 57 126.999 57c40.667 0 71.334 -15.833 92.001 -47.5s31 -75.167 31 -130.5s-10.833 -121.5 -32.5 -198.5s-43.167 -148.833 -64.5 -215.5s-32 -115 -32 -145c0 -26 9.33301 -39 28 -39
c36.667 0 83.167 34.333 139.5 103s105.833 151.334 148.5 248.001s64 179.667 64 249c0 58 -18.333 92.667 -55 104c18 30.667 37.333 46 58 46c16 0 30.167 -9.66699 42.5 -29s18.5 -46.666 18.5 -81.999c0 -71.333 -24.5 -160.333 -73.5 -267
s-108.5 -200.5 -178.5 -281.5s-131.333 -121.5 -184 -121.5c-20.667 0 -40.167 6 -58.5 18s-27.5 32.667 -27.5 62c0 25.333 10.5 71 31.5 137s42 138.5 63 217.5s31.5 147.167 31.5 204.5c0 18.667 -0.166992 33.167 -0.5 43.5s-1.5 22.666 -3.5 36.999
s-5 25.166 -9 32.499s-10 13.666 -18 18.999s-17.667 8 -29 8c-33.333 0 -58.833 -18 -76.5 -54s-26.5 -74 -26.5 -114c0 -22 3 -40 9 -54c-24.667 0 -42.667 6.66699 -54 20s-17 30.666 -17 51.999z" />
    <glyph glyph-name="W" unicode="W" horiz-adv-x="906" 
d="M25 542c0 42.667 18.666 83.002 55.999 121.002s79.666 57 126.999 57c40.667 0 71.334 -15.833 92.001 -47.5s31 -75.167 31 -130.5s-10.833 -121.5 -32.5 -198.5s-43.167 -148.667 -64.5 -215s-32 -114.833 -32 -145.5c0 -26 10 -39 30 -39
c31.333 0 69.833 28.333 115.5 85s85.334 120.667 119.001 192s53.5 129.333 59.5 174c20 0 35 -5.16699 45 -15.5s15 -21.5 15 -33.5c0 -11.333 -6 -31.333 -18 -60l-38 -90c-14 -31.333 -26.667 -66.833 -38 -106.5s-17 -74.167 -17 -103.5c0 -14 1.83301 -24.5 5.5 -31.5
s11.167 -10.5 22.5 -10.5c36.667 0 83.167 34.333 139.5 103s105.833 151.334 148.5 248.001s64 179.667 64 249c0 58 -18.333 92.667 -55 104c18 30.667 37.333 46 58 46c16 0 30.167 -9.66699 42.5 -29s18.5 -46.666 18.5 -81.999c0 -71.333 -24.5 -160.333 -73.5 -267
s-108.5 -200.5 -178.5 -281.5s-131.333 -121.5 -184 -121.5c-22 0 -41.833 6.5 -59.5 19.5s-26.5 31.5 -26.5 55.5c0 18 6.66699 48 20 90c-78 -110 -147 -165 -207 -165c-20.667 0 -40.167 6 -58.5 18s-27.5 32.667 -27.5 62c0 25.333 10.5 71 31.5 137s42 138.5 63 217.5
s31.5 147.167 31.5 204.5c0 18.667 -0.166992 33.167 -0.5 43.5s-1.5 22.666 -3.5 36.999s-5 25.166 -9 32.499s-10 13.666 -18 18.999s-17.667 8 -29 8c-33.333 0 -58.833 -18 -76.5 -54s-26.5 -74 -26.5 -114c0 -22 3 -40 9 -54c-24.667 0 -42.667 6.66699 -54 20
s-17 30.666 -17 51.999z" />
    <glyph glyph-name="X" unicode="X" horiz-adv-x="662" 
d="M25 -112c2 20 6.33105 35.667 12.998 47s18.667 26 36 44c75.333 81.333 151 170.333 227 267c-5.33301 82.667 -8.66602 156.667 -9.99902 222c-1.33301 88.667 -5 148.167 -11 178.5s-22 45.5 -48 45.5c-30.667 0 -55.667 -18.833 -75 -56.5s-29 -76.5 -29 -116.5
c0 -20 2.66699 -36.333 8 -49c-46 0 -69 23 -69 69c0 42.667 19.333 83.5 58 122.5s82 58.5 130 58.5c53.333 0 88 -31.667 104 -95c9.33301 -37.333 14.333 -113 15 -227c0.666992 -22.667 1 -40.667 1 -54c105.333 146 179.333 272 222 378
c5.33301 -4 10.5 -10.833 15.5 -20.5s7.5 -18.834 7.5 -27.501c0 -48.667 -81.333 -177 -244 -385c6.66699 -226 38 -339 94 -339c34 0 90.667 70.667 170 212l12 -10c-41.333 -84.667 -77.166 -145.667 -107.499 -183s-64.166 -56 -101.499 -56
c-26 0 -48.167 8.5 -66.5 25.5s-32.333 41.333 -42 73s-16.5 61.334 -20.5 89.001s-7.33301 60.167 -10 97.5c-58 -71.333 -113.333 -136.333 -166 -195s-90.334 -97 -113.001 -115z" />
    <glyph glyph-name="Y" unicode="Y" horiz-adv-x="666" 
d="M23 539c0 43.333 19.3301 84.333 57.9971 123s83 58 133 58c35.333 0 61.5 -10 78.5 -30s25.5 -43.667 25.5 -71c0 -22 -11.167 -73.333 -33.5 -154s-33.5 -140 -33.5 -178c0 -64 23.333 -96 70 -96c42 0 81 24 117 72s67.667 107 95 177
c45.333 186.667 85.333 280 120 280c17.333 0 36 -10.667 56 -32c-33.333 -53.333 -58.666 -106.333 -75.999 -159s-47 -164.334 -89 -335.001l-20 -76c-4.66699 -18.667 -12 -43.167 -22 -73.5s-19.667 -54.666 -29 -72.999s-21.5 -38.833 -36.5 -61.5
s-30.833 -40.167 -47.5 -52.5s-36.5 -22.833 -59.5 -31.5s-47.833 -13 -74.5 -13c-40 0 -73 8.33301 -99 25s-39 40 -39 70c0 36 20 60.667 60 74c-5.33301 -18 -8 -36 -8 -54c0 -28 7.33301 -50 22 -66s36.334 -24 65.001 -24c97.333 0 167 94.333 209 283l18 90l24 115
c-60.667 -116.667 -133 -175 -217 -175c-72.667 0 -109 39.667 -109 119c0 36 11.333 95 34 177s34 137.667 34 167c0 52 -19 78 -57 78c-33.333 0 -59.666 -19 -78.999 -57s-29 -76.667 -29 -116c0 -20 2.66699 -36.333 8 -49c-46 0 -69 23 -69 69z" />
    <glyph glyph-name="Z" unicode="Z" horiz-adv-x="631" 
d="M-25 26c0 34.667 25.6621 52 76.9951 52c32 0 77.333 -8.66699 136 -26c58.667 62 123.667 151.667 195 269c-40 -0.666992 -83.333 -4.33398 -130 -11.001l-34 -5c2.66699 46.667 52.334 70 149.001 70c10 0 25 -0.666992 45 -2c54.667 97.333 93.667 176.333 117 237
c-15.333 4 -41.333 13.167 -78 27.5s-72.667 27 -108 38s-66 16.5 -92 16.5c-75.333 0 -113 -48 -113 -144c0 -14.667 1.33301 -26.334 4 -35.001c-36 6.66699 -54 30.667 -54 72c0 44 17 77.5 51 100.5s81.333 34.5 142 34.5c49.333 0 111.333 -10.667 186 -32
s128 -32 160 -32c14.667 0 25.334 0.666992 32.001 2c-18 -15.333 -34.667 -27 -50 -35c-32 -76.667 -75.333 -162 -130 -256c60 -6 95.333 -9 106 -9c-10.667 -15.333 -23.334 -24.666 -38.001 -27.999s-46 -5.66602 -94 -6.99902
c-74.667 -122 -147.334 -217 -218.001 -285c118.667 -37.333 200.334 -56 245.001 -56c26.667 0 50.334 5.33301 71.001 16c-20 -56.667 -55 -85 -105 -85c-11.333 0 -24.166 1.5 -38.499 4.5s-26.666 6 -36.999 9s-25.5 8.5 -45.5 16.5l-42 17l-46 22
c-23.333 11.333 -37.666 18 -42.999 20c-48 -37.333 -90.667 -56 -128 -56c-27.333 0 -49.5 8.33301 -66.5 25s-25.5 35 -25.5 55zM0.995117 28c0 -12.667 5.83105 -25 17.498 -37s26.167 -18 43.5 -18c24.667 0 55.334 15.667 92.001 47
c-51.333 21.333 -89.666 32 -114.999 32h-1c-24.667 0 -37 -8 -37 -24z" />
    <glyph glyph-name="bracketleft" unicode="[" horiz-adv-x="393" 
d="M29 -67c3.33301 6 7.16992 17.667 11.5029 35s13.833 66 28.5 146l72 384c14 76 32.833 129.167 56.5 159.5s48.167 45.5 73.5 45.5c4.66699 0 15.334 -0.5 32.001 -1.5s30 -1.5 40 -1.5c43.333 0 76.666 6.66699 99.999 20c-2 -33.333 -11.833 -55 -29.5 -65
s-42.834 -15 -75.501 -15c-10.667 0 -21.834 0.833008 -33.501 2.5s-24.834 4.16699 -39.501 7.5l-34 7c-22 -64 -50 -188.833 -84 -374.5s-54.333 -290.5 -61 -314.5c75.333 0.666992 126.5 2 153.5 4s55.833 7.66699 86.5 17c-4.66699 -50.667 -48 -76 -130 -76
c-56 0 -111.667 6.66699 -167 20z" />
    <glyph glyph-name="backslash" unicode="\" horiz-adv-x="560" 
d="M164 720c14.667 0 27.502 -4.66895 38.502 -14.002s18.5 -19.666 22.5 -30.999c19.333 -50 43 -144 71 -282l79 -374c24.667 -111.333 44.667 -171.666 60 -180.999c-28.667 5.33301 -52.834 22 -72.501 50s-37.834 72.667 -54.501 134c-12.667 46.667 -38 170 -76 370
s-60.667 309.333 -68 328z" />
    <glyph glyph-name="bracketright" unicode="]" horiz-adv-x="410" 
d="M-14 -88c3.33301 46.667 38.3301 70.001 104.997 70.001c8 0 49.333 -2.66699 124 -8c22 63.333 51.833 191.666 89.5 384.999s58.5 298.333 62.5 315h-63c-83.333 0 -149.666 -7 -198.999 -21c0 26.667 10.5 44.5 31.5 53.5s53.5 13.5 97.5 13.5
c48 0 103.667 -7 167 -21c-2 -10 -9.33301 -54.667 -22 -134l-40 -246c-14 -84 -25 -146.333 -33 -187c-4 -20 -7.16699 -35.333 -9.5 -46s-7.16602 -27.5 -14.499 -50.5s-15.166 -41 -23.499 -54s-19.5 -25 -33.5 -36s-29.667 -16.5 -47 -16.5
c-93.333 0 -157.333 -5.66699 -192 -17z" />
    <glyph glyph-name="asciicircum" unicode="^" horiz-adv-x="203" 
d="M0 460c0 18 15 37.1641 45 57.4971s53 30.5 69 30.5s35 -13.167 57 -39.5s33 -50.166 33 -71.499c0 -15.333 -5.66699 -25.666 -17 -30.999c-14 28.667 -38.667 59.334 -74 92.001c-44.667 -16 -79 -35 -103 -57c-6.66699 4 -10 10.333 -10 19z" />
    <glyph glyph-name="underscore" unicode="_" horiz-adv-x="845" 
d="M-20 -66c3.33301 31.333 35.165 52.835 95.498 64.502s145.833 17.5 256.5 17.5c72 0 144 -3 216 -9s128 -9 168 -9c-43.333 -30 -97.666 -45 -162.999 -45c-42.667 0 -92.167 -0.166992 -148.5 -0.5s-94.166 -0.5 -113.499 -0.5s-45.333 -0.166992 -78 -0.5
s-54.5 -0.833008 -65.5 -1.5s-27.5 -1.83398 -49.5 -3.50098s-40.667 -3.33398 -56 -5.00098s-36 -4.16699 -62 -7.5z" />
    <glyph glyph-name="grave" unicode="`" horiz-adv-x="125" 
d="M0 526c2 20.667 9.33203 31 21.999 31c18 0 39.833 -16.667 65.5 -50s38.5 -57 38.5 -71c0 -12.667 -4.66699 -21.334 -14 -26.001c-25.333 34.667 -62.666 73.334 -111.999 116.001z" />
    <glyph glyph-name="a" unicode="a" horiz-adv-x="436" 
d="M-26 36c0 39.333 13.835 82.999 41.502 130.999s63.5 89.333 107.5 124s86.667 52 128 52c26 0 47.667 -7 65 -21s26 -32 26 -54c0 -28.667 -16.333 -43 -49 -43c3.33301 12 5 23.667 5 35c0 37.333 -16.333 56 -49 56c-29.333 0 -60.5 -16.833 -93.5 -50.5
s-60 -72.667 -81 -117s-31.5 -82.833 -31.5 -115.5c0 -26 9 -39 27 -39c12 0 26 5.66699 42 17s30.667 24 44 38s29.166 32.833 47.499 56.5s31.833 41.834 40.5 54.501l36 52c26.667 -4.66699 40 -13 40 -25c0 -5.33301 -9.66699 -25.333 -29 -60s-29 -61 -29 -79
c0 -11.333 2.83301 -21.5 8.5 -30.5s14.167 -13.5 25.5 -13.5c19.333 0 43.666 13.833 72.999 41.5s58.333 66.5 87 116.5l10 -10c-20.667 -53.333 -49.834 -97 -87.501 -131s-74.5 -51 -110.5 -51c-23.333 0 -41.166 6.83301 -53.499 20.5s-18.5 30.167 -18.5 49.5
c0 8 1 17.667 3 29c-30 -40 -56.833 -69.333 -80.5 -88s-47.167 -28 -70.5 -28c-22 0 -39.833 7.16699 -53.5 21.5s-20.5 34.833 -20.5 61.5z" />
    <glyph glyph-name="b" unicode="b" horiz-adv-x="394" 
d="M-10 53c0 63.333 20.1699 148.666 60.5029 255.999s85.5 201.666 135.5 282.999s88.333 122 115 122c10 0 17.833 -6.5 23.5 -19.5s8.5 -27.5 8.5 -43.5c0 -31.333 -10.5 -72.166 -31.5 -122.499s-49.667 -100.333 -86 -150s-73.166 -85.834 -110.499 -108.501
c-8.66699 -16 -18.834 -46 -30.501 -90s-17.5 -84.333 -17.5 -121c0 -62.667 18.333 -94 55 -94c19.333 0 39.333 7.83301 60 23.5s37.334 35.834 50.001 60.501c-23.333 12 -41.333 29.833 -54 53.5s-19 48.834 -19 75.501c0 31.333 8.16699 56.833 24.5 76.5
s36.166 29.5 59.499 29.5c19.333 0 34.666 -8 45.999 -24s17 -38.667 17 -68c0 -44 -11.667 -89.333 -35 -136c8 -2 16.667 -3 26 -3c16.667 0 32 3.16699 46 9.5s26.167 15.833 36.5 28.5s18.666 23.834 24.999 33.501s13.166 22.167 20.499 37.5l12 -13
c-31.333 -76 -79 -114 -143 -114c-11.333 0 -22 1 -32 3c-44 -74 -97 -111 -159 -111c-34 0 -59.667 11.167 -77 33.5s-26 53.166 -26 92.499zM116.003 309c42.667 34 83.832 87.832 123.499 161.499s59.5 125.167 59.5 154.5c0 5.33301 -1.33301 8 -4 8
c-7.33301 0 -22.166 -16 -44.499 -48s-46.833 -74.167 -73.5 -126.5s-47 -102.166 -61 -149.499zM184.001 172.999c0 -48 15.999 -82.6689 47.999 -104.002c15.333 32.667 23 66.334 23 101.001c0 22.667 -3.16699 40.834 -9.5 54.501s-14.166 20.5 -23.499 20.5
c-10 0 -18.833 -7 -26.5 -21s-11.5 -31 -11.5 -51z" />
    <glyph glyph-name="c" unicode="c" horiz-adv-x="323" 
d="M-5 72c0 66 23.499 126.834 70.499 182.501s96.5 83.5 148.5 83.5c25.333 0 43.5 -7.16699 54.5 -21.5s16.5 -31.833 16.5 -52.5c0 -20 -4.5 -37.167 -13.5 -51.5s-21.167 -21.5 -36.5 -21.5c-11.333 0 -21 5 -29 15c10 4.66699 18.667 15.167 26 31.5
s11 32.166 11 47.499c0 16.667 -7.33301 25 -22 25c-34.667 0 -70.667 -28.333 -108 -85s-56 -110 -56 -160c0 -55.333 24.333 -83 73 -83c40.667 0 80.834 16.667 120.501 50s70.167 77 91.5 131l13 -10c-22.667 -60.667 -57.5 -110.667 -104.5 -150
s-94.833 -59 -143.5 -59c-33.333 0 -60.333 11 -81 33s-31 53.667 -31 95z" />
    <glyph glyph-name="d" unicode="d" horiz-adv-x="473" 
d="M-16 54c0 36.667 13.502 79.001 40.502 127.001s62 89.833 105 125.5s84.167 53.5 123.5 53.5c29.333 0 44 -10.333 44 -31c0 -2.66699 -0.666992 -7.33398 -2 -14.001c-7.33301 10 -20 15 -38 15c-33.333 0 -66.333 -16.833 -99 -50.5s-58.167 -70.834 -76.5 -111.501
s-27.5 -74.667 -27.5 -102c0 -14.667 3.16699 -26.334 9.5 -35.001s15.166 -13 26.499 -13c28.667 0 64.167 25.833 106.5 77.5s78.833 117.5 109.5 197.5l39 101l38 94c16 39.333 29.667 70 41 92l35 70c13.333 24.667 25.5 42.5 36.5 53.5s20.833 16.5 29.5 16.5
c5.33301 0 10 -2.16699 14 -6.5s6 -9.83301 6 -16.5c0 -13.333 -12 -46 -36 -98l-79 -164c-28.667 -58 -55 -122.167 -79 -192.5s-36 -127.833 -36 -172.5c0 -15.333 0.333008 -26.166 1 -32.499s2.66699 -11.833 6 -16.5s8.66602 -7 15.999 -7
c22 0 48.167 13.833 78.5 41.5s55.5 63.167 75.5 106.5l12 -9c-19.333 -50.667 -47.833 -93.167 -85.5 -127.5s-73.834 -51.5 -108.501 -51.5c-22.667 0 -39.334 7.33301 -50.001 22s-16 32.334 -16 53.001c0 22.667 6.33301 58.334 19 107.001
c-34 -56 -69.167 -101 -105.5 -135s-69.166 -51 -98.499 -51c-19.333 0 -36.666 7.16699 -51.999 21.5s-23 35.166 -23 62.499z" />
    <glyph glyph-name="e" unicode="e" horiz-adv-x="333" 
d="M-14 72c0 61.333 28 124.667 84 190s112.667 98 170 98c41.333 0 62 -20.333 62 -61c0 -48.667 -26 -91.667 -78 -129s-108.667 -59 -170 -65c-2.66699 -11.333 -4 -23.333 -4 -36c0 -56 26.333 -84 79 -84c40.667 0 81.667 17 123 51s75 76 101 126l12 -9
c-26.667 -59.333 -63.667 -107 -111 -143s-96 -54 -146 -54c-39.333 0 -69.5 10.833 -90.5 32.5s-31.5 49.5 -31.5 83.5zM59 124.001c46.667 16.667 91.5 41.667 134.5 75s64.5 69 64.5 107c0 15.333 -7 23 -21 23c-31.333 0 -65.333 -21.833 -102 -65.5
s-62 -90.167 -76 -139.5z" />
    <glyph glyph-name="f" unicode="f" horiz-adv-x="312" 
d="M-68 -192c0 51.333 14.666 127.669 43.999 229.002s65 202.666 107 303.999s88.833 189.833 140.5 265.5s97.167 113.5 136.5 113.5c22.667 0 34 -14.667 34 -44c0 -54 -27.5 -118 -82.5 -192s-116.5 -134.667 -184.5 -182c-4.66699 -10.667 -11 -27.334 -19 -50.001
c14 -3.33301 22.333 -14 25 -32c3.33301 -22.667 6 -40 8 -52s5.33301 -25.833 10 -41.5s9.66699 -27.167 15 -34.5s12.666 -13.833 21.999 -19.5s20 -8.5 32 -8.5c22 0 40.833 7.66699 56.5 23s33.834 40.333 54.501 75l15 -10c-16 -37.333 -36.333 -65.666 -61 -84.999
s-48 -29 -70 -29c-25.333 0 -50 11 -74 33c-0.666992 -84.667 -17.167 -164.334 -49.5 -239.001s-67.166 -112 -104.499 -112c-14 0 -26.667 6.5 -38 19.5s-17 35.833 -17 68.5zM-6.00098 -183.997c0 -32 6.33203 -48 18.999 -48c18.667 0 40.334 35.5 65.001 106.5
s37 132.833 37 185.5c0 33.333 -11.333 72.333 -34 117c-58 -170.667 -87 -291 -87 -361zM142.998 343.003c60 55.333 110.333 112.832 151 172.499s61 100.834 61 123.501c0 9.33301 -4.66699 14 -14 14c-24.667 0 -54.667 -28.833 -90 -86.5s-71.333 -132.167 -108 -223.5
z" />
    <glyph glyph-name="g" unicode="g" horiz-adv-x="389" 
d="M-20 -222c0 13.333 2.49316 25.9971 7.49316 37.9971s13.5 23.667 25.5 35l31.5 29c9 8 23.5 17.333 43.5 28l42 23c8 4.66699 23 12.334 45 23.001c18.667 48 35.667 103 51 165c-59.333 -85.333 -113.666 -128 -162.999 -128c-23.333 0 -41.666 8.83301 -54.999 26.5
s-20 41.167 -20 70.5c0 44 14.667 86.5 44 127.5s64.333 73.167 105 96.5s79.334 35 116.001 35c36 0 54 -10.667 54 -32c0 -10.667 -4 -17.334 -12 -20.001c-7.33301 10 -20.666 15 -39.999 15c-49.333 0 -95.166 -26.333 -137.499 -79s-63.5 -102 -63.5 -148
c0 -32.667 11.667 -49 35 -49c18 0 40.5 12.333 67.5 37s53.833 56.334 80.5 95.001l12 53c7.33301 34 24.333 51 51 51c6 0 13 -1 21 -3c0 -18 -7.33301 -54.167 -22 -108.5s-33 -109.5 -55 -165.5c34.667 16.667 66.834 39.834 96.501 69.501s51.834 62.834 66.501 99.501
l13 -10c-14 -40.667 -39.167 -77.667 -75.5 -111s-73.5 -59 -111.5 -77c-67.333 -162.667 -132.333 -244 -195 -244c-16 0 -29.667 4.83301 -41 14.5s-17 24.167 -17 43.5zM10.9932 -213.003c0 -10.667 2.16895 -19.167 6.50195 -25.5s10.166 -9.5 17.499 -9.5
c15.333 0 34.5 14.5 57.5 43.5s46.833 72.833 71.5 131.5c-48.667 -24.667 -86.334 -47.667 -113.001 -69s-40 -45 -40 -71z" />
    <glyph glyph-name="h" unicode="h" horiz-adv-x="476" 
d="M6 66c0 61.333 18.6631 144.335 55.9961 249.002s80.166 197.334 128.499 278.001s86.5 121 114.5 121c10.667 0 18.834 -6.5 24.501 -19.5s8.5 -27.5 8.5 -43.5c0 -31.333 -10.667 -72.333 -32 -123s-50.333 -100.667 -87 -150s-73.667 -85.333 -111 -108
c-24.667 -58 -37 -123.667 -37 -197c0 -10.667 0.666992 -22 2 -34c59.333 172.667 127 259 203 259c25.333 0 44.333 -8.83301 57 -26.5s19 -38.834 19 -63.501c0 -22 -7.16699 -51.667 -21.5 -89s-21.5 -63.666 -21.5 -78.999c0 -25.333 10 -38 30 -38
c22.667 0 49.334 15.833 80.001 47.5s56 69.167 76 112.5l13 -12c-22 -50.667 -50.167 -92.334 -84.5 -125.001s-70.166 -49 -107.499 -49c-22 0 -39 5.83301 -51 17.5s-18 26.834 -18 45.501c0 13.333 5.16699 37.666 15.5 72.999s15.5 61.333 15.5 78
c0 32 -12.667 48 -38 48c-22 0 -43.167 -14.333 -63.5 -43s-36.666 -60.334 -48.999 -95.001s-25.666 -66.334 -39.999 -95.001s-27.833 -43 -40.5 -43c-12 0 -21.833 10.333 -29.5 31s-11.5 45 -11.5 73zM120.996 309.002c42.667 34 83.834 87.833 123.501 161.5
s59.5 125.167 59.5 154.5c0 5.33301 -1.33301 8 -4 8c-7.33301 0 -21.833 -15.167 -43.5 -45.5s-45.834 -71.833 -72.501 -124.5s-47.667 -104 -63 -154z" />
    <glyph glyph-name="i" unicode="i" horiz-adv-x="241" 
d="M-5 58c0 26 7 60.9971 21 104.997s32.667 84.333 56 121s45.666 55 66.999 55c14.667 0 22 -7.33301 22 -22c0 -8 -8.66699 -26.333 -26 -55s-34.666 -61.167 -51.999 -97.5s-26 -68.166 -26 -95.499c0 -23.333 3.83301 -39.166 11.5 -47.499s20.167 -12.5 37.5 -12.5
c52 0 103.333 51 154 153l9 -10c-18.667 -56 -46.167 -99.667 -82.5 -131s-74.5 -47 -114.5 -47c-24.667 0 -43.667 7.83301 -57 23.5s-20 35.834 -20 60.501zM151 464.997c0 13.333 8 25.333 24 36s32.333 16 49 16c22 0 33 -10 33 -30
c0 -13.333 -6.83301 -25.833 -20.5 -37.5s-28.5 -17.5 -44.5 -17.5c-27.333 0 -41 11 -41 33z" />
    <glyph glyph-name="j" unicode="j" horiz-adv-x="218" 
d="M-192 -229c0 24.667 11.8311 51.6729 35.498 81.0059s53.834 54.333 90.501 75l64 32c28.667 71.333 51 153.333 67 246l-28 -48l-19 -31l-9 15c10.667 20 23.167 48.833 37.5 86.5s27 67 38 88s22.5 31.5 34.5 31.5c16 0 24 -10 24 -30
c0 -18 -7.83301 -60.333 -23.5 -127s-34.5 -132.667 -56.5 -198c2.66699 1.33301 10.667 5.83301 24 13.5l27 15.5l23 16c11.333 7.33301 20 14.666 26 21.999l24 25c9.33301 10 18 21 26 33s16 25.333 24 40l13 -7c-9.33301 -22.667 -20 -42.834 -32 -60.501
s-26.333 -33.334 -43 -47.001s-29.667 -23.834 -39 -30.501s-24.5 -15.834 -45.5 -27.501s-33.5 -18.5 -37.5 -20.5c-59.333 -162.667 -123.666 -244 -192.999 -244c-16.667 0 -29.5 4.66699 -38.5 14s-13.5 21.666 -13.5 36.999zM-166.002 -221.994
c0 -16 5.66699 -24 17 -24c14.667 0 34.667 15.333 60 46s50 73 74 127c-48.667 -24 -86 -49.333 -112 -76s-39 -51 -39 -73zM94.998 469.006c0 14 7.83398 26.334 23.501 37.001s32.167 16 49.5 16c22 0 33 -9.33301 33 -28c0 -14.667 -6.83301 -27.834 -20.5 -39.501
s-28.834 -17.5 -45.501 -17.5c-11.333 0 -20.833 2.83301 -28.5 8.5s-11.5 13.5 -11.5 23.5z" />
    <glyph glyph-name="k" unicode="k" horiz-adv-x="446" 
d="M4 63c0 65.333 20.3291 150.998 60.9961 256.998s85.334 198.167 134.001 276.5s84.667 117.5 108 117.5c8.66699 0 16 -6.33301 22 -19s9 -28 9 -46c0 -48 -19.667 -102.667 -59 -164s-87.666 -109.333 -144.999 -144c-44 -108 -66 -203.333 -66 -286
c74 186.667 148.667 280 224 280c24.667 0 45.667 -8.66699 63 -26s26 -38.333 26 -63c0 -26 -9.5 -48.5 -28.5 -67.5s-38.667 -32 -59 -39s-38.5 -10.5 -54.5 -10.5c2 -12.667 5.16699 -27.5 9.5 -44.5s12.833 -35.333 25.5 -55s27 -29.5 43 -29.5
c50 0 99.333 54.333 148 163l10 -10c-14.667 -50.667 -39.5 -95.167 -74.5 -133.5s-69.5 -57.5 -103.5 -57.5c-23.333 0 -43.166 11.167 -59.499 33.5s-27.5 46.333 -33.5 72s-9 50.5 -9 74.5c12.667 0 28.334 3 47.001 9s36.834 16.833 54.501 32.5
s26.5 33.834 26.5 54.501c0 13.333 -5 24.166 -15 32.499s-21.667 12.5 -35 12.5c-27.333 0 -53.833 -14.833 -79.5 -44.5s-45.667 -61.167 -60 -94.5s-27.833 -67.666 -40.5 -102.999s-19.334 -53.333 -20.001 -54c-7.33301 -12 -18.333 -18 -33 -18h-1
c-8 0 -14.5 2.5 -19.5 7.5s-8.5 12.667 -10.5 23s-3.33301 19.833 -4 28.5s-1 20.334 -1 35.001zM150.996 380.998c43.333 34.667 79.668 76.833 109.001 126.5s44 88.5 44 116.5c0 6 -1 9 -3 9c-10 0 -30.333 -25.5 -61 -76.5s-60.334 -109.5 -89.001 -175.5z" />
    <glyph glyph-name="l" unicode="l" horiz-adv-x="236" 
d="M3 73c0 45.333 12.999 105.832 38.999 181.499s56.167 147.334 90.5 215.001s69 126.334 104 176.001s60.833 74.5 77.5 74.5c9.33301 0 17.166 -8.33301 23.499 -25s9.5 -33 9.5 -49c0 -50 -27.333 -126.167 -82 -228.5s-116 -181.5 -184 -237.5
c-8.66699 -38.667 -13 -72.334 -13 -101.001c0 -51.333 14.667 -77 44 -77c24.667 0 49.834 15.667 75.501 47s48.5 69 68.5 113l15 -8c-57.333 -122.667 -119.666 -184 -186.999 -184h-1c-53.333 0 -80 34.333 -80 103zM89.999 213.999
c54.667 55.333 106 128.167 154 218.5s72 153.833 72 190.5c0 10.667 -2.33301 16 -7 16c-9.33301 0 -27.833 -21.5 -55.5 -64.5s-57.5 -98.833 -89.5 -167.5s-56.667 -133 -74 -193z" />
    <glyph glyph-name="m" unicode="m" horiz-adv-x="646" 
d="M-35 -6c0 2.66699 5.66699 20.333 17 53s22.833 70 34.5 112s17.5 76 17.5 102c12.667 14 28 21 46 21s27 -8.66699 27 -26c0 -18 -8.66699 -56 -26 -114c32.667 52 67.834 96.667 105.501 134s72.834 56 105.501 56c36 0 54 -25.333 54 -76
c0 -43.333 -10.333 -90.333 -31 -141c56.667 102.667 112 154 166 154c38 0 57 -21.333 57 -64c0 -18.667 -6.16699 -47.834 -18.5 -87.501s-18.5 -66.167 -18.5 -79.5c0 -22.667 10 -34 30 -34c41.333 0 86 52.667 134 158l12 -14c-18.667 -49.333 -43 -91.5 -73 -126.5
s-63.333 -52.5 -100 -52.5c-22 0 -38.667 6.83301 -50 20.5s-17 31.167 -17 52.5c0 17.333 5 42.333 15 75s15 55 15 67c0 24 -9.66699 36 -29 36c-15.333 0 -31.833 -10.833 -49.5 -32.5s-44.834 -60.5 -81.501 -116.5c-8 -12 -24 -43 -48 -93
c-10.667 0 -21.834 1.83301 -33.501 5.5s-17.5 8.5 -17.5 14.5c0 1.33301 10.5 33 31.5 95s31.5 107 31.5 135c0 25.333 -8.33301 38 -25 38c-28.667 0 -67.5 -31.833 -116.5 -95.5s-85.833 -129.5 -110.5 -197.5c-10 0 -21.5 2.33301 -34.5 7s-19.5 9.33398 -19.5 14.001z
" />
    <glyph glyph-name="n" unicode="n" horiz-adv-x="466" 
d="M-38 7c0 2 5.83398 17.6689 17.501 47.002s23.5 63.5 35.5 102.5s18 71.167 18 96.5c12.667 14 28 21 46 21s27 -8.66699 27 -26c0 -22.667 -10.667 -66.667 -32 -132c76.667 117.333 146 176 208 176c24 0 42.333 -8.83301 55 -26.5s19 -38.834 19 -63.501
c0 -22 -6.83301 -50 -20.5 -84s-20.5 -58.667 -20.5 -74c0 -25.333 10 -38 30 -38c41.333 0 88 52 140 156l11 -13c-48 -112.667 -105.667 -169 -173 -169c-22.667 0 -40 5.83301 -52 17.5s-18 27.167 -18 46.5c0 13.333 4.83301 35.833 14.5 67.5s14.5 55.5 14.5 71.5
c0 32.667 -13.333 49 -40 49c-16 0 -33.167 -6.33301 -51.5 -19s-34.5 -26.334 -48.5 -41.001s-30.5 -36 -49.5 -64s-32.5 -48.667 -40.5 -62l-37 -61c-24.667 0 -42.334 7.33301 -53.001 22z" />
    <glyph glyph-name="o" unicode="o" horiz-adv-x="365" 
d="M-10 59c0 42.667 12.166 85.1641 36.499 127.497s50.5 63.5 78.5 63.5c6 0 13 -1.66699 21 -5c-12.667 -10.667 -27.667 -37.167 -45 -79.5s-26 -75.5 -26 -99.5c0 -38 12 -57 36 -57c29.333 0 65 26.667 107 80c-18.667 15.333 -33.167 35.333 -43.5 60
s-15.5 50.334 -15.5 77.001c0 34.667 8.83301 64.334 26.5 89.001s41.5 37 71.5 37c46 0 69 -25.667 69 -77c0 -52 -22.333 -111.333 -67 -178c12 -6.66699 24.667 -10 38 -10c19.333 0 39.333 5.83301 60 17.5s36.334 29.834 47.001 54.501l12 -10
c-12.667 -29.333 -30.667 -51 -54 -65s-47.333 -21 -72 -21c-18 0 -34 3.33301 -48 10c-53.333 -70 -104.333 -105 -153 -105c-27.333 0 -47.333 8.33301 -60 25s-19 38.667 -19 66zM181.999 222.997c0 -45.333 11.333 -81.333 34 -108c38.667 57.333 58 108.666 58 153.999
c0 37.333 -10 56 -30 56c-14.667 0 -28.667 -10.167 -42 -30.5s-20 -44.166 -20 -71.499z" />
    <glyph glyph-name="p" unicode="p" horiz-adv-x="391" 
d="M-53 -119c22 64 39.667 128.832 53 194.499s27.333 159.167 42 280.5c0.666992 6.66699 2.16699 11.167 4.5 13.5s7.16602 3.5 14.499 3.5c16 0 28 -4.5 36 -13.5s12 -19.833 12 -32.5c0 -18.667 -7.66699 -63.667 -23 -135c20.667 40 45.834 74.5 75.501 103.5
s62.167 43.5 97.5 43.5c29.333 0 53.5 -10.5 72.5 -31.5s28.5 -48.5 28.5 -82.5c0 -57.333 -23.167 -113.5 -69.5 -168.5s-101.833 -82.5 -166.5 -82.5c-16.667 0 -30.5 1.83301 -41.5 5.5s-16.5 7.83398 -16.5 12.501c0 3.33301 8.33301 5 25 5c52 0 99 23.333 141 70
s63 96.334 63 149.001c0 22.667 -4.83301 41.167 -14.5 55.5s-23.834 21.5 -42.501 21.5c-31.333 0 -62.833 -17.667 -94.5 -53s-55.5 -71.333 -71.5 -108c-58.667 -248.667 -99.667 -384.334 -123 -407.001c-3.33301 -3.33301 -7.33301 -5 -12 -5
c-7.33301 0 -14.666 5.66699 -21.999 17c-6.66699 10 -9.66699 16.667 -9 20c0 5.33301 1.5 13 4.5 23s8.66699 25.833 17 47.5s14.833 39.5 19.5 53.5z" />
    <glyph glyph-name="q" unicode="q" horiz-adv-x="401" 
d="M-15 56c0 38.667 13.8271 81.502 41.4941 128.502s63.667 87.5 108 121.5s87.833 51 130.5 51c22.667 0 41.5 -4.66699 56.5 -14s22.5 -21 22.5 -35c0 -9.33301 -3 -17.833 -9 -25.5s-14 -11.5 -24 -11.5c0 16 -4.66699 29.167 -14 39.5s-23.666 15.5 -42.999 15.5
c-34 0 -67 -16.667 -99 -50s-56.667 -69.833 -74 -109.5s-26 -73.167 -26 -100.5c0 -14.667 3.16699 -26.334 9.5 -35.001s14.833 -13 25.5 -13c16.667 0 36.834 12.167 60.501 36.5s43.834 48.666 60.501 72.999s38.667 58.5 66 102.5c12.667 20.667 27.334 31 44.001 31
c13.333 0 20 -6 20 -18c0 -8 -12.167 -34.167 -36.5 -78.5s-41.5 -89.5 -51.5 -135.5c68 6 123.667 50 167 132l12 -11c-20.667 -46.667 -47.167 -81.667 -79.5 -105s-66.166 -36.666 -101.499 -39.999c11.333 -36 17 -73.667 17 -113
c0 -47.333 -7.16699 -87.833 -21.5 -121.5s-31.833 -50.5 -52.5 -50.5c-23.333 0 -35 23.667 -35 71c0 37.333 5.5 85.666 16.5 144.999s25.167 113.333 42.5 162c-59.333 -85.333 -112 -128 -158 -128c-19.333 0 -36.666 7.16699 -51.999 21.5s-23 35.833 -23 64.5z
M212.994 -196.998c0 -18.667 2.66699 -27.998 8 -27.998c7.33301 0 13.333 13.167 18 39.5s7 55.166 7 86.499c0 27.333 -2.33301 52.333 -7 75c-17.333 -72.667 -26 -130.334 -26 -173.001z" />
    <glyph glyph-name="r" unicode="r" horiz-adv-x="348" 
d="M1 127c32 62 58.999 125.331 80.999 189.998c-6.66699 6.66699 -10 14.667 -10 24c0 18 5.16699 33.833 15.5 47.5s19.166 20.5 26.499 20.5c9.33301 0 14 -8 14 -24c0 -2.66699 -1.83301 -9.16699 -5.5 -19.5s-5.5 -16.166 -5.5 -17.499c0 -8 5.33301 -16.5 16 -25.5
s22.334 -17.5 35.001 -25.5s24.334 -19.833 35.001 -35.5s16 -33.167 16 -52.5c0 -22 -8.33301 -52.5 -25 -91.5s-25 -64.833 -25 -77.5c0 -20 10 -30 30 -30c29.333 0 61.5 16.667 96.5 50s59.5 66.333 73.5 99l13 -10c-20.667 -46 -50.667 -86.667 -90 -122
s-79 -53 -119 -53c-22.667 0 -40.5 6 -53.5 18s-19.5 27.667 -19.5 47c0 20 9.16699 51.833 27.5 95.5s27.5 74.167 27.5 91.5c0 6.66699 -1 13.167 -3 19.5s-3.83301 11.333 -5.5 15s-5.16699 7.83398 -10.5 12.501l-11 10c-2 2 -6.5 5.33301 -13.5 10
s-11.167 7.66699 -12.5 9c-31.333 -80 -61 -144 -89 -192z" />
    <glyph glyph-name="s" unicode="s" horiz-adv-x="345" 
d="M-20 80c0 18 2.83301 33.167 8.5 45.5s12 20.666 19 24.999s14.333 8.16602 22 11.499s12.5 6 14.5 8c42.667 46.667 75.667 95 99 145v12c0 22.667 3.83301 39.667 11.5 51s16.834 17 27.501 17s16 -4.33301 16 -13c0 -1.33301 -1 -6.66602 -3 -15.999
s-3 -18.666 -3 -27.999c0 -20 8.66699 -57 26 -111s26 -97.333 26 -130c0 -18 -2 -34.333 -6 -49c49.333 8.66699 91.333 46.334 126 113.001l9 -10c-23.333 -68.667 -70 -108.334 -140 -119.001c-20.667 -55.333 -63.334 -83 -128.001 -83c-43.333 0 -75 13 -95 39
s-30 56.667 -30 92zM25 81c0 -25.333 7.5 -47.833 22.5 -67.5s34.833 -29.5 59.5 -29.5c30.667 0 51.667 16.333 63 49c-26.667 5.33301 -51 15.833 -73 31.5s-38.667 32.834 -50 51.501c-14.667 -0.666992 -22 -12.334 -22 -35.001zM51 147
c24.667 -52.667 66 -85.334 124 -98.001c2.66699 17.333 4 33 4 47c0 18.667 -1.66699 38.334 -5 59.001s-8 43.5 -14 68.5s-10 42.833 -12 53.5c-34 -56 -66.333 -99.333 -97 -130z" />
    <glyph glyph-name="t" unicode="t" horiz-adv-x="285" 
d="M-4 53c0 57.333 19.334 137.666 58.001 240.999c-16 2.66699 -28 5.33398 -36 8.00098v18c24 -2.66699 38.667 -4 44 -4c29.333 76 60.833 141.833 94.5 197.5s60.167 83.5 79.5 83.5c5.33301 0 10.166 -2 14.499 -6s6.5 -9.33301 6.5 -16c0 -10 -6.5 -27.333 -19.5 -52
s-31.333 -57.667 -55 -99s-43.167 -78.333 -58.5 -111h37c55.333 0 103 2 143 6v-18c-70.667 -8 -127.667 -12 -171 -12h-5h-15c-36.667 -83.333 -55 -155.666 -55 -216.999c0 -30 4.33301 -51 13 -63s23 -18 43 -18c34 0 67.667 15.167 101 45.5s63 72.166 89 125.499
l13 -10c-24.667 -58 -58 -105.5 -100 -142.5s-86 -55.5 -132 -55.5c-59.333 0 -89 33 -89 99z" />
    <glyph glyph-name="u" unicode="u" horiz-adv-x="438" 
d="M0 71c0 38 10.998 85.332 32.998 141.999s40.333 85 55 85c12.667 0 25 -6.66699 37 -20c-14 -22 -28.667 -53.5 -44 -94.5s-23 -76.5 -23 -106.5c0 -44.667 12 -67 36 -67c8.66699 0 17.834 3.33301 27.501 10s19.5 16.5 29.5 29.5s19.5 26 28.5 39
s18.5 29.167 28.5 48.5l26 49l24 48c8.66699 19.333 14.667 31.666 18 36.999c32 -6 48 -14.667 48 -26c0 -2 -5.66699 -15.5 -17 -40.5s-22.5 -53.833 -33.5 -86.5s-16.5 -58.667 -16.5 -78c0 -26.667 11 -40 33 -40c22.667 0 50.334 14.833 83.001 44.5
s60.667 68.834 84 117.501l13 -9c-21.333 -53.333 -51.166 -97.166 -89.499 -131.499s-75.5 -51.5 -111.5 -51.5c-46.667 0 -70 24.667 -70 74c0 13.333 2.33301 30 7 50c-46.667 -82.667 -90.334 -124 -131.001 -124c-22 0 -40 9.83301 -54 29.5s-21 43.5 -21 71.5z" />
    <glyph glyph-name="v" unicode="v" horiz-adv-x="407" 
d="M10 71c0 12.667 2.00391 56.333 6.00391 131c0.666992 14 1.66699 23.667 3 29s4.16602 9.66602 8.49902 12.999s11.166 5 20.499 5c11.333 0 18.5 -2.16699 21.5 -6.5s4.5 -12.833 4.5 -25.5c0 -14 -1.5 -39.833 -4.5 -77.5s-4.5 -65.5 -4.5 -83.5
c0 -37.333 7.66699 -56 23 -56c22 0 48.667 22.5 80 67.5s59.666 95.5 84.999 151.5c2.66699 75.333 18 113 46 113c11.333 0 20.166 -4.16699 26.499 -12.5s9.5 -16.833 9.5 -25.5c0 -6 -2.83301 -14.167 -8.5 -24.5s-11.5 -24.666 -17.5 -42.999s-9 -40.5 -9 -66.5
c0 -50.667 15.667 -76 47 -76c28.667 0 55 24.667 79 74l13 -10c-24 -56 -57 -84 -99 -84c-47.333 0 -75.333 32.333 -84 97c-27.333 -54.667 -58.5 -101.667 -93.5 -141s-67.5 -59 -97.5 -59c-36.667 0 -55 36.667 -55 110z" />
    <glyph glyph-name="w" unicode="w" horiz-adv-x="617" 
d="M0 71c0 38 11.001 85.333 33.001 142s40.333 85 55 85c5.33301 0 12.833 -2 22.5 -6s14.5 -8.66699 14.5 -14c-14 -21.333 -28.667 -52.833 -44 -94.5s-23 -77.167 -23 -106.5c0 -44.667 11.667 -67 35 -67c35.333 0 85.333 63.667 150 191c8 40 14.167 65 18.5 75
s11.5 15 21.5 15c19.333 0 29 -7.33301 29 -22c0 -2 -0.666992 -5.66699 -2 -11c-18.667 -60.667 -28 -130.334 -28 -209.001c0 -32.667 7.33301 -49 22 -49c18.667 0 43 20.833 73 62.5s57.333 89.167 82 142.5c0 84.667 16.667 127 50 127
c11.333 0 20.166 -4.16699 26.499 -12.5s9.5 -16.833 9.5 -25.5c0 -6 -2.83301 -14.167 -8.5 -24.5s-11.5 -24.666 -17.5 -42.999s-9 -40.5 -9 -66.5c0 -50.667 15.667 -76 47 -76c29.333 0 55.666 24.667 78.999 74l13 -10c-24 -56 -57 -84 -99 -84
c-42.667 0 -70.667 28 -84 84c-28 -52 -58.5 -96.167 -91.5 -132.5s-63.833 -54.5 -92.5 -54.5c-36 0 -54 32.333 -54 97c0 24 2.33301 54 7 90c-59.333 -118.667 -112.333 -178 -159 -178h-1c-21.333 0 -39.166 9.83301 -53.499 29.5s-21.5 43.5 -21.5 71.5z" />
    <glyph glyph-name="x" unicode="x" horiz-adv-x="418" 
d="M10 145l19.998 43.001c8.66699 19.333 16.167 34.833 22.5 46.5s14.333 24.167 24 37.5s20.834 23.166 33.501 29.499s27.334 9.5 44.001 9.5c43.333 0 71 -31.667 83 -95c74 77.333 119.333 116 136 116c4 0 9.16699 -1 15.5 -3s9.5 -4.66699 9.5 -8
c-20.667 0 -72.334 -48 -155.001 -144c0.666992 -8.66699 1.66699 -20.167 3 -34.5s2.33301 -25.833 3 -34.5s1.66699 -18.834 3 -30.501s3.16602 -21 5.49902 -28s5.16602 -13.833 8.49902 -20.5s7.66602 -11.5 12.999 -14.5s11.333 -4.5 18 -4.5
c22.667 0 47.834 16.333 75.501 49s49.5 66.667 65.5 102l10 -10c-15.333 -45.333 -40.166 -86.166 -74.499 -122.499s-68.166 -54.5 -101.499 -54.5c-26.667 0 -46.167 12.167 -58.5 36.5s-21.166 57.833 -26.499 100.5l-131 -163c-4 -4.66699 -8 -7 -12 -7
c-6.66699 0 -10 5 -10 15c0 23.333 49.333 90 148 200c-2 20.667 -3.83301 35.834 -5.5 45.501s-4.16699 21.167 -7.5 34.5s-7.5 22.666 -12.5 27.999s-11.167 8 -18.5 8c-9.33301 0 -18 -2 -26 -6s-16.5 -12.167 -25.5 -24.5s-15.833 -22 -20.5 -29
s-12.667 -20.833 -24 -41.5l-23 -42z" />
    <glyph glyph-name="y" unicode="y" horiz-adv-x="389" 
d="M-20 -227c0 16.667 4 32.501 12 47.501s16.5 27.5 25.5 37.5s24.333 21.833 46 35.5s38.5 23.5 50.5 29.5l60 31c20 51.333 38.667 112.333 56 183c-52 -84.667 -100.667 -127 -146 -127c-21.333 0 -40 7 -56 21s-24 34 -24 60c0 36.667 11 82.167 33 136.5
s40.333 81.5 55 81.5c6 0 14.833 -2.5 26.5 -7.5s17.5 -10.167 17.5 -15.5c-13.333 -19.333 -27.666 -50.5 -42.999 -93.5s-23 -77.167 -23 -102.5c0 -26.667 12 -40 36 -40c18 0 39.167 12.333 63.5 37s47.5 55 69.5 91c3.33301 11.333 6.66602 26.666 9.99902 45.999
c7.33301 34 24.333 51 51 51c6 0 13 -1 21 -3c0 -18 -7.5 -55 -22.5 -111s-33.5 -112.333 -55.5 -169c75.333 29.333 130.333 86 165 170l13 -10c-24.667 -78 -87.667 -140.333 -189 -187c-66.667 -163.333 -129.667 -245 -189 -245c-18 0 -33 4.66699 -45 14
s-18 22.333 -18 39zM11 -217.999c0 -6.66699 2.33398 -13.333 7.00098 -20s11.334 -10 20.001 -10c7.33301 0 17 5.33301 29 16s27 30.167 45 58.5s35.333 62.833 52 103.5c-26.667 -14 -46.834 -25.167 -60.501 -33.5s-28.834 -18.833 -45.501 -31.5
s-28.667 -25.667 -36 -39s-11 -28 -11 -44z" />
    <glyph glyph-name="z" unicode="z" horiz-adv-x="317" 
d="M-71 -229c0 16.667 4.33398 32.5 13.001 47.5s22.334 30 41.001 45s36.667 28.167 54 39.5l68 42l69 43c0 48.667 -23 91 -69 127c32.667 9.33301 59 29 79 59s30 59.333 30 88c0 16 -3.33301 28.833 -10 38.5s-16.334 14.5 -29.001 14.5s-25.167 -3.5 -37.5 -10.5
s-22.833 -15 -31.5 -24s-18.5 -22.833 -29.5 -41.5s-19.667 -34.334 -26 -47.001s-15.5 -32 -27.5 -58l-12 10c26 70 51.833 122.333 77.5 157s59.167 52 100.5 52c23.333 0 43 -7.5 59 -22.5s24 -34.833 24 -59.5c0 -34 -11.333 -65 -34 -93s-50.667 -50.333 -84 -67
c34.667 -26.667 58 -56.667 70 -90c57.333 43.333 94.333 90.333 111 141l11 -12c-16.667 -52.667 -55.334 -102 -116.001 -148c2.66699 -8.66699 4 -19.667 4 -33c0 -61.333 -24.667 -118.166 -74 -170.499s-104.333 -78.5 -165 -78.5c-44 0 -66 17 -66 51zM-42.999 -218
c0 -22 10.333 -33 31 -33c31.333 0 68.5 20.5 111.5 61.5s67.5 92.5 73.5 154.5l-62 -38l-61 -38c-14 -8.66699 -29.333 -19.5 -46 -32.5s-28.667 -25.5 -36 -37.5s-11 -24.333 -11 -37z" />
    <glyph glyph-name="braceleft" unicode="{" horiz-adv-x="260" 
d="M37 -21c0 22 12.335 62.999 37.002 122.999s37 103.667 37 131c0 46 -12 78.667 -36 98c26.667 2.66699 46.5 17.834 59.5 45.501s20.833 60.167 23.5 97.5l9 113c2.66699 37.333 11 68.833 25 94.5s35 38.5 63 38.5c33.333 0 51.666 -17.667 54.999 -53
c-17.333 9.33301 -28.333 14 -33 14c-16 0 -28.5 -11.833 -37.5 -35.5s-15.5 -52.834 -19.5 -87.501l-12 -103c-4 -34.667 -11.667 -64.5 -23 -89.5s-26 -38.5 -44 -40.5c17.333 -18 26 -41 26 -69c0 -35.333 -6.33301 -71.166 -19 -107.499s-25.334 -69.833 -38.001 -100.5
s-19 -56.667 -19 -78s11 -32 33 -32c10 0 18.333 2.66699 25 8c-2 -22 -17.667 -33 -47 -33c-43.333 0 -65 22 -65 66z" />
    <glyph glyph-name="bar" unicode="|" horiz-adv-x="259" 
d="M55 -132c21.333 58 42.333 204.999 63 440.999s34.334 365.333 41.001 388c18.667 -8 28 -27 28 -57c0 -57.333 -3.83301 -154.166 -11.5 -290.499s-14.834 -235.5 -21.501 -297.5c-12.667 -122.667 -45.667 -184 -99 -184z" />
    <glyph glyph-name="braceright" unicode="}" horiz-adv-x="256" 
d="M-21 -34c12 -8 23.334 -12 34.001 -12c18 0 31.5 15.167 40.5 45.5s17.167 73.5 24.5 129.5c4.66699 38 9 68.667 13 92s11.667 48 23 74s25.333 43.333 42 52c-16.667 18.667 -25 42.667 -25 72c0 31.333 11.833 77.333 35.5 138s35.5 99 35.5 115
c0 10 -2.33301 15 -7 15c-12.667 0 -26.334 -5.66699 -41.001 -17c2.66699 14 11.334 25.833 26.001 35.5s28.667 14.5 42 14.5c12 0 21.667 -3.33301 29 -10s11 -14.667 11 -24c0 -11.333 -12.333 -47.666 -37 -108.999s-37 -109 -37 -143c0 -47.333 11.667 -79 35 -95
c-28 -6.66699 -49 -26 -63 -58s-22.5 -68.167 -25.5 -108.5s-6.33301 -80.333 -10 -120s-12.334 -72.834 -26.001 -99.501s-34.5 -40 -62.5 -40c-34.667 0 -53.667 17.667 -57 53z" />
    <glyph glyph-name="asciitilde" unicode="~" horiz-adv-x="435" 
d="M40 160c23.333 30.667 50.999 46 82.999 46c17.333 0 47.5 -7.33301 90.5 -22s77.5 -22 103.5 -22c10 0 20 1 30 3c-21.333 -24 -47.333 -36 -78 -36c-18.667 0 -48.5 6.5 -89.5 19.5s-72.167 19.5 -93.5 19.5c-17.333 0 -32.666 -2.66699 -45.999 -8z" />
    <glyph glyph-name="exclamdown" unicode="&#xa1;" horiz-adv-x="264" 
d="M-79 -227c0 26.667 39.1689 117.832 117.502 273.499s137.166 262.5 176.499 320.5c0 -31.333 -18.333 -94.666 -55 -189.999l-39 -101l-38 -94c-16 -39.333 -29.667 -70.333 -41 -93l-36 -69c-13.333 -24 -25.333 -41.667 -36 -53s-20.334 -17 -29.001 -17
c-5.33301 0 -10 2.16699 -14 6.5s-6 9.83301 -6 16.5zM192.002 435.998c0 10 5.5 19.833 16.5 29.5s22.833 14.5 35.5 14.5c21.333 0 32 -9 32 -27c0 -10.667 -6.33301 -20.167 -19 -28.5s-25.667 -12.5 -39 -12.5c-17.333 0 -26 8 -26 24z" />
    <glyph glyph-name="cent" unicode="&#xa2;" horiz-adv-x="403" 
d="M52 242c0 56.667 20.8301 110.833 62.4971 162.5s87.5 84.167 137.5 97.5c14.667 68.667 25.334 126.334 32.001 173.001c3.33301 24.667 18.333 39.667 45 45l-40 -212c26 0 44.667 -7.16699 56 -21.5s17 -31.833 17 -52.5c0 -20 -4.5 -37.167 -13.5 -51.5
s-21.167 -21.5 -36.5 -21.5c-11.333 0 -21 5 -29 15c10 4.66699 18.667 15.167 26 31.5s11 32.166 11 47.499c0 16.667 -7.33301 25 -22 25c-6.66699 0 -11.667 -0.333008 -15 -1c-26 -140 -47 -248 -63 -324c45.333 8 85.666 27.667 120.999 59l17 -16
c-40.667 -38.667 -89 -64.667 -145 -78l-23 -98c-6 -24.667 -13.5 -50 -22.5 -76s-17.833 -46 -26.5 -60s-19.167 -25.5 -31.5 -34.5s-26.166 -13.5 -41.499 -13.5c22.667 25.333 54.334 117.333 95.001 276c-33.333 0 -60.166 11 -80.499 33s-30.5 53.667 -30.5 95z
M113.997 234.999c0 -50 19.667 -77.666 59 -82.999c22 86 46 190.333 72 313c-35.333 -19.333 -66 -52.333 -92 -99s-39 -90.334 -39 -131.001z" />
    <glyph glyph-name="sterling" unicode="&#xa3;" horiz-adv-x="650" 
d="M-21 34c0 29.333 24.3311 43.9971 72.998 43.9971c29.333 0 70.333 -7 123 -21c18 30.667 34.667 68.334 50 113.001c-52 -6 -79.333 -9.33301 -82 -10l-34 -5c2.66699 44 47.667 67.333 135 70l15 46c-10.667 -2 -26.667 -4 -48 -6s-37.333 -3.66699 -48 -5l-34 -5
c2.66699 46.667 51.667 70 147 70l24 75c-30.667 10 -54.834 24.667 -72.501 44s-26.5 40.333 -26.5 63c0 19.333 5.83301 37.333 17.5 54s26.5 25 44.5 25c-8.66699 -12 -13 -32.667 -13 -62c0 -48 19 -82.333 57 -103c14.667 44.667 28.667 83 42 115s28.833 63 46.5 93
s37.167 52.667 58.5 68s44 23 68 23c24.667 0 47 -8 67 -24s30 -42 30 -78c0 -24 -5 -49 -15 -75s-24.333 -50.833 -43 -74.5s-43.834 -43 -75.501 -58s-67.167 -22.5 -106.5 -22.5h-16c-8 -21.333 -15.333 -43.333 -22 -66c16 -1.33301 41.833 -4 77.5 -8s61.5 -6 77.5 -6
c-10.667 -14.667 -25.167 -23.667 -43.5 -27s-61.166 -5.66602 -128.499 -6.99902c-8 -22.667 -14.333 -39.667 -19 -51c20 -1.33301 49.333 -4 88 -8s66.334 -6.33301 83.001 -7c-10.667 -15.333 -25.834 -24.666 -45.501 -27.999s-68.167 -5.66602 -145.5 -6.99902
c-25.333 -58 -47.333 -101 -66 -129c6 -2 21 -6.66699 45 -14l49 -15c8.66699 -2.66699 23.167 -6.66699 43.5 -12s36.166 -9.16602 47.499 -11.499s24.5 -4.5 39.5 -6.5s28.5 -3 40.5 -3c26.667 0 50.334 5.33301 71.001 16c-20 -56.667 -55 -85 -105 -85
c-17.333 0 -38.166 3.5 -62.499 10.5s-43.666 13.5 -57.999 19.5s-39.166 17.167 -74.499 33.5s-57 26.166 -65 29.499c-35.333 -39.333 -72.333 -59 -111 -59c-30 0 -54.167 9.66699 -72.5 29s-27.5 38.666 -27.5 57.999zM4.99805 32.9971
c0 -12.667 6.83301 -25.333 20.5 -38s30.167 -19 49.5 -19c28 0 53.667 15.333 77 46c-49.333 20 -87.333 30 -114 30c-22 0 -33 -6.33301 -33 -19zM368.998 406.998c54.667 0.666992 101 28.668 139 84.001s57 106.666 57 153.999c0 33.333 -12 50 -36 50
c-14.667 0 -29 -7 -43 -21s-28 -36.5 -42 -67.5s-26 -60.167 -36 -87.5z" />
    <glyph glyph-name="currency" unicode="&#xa4;" horiz-adv-x="697" 
d="M83 43c6.66699 6.66699 18.833 16.3311 36.5 28.998s36.167 27.834 55.5 45.501s37.333 38.5 54 62.5c-6 18 -9 40.333 -9 67c0 60.667 15.333 119.667 46 177c-48.667 52.667 -88 92.667 -118 120c-12 10.667 -18 30.667 -18 60c0 12.667 2 24 6 34
c18.667 -18 71 -74.333 157 -169c38.667 51.333 82 77 130 77s82.333 -22.667 103 -68c9.33301 10.667 20.666 25.667 33.999 45s23.666 33.333 30.999 42s18.5 16.834 33.5 24.501s32.167 11.5 51.5 11.5c4 0 10 -0.666992 18 -2c-8 -11.333 -59.333 -72 -154 -182
c0 -2 0.166992 -4.66699 0.5 -8s0.5 -6 0.5 -8c0 -62.667 -18 -125.667 -54 -189c76 -71.333 114 -128 114 -170c0 -8 -0.666992 -14 -2 -18c-5.33301 10 -14.666 21.667 -27.999 35l-54 53l-58 57c-38.667 -48.667 -80 -73 -124 -73c-36 0 -63.667 13.333 -83 40
c-55.333 -62 -111.666 -93 -168.999 -93zM276.999 236.997c0 -24.667 7 -45.498 21 -62.498s29 -25.5 45 -25.5c22 0 44.5 14.5 67.5 43.5s41.667 64.167 56 105.5s21.5 79.333 21.5 114c0 23.333 -6.66699 43.166 -20 59.499s-28.333 24.5 -45 24.5
c-25.333 0 -49.833 -15.667 -73.5 -47s-41.667 -66.833 -54 -106.5s-18.5 -74.834 -18.5 -105.501z" />
    <glyph glyph-name="yen" unicode="&#xa5;" horiz-adv-x="810" 
d="M110 539c0 43.333 19.3291 84.335 57.9961 123.002s83 58 133 58c35.333 0 61.5 -10 78.5 -30s25.5 -43.667 25.5 -71c0 -22 -11.167 -73.333 -33.5 -154s-33.5 -140 -33.5 -178c0 -64 23.333 -96 70 -96c42 0 81 24 117 72s67.667 107 95 177
c45.333 186.667 85.333 280 120 280c17.333 0 36 -10.667 56 -32c-33.333 -53.333 -58.666 -106.333 -75.999 -159s-47 -164.334 -89 -335.001l-21 -81c38.667 -2 72.667 -4.33301 102 -7c-26.667 -19.333 -61 -29 -103 -29h-9c-6.66699 -21.333 -14 -42.333 -22 -63
c32 -0.666992 76.667 -3.33398 134 -8.00098c-26.667 -19.333 -61 -29 -103 -29h-47c-50.667 -109.333 -124 -164 -220 -164c-40 0 -73 8.33301 -99 25s-39 39.667 -39 69c0 36.667 20 61.667 60 75c-5.33301 -18 -8 -36 -8 -54c0 -28 7.33301 -50 22 -66
s36.334 -24 65.001 -24c66.667 0 121 46.333 163 139c-56.667 0 -107 -3.66699 -151 -11c11.333 30 66.666 46.333 165.999 49c4.66699 11.333 11.334 32 20.001 62h-5c-73.333 0 -133.666 -3.66699 -180.999 -11c12 32.667 75 49 189 49h6l2 6l18 90
c9.33301 46.667 17.333 85 24 115c-60.667 -116.667 -133 -175 -217 -175c-72.667 0 -109 39.667 -109 119c0 36 11.333 95 34 177s34 137.667 34 167c0 52 -19 78 -57 78c-33.333 0 -59.666 -19 -78.999 -57s-29 -76.667 -29 -116c0 -20 2.66699 -36.333 8 -49
c-46 0 -69 23 -69 69z" />
    <glyph glyph-name="brokenbar" unicode="&#xa6;" horiz-adv-x="260" 
d="M55 -132c18 48 35.668 157.667 53.001 329c13.333 13.333 28.666 20 45.999 20c8 0 12 -7.66699 12 -23c-8 -118 -19 -201.833 -33 -251.5s-40 -74.5 -78 -74.5zM117.001 296c2 25.333 4.99902 59.666 8.99902 102.999l9 103c2 24.667 4.5 51.834 7.5 81.501
s5.83301 53.667 8.5 72s5.33398 32.166 8.00098 41.499c18.667 -8 28 -27 28 -57c0 -12.667 -1.66699 -49 -5 -109s-5 -109.667 -5 -149c0 -9.33301 -2.5 -20.666 -7.5 -33.999s-13.167 -24 -24.5 -32z" />
    <glyph glyph-name="section" unicode="&#xa7;" horiz-adv-x="416" 
d="M7 28c0 30 8.16895 51.6582 24.502 64.9912s35.166 20 56.499 20c-23.333 -24.667 -35 -53 -35 -85c0 -25.333 8.33301 -46.666 25 -63.999s41 -26 73 -26c31.333 0 59 8.33301 83 25s36 39.334 36 68.001c0 20 -6.83301 38.5 -20.5 55.5s-30.167 31.833 -49.5 44.5
l-58 40c-19.333 14 -35.833 31.167 -49.5 51.5s-20.5 42.833 -20.5 67.5c0 38 14.167 70.833 42.5 98.5s67.5 41.5 117.5 41.5c10.667 0 18.667 -0.333008 24 -1c-17.333 10 -30.333 17.833 -39 23.5s-19 13.667 -31 24s-20.667 21.333 -26 33s-8 24.834 -8 39.501
c0 38.667 17.333 76.667 52 114s76.667 56 126 56c47.333 0 71 -21 71 -63s-16.333 -89 -49 -141c-14 2.66699 -21 11.667 -21 27c0 12 6.16699 34.333 18.5 67s18.5 55.334 18.5 68.001c0 18 -11.667 27 -35 27c-38 0 -71 -16 -99 -48s-42 -63.333 -42 -94
c0 -17.333 6.16699 -32.666 18.5 -45.999s27.333 -25.166 45 -35.499s35.167 -21.666 52.5 -33.999s32.166 -29.166 44.499 -50.499s18.5 -46.666 18.5 -75.999c0 -42.667 -12.167 -74.834 -36.5 -96.501s-57.833 -32.5 -100.5 -32.5c-10.667 0 -18.5 0.5 -23.5 1.5
s-11.667 3.5 -20 7.5s-16.5 7.33301 -24.5 10c4.66699 -5.33301 20.834 -15.666 48.501 -30.999s51.167 -33.5 70.5 -54.5s29 -45.833 29 -74.5c0 -40 -18.333 -72.833 -55 -98.5s-76.334 -38.5 -119.001 -38.5c-37.333 0 -68.833 10 -94.5 30s-38.5 48.333 -38.5 85z
M128.002 309.991c0 -52.667 30.334 -79 91.001 -79c63.333 0 95 28.333 95 85c0 26 -7.33301 46.667 -22 62s-36.334 23 -65.001 23c-28 0 -51.5 -7.5 -70.5 -22.5s-28.5 -37.833 -28.5 -68.5z" />
    <glyph glyph-name="dieresis" unicode="&#xa8;" horiz-adv-x="239" 
d="M0 466c0 12 7.16797 22.833 21.501 32.5s29.166 14.5 44.499 14.5c20 0 30 -9.33301 30 -28c0 -11.333 -6.16699 -22.333 -18.5 -33s-25.833 -16 -40.5 -16c-24.667 0 -37 10 -37 30zM144.001 445c0 12 7.16797 22.833 21.501 32.5s29.166 14.5 44.499 14.5
c20 0 30 -9.33301 30 -28c0 -11.333 -6.16699 -22.333 -18.5 -33s-25.833 -16 -40.5 -16c-24.667 0 -37 10 -37 30z" />
    <glyph glyph-name="copyright" unicode="&#xa9;" 
d="M79 358c0 82.667 25.667 147 77 193s108.333 69 171 69s119 -22.833 169 -68.5s75 -108.834 75 -189.501c0 -82.667 -25.667 -147 -77 -193s-108.333 -69 -171 -69s-119 22.833 -169 68.5s-75 108.834 -75 189.501zM107 358c0 -67.333 20 -122.5 60 -165.5
s92 -64.5 156 -64.5s116.667 21.667 158 65s62 99.666 62 168.999c0 67.333 -20 122.5 -60 165.5s-92 64.5 -156 64.5s-116.667 -21.667 -158 -65s-62 -99.666 -62 -168.999zM245 299l-0.000976562 132c0 31.333 7.5 54.333 22.5 69s34.5 22 58.5 22
c27.333 0 47.833 -8 61.5 -24s20.5 -31.667 20.5 -47c0 -11.333 -5 -17 -15 -17c-8.66699 0 -13.667 4 -15 12c-5.33301 32.667 -22.333 49 -51 49c-34.667 0 -52 -21.333 -52 -64v-132c0 -42.667 18 -64 54 -64c16.667 0 29 5.83301 37 17.5s12 22.167 12 31.5
c0 8 4.33301 12 13 12c11.333 0 17 -4.66699 17 -14c-1.33301 -21.333 -9.16602 -38.833 -23.499 -52.5s-33.833 -20.5 -58.5 -20.5c-54 0 -81 30 -81 90z" />
    <glyph glyph-name="ordfeminine" unicode="&#xaa;" horiz-adv-x="383" 
d="M105 506c0 43.333 21.334 89.834 64.001 139.501s86 74.5 130 74.5c18 0 33 -4.83301 45 -14.5s18 -22.167 18 -37.5c0 -20 -11.333 -30 -34 -30c2.66699 10.667 4 18.667 4 24c0 26.667 -11.667 40 -35 40c-31.333 0 -63.166 -24 -95.499 -72s-48.5 -90.333 -48.5 -127
c0 -18 6.33301 -27 19 -27c30 0 79 51 147 153c18.667 -4.66699 28 -10.667 28 -18c0 -4 -6.83301 -18 -20.5 -42s-20.5 -42.333 -20.5 -55c0 -8 2 -15.167 6 -21.5s10 -9.5 18 -9.5c13.333 0 30.333 9.66699 51 29s41 46.666 61 81.999l7 -7
c-14 -37.333 -34.333 -68 -61 -92s-52.334 -36 -77.001 -36c-16.667 0 -29.334 4.83301 -38.001 14.5s-13 21.167 -13 34.5c0 3.33301 0.666992 10.333 2 21c-40.667 -54.667 -75.667 -82 -105 -82c-15.333 0 -27.833 5 -37.5 15s-14.5 24.667 -14.5 44z" />
    <glyph glyph-name="guillemotleft" unicode="&#xab;" horiz-adv-x="435" 
d="M6 158c32.667 14 67.167 36.332 103.5 66.999s65.166 61 86.499 91c3.33301 -5.33301 5 -12.666 5 -21.999c0 -39.333 -56.333 -88.333 -169 -147l43 -30c10 -6.66699 25 -15 45 -25s44.667 -20.667 74 -32c-9.33301 -10.667 -19 -16 -29 -16c-24 0 -55.167 14 -93.5 42
s-60.166 52 -65.499 72zM156 157.999c32.667 14 67.167 36.332 103.5 66.999s65.166 61 86.499 91c3.33301 -5.33301 5 -12.666 5 -21.999c0 -39.333 -56.333 -88.333 -169 -147l43 -30c10 -6.66699 25 -15 45 -25s44.667 -20.667 74 -32c-9.33301 -10.667 -19 -16 -29 -16
c-24 0 -55.167 14 -93.5 42s-60.166 52 -65.499 72z" />
    <glyph glyph-name="logicalnot" unicode="&#xac;" horiz-adv-x="667" 
d="M44 184c19.333 32.667 119.998 49 301.998 49c57.333 0 109 -1 155 -3c3.33301 20.667 12.666 38 27.999 52c0 -2 0.833008 -9.16699 2.5 -21.5s2.83398 -23.166 3.50098 -32.499c11.333 0 38 -1.33301 80 -4c-20 -9.33301 -46 -17 -78 -23c0 -4 0.166992 -10 0.5 -18
s0.5 -14 0.5 -18c0 -80 -16.333 -124 -49 -132c2.66699 11.333 4.66699 21.166 6 29.499s2.33301 18 3 29s1.16699 19.833 1.5 26.5s0.5 19 0.5 37v42c-12 -1.33301 -28.667 -2 -50 -2c-39.333 -0.666992 -84 -1 -134 -1h-105c-19.333 0 -43.666 -0.833008 -72.999 -2.5
s-60.666 -4.16699 -93.999 -7.5z" />
    <glyph glyph-name="uni00AD" unicode="&#xad;" horiz-adv-x="484" 
d="M35 144c12 32.667 75 49 189 49c54 0 110 -3 168 -9c-16 -10.667 -37.5 -18.167 -64.5 -22.5s-73.5 -6.5 -139.5 -6.5c-57.333 0 -108.333 -3.66699 -153 -11z" />
    <glyph glyph-name="registered" unicode="&#xae;" 
d="M79 358c0 82.667 25.667 147 77 193s108.333 69 171 69s119 -22.833 169 -68.5s75 -108.834 75 -189.501c0 -82.667 -25.667 -147 -77 -193s-108.333 -69 -171 -69s-119 22.833 -169 68.5s-75 108.834 -75 189.501zM107 358c0 -67.333 20 -122.5 60 -165.5
s92 -64.5 156 -64.5s116.667 21.667 158 65s62 99.666 62 168.999c0 67.333 -20 122.5 -60 165.5s-92 64.5 -156 64.5s-116.667 -21.667 -158 -65s-62 -99.666 -62 -168.999zM251 224v283.999c0 3.33301 1.5 6.33301 4.5 9s6.5 4 10.5 4h63c57.333 0 86 -28 86 -84
c0 -46 -20 -73.333 -60 -82l58 -124c1.33301 -2.66699 2 -5 2 -7c0 -9.33301 -4.66699 -14 -14 -14c-2.66699 0 -5.5 1.33301 -8.5 4s-5.33301 5.33398 -7 8.00098s-3.5 6 -5.5 10l-4 7l-53 114h-41v-129c0 -9.33301 -5 -14 -15 -14c-10.667 0 -16 4.66699 -16 14z
M282 378.999h47c36.667 0 55 19.333 55 58c0 38 -18.333 57 -55 57h-47v-115z" />
    <glyph glyph-name="degree" unicode="&#xb0;" horiz-adv-x="265" 
d="M92 450c0 25.333 12.334 50.333 37.001 75s53 37 85 37c50.667 0 76 -18 76 -54c0 -25.333 -12.833 -50.333 -38.5 -75s-54.834 -37 -87.501 -37c-48 0 -72 18 -72 54zM124.001 450c0 -24.667 14.999 -37 44.999 -37c20.667 0 41 11 61 33s30 43 30 63
c0 24 -15.333 36 -46 36c-21.333 0 -41.666 -10.667 -60.999 -32s-29 -42.333 -29 -63z" />
    <glyph glyph-name="plusminus" unicode="&#xb1;" horiz-adv-x="449" 
d="M54 84c10.667 26 67.333 39 170 39c60 0 110.333 -2.33301 151 -7c-25.333 -15.333 -76.333 -23 -153 -23c-68.667 0 -124.667 -3 -168 -9zM53.999 289c9.33301 24 56.999 37 142.999 39v40c0 34 8.66699 61.333 26 82c4.66699 -32 7.33398 -72.667 8.00098 -122
c47.333 -0.666992 95.333 -3 144 -7c-24 -16 -55 -24 -93 -24h-51c-2 -78.667 -16.667 -122.667 -44 -132c6.66699 36 10 80 10 132c-58 0 -105.667 -2.66699 -143 -8z" />
    <glyph glyph-name="uni00B2" unicode="&#xb2;" horiz-adv-x="354" 
d="M72 349c0 17.333 13.666 26 40.999 26c10.667 0 27.667 -2.33301 51 -7c32.667 28.667 62.5 68 89.5 118s40.5 95.667 40.5 137c0 45.333 -16.333 68 -49 68c-19.333 0 -34.833 -9.33301 -46.5 -28s-17.5 -42 -17.5 -70c0 -10.667 2.33301 -22.667 7 -36h-8
c-13.333 4 -23 9.33301 -29 16s-9 16.667 -9 30c0 28 10.667 52.5 32 73.5s47.666 31.5 78.999 31.5c24.667 0 44.834 -8.83301 60.501 -26.5s23.5 -39.5 23.5 -65.5c0 -42 -14 -87 -42 -135s-61 -87.667 -99 -119l8 -2c45.333 -10.667 75.666 -16 90.999 -16
c10.667 0 25.334 6 44.001 18c-10 -38.667 -29 -58 -57 -58c-19.333 0 -51.666 9.66699 -96.999 29l-19 8c-21.333 -14 -40 -21 -56 -21c-11.333 0 -20.5 2.66699 -27.5 8s-10.5 12.333 -10.5 21zM94.999 348c0 -6.66699 4.66699 -10 14 -10c6.66699 0 17 4.33301 31 13
c-12 4.66699 -22.333 7 -31 7c-9.33301 0 -14 -3.33301 -14 -10z" />
    <glyph glyph-name="uni00B3" unicode="&#xb3;" horiz-adv-x="294" 
d="M81 387c0 14 4 26.667 12 38s19 17 33 17c5.33301 0 10 -0.666992 14 -2c-11.333 -9.33301 -17 -25 -17 -47c0 -16 4.33301 -29.833 13 -41.5s20.334 -17.5 35.001 -17.5c19.333 0 37 10.333 53 31s24 46.334 24 77.001c0 50.667 -19.667 81 -59 91
c24.667 10.667 44.834 28.167 60.501 52.5s23.5 47.166 23.5 68.499c0 31.333 -13.667 47 -41 47c-14 0 -26.333 -4.66699 -37 -14s-16 -22 -16 -38c0 -9.33301 2.66699 -20.333 8 -33c-5.33301 -10.667 -13.333 -16 -24 -16c-6.66699 0 -11.834 4.33301 -15.501 13
s-5.5 18 -5.5 28c0 23.333 9.66699 42 29 56s41.666 21 66.999 21c22 0 40.833 -5.83301 56.5 -17.5s23.5 -27.834 23.5 -48.501c0 -22 -7.83301 -44.5 -23.5 -67.5s-35.167 -38.5 -58.5 -46.5c24 -8 41.667 -21.167 53 -39.5s17 -37.166 17 -56.499
c0 -32.667 -13.667 -62.167 -41 -88.5s-60.333 -39.5 -99 -39.5c-28.667 0 -50 7.5 -64 22.5s-21 31.833 -21 50.5z" />
    <glyph glyph-name="acute" unicode="&#xb4;" horiz-adv-x="125" 
d="M88 436c0 14 12.832 37.667 38.499 71s47.5 50 65.5 50c12.667 0 20 -10.333 22 -31c-49.333 -42.667 -86.666 -81.334 -111.999 -116.001c-9.33301 4.66699 -14 13.334 -14 26.001z" />
    <glyph glyph-name="uni00B5" unicode="&#xb5;" horiz-adv-x="584" 
d="M-40 -242c7.33301 26.667 21.999 68.666 43.999 125.999s40.667 120.333 56 189s30.333 163 45 283c0.666992 6.66699 2.16699 11.167 4.5 13.5s7.16602 3.5 14.499 3.5c16 0 28 -4.5 36 -13.5s12 -19.833 12 -32.5c-32 -143.333 -48 -232.333 -48 -267
c0 -33.333 9.66699 -50 29 -50c8.66699 0 17.834 3.33301 27.501 10s19.5 16.5 29.5 29.5s19.5 26 28.5 39s18.833 29.167 29.5 48.5l25 49l24 48c8.66699 19.333 14.667 31.666 18 36.999c32 -6 48 -14.667 48 -26c0 -2 -5.5 -15.5 -16.5 -40.5
s-22.167 -53.833 -33.5 -86.5s-17 -58.667 -17 -78c0 -26.667 11 -40 33 -40c22.667 0 50.334 14.833 83.001 44.5s60.667 68.834 84 117.501l13 -9c-21.333 -53.333 -51.166 -97.166 -89.499 -131.499s-75.5 -51.5 -111.5 -51.5c-46.667 0 -70 24.667 -70 74
c0 13.333 2.33301 30 7 50c-46.667 -82.667 -90.334 -124 -131.001 -124c-16.667 0 -30.667 5.66699 -42 17c-50 -178 -83.667 -267 -101 -267c-8 0 -15.167 5.33301 -21.5 16s-9.5 18 -9.5 22z" />
    <glyph glyph-name="paragraph" unicode="&#xb6;" horiz-adv-x="644" 
d="M61 336c0 46.667 16.8301 88.5029 50.4971 125.503s73.334 64.833 119.001 83.5s92.834 30 141.501 34c-1.33301 49.333 -4.33301 92.333 -9 129c10.667 5.33301 20.334 8 29.001 8s15.667 -3 21 -9s9 -14.833 11 -26.5s3.33301 -22.667 4 -33s1 -23 1 -38
s0.333008 -25.5 1 -31.5l42 -6c-1.33301 59.333 -3.33301 104.666 -6 135.999c8 5.33301 16.667 8 26 8c18.667 0 30.667 -52.667 36 -158c32 -10.667 59.667 -21.667 83 -33c-2 -4.66699 -8.33301 -10.334 -19 -17.001s-18 -10 -22 -10c-0.666992 0 -14.334 7 -41.001 21
c0.666992 -11.333 1 -28.333 1 -51c0 -96 -1 -183.5 -3 -262.5s-4.16699 -137.167 -6.5 -174.5s-4.5 -60 -6.5 -68c-5.33301 -15.333 -14.333 -27.5 -27 -36.5s-26.334 -13.5 -41.001 -13.5c2 4 5 40.167 9 108.5s7.83301 153.333 11.5 255s5.5 189.834 5.5 264.501v4
c-11.333 3.33301 -25 6.66602 -41 9.99902c2 -50 3 -123.667 3 -221c0 -68.667 -1.16699 -132.167 -3.5 -190.5s-4.66602 -101.5 -6.99902 -129.5s-4.5 -45 -6.5 -51c-5.33301 -14 -16.833 -25.833 -34.5 -35.5s-35.5 -14.5 -53.5 -14.5c2 24.667 5.5 64.667 10.5 120
s8.5 96.333 10.5 123c-20 0.666992 -40.5 2.5 -61.5 5.5s-45.833 8.66699 -74.5 17s-53.667 18.666 -75 30.999s-39.666 29.5 -54.999 51.5s-23 47 -23 75z" />
    <glyph glyph-name="periodcentered" unicode="&#xb7;" horiz-adv-x="209" 
d="M38 151c0 10.667 6.33301 20.167 19 28.5s25.667 12.5 39 12.5c17.333 0 26 -8 26 -24c0 -10 -5.5 -19.833 -16.5 -29.5s-22.833 -14.5 -35.5 -14.5c-21.333 0 -32 9 -32 27z" />
    <glyph glyph-name="cedilla" unicode="&#xb8;" horiz-adv-x="217" 
d="M20 -137c0 11.333 7.33398 22.333 22.001 33c6.66699 -30 20.667 -45 42 -45c18.667 0 37.167 10 55.5 30s27.5 39 27.5 57c0 16.667 -5.66699 25 -17 25c-10 0 -26 -6.83301 -48 -20.5s-34.333 -20.5 -37 -20.5c-4 0 -7.33301 2 -10 6s-4 8 -4 12c0 2 7 12.667 21 32
s24.667 32.333 32 39l35 27l-53 -81c22.667 16 45 24 67 24c30 0 45 -14 45 -42c0 -28.667 -11.833 -54.5 -35.5 -77.5s-50.834 -34.5 -81.501 -34.5c-18.667 0 -33.5 3.5 -44.5 10.5s-16.5 15.5 -16.5 25.5z" />
    <glyph glyph-name="uni00B9" unicode="&#xb9;" horiz-adv-x="259" 
d="M66 338l12 -0.000976562c1.33301 0 3 -0.166992 5 -0.5s3.33301 -0.5 4 -0.5c14.667 0 31.334 1.66699 50.001 5c12 27.333 25.5 81 40.5 161s24.167 125.667 27.5 137c-26.667 -17.333 -43.667 -26 -51 -26c-10 0 -15 6 -15 18c9.33301 4.66699 25 15.667 47 33
s41.333 34.666 58 51.999h6c3.33301 -3.33301 5 -8.66602 5 -15.999s-2 -18.333 -6 -33c-2.66699 -11.333 -8.66699 -39.666 -18 -84.999l-19 -95l-13 -62c-8.66699 -40.667 -18 -67 -28 -79c3.33301 0.666992 7.66602 1 12.999 1c30.667 0 48 -10.667 52 -32
c-17.333 1.33301 -31.666 2 -42.999 2c-12 0 -26.833 -0.666992 -44.5 -2s-30.834 -2 -39.501 -2c-18 0 -32.333 8 -43 24z" />
    <glyph glyph-name="ordmasculine" unicode="&#xba;" horiz-adv-x="279" 
d="M107 512c0 40.667 18.334 85.501 55.001 134.501s75 73.5 115 73.5c15.333 0 25.333 -4.66699 30 -14c9.33301 0 16.5 -2.83301 21.5 -8.5s7.5 -11.834 7.5 -18.501c0 -4 -4.66699 -16.167 -14 -36.5s-14 -37.5 -14 -51.5c0 -10.667 6.66699 -16 20 -16c2 0 11 1 27 3
c-7.33301 -13.333 -21 -20 -41 -20c-12.667 0 -21.334 4.33301 -26.001 13c-15.333 -36 -34 -64.833 -56 -86.5s-45 -32.5 -69 -32.5c-17.333 0 -31 5.5 -41 16.5s-15 25.5 -15 43.5zM152.001 517.001c0 -23.333 9.00098 -35 27.001 -35c15.333 0 32.666 10.333 51.999 31
s35.333 46 48 76c-2.66699 10.667 -4 24 -4 40c0 30 4.33301 51.333 13 64c-36 0 -67.667 -21.167 -95 -63.5s-41 -79.833 -41 -112.5z" />
    <glyph glyph-name="guillemotright" unicode="&#xbb;" horiz-adv-x="454" 
d="M51 294c0 9.33301 1.66699 16.667 5 22c21.333 -30 50.166 -60.333 86.499 -91s70.833 -53 103.5 -67c-5.33301 -20 -27.166 -44 -65.499 -72s-69.5 -42 -93.5 -42c-10 0 -19.667 5.33301 -29 16c29.333 11.333 54 22 74 32s35 18.333 45 25l43 30
c-112.667 58.667 -169 107.667 -169 147zM201 294.001c0 9.33301 1.66699 16.667 5 22c21.333 -30 50.166 -60.333 86.499 -91s70.833 -53 103.5 -67c-5.33301 -20 -27.166 -44 -65.499 -72s-69.5 -42 -93.5 -42c-10 0 -19.667 5.33301 -29 16c29.333 11.333 54 22 74 32
s35 18.333 45 25l43 30c-112.667 58.667 -169 107.667 -169 147z" />
    <glyph glyph-name="onequarter" unicode="&#xbc;" horiz-adv-x="642" 
d="M45 -87c44.667 44.667 118.168 158.667 220.501 342s172.166 323.333 209.499 420c3.33301 10 14.333 20 33 30s35.667 15 51 15c-12.667 -32 -60.667 -127.833 -144 -287.5s-145 -271.5 -185 -335.5c-38 -60.667 -71.667 -106.5 -101 -137.5s-57.333 -46.5 -84 -46.5z
M66.001 338l12 -0.000976562c1.33301 0 3 -0.166992 5 -0.5s3.33301 -0.5 4 -0.5c14.667 0 31.334 1.66699 50.001 5c12 27.333 25.5 81 40.5 161s24.167 125.667 27.5 137c-26.667 -17.333 -43.667 -26 -51 -26c-10 0 -15 6 -15 18c9.33301 4.66699 25 15.667 47 33
s41.333 34.666 58 51.999h6c3.33301 -3.33301 5 -8.66602 5 -15.999s-2 -18.333 -6 -33c-2.66699 -11.333 -8.66699 -39.666 -18 -84.999l-19 -95l-13 -62c-8.66699 -40.667 -18 -67 -28 -79c3.33301 0.666992 7.66602 1 12.999 1c30.667 0 48 -10.667 52 -32
c-17.333 1.33301 -31.666 2 -42.999 2c-12 0 -26.833 -0.666992 -44.5 -2s-30.834 -2 -39.501 -2c-18 0 -32.333 8 -43 24zM350.001 125.999c0 10 3.33496 18.333 10.002 25c110 97.333 179.667 172.666 209 225.999c8.66699 -1.33301 13 -6 13 -14
c0 -2 -1.83301 -9.5 -5.5 -22.5s-9.33398 -35.667 -17.001 -68s-15.5 -68.5 -23.5 -108.5h17c7.33301 0 19.333 1.66699 36 5c-16.667 -23.333 -33.667 -35 -51 -35h-7c-14 -70 -21 -123.333 -21 -160c-32 2 -48 10.667 -48 26c0 12.667 8.33301 57.334 25 134.001
c-2.66699 0 -6 0.166992 -10 0.5s-7 0.5 -9 0.5h-17c-40.667 0 -74.334 -3 -101.001 -9zM405.003 164.999c16 1.33301 30.334 2.00098 43.001 2.00098c3.33301 0 8.16602 -0.166992 14.499 -0.5s10.833 -0.5 13.5 -0.5h19l5 23c8 40 15.333 70 22 90l-44 -43
c-42.667 -40.667 -67 -64.334 -73 -71.001z" />
    <glyph glyph-name="onehalf" unicode="&#xbd;" horiz-adv-x="698" 
d="M51 -87c44.667 44.667 118.168 158.667 220.501 342s172.166 323.333 209.499 420c3.33301 10 14.333 20 33 30s35.667 15 51 15c-12.667 -32 -60.667 -127.833 -144 -287.5s-145 -271.5 -185 -335.5c-38 -60.667 -71.667 -106.5 -101 -137.5s-57.333 -46.5 -84 -46.5z
M72.001 338h11.999c1.33301 0 3 -0.166992 5 -0.5s3.33301 -0.5 4 -0.5c14.667 0 31.334 1.66699 50.001 5c12 27.333 25.5 81 40.5 161s24.167 125.667 27.5 137c-26.667 -17.333 -43.667 -26 -51 -26c-10 0 -15 6 -15 18c9.33301 4.66699 25 15.667 47 33
s41.333 34.666 58 51.999h6c3.33301 -3.33301 5 -8.66602 5 -15.999s-2 -18.333 -6 -33c-2.66699 -11.333 -8.5 -39.5 -17.5 -84.5l-19.5 -95.5l-13 -62c-8.66699 -40.667 -18 -67 -28 -79c3.33301 0.666992 7.66602 1 12.999 1c30.667 0 48 -10.667 52 -32
c-17.333 1.33301 -31.666 2 -42.999 2c-12 0 -26.833 -0.666992 -44.5 -2s-30.834 -2 -39.501 -2c-17.333 0 -31.666 8 -42.999 24zM345 19c0 17.333 13.667 26 41 26c10.667 0 27.667 -2.33301 51 -7c32.667 28.667 62.5 68 89.5 118s40.5 95.667 40.5 137
c0 45.333 -16.333 68 -49 68c-19.333 0 -34.833 -9.33301 -46.5 -28s-17.5 -42 -17.5 -70c0 -10.667 2.33301 -22.667 7 -36h-8c-13.333 4 -23 9.33301 -29 16s-9 16.667 -9 30c0 28 10.667 52.5 32 73.5s47.666 31.5 78.999 31.5c24.667 0 44.834 -8.83301 60.501 -26.5
s23.5 -39.5 23.5 -65.5c0 -42 -14 -87 -42 -135s-61 -87.667 -99 -119l8 -2c45.333 -10.667 75.666 -16 90.999 -16c10.667 0 25.334 6 44.001 18c-9.33301 -38.667 -28.333 -58 -57 -58c-19.333 0 -51.666 9.66699 -96.999 29l-19 8c-20.667 -14 -39.334 -21 -56.001 -21
c-11.333 0 -20.5 2.66699 -27.5 8s-10.5 12.333 -10.5 21zM368 18c0 -6.66699 4.66699 -10 14 -10c6.66699 0 17 4.33301 31 13c-12 4.66699 -22.333 7 -31 7c-9.33301 0 -14 -3.33301 -14 -10z" />
    <glyph glyph-name="threequarters" unicode="&#xbe;" horiz-adv-x="685" 
d="M83 387c0 14 4 26.667 12 38s19 17 33 17c5.33301 0 10 -0.666992 14 -2c-11.333 -9.33301 -17 -25 -17 -47c0 -16 4.33301 -29.833 13 -41.5s20.334 -17.5 35.001 -17.5c19.333 0 37 10.333 53 31s24 46.334 24 77.001c0 50.667 -19.667 81 -59 91
c24.667 10.667 44.834 28.167 60.501 52.5s23.5 47.166 23.5 68.499c0 31.333 -13.667 47 -41 47c-14 0 -26.333 -4.66699 -37 -14s-16 -22 -16 -38c0 -9.33301 2.66699 -20.333 8 -33c-5.33301 -10.667 -13.333 -16 -24 -16c-6.66699 0 -11.834 4.33301 -15.501 13
s-5.5 18 -5.5 28c0 23.333 9.66699 42 29 56s41.666 21 66.999 21c22 0 40.833 -5.83301 56.5 -17.5s23.5 -27.834 23.5 -48.501c0 -22 -7.83301 -44.5 -23.5 -67.5s-35.167 -38.5 -58.5 -46.5c24 -8 41.667 -21.167 53 -39.5s17 -37.166 17 -56.499
c0 -32.667 -13.667 -62.167 -41 -88.5s-60.333 -39.5 -99 -39.5c-28.667 0 -50 7.5 -64 22.5s-21 31.833 -21 50.5zM88 -87c44.667 44.667 118.168 158.667 220.501 342s172.166 323.333 209.499 420c3.33301 10 14.333 20 33 30s35.667 15 51 15
c-12.667 -32 -60.667 -127.833 -144 -287.5s-145 -271.5 -185 -335.5c-38 -60.667 -71.667 -106.5 -101 -137.5s-57.333 -46.5 -84 -46.5zM393.001 126c0 10 3.33398 18.333 10.001 25c110 97.333 179.667 172.666 209 225.999c8.66699 -1.33301 13 -6 13 -14
c0 -2 -1.83301 -9.5 -5.5 -22.5s-9.33398 -35.667 -17.001 -68s-15.5 -68.5 -23.5 -108.5h17c7.33301 0 19.333 1.66699 36 5c-16.667 -23.333 -33.667 -35 -51 -35h-7c-14 -70 -21 -123.333 -21 -160c-32 2 -48 10.667 -48 26c0 12.667 8.33301 57.334 25 134.001
c-2.66699 0 -6 0.166992 -10 0.5s-7 0.5 -9 0.5h-17c-40 0 -73.667 -3 -101 -9zM448.002 165c16 1.33301 30.334 2.00098 43.001 2.00098c3.33301 0 8.16602 -0.166992 14.499 -0.5s10.833 -0.5 13.5 -0.5h19l5 23c8 40 15.333 70 22 90l-44 -43
c-42.667 -40.667 -67 -64.334 -73 -71.001z" />
    <glyph glyph-name="questiondown" unicode="&#xbf;" horiz-adv-x="415" 
d="M-50 -161c0 24.667 5.33301 47.832 16 69.499s24 41.5 40 59.5l51 52c17.333 17.333 34.333 37.666 51 60.999s29 47.666 37 72.999c4 12 7.83301 29.333 11.5 52s8.16699 39.334 13.5 50.001c12.667 -6 21 -11.667 25 -17s6 -13.666 6 -24.999
c0 -26 -6.5 -51.667 -19.5 -77s-28.833 -48.333 -47.5 -69l-57 -63c-19.333 -21.333 -35.333 -45.666 -48 -72.999s-19 -55.666 -19 -84.999c0 -32.667 7.33301 -57.834 22 -75.501s33.667 -26.5 57 -26.5c36.667 0 71 19 103 57s48 82.667 48 134c0 14 -2.33301 31 -7 51
c24 -3.33301 40.333 -10.666 49 -21.999s13 -27 13 -47c0 -52.667 -20 -98.834 -60 -138.501s-90 -59.5 -150 -59.5c-42 0 -75 10.333 -99 31s-36 50 -36 88zM156 343.998c0 11.333 5.33301 21.832 16 31.499s22.667 14.5 36 14.5c8.66699 0 16.167 -2.33301 22.5 -7
s9.5 -11 9.5 -19c0 -11.333 -6.16699 -21.166 -18.5 -29.499s-25.5 -12.5 -39.5 -12.5c-17.333 0 -26 7.33301 -26 22z" />
    <glyph glyph-name="Agrave" unicode="&#xc0;" 
d="M-17 -35c0 50 50.665 154.331 151.998 312.998c-40.667 3.33301 -76.667 5 -108 5h-35c12.667 34.667 47.334 52 104.001 52c17.333 0 41.333 -2.33301 72 -7c51.333 77.333 103.5 150.166 156.5 218.499s94.833 116.833 125.5 145.5c19.333 18.667 35.333 28 48 28
c14 0 31.667 -10.667 53 -32c-22 -17.333 -53.5 -100.166 -94.5 -248.499s-61.5 -263.5 -61.5 -345.5c0 -53.333 12.333 -80 37 -80c36.667 0 80.334 49.333 131.001 148l10 -10c-20.667 -54.667 -46.5 -98.667 -77.5 -132s-62.833 -50 -95.5 -50c-52 0 -78 44.667 -78 134
c0 42.667 5.66699 92.334 17 149.001c-42.667 6.66699 -92 13.334 -148 20.001c-65.333 -120 -123.333 -240 -174 -360c-22.667 12.667 -34 30 -34 52zM216.998 318.998l73 -17c31.333 -7.33301 50 -12 56 -14c28 131.333 68 254.333 120 369
c-60.667 -37.333 -143.667 -150 -249 -338zM434.998 863.998c2 20.667 9.33203 31 21.999 31c18 0 39.833 -16.667 65.5 -50s38.5 -57 38.5 -71c0 -12.667 -4.66699 -21.334 -14 -26.001c-25.333 34.667 -62.666 73.334 -111.999 116.001z" />
    <glyph glyph-name="Aacute" unicode="&#xc1;" 
d="M-17 -35c0 50 50.665 154.331 151.998 312.998c-40.667 3.33301 -76.667 5 -108 5h-35c12.667 34.667 47.334 52 104.001 52c17.333 0 41.333 -2.33301 72 -7c51.333 77.333 103.5 150.166 156.5 218.499s94.833 116.833 125.5 145.5c19.333 18.667 35.333 28 48 28
c14 0 31.667 -10.667 53 -32c-22 -17.333 -53.5 -100.166 -94.5 -248.499s-61.5 -263.5 -61.5 -345.5c0 -53.333 12.333 -80 37 -80c36.667 0 80.334 49.333 131.001 148l10 -10c-20.667 -54.667 -46.5 -98.667 -77.5 -132s-62.833 -50 -95.5 -50c-52 0 -78 44.667 -78 134
c0 42.667 5.66699 92.334 17 149.001c-42.667 6.66699 -92 13.334 -148 20.001c-65.333 -120 -123.333 -240 -174 -360c-22.667 12.667 -34 30 -34 52zM216.998 318.998l73 -17c31.333 -7.33301 50 -12 56 -14c28 131.333 68 254.333 120 369
c-60.667 -37.333 -143.667 -150 -249 -338zM515.998 773.998c0 14 12.832 37.667 38.499 71s47.5 50 65.5 50c12.667 0 20 -10.333 22 -31c-49.333 -42.667 -86.666 -81.334 -111.999 -116.001c-9.33301 4.66699 -14 13.334 -14 26.001z" />
    <glyph glyph-name="Acircumflex" unicode="&#xc2;" 
d="M-17 -35c0 50 50.665 154.331 151.998 312.998c-40.667 3.33301 -76.667 5 -108 5h-35c12.667 34.667 47.334 52 104.001 52c17.333 0 41.333 -2.33301 72 -7c51.333 77.333 103.5 150.166 156.5 218.499s94.833 116.833 125.5 145.5c19.333 18.667 35.333 28 48 28
c14 0 31.667 -10.667 53 -32c-22 -17.333 -53.5 -100.166 -94.5 -248.499s-61.5 -263.5 -61.5 -345.5c0 -53.333 12.333 -80 37 -80c36.667 0 80.334 49.333 131.001 148l10 -10c-20.667 -54.667 -46.5 -98.667 -77.5 -132s-62.833 -50 -95.5 -50c-52 0 -78 44.667 -78 134
c0 42.667 5.66699 92.334 17 149.001c-42.667 6.66699 -92 13.334 -148 20.001c-65.333 -120 -123.333 -240 -174 -360c-22.667 12.667 -34 30 -34 52zM216.998 318.998l73 -17c31.333 -7.33301 50 -12 56 -14c28 131.333 68 254.333 120 369
c-60.667 -37.333 -143.667 -150 -249 -338zM417.998 797.998c0 18 15 37.1641 45 57.4971s53 30.5 69 30.5s35 -13.167 57 -39.5s33 -50.166 33 -71.499c0 -15.333 -5.66699 -25.666 -17 -30.999c-14 28.667 -38.667 59.334 -74 92.001c-44 -16 -78.333 -35 -103 -57
c-6.66699 4 -10 10.333 -10 19z" />
    <glyph glyph-name="Atilde" unicode="&#xc3;" 
d="M-17 -35c0 50 50.665 154.331 151.998 312.998c-40.667 3.33301 -76.667 5 -108 5h-35c12.667 34.667 47.334 52 104.001 52c17.333 0 41.333 -2.33301 72 -7c51.333 77.333 103.5 150.166 156.5 218.499s94.833 116.833 125.5 145.5c19.333 18.667 35.333 28 48 28
c14 0 31.667 -10.667 53 -32c-22 -17.333 -53.5 -100.166 -94.5 -248.499s-61.5 -263.5 -61.5 -345.5c0 -53.333 12.333 -80 37 -80c36.667 0 80.334 49.333 131.001 148l10 -10c-20.667 -54.667 -46.5 -98.667 -77.5 -132s-62.833 -50 -95.5 -50c-52 0 -78 44.667 -78 134
c0 42.667 5.66699 92.334 17 149.001c-42.667 6.66699 -92 13.334 -148 20.001c-65.333 -120 -123.333 -240 -174 -360c-22.667 12.667 -34 30 -34 52zM216.998 318.998l73 -17c31.333 -7.33301 50 -12 56 -14c28 131.333 68 254.333 120 369
c-60.667 -37.333 -143.667 -150 -249 -338zM372.998 758.998c23.333 30.667 50.999 46 82.999 46c17.333 0 47.5 -7.33301 90.5 -22s77.5 -22 103.5 -22c10 0 20 1 30 3c-21.333 -24 -47.333 -36 -78 -36c-18.667 0 -48.5 6.5 -89.5 19.5s-72.167 19.5 -93.5 19.5
c-17.333 0 -32.666 -2.66699 -45.999 -8z" />
    <glyph glyph-name="Adieresis" unicode="&#xc4;" 
d="M-17 -35c0 50 50.665 154.331 151.998 312.998c-40.667 3.33301 -76.667 5 -108 5h-35c12.667 34.667 47.334 52 104.001 52c17.333 0 41.333 -2.33301 72 -7c51.333 77.333 103.5 150.166 156.5 218.499s94.833 116.833 125.5 145.5c19.333 18.667 35.333 28 48 28
c14 0 31.667 -10.667 53 -32c-22 -17.333 -53.5 -100.166 -94.5 -248.499s-61.5 -263.5 -61.5 -345.5c0 -53.333 12.333 -80 37 -80c36.667 0 80.334 49.333 131.001 148l10 -10c-20.667 -54.667 -46.5 -98.667 -77.5 -132s-62.833 -50 -95.5 -50c-52 0 -78 44.667 -78 134
c0 42.667 5.66699 92.334 17 149.001c-42.667 6.66699 -92 13.334 -148 20.001c-65.333 -120 -123.333 -240 -174 -360c-22.667 12.667 -34 30 -34 52zM216.998 318.998l73 -17c31.333 -7.33301 50 -12 56 -14c28 131.333 68 254.333 120 369
c-60.667 -37.333 -143.667 -150 -249 -338zM410.998 803.998c0 12 7.16797 22.833 21.501 32.5s29.166 14.5 44.499 14.5c20 0 30 -9.33301 30 -28c0 -11.333 -6.16699 -22.333 -18.5 -33s-25.833 -16 -40.5 -16c-24.667 0 -37 10 -37 30zM554.999 782.998
c0 12 7.16797 22.833 21.501 32.5s29.166 14.5 44.499 14.5c20 0 30 -9.33301 30 -28c0 -11.333 -6.16699 -22.333 -18.5 -33s-25.833 -16 -40.5 -16c-24.667 0 -37 10 -37 30z" />
    <glyph glyph-name="Aring" unicode="&#xc5;" 
d="M-17 -35c0 50 50.665 154.331 151.998 312.998c-40.667 3.33301 -76.667 5 -108 5h-35c12.667 34.667 47.334 52 104.001 52c17.333 0 41.333 -2.33301 72 -7c51.333 77.333 103.5 150.166 156.5 218.499s94.833 116.833 125.5 145.5c19.333 18.667 35.333 28 48 28
c14 0 31.667 -10.667 53 -32c-22 -17.333 -53.5 -100.166 -94.5 -248.499s-61.5 -263.5 -61.5 -345.5c0 -53.333 12.333 -80 37 -80c36.667 0 80.334 49.333 131.001 148l10 -10c-20.667 -54.667 -46.5 -98.667 -77.5 -132s-62.833 -50 -95.5 -50c-52 0 -78 44.667 -78 134
c0 42.667 5.66699 92.334 17 149.001c-42.667 6.66699 -92 13.334 -148 20.001c-65.333 -120 -123.333 -240 -174 -360c-22.667 12.667 -34 30 -34 52zM216.998 318.998l73 -17c31.333 -7.33301 50 -12 56 -14c28 131.333 68 254.333 120 369
c-60.667 -37.333 -143.667 -150 -249 -338zM451.998 807.998c0 25.333 12.334 50.333 37.001 75s53 37 85 37c50.667 0 76 -18 76 -54c0 -25.333 -12.833 -50.333 -38.5 -75s-54.834 -37 -87.501 -37c-48 0 -72 18 -72 54zM490.999 814.998c0 -10 3.66699 -19.333 11 -28
s17.666 -13 30.999 -13c18.667 0 36.667 9.83301 54 29.5s26 38.5 26 56.5c0 10 -3.83301 18.667 -11.5 26s-18.5 11 -32.5 11c-19.333 0 -37.166 -9 -53.499 -27s-24.5 -36.333 -24.5 -55z" />
    <glyph glyph-name="AE" unicode="&#xc6;" horiz-adv-x="747" 
d="M-17 -35c0 50 50.6699 154.332 152.003 312.999c-40.667 3.33301 -76.667 5 -108 5h-35c12.667 34.667 47.334 52 104.001 52c17.333 0 41.333 -2.33301 72 -7c72 108 139.667 200.333 203 277s105.666 115 126.999 115c98.667 0 201.667 -7.66699 309 -23
c-8.66699 -24 -65.334 -36 -170.001 -36c-27.333 0 -61.666 0.666992 -102.999 2c-25.333 -50 -53.333 -132.667 -84 -248c27.333 -0.666992 53.666 -2.33398 78.999 -5.00098s52.5 -6.16699 81.5 -10.5s44.833 -6.83301 47.5 -7.5c-8.66699 -24 -65.334 -36 -170.001 -36
c-26 0 -43.667 0.333008 -53 1c-26.667 -113.333 -40 -201 -40 -263c0 -16 1 -29.667 3 -41c26 -4 73.833 -9 143.5 -15s112.5 -11 128.5 -15c-8.66699 -24 -65.334 -36 -170.001 -36c-74 0 -123.667 1.33301 -149 4c-19.333 19.333 -29 57 -29 113
c0 42.667 5.66699 92.334 17 149.001c-42.667 6.66699 -92 13.334 -148 20.001c-65.333 -120 -123.333 -240 -174 -360c-22.667 12.667 -34 30 -34 52zM217.003 318.999l73 -17c31.333 -7.33301 50 -12 56 -14c28 131.333 68 254.333 120 369
c-60.667 -37.333 -143.667 -150 -249 -338z" />
    <glyph glyph-name="Ccedilla" unicode="&#xc7;" horiz-adv-x="562" 
d="M22 157c0 64 12.6689 130.167 38.002 198.5s57.333 129 96 182s83 96.5 133 130.5s98 51 144 51c61.333 0 92 -28.667 92 -86c0 -41.333 -12.833 -87.166 -38.5 -137.499s-51.5 -75.5 -77.5 -75.5c-13.333 0 -23.666 7.66699 -30.999 23c24.667 28 48.667 62 72 102
s35 73 35 99c0 30 -16.333 45 -49 45c-46 0 -95.5 -29.833 -148.5 -89.5s-97.167 -132.834 -132.5 -219.501s-53 -166.667 -53 -240c0 -54.667 11.667 -100.5 35 -137.5s58.666 -55.5 105.999 -55.5c51.333 0 102.666 21 153.999 63s90.666 92.667 117.999 152l14 -10
c-27.333 -52.667 -58.666 -97.667 -93.999 -135l-39 -60c22.667 16 45 24 67 24c30 0 45 -14 45 -42c0 -28.667 -11.833 -54.5 -35.5 -77.5s-50.834 -34.5 -81.501 -34.5c-18.667 0 -33.5 3.5 -44.5 10.5s-16.5 15.5 -16.5 25.5c0 11.333 7.33301 22.333 22 33
c6.66699 -30 20.667 -45 42 -45c18.667 0 37.167 10 55.5 30s27.5 39 27.5 57c0 16.667 -5.66699 25 -17 25c-10 0 -26 -6.83301 -48 -20.5s-34.333 -20.5 -37 -20.5c-4 0 -7.33301 2 -10 6s-4 8 -4 12c0 2 6 11.333 18 28c-52 -36.667 -105.333 -55 -160 -55
c-66 0 -115.333 23.667 -148 71s-49 105 -49 173z" />
    <glyph glyph-name="Egrave" unicode="&#xc8;" horiz-adv-x="498" 
d="M-15 95c0 62 25.334 118.999 76.001 170.999s111.667 81.333 183 88c-50.667 42 -76 94.667 -76 158c0 54.667 19.833 102.834 59.5 144.501s88.5 62.5 146.5 62.5c36.667 0 64.834 -9.33301 84.501 -28s29.5 -45.334 29.5 -80.001c0 -36 -9 -70.167 -27 -102.5
s-35.667 -48.5 -53 -48.5c-14.667 0 -27 10.667 -37 32c56 48.667 84 95 84 139c0 43.333 -23.667 65 -71 65c-44.667 0 -79.667 -19.167 -105 -57.5s-38 -86.166 -38 -143.499c0 -67.333 19.333 -117.666 58 -150.999c-64 -10.667 -116.833 -41.334 -158.5 -92.001
s-62.5 -104 -62.5 -160c0 -38 10.5 -71.667 31.5 -101s53.167 -44 96.5 -44c51.333 0 102.666 21 153.999 63s90.666 92.667 117.999 152l14 -10c-37.333 -72 -82.666 -129.833 -135.999 -173.5s-112 -65.5 -176 -65.5c-58.667 0 -105.834 17.5 -141.501 52.5
s-53.5 78.167 -53.5 129.5zM307.001 863.999c2 20.667 9.33203 31 21.999 31c18 0 39.833 -16.667 65.5 -50s38.5 -57 38.5 -71c0 -12.667 -4.66699 -21.334 -14 -26.001c-25.333 34.667 -62.666 73.334 -111.999 116.001z" />
    <glyph glyph-name="Eacute" unicode="&#xc9;" horiz-adv-x="498" 
d="M-15 95c0 62 25.334 118.999 76.001 170.999s111.667 81.333 183 88c-50.667 42 -76 94.667 -76 158c0 54.667 19.833 102.834 59.5 144.501s88.5 62.5 146.5 62.5c36.667 0 64.834 -9.33301 84.501 -28s29.5 -45.334 29.5 -80.001c0 -36 -9 -70.167 -27 -102.5
s-35.667 -48.5 -53 -48.5c-14.667 0 -27 10.667 -37 32c56 48.667 84 95 84 139c0 43.333 -23.667 65 -71 65c-44.667 0 -79.667 -19.167 -105 -57.5s-38 -86.166 -38 -143.499c0 -67.333 19.333 -117.666 58 -150.999c-64 -10.667 -116.833 -41.334 -158.5 -92.001
s-62.5 -104 -62.5 -160c0 -38 10.5 -71.667 31.5 -101s53.167 -44 96.5 -44c51.333 0 102.666 21 153.999 63s90.666 92.667 117.999 152l14 -10c-37.333 -72 -82.666 -129.833 -135.999 -173.5s-112 -65.5 -176 -65.5c-58.667 0 -105.834 17.5 -141.501 52.5
s-53.5 78.167 -53.5 129.5zM415.001 773.999c0 14 12.832 37.667 38.499 71s47.5 50 65.5 50c12.667 0 20 -10.333 22 -31c-49.333 -42.667 -86.666 -81.334 -111.999 -116.001c-9.33301 4.66699 -14 13.334 -14 26.001z" />
    <glyph glyph-name="Ecircumflex" unicode="&#xca;" horiz-adv-x="498" 
d="M-15 95c0 62 25.334 118.999 76.001 170.999s111.667 81.333 183 88c-50.667 42 -76 94.667 -76 158c0 54.667 19.833 102.834 59.5 144.501s88.5 62.5 146.5 62.5c36.667 0 64.834 -9.33301 84.501 -28s29.5 -45.334 29.5 -80.001c0 -36 -9 -70.167 -27 -102.5
s-35.667 -48.5 -53 -48.5c-14.667 0 -27 10.667 -37 32c56 48.667 84 95 84 139c0 43.333 -23.667 65 -71 65c-44.667 0 -79.667 -19.167 -105 -57.5s-38 -86.166 -38 -143.499c0 -67.333 19.333 -117.666 58 -150.999c-64 -10.667 -116.833 -41.334 -158.5 -92.001
s-62.5 -104 -62.5 -160c0 -38 10.5 -71.667 31.5 -101s53.167 -44 96.5 -44c51.333 0 102.666 21 153.999 63s90.666 92.667 117.999 152l14 -10c-37.333 -72 -82.666 -129.833 -135.999 -173.5s-112 -65.5 -176 -65.5c-58.667 0 -105.834 17.5 -141.501 52.5
s-53.5 78.167 -53.5 129.5zM335.001 797.999c0 18 15 37.1641 45 57.4971s53 30.5 69 30.5s35 -13.167 57 -39.5s33 -50.166 33 -71.499c0 -15.333 -5.66699 -25.666 -17 -30.999c-14 28.667 -38.667 59.334 -74 92.001c-44.667 -16 -79 -35 -103 -57
c-6.66699 4 -10 10.333 -10 19z" />
    <glyph glyph-name="Edieresis" unicode="&#xcb;" horiz-adv-x="498" 
d="M-15 95c0 62 25.334 118.999 76.001 170.999s111.667 81.333 183 88c-50.667 42 -76 94.667 -76 158c0 54.667 19.833 102.834 59.5 144.501s88.5 62.5 146.5 62.5c36.667 0 64.834 -9.33301 84.501 -28s29.5 -45.334 29.5 -80.001c0 -36 -9 -70.167 -27 -102.5
s-35.667 -48.5 -53 -48.5c-14.667 0 -27 10.667 -37 32c56 48.667 84 95 84 139c0 43.333 -23.667 65 -71 65c-44.667 0 -79.667 -19.167 -105 -57.5s-38 -86.166 -38 -143.499c0 -67.333 19.333 -117.666 58 -150.999c-64 -10.667 -116.833 -41.334 -158.5 -92.001
s-62.5 -104 -62.5 -160c0 -38 10.5 -71.667 31.5 -101s53.167 -44 96.5 -44c51.333 0 102.666 21 153.999 63s90.666 92.667 117.999 152l14 -10c-37.333 -72 -82.666 -129.833 -135.999 -173.5s-112 -65.5 -176 -65.5c-58.667 0 -105.834 17.5 -141.501 52.5
s-53.5 78.167 -53.5 129.5zM313.001 803.999c0 12 7.16797 22.833 21.501 32.5s29.166 14.5 44.499 14.5c20 0 30 -9.33301 30 -28c0 -11.333 -6.16699 -22.333 -18.5 -33s-25.833 -16 -40.5 -16c-24.667 0 -37 10 -37 30zM457.002 782.999c0 12 7.16797 22.833 21.501 32.5
s29.166 14.5 44.499 14.5c20 0 30 -9.33301 30 -28c0 -11.333 -6.16699 -22.333 -18.5 -33s-25.833 -16 -40.5 -16c-24.667 0 -37 10 -37 30z" />
    <glyph glyph-name="Igrave" unicode="&#xcc;" horiz-adv-x="459" 
d="M-38 -88c2 17.333 7.33301 31.6641 16 42.9971s21.167 19.5 37.5 24.5s32.5 8.33301 48.5 10s36.333 2.5 61 2.5c28 60.667 63.333 181.667 106 363s68 283.333 76 306c-88.667 -2 -163.667 -8.66699 -225 -20c9.33301 51.333 77.333 77 204 77c80.667 0 168 -7 262 -21
c-23.333 -23.333 -55.666 -35 -96.999 -35c-52 0 -88.333 -0.333008 -109 -1c-49.333 -265.333 -82.333 -431.666 -99 -498.999c-23.333 -92 -51.333 -149 -84 -171c19.333 -1.33301 54.5 -4.66602 105.5 -9.99902s88.167 -8.33301 111.5 -9
c-28.667 -28.667 -66.334 -43 -113.001 -43h-61c-32.667 0 -54.834 -0.333008 -66.501 -1s-29.667 -1.5 -54 -2.5s-45.666 -2.66699 -63.999 -5s-36.833 -5.16602 -55.5 -8.49902zM234 863.998c2 20.667 9.33203 31 21.999 31c18 0 39.833 -16.667 65.5 -50
s38.5 -57 38.5 -71c0 -12.667 -4.66699 -21.334 -14 -26.001c-25.333 34.667 -62.666 73.334 -111.999 116.001z" />
    <glyph glyph-name="Iacute" unicode="&#xcd;" horiz-adv-x="459" 
d="M-38 -88c2 17.333 7.33301 31.6641 16 42.9971s21.167 19.5 37.5 24.5s32.5 8.33301 48.5 10s36.333 2.5 61 2.5c28 60.667 63.333 181.667 106 363s68 283.333 76 306c-88.667 -2 -163.667 -8.66699 -225 -20c9.33301 51.333 77.333 77 204 77c80.667 0 168 -7 262 -21
c-23.333 -23.333 -55.666 -35 -96.999 -35c-52 0 -88.333 -0.333008 -109 -1c-49.333 -265.333 -82.333 -431.666 -99 -498.999c-23.333 -92 -51.333 -149 -84 -171c19.333 -1.33301 54.5 -4.66602 105.5 -9.99902s88.167 -8.33301 111.5 -9
c-28.667 -28.667 -66.334 -43 -113.001 -43h-61c-32.667 0 -54.834 -0.333008 -66.501 -1s-29.667 -1.5 -54 -2.5s-45.666 -2.66699 -63.999 -5s-36.833 -5.16602 -55.5 -8.49902zM342 773.998c0 14 12.832 37.667 38.499 71s47.5 50 65.5 50c12.667 0 20 -10.333 22 -31
c-49.333 -42.667 -86.666 -81.334 -111.999 -116.001c-9.33301 4.66699 -14 13.334 -14 26.001z" />
    <glyph glyph-name="Icircumflex" unicode="&#xce;" horiz-adv-x="459" 
d="M-38 -88c2 17.333 7.33301 31.6641 16 42.9971s21.167 19.5 37.5 24.5s32.5 8.33301 48.5 10s36.333 2.5 61 2.5c28 60.667 63.333 181.667 106 363s68 283.333 76 306c-88.667 -2 -163.667 -8.66699 -225 -20c9.33301 51.333 77.333 77 204 77c80.667 0 168 -7 262 -21
c-23.333 -23.333 -55.666 -35 -96.999 -35c-52 0 -88.333 -0.333008 -109 -1c-49.333 -265.333 -82.333 -431.666 -99 -498.999c-23.333 -92 -51.333 -149 -84 -171c19.333 -1.33301 54.5 -4.66602 105.5 -9.99902s88.167 -8.33301 111.5 -9
c-28.667 -28.667 -66.334 -43 -113.001 -43h-61c-32.667 0 -54.834 -0.333008 -66.501 -1s-29.667 -1.5 -54 -2.5s-45.666 -2.66699 -63.999 -5s-36.833 -5.16602 -55.5 -8.49902zM264 797.998c0 18 15 37.1641 45 57.4971s53 30.5 69 30.5s35 -13.167 57 -39.5
s33 -50.166 33 -71.499c0 -15.333 -5.66699 -25.666 -17 -30.999c-14 28.667 -38.667 59.334 -74 92.001c-44.667 -16 -79 -35 -103 -57c-6.66699 4 -10 10.333 -10 19z" />
    <glyph glyph-name="Idieresis" unicode="&#xcf;" horiz-adv-x="459" 
d="M-38 -88c2 17.333 7.33301 31.6641 16 42.9971s21.167 19.5 37.5 24.5s32.5 8.33301 48.5 10s36.333 2.5 61 2.5c28 60.667 63.333 181.667 106 363s68 283.333 76 306c-88.667 -2 -163.667 -8.66699 -225 -20c9.33301 51.333 77.333 77 204 77c80.667 0 168 -7 262 -21
c-23.333 -23.333 -55.666 -35 -96.999 -35c-52 0 -88.333 -0.333008 -109 -1c-49.333 -265.333 -82.333 -431.666 -99 -498.999c-23.333 -92 -51.333 -149 -84 -171c19.333 -1.33301 54.5 -4.66602 105.5 -9.99902s88.167 -8.33301 111.5 -9
c-28.667 -28.667 -66.334 -43 -113.001 -43h-61c-32.667 0 -54.834 -0.333008 -66.501 -1s-29.667 -1.5 -54 -2.5s-45.666 -2.66699 -63.999 -5s-36.833 -5.16602 -55.5 -8.49902zM241 803.998c0 12 7.16797 22.833 21.501 32.5s29.166 14.5 44.499 14.5
c20 0 30 -9.33301 30 -28c0 -11.333 -6.16699 -22.333 -18.5 -33s-25.833 -16 -40.5 -16c-24.667 0 -37 10 -37 30zM385.001 782.998c0 12 7.16797 22.833 21.501 32.5s29.166 14.5 44.499 14.5c20 0 30 -9.33301 30 -28c0 -11.333 -6.16699 -22.333 -18.5 -33
s-25.833 -16 -40.5 -16c-24.667 0 -37 10 -37 30z" />
    <glyph glyph-name="Eth" unicode="&#xd0;" horiz-adv-x="654" 
d="M32 274c10 26.667 51.668 42.334 125.001 47.001c27.333 86.667 51.666 159 72.999 217c24 62.667 50 94 78 94c9.33301 0 18.666 -3.33301 27.999 -10c-36.667 -84.667 -73.667 -184.334 -111 -299.001c51.333 0 106 -3 164 -9c-26.667 -19.333 -61 -29 -103 -29h-73
c-40 -125.333 -71 -239.333 -93 -342c16 -2.66699 30.333 -4 43 -4c68.667 0 134.667 25.833 198 77.5s114 117.5 152 197.5s57 161 57 243c0 78 -18.333 136.833 -55 176.5s-86.667 59.5 -150 59.5c-65.333 0 -119.833 -18.667 -163.5 -56s-65.5 -83.666 -65.5 -138.999
c0 -14.667 1.66699 -27 5 -37c-40 0 -60 18.667 -60 56c0 48.667 31.667 94.667 95 138s136.333 65 219 65c84.667 0 147.334 -25 188.001 -75s61 -116.333 61 -199c0 -70 -14.167 -138.167 -42.5 -204.5s-65 -123.333 -110 -171s-96.333 -85.834 -154 -114.501
s-115.5 -43 -173.5 -43c-50 0 -85.667 15 -107 45c16.667 81.333 46 190 88 326c-31.333 0 -69 -3.33301 -113 -10z" />
    <glyph glyph-name="Ntilde" unicode="&#xd1;" horiz-adv-x="640" 
d="M46 -87c9.33301 36 22.668 82.333 40.001 139l74 242l98 325c4.66699 16.667 7 30.334 7 41.001c0 15.333 -5 23 -15 23c-30 0 -56.833 -20.5 -80.5 -61.5s-35.5 -79.833 -35.5 -116.5c0 -13.333 1.66699 -25 5 -35c-40 0 -60 19 -60 57c0 44 23.167 87.167 69.5 129.5
s89.833 63.5 130.5 63.5c12.667 0 24.167 -3.66699 34.5 -11s19.333 -19.166 27 -35.499s14.167 -32.333 19.5 -48s10.333 -37.667 15 -66s8.16699 -52 10.5 -71l9.5 -80.5c14 -124.667 28.667 -236.667 44 -336c12 81.333 38.667 194 80 338s68.333 231 81 261
c4.66699 10.667 13 21.5 25 32.5s24.667 16.5 38 16.5c-38.667 -102.667 -81.334 -244.667 -128.001 -426s-70.334 -308.333 -71.001 -381c-21.333 0 -38.333 6.16699 -51 18.5s-21.667 33.166 -27 62.499c-18 94.667 -48.333 293 -91 595
c-89.333 -320.667 -145.666 -511.334 -168.999 -572.001c-22 -60.667 -43.667 -94.667 -65 -102c-4.66699 -1.33301 -9.66699 -2 -15 -2zM310.002 759c23.333 30.667 50.999 46 82.999 46c17.333 0 47.5 -7.33301 90.5 -22s77.5 -22 103.5 -22c10 0 20 1 30 3
c-21.333 -24 -47.333 -36 -78 -36c-18.667 0 -48.5 6.5 -89.5 19.5s-72.167 19.5 -93.5 19.5c-17.333 0 -32.666 -2.66699 -45.999 -8z" />
    <glyph glyph-name="Ograve" unicode="&#xd2;" horiz-adv-x="623" 
d="M21 161c0 62.667 12.6631 127.836 37.9961 195.503s57.666 127.834 96.999 180.501s84 96.167 134 130.5s98.333 51.5 145 51.5c24.667 0 44.667 -4 60 -12h-11c-41.333 0 -84.833 -17.833 -130.5 -53.5s-86.167 -80.667 -121.5 -135s-64.666 -115 -87.999 -182
s-35 -130.167 -35 -189.5c0 -58 11.167 -105.833 33.5 -143.5s55.833 -56.5 100.5 -56.5c59.333 0 114.333 30.333 165 91s89.334 133.5 116.001 218.5s40 167.833 40 248.5c0 34 -3.66699 65.5 -11 94.5s-18.666 43.5 -33.999 43.5c-22.667 0 -48.5 -25 -77.5 -75
s-48.167 -96.333 -57.5 -139c-32 7.33301 -48 23.666 -48 48.999c0 35.333 21.833 76.166 65.5 122.499s82.167 69.5 115.5 69.5c16 0 30 -6.16699 42 -18.5s20.833 -28.833 26.5 -49.5s9.83398 -41.167 12.501 -61.5s4 -41.5 4 -63.5
c0 -86.667 -12.667 -166.834 -38 -240.501s-57.5 -133.334 -96.5 -179.001s-80.833 -81.167 -125.5 -106.5s-87.667 -38 -129 -38c-57.333 0 -103.666 22.667 -138.999 68s-53 105.333 -53 180zM436.996 864.002c2 20.667 9.33203 31 21.999 31
c18 0 39.833 -16.667 65.5 -50s38.5 -57 38.5 -71c0 -12.667 -4.66699 -21.334 -14 -26.001c-25.333 34.667 -62.666 73.334 -111.999 116.001z" />
    <glyph glyph-name="Oacute" unicode="&#xd3;" horiz-adv-x="623" 
d="M21 161c0 62.667 12.6631 127.836 37.9961 195.503s57.666 127.834 96.999 180.501s84 96.167 134 130.5s98.333 51.5 145 51.5c24.667 0 44.667 -4 60 -12h-11c-41.333 0 -84.833 -17.833 -130.5 -53.5s-86.167 -80.667 -121.5 -135s-64.666 -115 -87.999 -182
s-35 -130.167 -35 -189.5c0 -58 11.167 -105.833 33.5 -143.5s55.833 -56.5 100.5 -56.5c59.333 0 114.333 30.333 165 91s89.334 133.5 116.001 218.5s40 167.833 40 248.5c0 34 -3.66699 65.5 -11 94.5s-18.666 43.5 -33.999 43.5c-22.667 0 -48.5 -25 -77.5 -75
s-48.167 -96.333 -57.5 -139c-32 7.33301 -48 23.666 -48 48.999c0 35.333 21.833 76.166 65.5 122.499s82.167 69.5 115.5 69.5c16 0 30 -6.16699 42 -18.5s20.833 -28.833 26.5 -49.5s9.83398 -41.167 12.501 -61.5s4 -41.5 4 -63.5
c0 -86.667 -12.667 -166.834 -38 -240.501s-57.5 -133.334 -96.5 -179.001s-80.833 -81.167 -125.5 -106.5s-87.667 -38 -129 -38c-57.333 0 -103.666 22.667 -138.999 68s-53 105.333 -53 180zM563.996 774.002c0 14 12.832 37.667 38.499 71s47.5 50 65.5 50
c12.667 0 20 -10.333 22 -31c-49.333 -42.667 -86.666 -81.334 -111.999 -116.001c-9.33301 4.66699 -14 13.334 -14 26.001z" />
    <glyph glyph-name="Ocircumflex" unicode="&#xd4;" horiz-adv-x="623" 
d="M21 161c0 62.667 12.6631 127.836 37.9961 195.503s57.666 127.834 96.999 180.501s84 96.167 134 130.5s98.333 51.5 145 51.5c24.667 0 44.667 -4 60 -12h-11c-41.333 0 -84.833 -17.833 -130.5 -53.5s-86.167 -80.667 -121.5 -135s-64.666 -115 -87.999 -182
s-35 -130.167 -35 -189.5c0 -58 11.167 -105.833 33.5 -143.5s55.833 -56.5 100.5 -56.5c59.333 0 114.333 30.333 165 91s89.334 133.5 116.001 218.5s40 167.833 40 248.5c0 34 -3.66699 65.5 -11 94.5s-18.666 43.5 -33.999 43.5c-22.667 0 -48.5 -25 -77.5 -75
s-48.167 -96.333 -57.5 -139c-32 7.33301 -48 23.666 -48 48.999c0 35.333 21.833 76.166 65.5 122.499s82.167 69.5 115.5 69.5c16 0 30 -6.16699 42 -18.5s20.833 -28.833 26.5 -49.5s9.83398 -41.167 12.501 -61.5s4 -41.5 4 -63.5
c0 -86.667 -12.667 -166.834 -38 -240.501s-57.5 -133.334 -96.5 -179.001s-80.833 -81.167 -125.5 -106.5s-87.667 -38 -129 -38c-57.333 0 -103.666 22.667 -138.999 68s-53 105.333 -53 180zM416.996 798.002c0 18 15 37.1641 45 57.4971s53 30.5 69 30.5
s35 -13.167 57 -39.5s33 -50.166 33 -71.499c0 -15.333 -5.66699 -25.666 -17 -30.999c-14 28.667 -38.667 59.334 -74 92.001c-44.667 -16 -79 -35 -103 -57c-6.66699 4 -10 10.333 -10 19z" />
    <glyph glyph-name="Otilde" unicode="&#xd5;" horiz-adv-x="623" 
d="M21 161c0 62.667 12.6631 127.836 37.9961 195.503s57.666 127.834 96.999 180.501s84 96.167 134 130.5s98.333 51.5 145 51.5c24.667 0 44.667 -4 60 -12h-11c-41.333 0 -84.833 -17.833 -130.5 -53.5s-86.167 -80.667 -121.5 -135s-64.666 -115 -87.999 -182
s-35 -130.167 -35 -189.5c0 -58 11.167 -105.833 33.5 -143.5s55.833 -56.5 100.5 -56.5c59.333 0 114.333 30.333 165 91s89.334 133.5 116.001 218.5s40 167.833 40 248.5c0 34 -3.66699 65.5 -11 94.5s-18.666 43.5 -33.999 43.5c-22.667 0 -48.5 -25 -77.5 -75
s-48.167 -96.333 -57.5 -139c-32 7.33301 -48 23.666 -48 48.999c0 35.333 21.833 76.166 65.5 122.499s82.167 69.5 115.5 69.5c16 0 30 -6.16699 42 -18.5s20.833 -28.833 26.5 -49.5s9.83398 -41.167 12.501 -61.5s4 -41.5 4 -63.5
c0 -86.667 -12.667 -166.834 -38 -240.501s-57.5 -133.334 -96.5 -179.001s-80.833 -81.167 -125.5 -106.5s-87.667 -38 -129 -38c-57.333 0 -103.666 22.667 -138.999 68s-53 105.333 -53 180zM375.996 759.002c23.333 30.667 50.999 46 82.999 46
c17.333 0 47.5 -7.33301 90.5 -22s77.5 -22 103.5 -22c10 0 20 1 30 3c-21.333 -24 -47.333 -36 -78 -36c-18.667 0 -48.5 6.5 -89.5 19.5s-72.167 19.5 -93.5 19.5c-17.333 0 -32.666 -2.66699 -45.999 -8z" />
    <glyph glyph-name="Odieresis" unicode="&#xd6;" horiz-adv-x="623" 
d="M21 161c0 62.667 12.6631 127.836 37.9961 195.503s57.666 127.834 96.999 180.501s84 96.167 134 130.5s98.333 51.5 145 51.5c24.667 0 44.667 -4 60 -12h-11c-41.333 0 -84.833 -17.833 -130.5 -53.5s-86.167 -80.667 -121.5 -135s-64.666 -115 -87.999 -182
s-35 -130.167 -35 -189.5c0 -58 11.167 -105.833 33.5 -143.5s55.833 -56.5 100.5 -56.5c59.333 0 114.333 30.333 165 91s89.334 133.5 116.001 218.5s40 167.833 40 248.5c0 34 -3.66699 65.5 -11 94.5s-18.666 43.5 -33.999 43.5c-22.667 0 -48.5 -25 -77.5 -75
s-48.167 -96.333 -57.5 -139c-32 7.33301 -48 23.666 -48 48.999c0 35.333 21.833 76.166 65.5 122.499s82.167 69.5 115.5 69.5c16 0 30 -6.16699 42 -18.5s20.833 -28.833 26.5 -49.5s9.83398 -41.167 12.501 -61.5s4 -41.5 4 -63.5
c0 -86.667 -12.667 -166.834 -38 -240.501s-57.5 -133.334 -96.5 -179.001s-80.833 -81.167 -125.5 -106.5s-87.667 -38 -129 -38c-57.333 0 -103.666 22.667 -138.999 68s-53 105.333 -53 180zM389.996 804.002c0 12 7.16797 22.833 21.501 32.5s29.166 14.5 44.499 14.5
c20 0 30 -9.33301 30 -28c0 -11.333 -6.16699 -22.333 -18.5 -33s-25.833 -16 -40.5 -16c-24.667 0 -37 10 -37 30zM533.997 783.002c0 12 7.16797 22.833 21.501 32.5s29.166 14.5 44.499 14.5c20 0 30 -9.33301 30 -28c0 -11.333 -6.16699 -22.333 -18.5 -33
s-25.833 -16 -40.5 -16c-24.667 0 -37 10 -37 30z" />
    <glyph glyph-name="multiply" unicode="&#xd7;" horiz-adv-x="377" 
d="M48 43c0 26.667 25.668 68.0029 77.001 124.003c-46 49.333 -69 87.666 -69 114.999c0 6.66699 1.33301 12.667 4 18c24.667 -34 55 -69.667 91 -107c43.333 43.333 85 80.666 125 111.999c-4.66699 -32 -22 -63 -52 -93l-45 -46l53 -53
c29.333 -30.667 46.666 -61.667 51.999 -93c-40 31.333 -81.667 68.666 -125 111.999l-8 7c-38 -38 -71 -76 -99 -114c-2.66699 5.33301 -4 11.333 -4 18z" />
    <glyph glyph-name="Oslash" unicode="&#xd8;" horiz-adv-x="623" 
d="M21 161c0 62.667 12.6689 127.837 38.002 195.504s57.666 127.834 96.999 180.501s84 96.167 134 130.5s98.333 51.5 145 51.5c24.667 0 44.667 -4 60 -12h-11c-41.333 0 -84.833 -17.833 -130.5 -53.5s-86.167 -80.667 -121.5 -135s-64.666 -115 -87.999 -182
s-35 -130.167 -35 -189.5c0 -56.667 9.33301 -101.667 28 -135c88 109.333 225.667 308 413 596c-8 23.333 -18.333 35 -31 35c-22.667 0 -48.5 -25 -77.5 -75s-48.167 -96.333 -57.5 -139c-32 7.33301 -48 23.666 -48 48.999c0 35.333 21.833 76.166 65.5 122.499
s82.167 69.5 115.5 69.5c21.333 0 38.666 -10.667 51.999 -32l4 5c4.66699 7.33301 14.667 13.833 30 19.5s30.333 8.5 45 8.5c7.33301 0 12.666 -0.333008 15.999 -1l-70 -104c5.33301 -26.667 8 -56.334 8 -89.001c0 -86.667 -12.667 -166.834 -38 -240.501
s-57.5 -133.334 -96.5 -179.001s-80.833 -81.167 -125.5 -106.5s-87.667 -38 -129 -38c-28.667 0 -55.667 6.33301 -81 19c-30.667 -22 -59.334 -33 -86.001 -33c-4 0 -9.33301 0.666992 -16 2c14.667 10 35.334 30 62.001 60c-47.333 44 -71 110.667 -71 200z
M174.002 -31.9971c20.667 -14 43.666 -21 68.999 -21c59.333 0 114.333 30.333 165 91s89.334 133.5 116.001 218.5s40 167.833 40 248.5v16l-325 -475c-23.333 -32.667 -45 -58.667 -65 -78z" />
    <glyph glyph-name="Ugrave" unicode="&#xd9;" horiz-adv-x="706" 
d="M25 539c0 43.333 19.333 84.3359 58 123.003s83 58 133 58c68.667 0 103 -40.333 103 -121c0 -50 -20.5 -140 -61.5 -270s-61.5 -218 -61.5 -264c0 -33.333 6.83301 -60.333 20.5 -81s34.834 -31 63.501 -31c26 0 50.833 8.83301 74.5 26.5s44 40.834 61 69.501
s31.333 57.667 43 87s21.167 58.666 28.5 87.999l41 167c10.667 41.333 24.667 91.666 42 150.999s33.666 103.833 48.999 133.5s29.333 44.5 42 44.5c13.333 0 30 -10.667 50 -32c-20 -14 -55.667 -103.833 -107 -269.5s-77 -291.167 -77 -376.5
c0 -44.667 6 -75.334 18 -92.001s32.667 -25 62 -25c-23.333 -16 -45.333 -24 -66 -24c-24 0 -43.5 10.333 -58.5 31s-22.5 45.667 -22.5 75c0 20.667 3 51 9 91c-56.667 -123.333 -128.667 -185 -216 -185c-41.333 0 -73.333 12.667 -96 38s-34 58 -34 98
c0 41.333 20.833 131.166 62.5 269.499s62.5 233.5 62.5 285.5c0 58.667 -18.667 88 -56 88c-32.667 0 -58.5 -19 -77.5 -57s-28.5 -76.667 -28.5 -116c0 -20 2.66699 -36.333 8 -49c-46 0 -69 23 -69 69zM421 864.003c2 20.667 9.33203 31 21.999 31
c18 0 39.833 -16.667 65.5 -50s38.5 -57 38.5 -71c0 -12.667 -4.66699 -21.334 -14 -26.001c-25.333 34.667 -62.666 73.334 -111.999 116.001z" />
    <glyph glyph-name="Uacute" unicode="&#xda;" horiz-adv-x="706" 
d="M25 539c0 43.333 19.333 84.3359 58 123.003s83 58 133 58c68.667 0 103 -40.333 103 -121c0 -50 -20.5 -140 -61.5 -270s-61.5 -218 -61.5 -264c0 -33.333 6.83301 -60.333 20.5 -81s34.834 -31 63.501 -31c26 0 50.833 8.83301 74.5 26.5s44 40.834 61 69.501
s31.333 57.667 43 87s21.167 58.666 28.5 87.999l41 167c10.667 41.333 24.667 91.666 42 150.999s33.666 103.833 48.999 133.5s29.333 44.5 42 44.5c13.333 0 30 -10.667 50 -32c-20 -14 -55.667 -103.833 -107 -269.5s-77 -291.167 -77 -376.5
c0 -44.667 6 -75.334 18 -92.001s32.667 -25 62 -25c-23.333 -16 -45.333 -24 -66 -24c-24 0 -43.5 10.333 -58.5 31s-22.5 45.667 -22.5 75c0 20.667 3 51 9 91c-56.667 -123.333 -128.667 -185 -216 -185c-41.333 0 -73.333 12.667 -96 38s-34 58 -34 98
c0 41.333 20.833 131.166 62.5 269.499s62.5 233.5 62.5 285.5c0 58.667 -18.667 88 -56 88c-32.667 0 -58.5 -19 -77.5 -57s-28.5 -76.667 -28.5 -116c0 -20 2.66699 -36.333 8 -49c-46 0 -69 23 -69 69zM463 774.003c0 14 12.832 37.667 38.499 71s47.5 50 65.5 50
c12.667 0 20 -10.333 22 -31c-49.333 -42.667 -86.666 -81.334 -111.999 -116.001c-9.33301 4.66699 -14 13.334 -14 26.001z" />
    <glyph glyph-name="Ucircumflex" unicode="&#xdb;" horiz-adv-x="706" 
d="M25 539c0 43.333 19.333 84.3359 58 123.003s83 58 133 58c68.667 0 103 -40.333 103 -121c0 -50 -20.5 -140 -61.5 -270s-61.5 -218 -61.5 -264c0 -33.333 6.83301 -60.333 20.5 -81s34.834 -31 63.501 -31c26 0 50.833 8.83301 74.5 26.5s44 40.834 61 69.501
s31.333 57.667 43 87s21.167 58.666 28.5 87.999l41 167c10.667 41.333 24.667 91.666 42 150.999s33.666 103.833 48.999 133.5s29.333 44.5 42 44.5c13.333 0 30 -10.667 50 -32c-20 -14 -55.667 -103.833 -107 -269.5s-77 -291.167 -77 -376.5
c0 -44.667 6 -75.334 18 -92.001s32.667 -25 62 -25c-23.333 -16 -45.333 -24 -66 -24c-24 0 -43.5 10.333 -58.5 31s-22.5 45.667 -22.5 75c0 20.667 3 51 9 91c-56.667 -123.333 -128.667 -185 -216 -185c-41.333 0 -73.333 12.667 -96 38s-34 58 -34 98
c0 41.333 20.833 131.166 62.5 269.499s62.5 233.5 62.5 285.5c0 58.667 -18.667 88 -56 88c-32.667 0 -58.5 -19 -77.5 -57s-28.5 -76.667 -28.5 -116c0 -20 2.66699 -36.333 8 -49c-46 0 -69 23 -69 69zM385 798.003c0 18 15 37.1641 45 57.4971s53 30.5 69 30.5
s35 -13.167 57 -39.5s33 -50.166 33 -71.499c0 -15.333 -5.66699 -25.666 -17 -30.999c-14 28.667 -38.667 59.334 -74 92.001c-44.667 -16 -79 -35 -103 -57c-6.66699 4 -10 10.333 -10 19z" />
    <glyph glyph-name="Udieresis" unicode="&#xdc;" horiz-adv-x="706" 
d="M25 539c0 43.333 19.333 84.3359 58 123.003s83 58 133 58c68.667 0 103 -40.333 103 -121c0 -50 -20.5 -140 -61.5 -270s-61.5 -218 -61.5 -264c0 -33.333 6.83301 -60.333 20.5 -81s34.834 -31 63.501 -31c26 0 50.833 8.83301 74.5 26.5s44 40.834 61 69.501
s31.333 57.667 43 87s21.167 58.666 28.5 87.999l41 167c10.667 41.333 24.667 91.666 42 150.999s33.666 103.833 48.999 133.5s29.333 44.5 42 44.5c13.333 0 30 -10.667 50 -32c-20 -14 -55.667 -103.833 -107 -269.5s-77 -291.167 -77 -376.5
c0 -44.667 6 -75.334 18 -92.001s32.667 -25 62 -25c-23.333 -16 -45.333 -24 -66 -24c-24 0 -43.5 10.333 -58.5 31s-22.5 45.667 -22.5 75c0 20.667 3 51 9 91c-56.667 -123.333 -128.667 -185 -216 -185c-41.333 0 -73.333 12.667 -96 38s-34 58 -34 98
c0 41.333 20.833 131.166 62.5 269.499s62.5 233.5 62.5 285.5c0 58.667 -18.667 88 -56 88c-32.667 0 -58.5 -19 -77.5 -57s-28.5 -76.667 -28.5 -116c0 -20 2.66699 -36.333 8 -49c-46 0 -69 23 -69 69zM383 804.003c0 12 7.16797 22.833 21.501 32.5
s29.166 14.5 44.499 14.5c20 0 30 -9.33301 30 -28c0 -11.333 -6.16699 -22.333 -18.5 -33s-25.833 -16 -40.5 -16c-24.667 0 -37 10 -37 30zM527.001 783.003c0 12 7.16797 22.833 21.501 32.5s29.166 14.5 44.499 14.5c20 0 30 -9.33301 30 -28
c0 -11.333 -6.16699 -22.333 -18.5 -33s-25.833 -16 -40.5 -16c-24.667 0 -37 10 -37 30z" />
    <glyph glyph-name="Yacute" unicode="&#xdd;" horiz-adv-x="666" 
d="M23 539c0 43.333 19.3301 84.333 57.9971 123s83 58 133 58c35.333 0 61.5 -10 78.5 -30s25.5 -43.667 25.5 -71c0 -22 -11.167 -73.333 -33.5 -154s-33.5 -140 -33.5 -178c0 -64 23.333 -96 70 -96c42 0 81 24 117 72s67.667 107 95 177
c45.333 186.667 85.333 280 120 280c17.333 0 36 -10.667 56 -32c-33.333 -53.333 -58.666 -106.333 -75.999 -159s-47 -164.334 -89 -335.001l-20 -76c-4.66699 -18.667 -12 -43.167 -22 -73.5s-19.667 -54.666 -29 -72.999s-21.5 -38.833 -36.5 -61.5
s-30.833 -40.167 -47.5 -52.5s-36.5 -22.833 -59.5 -31.5s-47.833 -13 -74.5 -13c-40 0 -73 8.33301 -99 25s-39 39.667 -39 69c0 36.667 20 61.667 60 75c-5.33301 -18 -8 -36 -8 -54c0 -28 7.33301 -50 22 -66s36.334 -24 65.001 -24c97.333 0 167 94.333 209 283l18 90
l24 115c-60.667 -116.667 -133 -175 -217 -175c-72.667 0 -109 39.667 -109 119c0 36 11.333 95 34 177s34 137.667 34 167c0 52 -19 78 -57 78c-33.333 0 -59.666 -19 -78.999 -57s-29 -76.667 -29 -116c0 -20 2.66699 -36.333 8 -49c-46 0 -69 23 -69 69zM471.997 774
c0 14 12.832 37.667 38.499 71s47.5 50 65.5 50c12.667 0 20 -10.333 22 -31c-49.333 -42.667 -86.666 -81.334 -111.999 -116.001c-9.33301 4.66699 -14 13.334 -14 26.001z" />
    <glyph glyph-name="Thorn" unicode="&#xde;" horiz-adv-x="508" 
d="M31 -37c0 8.66699 4.66504 26.999 13.998 54.999c73.333 230.667 135.666 409.667 186.999 537c-24 -4 -47.667 -10.667 -71 -20s-41.666 -17.833 -54.999 -25.5s-21.333 -11.5 -24 -11.5c-4.66699 0 -11 3.33301 -19 10s-12 12.334 -12 17.001
c73.333 31.333 136.666 49 189.999 53c2.66699 6 6.83398 16.667 12.501 32s10.667 28 15 38s9.66602 20.833 15.999 32.5s13.333 20.5 21 26.5s15.834 9 24.501 9s17.334 -2.66699 26.001 -8c-18.667 -36.667 -37.334 -79.667 -56.001 -129
c61.333 -5.33301 114.833 -24.833 160.5 -58.5s68.5 -78.167 68.5 -133.5c0 -30.667 -6.66699 -58.5 -20 -83.5s-31.166 -45.5 -53.499 -61.5s-46.166 -29.667 -71.499 -41s-52.5 -20.166 -81.5 -26.499s-54 -10.833 -75 -13.5s-40.833 -4.33398 -59.5 -5.00098l-33 -118
l-35 -125c-18 0 -34 4.83301 -48 14.5s-21 21.5 -21 35.5zM172.998 174.999c36.667 4 71.5 11.667 104.5 23s63.667 26 92 44s50.833 41 67.5 69s25 59 25 93c0 49.333 -16.167 86.833 -48.5 112.5s-72.833 39.5 -121.5 41.5c-32 -87.333 -71.667 -215 -119 -383z" />
    <glyph glyph-name="germandbls" unicode="&#xdf;" horiz-adv-x="427" 
d="M-43 -115c9.33301 12.667 19.332 50.9922 29.999 114.992l34 213c13.333 78 29.666 155.833 48.999 233.5s47 142.667 83 195s78.333 78.5 127 78.5c30.667 0 55.834 -9.83301 75.501 -29.5s29.5 -46.5 29.5 -80.5c0 -45.333 -15.5 -87.666 -46.5 -126.999
s-67.167 -72.333 -108.5 -99c-8 -5.33301 -12 -9.66602 -12 -12.999s4.33301 -7 13 -11c36.667 -16 67.5 -45.667 92.5 -89s37.5 -84.666 37.5 -123.999c0 -54 -20 -106.5 -60 -157.5s-82.667 -76.5 -128 -76.5c-22 0 -39.167 13 -51.5 39s-18.5 56.667 -18.5 92
c0 32 5.5 59.833 16.5 83.5s25.833 35.5 44.5 35.5c7.33301 0 12.666 -0.333008 15.999 -1c-10 -5.33301 -18.5 -22.666 -25.5 -51.999s-10.5 -59.666 -10.5 -90.999c0 -57.333 10 -86 30 -86c26 0 51.833 24.833 77.5 74.5s38.5 100.834 38.5 153.501
c0 36.667 -7.16699 72.167 -21.5 106.5s-33.166 60.5 -56.499 78.5c-13.333 10 -20 18.667 -20 26c0 8.66699 8 20 24 34c23.333 22 42 41 56 57s27.333 37.5 40 64.5s19 54.833 19 83.5c0 54.667 -19.667 82 -59 82c-36.667 0 -68 -26.167 -94 -78.5
s-46.333 -116.666 -61 -192.999s-28.5 -153.166 -41.5 -230.499s-29.167 -145.5 -48.5 -204.5s-42.666 -92.833 -69.999 -101.5z" />
    <glyph glyph-name="agrave" unicode="&#xe0;" horiz-adv-x="436" 
d="M-26 36c0 39.333 13.835 82.999 41.502 130.999s63.5 89.333 107.5 124s86.667 52 128 52c26 0 47.667 -7 65 -21s26 -32 26 -54c0 -28.667 -16.333 -43 -49 -43c3.33301 12 5 23.667 5 35c0 37.333 -16.333 56 -49 56c-29.333 0 -60.5 -16.833 -93.5 -50.5
s-60 -72.667 -81 -117s-31.5 -82.833 -31.5 -115.5c0 -26 9 -39 27 -39c12 0 26 5.66699 42 17s30.667 24 44 38s29.166 32.833 47.499 56.5s31.833 41.834 40.5 54.501l36 52c26.667 -4.66699 40 -13 40 -25c0 -5.33301 -9.66699 -25.333 -29 -60s-29 -61 -29 -79
c0 -11.333 2.83301 -21.5 8.5 -30.5s14.167 -13.5 25.5 -13.5c19.333 0 43.666 13.833 72.999 41.5s58.333 66.5 87 116.5l10 -10c-20.667 -53.333 -49.834 -97 -87.501 -131s-74.5 -51 -110.5 -51c-23.333 0 -41.166 6.83301 -53.499 20.5s-18.5 30.167 -18.5 49.5
c0 8 1 17.667 3 29c-30 -40 -56.833 -69.333 -80.5 -88s-47.167 -28 -70.5 -28c-22 0 -39.833 7.16699 -53.5 21.5s-20.5 34.833 -20.5 61.5zM213.002 525.999c2 20.667 9.33203 31 21.999 31c18 0 39.833 -16.667 65.5 -50s38.5 -57 38.5 -71
c0 -12.667 -4.66699 -21.334 -14 -26.001c-25.333 34.667 -62.666 73.334 -111.999 116.001z" />
    <glyph glyph-name="aacute" unicode="&#xe1;" horiz-adv-x="436" 
d="M-26 36c0 39.333 13.835 82.999 41.502 130.999s63.5 89.333 107.5 124s86.667 52 128 52c26 0 47.667 -7 65 -21s26 -32 26 -54c0 -28.667 -16.333 -43 -49 -43c3.33301 12 5 23.667 5 35c0 37.333 -16.333 56 -49 56c-29.333 0 -60.5 -16.833 -93.5 -50.5
s-60 -72.667 -81 -117s-31.5 -82.833 -31.5 -115.5c0 -26 9 -39 27 -39c12 0 26 5.66699 42 17s30.667 24 44 38s29.166 32.833 47.499 56.5s31.833 41.834 40.5 54.501l36 52c26.667 -4.66699 40 -13 40 -25c0 -5.33301 -9.66699 -25.333 -29 -60s-29 -61 -29 -79
c0 -11.333 2.83301 -21.5 8.5 -30.5s14.167 -13.5 25.5 -13.5c19.333 0 43.666 13.833 72.999 41.5s58.333 66.5 87 116.5l10 -10c-20.667 -53.333 -49.834 -97 -87.501 -131s-74.5 -51 -110.5 -51c-23.333 0 -41.166 6.83301 -53.499 20.5s-18.5 30.167 -18.5 49.5
c0 8 1 17.667 3 29c-30 -40 -56.833 -69.333 -80.5 -88s-47.167 -28 -70.5 -28c-22 0 -39.833 7.16699 -53.5 21.5s-20.5 34.833 -20.5 61.5zM284.002 442.999c0 14 12.832 37.667 38.499 71s47.5 50 65.5 50c12.667 0 20 -10.333 22 -31
c-49.333 -42.667 -86.666 -81.334 -111.999 -116.001c-9.33301 4.66699 -14 13.334 -14 26.001z" />
    <glyph glyph-name="acircumflex" unicode="&#xe2;" horiz-adv-x="436" 
d="M-26 36c0 39.333 13.835 82.999 41.502 130.999s63.5 89.333 107.5 124s86.667 52 128 52c26 0 47.667 -7 65 -21s26 -32 26 -54c0 -28.667 -16.333 -43 -49 -43c3.33301 12 5 23.667 5 35c0 37.333 -16.333 56 -49 56c-29.333 0 -60.5 -16.833 -93.5 -50.5
s-60 -72.667 -81 -117s-31.5 -82.833 -31.5 -115.5c0 -26 9 -39 27 -39c12 0 26 5.66699 42 17s30.667 24 44 38s29.166 32.833 47.499 56.5s31.833 41.834 40.5 54.501l36 52c26.667 -4.66699 40 -13 40 -25c0 -5.33301 -9.66699 -25.333 -29 -60s-29 -61 -29 -79
c0 -11.333 2.83301 -21.5 8.5 -30.5s14.167 -13.5 25.5 -13.5c19.333 0 43.666 13.833 72.999 41.5s58.333 66.5 87 116.5l10 -10c-20.667 -53.333 -49.834 -97 -87.501 -131s-74.5 -51 -110.5 -51c-23.333 0 -41.166 6.83301 -53.499 20.5s-18.5 30.167 -18.5 49.5
c0 8 1 17.667 3 29c-30 -40 -56.833 -69.333 -80.5 -88s-47.167 -28 -70.5 -28c-22 0 -39.833 7.16699 -53.5 21.5s-20.5 34.833 -20.5 61.5zM222.002 459.999c0 18 15 37.1641 45 57.4971s53 30.5 69 30.5s35 -13.167 57 -39.5s33 -50.166 33 -71.499
c0 -15.333 -5.66699 -25.666 -17 -30.999c-14 28.667 -38.667 59.334 -74 92.001c-44.667 -16 -79 -35 -103 -57c-6.66699 4 -10 10.333 -10 19z" />
    <glyph glyph-name="atilde" unicode="&#xe3;" horiz-adv-x="436" 
d="M-26 36c0 39.333 13.835 82.999 41.502 130.999s63.5 89.333 107.5 124s86.667 52 128 52c26 0 47.667 -7 65 -21s26 -32 26 -54c0 -28.667 -16.333 -43 -49 -43c3.33301 12 5 23.667 5 35c0 37.333 -16.333 56 -49 56c-29.333 0 -60.5 -16.833 -93.5 -50.5
s-60 -72.667 -81 -117s-31.5 -82.833 -31.5 -115.5c0 -26 9 -39 27 -39c12 0 26 5.66699 42 17s30.667 24 44 38s29.166 32.833 47.499 56.5s31.833 41.834 40.5 54.501l36 52c26.667 -4.66699 40 -13 40 -25c0 -5.33301 -9.66699 -25.333 -29 -60s-29 -61 -29 -79
c0 -11.333 2.83301 -21.5 8.5 -30.5s14.167 -13.5 25.5 -13.5c19.333 0 43.666 13.833 72.999 41.5s58.333 66.5 87 116.5l10 -10c-20.667 -53.333 -49.834 -97 -87.501 -131s-74.5 -51 -110.5 -51c-23.333 0 -41.166 6.83301 -53.499 20.5s-18.5 30.167 -18.5 49.5
c0 8 1 17.667 3 29c-30 -40 -56.833 -69.333 -80.5 -88s-47.167 -28 -70.5 -28c-22 0 -39.833 7.16699 -53.5 21.5s-20.5 34.833 -20.5 61.5zM140.002 427.999c23.333 30.667 50.999 46 82.999 46c17.333 0 47.5 -7.33301 90.5 -22s77.5 -22 103.5 -22c10 0 20 1 30 3
c-21.333 -24 -47.333 -36 -78 -36c-18.667 0 -48.5 6.5 -89.5 19.5s-72.167 19.5 -93.5 19.5c-17.333 0 -32.666 -2.66699 -45.999 -8z" />
    <glyph glyph-name="adieresis" unicode="&#xe4;" horiz-adv-x="436" 
d="M-26 36c0 39.333 13.835 82.999 41.502 130.999s63.5 89.333 107.5 124s86.667 52 128 52c26 0 47.667 -7 65 -21s26 -32 26 -54c0 -28.667 -16.333 -43 -49 -43c3.33301 12 5 23.667 5 35c0 37.333 -16.333 56 -49 56c-29.333 0 -60.5 -16.833 -93.5 -50.5
s-60 -72.667 -81 -117s-31.5 -82.833 -31.5 -115.5c0 -26 9 -39 27 -39c12 0 26 5.66699 42 17s30.667 24 44 38s29.166 32.833 47.499 56.5s31.833 41.834 40.5 54.501l36 52c26.667 -4.66699 40 -13 40 -25c0 -5.33301 -9.66699 -25.333 -29 -60s-29 -61 -29 -79
c0 -11.333 2.83301 -21.5 8.5 -30.5s14.167 -13.5 25.5 -13.5c19.333 0 43.666 13.833 72.999 41.5s58.333 66.5 87 116.5l10 -10c-20.667 -53.333 -49.834 -97 -87.501 -131s-74.5 -51 -110.5 -51c-23.333 0 -41.166 6.83301 -53.499 20.5s-18.5 30.167 -18.5 49.5
c0 8 1 17.667 3 29c-30 -40 -56.833 -69.333 -80.5 -88s-47.167 -28 -70.5 -28c-22 0 -39.833 7.16699 -53.5 21.5s-20.5 34.833 -20.5 61.5zM154.002 465.999c0 12 7.16797 22.833 21.501 32.5s29.166 14.5 44.499 14.5c20 0 30 -9.33301 30 -28
c0 -11.333 -6.16699 -22.333 -18.5 -33s-25.833 -16 -40.5 -16c-24.667 0 -37 10 -37 30zM298.003 444.999c0 12 7.16797 22.833 21.501 32.5s29.166 14.5 44.499 14.5c20 0 30 -9.33301 30 -28c0 -11.333 -6.16699 -22.333 -18.5 -33s-25.833 -16 -40.5 -16
c-24.667 0 -37 10 -37 30z" />
    <glyph glyph-name="aring" unicode="&#xe5;" horiz-adv-x="436" 
d="M-26 36c0 39.333 13.835 82.999 41.502 130.999s63.5 89.333 107.5 124s86.667 52 128 52c26 0 47.667 -7 65 -21s26 -32 26 -54c0 -28.667 -16.333 -43 -49 -43c3.33301 12 5 23.667 5 35c0 37.333 -16.333 56 -49 56c-29.333 0 -60.5 -16.833 -93.5 -50.5
s-60 -72.667 -81 -117s-31.5 -82.833 -31.5 -115.5c0 -26 9 -39 27 -39c12 0 26 5.66699 42 17s30.667 24 44 38s29.166 32.833 47.499 56.5s31.833 41.834 40.5 54.501l36 52c26.667 -4.66699 40 -13 40 -25c0 -5.33301 -9.66699 -25.333 -29 -60s-29 -61 -29 -79
c0 -11.333 2.83301 -21.5 8.5 -30.5s14.167 -13.5 25.5 -13.5c19.333 0 43.666 13.833 72.999 41.5s58.333 66.5 87 116.5l10 -10c-20.667 -53.333 -49.834 -97 -87.501 -131s-74.5 -51 -110.5 -51c-23.333 0 -41.166 6.83301 -53.499 20.5s-18.5 30.167 -18.5 49.5
c0 8 1 17.667 3 29c-30 -40 -56.833 -69.333 -80.5 -88s-47.167 -28 -70.5 -28c-22 0 -39.833 7.16699 -53.5 21.5s-20.5 34.833 -20.5 61.5zM216.002 450.999c0 26 12.334 51.167 37.001 75.5s53 36.5 85 36.5c50.667 0 76 -18 76 -54c0 -25.333 -12.833 -50.333 -38.5 -75
s-54.834 -37 -87.501 -37c-48 0 -72 18 -72 54zM255.003 457.999c0 -10 3.66699 -19.333 11 -28s17.666 -13 30.999 -13c18.667 0 36.667 9.83301 54 29.5s26 38.5 26 56.5c0 10 -3.83301 18.667 -11.5 26s-18.5 11 -32.5 11c-19.333 0 -37.166 -9 -53.499 -27
s-24.5 -36.333 -24.5 -55z" />
    <glyph glyph-name="ae" unicode="&#xe6;" horiz-adv-x="543" 
d="M-26 36c0 39.333 13.8301 83 41.4971 131s63.5 89.333 107.5 124s86.667 52 128 52c36 0 59 -14 69 -42c44.667 39.333 88.334 59 131.001 59c41.333 0 62 -20.333 62 -61c0 -48.667 -26 -91.667 -78 -129s-108.667 -59 -170 -65c-2.66699 -11.333 -4 -23.333 -4 -36
c0 -56 26.333 -84 79 -84c40.667 0 81.667 17 123 51s75 76 101 126l12 -9c-26.667 -59.333 -63.667 -107 -111 -143s-96 -54 -146 -54c-38 0 -67.5 10.167 -88.5 30.5s-32.167 46.833 -33.5 79.5c-29.333 -38.667 -55.666 -67.167 -78.999 -85.5
s-46.666 -27.5 -69.999 -27.5c-22 0 -39.833 7.16699 -53.5 21.5s-20.5 34.833 -20.5 61.5zM42.9971 33c0 -26 9.00098 -39 27.001 -39c30.667 0 73.667 35 129 105c4.66699 29.333 15.667 60 33 92s38.666 61 63.999 87c-6 25.333 -21.667 38 -47 38
c-29.333 0 -60.5 -16.833 -93.5 -50.5s-60 -72.667 -81 -117s-31.5 -82.833 -31.5 -115.5zM269.998 124c46.667 16.667 91.5 41.667 134.5 75s64.5 69 64.5 107c0 15.333 -7 23 -21 23c-31.333 0 -65.333 -21.833 -102 -65.5s-62 -90.167 -76 -139.5z" />
    <glyph glyph-name="ccedilla" unicode="&#xe7;" horiz-adv-x="323" 
d="M-5 72c0 66 23.5 126.834 70.5 182.501s96.5 83.5 148.5 83.5c25.333 0 43.5 -7.16699 54.5 -21.5s16.5 -31.833 16.5 -52.5c0 -20 -4.5 -37.167 -13.5 -51.5s-21.167 -21.5 -36.5 -21.5c-11.333 0 -21 5 -29 15c10 4.66699 18.667 15.167 26 31.5s11 32.166 11 47.499
c0 16.667 -7.33301 25 -22 25c-34.667 0 -70.667 -28.333 -108 -85s-56 -110 -56 -160c0 -55.333 24.333 -83 73 -83c40.667 0 80.834 16.667 120.501 50s70.167 77 91.5 131l13 -10c-22 -56.667 -54.667 -104.667 -98 -144l-34 -52c22.667 16 45 24 67 24
c30 0 45 -14 45 -42c0 -28.667 -11.833 -54.5 -35.5 -77.5s-50.834 -34.5 -81.501 -34.5c-18.667 0 -33.5 3.5 -44.5 10.5s-16.5 15.5 -16.5 25.5c0 11.333 7.33301 22.333 22 33c6.66699 -30 20.667 -45 42 -45c18.667 0 37.167 10 55.5 30s27.5 39 27.5 57
c0 16.667 -5.66699 25 -17 25c-10 0 -26 -6.83301 -48 -20.5s-34.333 -20.5 -37 -20.5c-4 0 -7.33301 2 -10 6s-4 8 -4 12c0 2 7.66699 14 23 36c-36 -21.333 -70.667 -32 -104 -32s-60.333 11 -81 33s-31 53.667 -31 95z" />
    <glyph glyph-name="egrave" unicode="&#xe8;" horiz-adv-x="333" 
d="M-14 72c0 61.333 28 124.667 84 190s112.667 98 170 98c41.333 0 62 -20.333 62 -61c0 -48.667 -26 -91.667 -78 -129s-108.667 -59 -170 -65c-2.66699 -11.333 -4 -23.333 -4 -36c0 -56 26.333 -84 79 -84c40.667 0 81.667 17 123 51s75 76 101 126l12 -9
c-26.667 -59.333 -63.667 -107 -111 -143s-96 -54 -146 -54c-39.333 0 -69.5 10.833 -90.5 32.5s-31.5 49.5 -31.5 83.5zM59 124.001c46.667 16.667 91.5 41.667 134.5 75s64.5 69 64.5 107c0 15.333 -7 23 -21 23c-31.333 0 -65.333 -21.833 -102 -65.5
s-62 -90.167 -76 -139.5zM172 534.001c2 20.667 9.33203 31 21.999 31c18 0 39.833 -16.667 65.5 -50s38.5 -57 38.5 -71c0 -12.667 -4.66699 -21.334 -14 -26.001c-25.333 34.667 -62.666 73.334 -111.999 116.001z" />
    <glyph glyph-name="eacute" unicode="&#xe9;" horiz-adv-x="333" 
d="M-14 72c0 61.333 28 124.667 84 190s112.667 98 170 98c41.333 0 62 -20.333 62 -61c0 -48.667 -26 -91.667 -78 -129s-108.667 -59 -170 -65c-2.66699 -11.333 -4 -23.333 -4 -36c0 -56 26.333 -84 79 -84c40.667 0 81.667 17 123 51s75 76 101 126l12 -9
c-26.667 -59.333 -63.667 -107 -111 -143s-96 -54 -146 -54c-39.333 0 -69.5 10.833 -90.5 32.5s-31.5 49.5 -31.5 83.5zM59 124.001c46.667 16.667 91.5 41.667 134.5 75s64.5 69 64.5 107c0 15.333 -7 23 -21 23c-31.333 0 -65.333 -21.833 -102 -65.5
s-62 -90.167 -76 -139.5zM292 455.001c0 14 12.832 37.667 38.499 71s47.5 50 65.5 50c12.667 0 20 -10.333 22 -31c-49.333 -42.667 -86.666 -81.334 -111.999 -116.001c-9.33301 4.66699 -14 13.334 -14 26.001z" />
    <glyph glyph-name="ecircumflex" unicode="&#xea;" horiz-adv-x="333" 
d="M-14 72c0 61.333 28 124.667 84 190s112.667 98 170 98c41.333 0 62 -20.333 62 -61c0 -48.667 -26 -91.667 -78 -129s-108.667 -59 -170 -65c-2.66699 -11.333 -4 -23.333 -4 -36c0 -56 26.333 -84 79 -84c40.667 0 81.667 17 123 51s75 76 101 126l12 -9
c-26.667 -59.333 -63.667 -107 -111 -143s-96 -54 -146 -54c-39.333 0 -69.5 10.833 -90.5 32.5s-31.5 49.5 -31.5 83.5zM59 124.001c46.667 16.667 91.5 41.667 134.5 75s64.5 69 64.5 107c0 15.333 -7 23 -21 23c-31.333 0 -65.333 -21.833 -102 -65.5
s-62 -90.167 -76 -139.5zM182 460.001c0 18 15 37.1641 45 57.4971s53 30.5 69 30.5s35 -13.167 57 -39.5s33 -50.166 33 -71.499c0 -15.333 -5.66699 -25.666 -17 -30.999c-14 28.667 -38.667 59.334 -74 92.001c-44.667 -16 -79 -35 -103 -57
c-6.66699 4 -10 10.333 -10 19z" />
    <glyph glyph-name="edieresis" unicode="&#xeb;" horiz-adv-x="333" 
d="M-14 72c0 61.333 28 124.667 84 190s112.667 98 170 98c41.333 0 62 -20.333 62 -61c0 -48.667 -26 -91.667 -78 -129s-108.667 -59 -170 -65c-2.66699 -11.333 -4 -23.333 -4 -36c0 -56 26.333 -84 79 -84c40.667 0 81.667 17 123 51s75 76 101 126l12 -9
c-26.667 -59.333 -63.667 -107 -111 -143s-96 -54 -146 -54c-39.333 0 -69.5 10.833 -90.5 32.5s-31.5 49.5 -31.5 83.5zM59 124.001c46.667 16.667 91.5 41.667 134.5 75s64.5 69 64.5 107c0 15.333 -7 23 -21 23c-31.333 0 -65.333 -21.833 -102 -65.5
s-62 -90.167 -76 -139.5zM137 466.001c0 12 7.16797 22.833 21.501 32.5s29.166 14.5 44.499 14.5c20 0 30 -9.33301 30 -28c0 -11.333 -6.16699 -22.333 -18.5 -33s-25.833 -16 -40.5 -16c-24.667 0 -37 10 -37 30zM281.001 445.001c0 12 7.16797 22.833 21.501 32.5
s29.166 14.5 44.499 14.5c20 0 30 -9.33301 30 -28c0 -11.333 -6.16699 -22.333 -18.5 -33s-25.833 -16 -40.5 -16c-24.667 0 -37 10 -37 30z" />
    <glyph glyph-name="igrave" unicode="&#xec;" horiz-adv-x="241" 
d="M-5 58c0 26 7 60.9971 21 104.997s32.667 84.333 56 121s45.666 55 66.999 55c14.667 0 22 -7.33301 22 -22c0 -8 -8.66699 -26.333 -26 -55s-34.666 -61.167 -51.999 -97.5s-26 -68.166 -26 -95.499c0 -23.333 3.83301 -39.166 11.5 -47.499s20.167 -12.5 37.5 -12.5
c52 0 103.333 51 154 153l9 -10c-18.667 -56 -46.167 -99.667 -82.5 -131s-74.5 -47 -114.5 -47c-24.667 0 -43.667 7.83301 -57 23.5s-20 35.834 -20 60.501zM90 530.997c2 20.667 9.33203 31 21.999 31c18 0 39.833 -16.667 65.5 -50s38.5 -57 38.5 -71
c0 -12.667 -4.66699 -21.334 -14 -26.001c-25.333 34.667 -62.666 73.334 -111.999 116.001z" />
    <glyph glyph-name="iacute" unicode="&#xed;" horiz-adv-x="241" 
d="M-5 58c0 26 7 60.9971 21 104.997s32.667 84.333 56 121s45.666 55 66.999 55c14.667 0 22 -7.33301 22 -22c0 -8 -8.66699 -26.333 -26 -55s-34.666 -61.167 -51.999 -97.5s-26 -68.166 -26 -95.499c0 -23.333 3.83301 -39.166 11.5 -47.499s20.167 -12.5 37.5 -12.5
c52 0 103.333 51 154 153l9 -10c-18.667 -56 -46.167 -99.667 -82.5 -131s-74.5 -47 -114.5 -47c-24.667 0 -43.667 7.83301 -57 23.5s-20 35.834 -20 60.501zM164 435.997c0 14 12.832 37.667 38.499 71s47.5 50 65.5 50c12.667 0 20 -10.333 22 -31
c-49.333 -42.667 -86.666 -81.334 -111.999 -116.001c-9.33301 4.66699 -14 13.334 -14 26.001z" />
    <glyph glyph-name="icircumflex" unicode="&#xee;" horiz-adv-x="241" 
d="M-5 58c0 26 7 60.9971 21 104.997s32.667 84.333 56 121s45.666 55 66.999 55c14.667 0 22 -7.33301 22 -22c0 -8 -8.66699 -26.333 -26 -55s-34.666 -61.167 -51.999 -97.5s-26 -68.166 -26 -95.499c0 -23.333 3.83301 -39.166 11.5 -47.499s20.167 -12.5 37.5 -12.5
c52 0 103.333 51 154 153l9 -10c-18.667 -56 -46.167 -99.667 -82.5 -131s-74.5 -47 -114.5 -47c-24.667 0 -43.667 7.83301 -57 23.5s-20 35.834 -20 60.501zM100 459.997c0 18 15 37.1641 45 57.4971s53 30.5 69 30.5s35 -13.167 57 -39.5s33 -50.166 33 -71.499
c0 -15.333 -5.66699 -25.666 -17 -30.999c-14 28.667 -38.667 59.334 -74 92.001c-44.667 -16 -79 -35 -103 -57c-6.66699 4 -10 10.333 -10 19z" />
    <glyph glyph-name="idieresis" unicode="&#xef;" horiz-adv-x="241" 
d="M-5 58c0 26 7 60.9971 21 104.997s32.667 84.333 56 121s45.666 55 66.999 55c14.667 0 22 -7.33301 22 -22c0 -8 -8.66699 -26.333 -26 -55s-34.666 -61.167 -51.999 -97.5s-26 -68.166 -26 -95.499c0 -23.333 3.83301 -39.166 11.5 -47.499s20.167 -12.5 37.5 -12.5
c52 0 103.333 51 154 153l9 -10c-18.667 -56 -46.167 -99.667 -82.5 -131s-74.5 -47 -114.5 -47c-24.667 0 -43.667 7.83301 -57 23.5s-20 35.834 -20 60.501zM59 465.997c0 12 7.16797 22.833 21.501 32.5s29.166 14.5 44.499 14.5c20 0 30 -9.33301 30 -28
c0 -11.333 -6.16699 -22.333 -18.5 -33s-25.833 -16 -40.5 -16c-24.667 0 -37 10 -37 30zM203.001 444.997c0 12 7.16797 22.833 21.501 32.5s29.166 14.5 44.499 14.5c20 0 30 -9.33301 30 -28c0 -11.333 -6.16699 -22.333 -18.5 -33s-25.833 -16 -40.5 -16
c-24.667 0 -37 10 -37 30z" />
    <glyph glyph-name="eth" unicode="&#xf0;" horiz-adv-x="473" 
d="M-16 54c0 36.667 13.501 79.002 40.501 127.002s62 89.833 105 125.5s84.167 53.5 123.5 53.5c29.333 0 44 -10.333 44 -31c0 -2.66699 -0.666992 -7.33398 -2 -14.001c-7.33301 10 -20 15 -38 15c-33.333 0 -66.333 -16.833 -99 -50.5s-58.167 -70.834 -76.5 -111.501
s-27.5 -74.667 -27.5 -102c0 -14.667 3.16699 -26.334 9.5 -35.001s15.166 -13 26.499 -13c29.333 0 65.833 27.333 109.5 82s79.5 119 107.5 193c30 78 45 143.333 45 196c0 15.333 -1.33301 29.666 -4 42.999c-46 -6.66699 -84.333 -14.334 -115 -23.001
c0 12.667 5.66699 23 17 31s23.5 13.5 36.5 16.5s31.167 6.16699 54.5 9.5c-14 50.667 -43 95.334 -87 134.001c10 12.667 23 19 39 19c28 0 52.333 -14 73 -42s36 -62.333 46 -103c44 2.66699 74.333 6.66699 91 12c-10 -16 -20.333 -26.5 -31 -31.5
s-28.667 -9.16699 -54 -12.5c2.66699 -15.333 4 -31 4 -47c0 -47.333 -18.667 -123.666 -56 -228.999s-56 -175 -56 -209c0 -28.667 9.33301 -43 28 -43c22 0 48.167 13.833 78.5 41.5s55.5 63.167 75.5 106.5l12 -9c-19.333 -50.667 -47.833 -93.167 -85.5 -127.5
s-73.834 -51.5 -108.501 -51.5c-22.667 0 -39.334 7.33301 -50.001 22s-16 32.334 -16 53.001c0 22.667 6.33301 58.334 19 107.001c-34 -56 -69.167 -101 -105.5 -135s-69.166 -51 -98.499 -51c-19.333 0 -36.666 7.16699 -51.999 21.5s-23 35.166 -23 62.499z" />
    <glyph glyph-name="ntilde" unicode="&#xf1;" horiz-adv-x="466" 
d="M-38 7c0 2 5.83398 17.6689 17.501 47.002s23.5 63.5 35.5 102.5s18 71.167 18 96.5c12.667 14 28 21 46 21s27 -8.66699 27 -26c0 -22.667 -10.667 -66.667 -32 -132c76.667 117.333 146 176 208 176c24 0 42.333 -8.83301 55 -26.5s19 -38.834 19 -63.501
c0 -22 -6.83301 -50 -20.5 -84s-20.5 -58.667 -20.5 -74c0 -25.333 10 -38 30 -38c41.333 0 88 52 140 156l11 -13c-48 -112.667 -105.667 -169 -173 -169c-22.667 0 -40 5.83301 -52 17.5s-18 27.167 -18 46.5c0 13.333 4.83301 35.833 14.5 67.5s14.5 55.5 14.5 71.5
c0 32.667 -13.333 49 -40 49c-16 0 -33.167 -6.33301 -51.5 -19s-34.5 -26.334 -48.5 -41.001s-30.5 -36 -49.5 -64s-32.5 -48.667 -40.5 -62l-37 -61c-24.667 0 -42.334 7.33301 -53.001 22zM98.001 421.002c23.333 30.667 50.999 46 82.999 46
c17.333 0 47.5 -7.33301 90.5 -22s77.5 -22 103.5 -22c10 0 20 1 30 3c-21.333 -24 -47.333 -36 -78 -36c-18.667 0 -48.5 6.5 -89.5 19.5s-72.167 19.5 -93.5 19.5c-17.333 0 -32.666 -2.66699 -45.999 -8z" />
    <glyph glyph-name="ograve" unicode="&#xf2;" horiz-adv-x="365" 
d="M-10 59c0 42.667 12.166 85.1641 36.499 127.497s50.5 63.5 78.5 63.5c6 0 13 -1.66699 21 -5c-12.667 -10.667 -27.667 -37.167 -45 -79.5s-26 -75.5 -26 -99.5c0 -38 12 -57 36 -57c29.333 0 65 26.667 107 80c-18.667 15.333 -33.167 35.333 -43.5 60
s-15.5 50.334 -15.5 77.001c0 34.667 8.83301 64.334 26.5 89.001s41.5 37 71.5 37c46 0 69 -25.667 69 -77c0 -52 -22.333 -111.333 -67 -178c12 -6.66699 24.667 -10 38 -10c19.333 0 39.333 5.83301 60 17.5s36.334 29.834 47.001 54.501l12 -10
c-12.667 -29.333 -30.667 -51 -54 -65s-47.333 -21 -72 -21c-18 0 -34 3.33301 -48 10c-53.333 -70 -104.333 -105 -153 -105c-27.333 0 -47.333 8.33301 -60 25s-19 38.667 -19 66zM181.999 222.997c0 -45.333 11.333 -81.333 34 -108c38.667 57.333 58 108.666 58 153.999
c0 37.333 -10 56 -30 56c-14.667 0 -28.667 -10.167 -42 -30.5s-20 -44.166 -20 -71.499zM186.999 525.997c2 20.667 9.33203 31 21.999 31c18 0 39.833 -16.667 65.5 -50s38.5 -57 38.5 -71c0 -12.667 -4.66699 -21.334 -14 -26.001
c-25.333 34.667 -62.666 73.334 -111.999 116.001z" />
    <glyph glyph-name="oacute" unicode="&#xf3;" horiz-adv-x="365" 
d="M-10 59c0 42.667 12.166 85.1641 36.499 127.497s50.5 63.5 78.5 63.5c6 0 13 -1.66699 21 -5c-12.667 -10.667 -27.667 -37.167 -45 -79.5s-26 -75.5 -26 -99.5c0 -38 12 -57 36 -57c29.333 0 65 26.667 107 80c-18.667 15.333 -33.167 35.333 -43.5 60
s-15.5 50.334 -15.5 77.001c0 34.667 8.83301 64.334 26.5 89.001s41.5 37 71.5 37c46 0 69 -25.667 69 -77c0 -52 -22.333 -111.333 -67 -178c12 -6.66699 24.667 -10 38 -10c19.333 0 39.333 5.83301 60 17.5s36.334 29.834 47.001 54.501l12 -10
c-12.667 -29.333 -30.667 -51 -54 -65s-47.333 -21 -72 -21c-18 0 -34 3.33301 -48 10c-53.333 -70 -104.333 -105 -153 -105c-27.333 0 -47.333 8.33301 -60 25s-19 38.667 -19 66zM181.999 222.997c0 -45.333 11.333 -81.333 34 -108c38.667 57.333 58 108.666 58 153.999
c0 37.333 -10 56 -30 56c-14.667 0 -28.667 -10.167 -42 -30.5s-20 -44.166 -20 -71.499zM333.999 439.997c0 14 12.832 37.667 38.499 71s47.5 50 65.5 50c12.667 0 20 -10.333 22 -31c-49.333 -42.667 -86.666 -81.334 -111.999 -116.001
c-9.33301 4.66699 -14 13.334 -14 26.001z" />
    <glyph glyph-name="ocircumflex" unicode="&#xf4;" horiz-adv-x="365" 
d="M-10 59c0 42.667 12.166 85.1641 36.499 127.497s50.5 63.5 78.5 63.5c6 0 13 -1.66699 21 -5c-12.667 -10.667 -27.667 -37.167 -45 -79.5s-26 -75.5 -26 -99.5c0 -38 12 -57 36 -57c29.333 0 65 26.667 107 80c-18.667 15.333 -33.167 35.333 -43.5 60
s-15.5 50.334 -15.5 77.001c0 34.667 8.83301 64.334 26.5 89.001s41.5 37 71.5 37c46 0 69 -25.667 69 -77c0 -52 -22.333 -111.333 -67 -178c12 -6.66699 24.667 -10 38 -10c19.333 0 39.333 5.83301 60 17.5s36.334 29.834 47.001 54.501l12 -10
c-12.667 -29.333 -30.667 -51 -54 -65s-47.333 -21 -72 -21c-18 0 -34 3.33301 -48 10c-53.333 -70 -104.333 -105 -153 -105c-27.333 0 -47.333 8.33301 -60 25s-19 38.667 -19 66zM176.999 459.997c0 18 15 37.1641 45 57.4971s53 30.5 69 30.5s35 -13.167 57 -39.5
s33 -50.166 33 -71.499c0 -15.333 -5.66699 -25.666 -17 -30.999c-14 28.667 -38.667 59.334 -74 92.001c-44.667 -16 -79 -35 -103 -57c-6.66699 4 -10 10.333 -10 19zM181.999 222.994c0 -45.333 11.333 -81.333 34 -108c38.667 57.333 58 108.666 58 153.999
c0 37.333 -10 56 -30 56c-14.667 0 -28.667 -10.167 -42 -30.5s-20 -44.166 -20 -71.499z" />
    <glyph glyph-name="otilde" unicode="&#xf5;" horiz-adv-x="365" 
d="M-10 59c0 42.667 12.166 85.1641 36.499 127.497s50.5 63.5 78.5 63.5c6 0 13 -1.66699 21 -5c-12.667 -10.667 -27.667 -37.167 -45 -79.5s-26 -75.5 -26 -99.5c0 -38 12 -57 36 -57c29.333 0 65 26.667 107 80c-18.667 15.333 -33.167 35.333 -43.5 60
s-15.5 50.334 -15.5 77.001c0 34.667 8.83301 64.334 26.5 89.001s41.5 37 71.5 37c46 0 69 -25.667 69 -77c0 -52 -22.333 -111.333 -67 -178c12 -6.66699 24.667 -10 38 -10c19.333 0 39.333 5.83301 60 17.5s36.334 29.834 47.001 54.501l12 -10
c-12.667 -29.333 -30.667 -51 -54 -65s-47.333 -21 -72 -21c-18 0 -34 3.33301 -48 10c-53.333 -70 -104.333 -105 -153 -105c-27.333 0 -47.333 8.33301 -60 25s-19 38.667 -19 66zM131.999 420.997c23.333 30.667 50.999 46 82.999 46c17.333 0 47.5 -7.33301 90.5 -22
s77.5 -22 103.5 -22c10 0 20 1 30 3c-21.333 -24 -47.333 -36 -78 -36c-18.667 0 -48.5 6.5 -89.5 19.5s-72.167 19.5 -93.5 19.5c-17.333 0 -32.666 -2.66699 -45.999 -8zM181.998 222.997c0 -45.333 11.333 -81.333 34 -108c38.667 57.333 58 108.666 58 153.999
c0 37.333 -10 56 -30 56c-14.667 0 -28.667 -10.167 -42 -30.5s-20 -44.166 -20 -71.499z" />
    <glyph glyph-name="odieresis" unicode="&#xf6;" horiz-adv-x="365" 
d="M-10 59c0 42.667 12.166 85.1641 36.499 127.497s50.5 63.5 78.5 63.5c6 0 13 -1.66699 21 -5c-12.667 -10.667 -27.667 -37.167 -45 -79.5s-26 -75.5 -26 -99.5c0 -38 12 -57 36 -57c29.333 0 65 26.667 107 80c-18.667 15.333 -33.167 35.333 -43.5 60
s-15.5 50.334 -15.5 77.001c0 34.667 8.83301 64.334 26.5 89.001s41.5 37 71.5 37c46 0 69 -25.667 69 -77c0 -52 -22.333 -111.333 -67 -178c12 -6.66699 24.667 -10 38 -10c19.333 0 39.333 5.83301 60 17.5s36.334 29.834 47.001 54.501l12 -10
c-12.667 -29.333 -30.667 -51 -54 -65s-47.333 -21 -72 -21c-18 0 -34 3.33301 -48 10c-53.333 -70 -104.333 -105 -153 -105c-27.333 0 -47.333 8.33301 -60 25s-19 38.667 -19 66zM129.999 465.997c0 12 7.16797 22.833 21.501 32.5s29.166 14.5 44.499 14.5
c20 0 30 -9.33301 30 -28c0 -11.333 -6.16699 -22.333 -18.5 -33s-25.833 -16 -40.5 -16c-24.667 0 -37 10 -37 30zM182 222.997c0 -45.333 11.333 -81.333 34 -108c38.667 57.333 58 108.666 58 153.999c0 37.333 -10 56 -30 56c-14.667 0 -28.667 -10.167 -42 -30.5
s-20 -44.166 -20 -71.499zM274 444.997c0 12 7.16797 22.833 21.501 32.5s29.166 14.5 44.499 14.5c20 0 30 -9.33301 30 -28c0 -11.333 -6.16699 -22.333 -18.5 -33s-25.833 -16 -40.5 -16c-24.667 0 -37 10 -37 30z" />
    <glyph glyph-name="divide" unicode="&#xf7;" horiz-adv-x="460" 
d="M25 124c12 32.667 75 49 189 49c54 0 110 -3 168 -9c-15.333 -10.667 -35.333 -18.167 -60 -22.5s-63.334 -6.5 -116.001 -6.5c-73.333 0 -133.666 -3.66699 -180.999 -11zM139 17c0 10.667 6.33301 20.167 19 28.5s25.667 12.5 39 12.5c17.333 0 26 -8 26 -24
c0 -10 -5.5 -19.833 -16.5 -29.5s-22.833 -14.5 -35.5 -14.5c-21.333 0 -32 9 -32 27zM199 267c0 10.667 6.33301 20.167 19 28.5s25.667 12.5 39 12.5c17.333 0 26 -8 26 -24c0 -10 -5.5 -19.833 -16.5 -29.5s-22.833 -14.5 -35.5 -14.5c-21.333 0 -32 9 -32 27z" />
    <glyph glyph-name="oslash" unicode="&#xf8;" horiz-adv-x="404" 
d="M-65 -63c18 8.66699 41.332 28.668 69.999 60.001c-11.333 15.333 -17 34.666 -17 57.999c0 36 11.667 77 35 123s54.333 86.5 93 121.5s76.667 52.5 114 52.5c12 0 22 -2.33301 30 -7l16 27c6 10 21 15 45 15c1.33301 0 3.5 -0.166992 6.5 -0.5s5.16699 -0.5 6.5 -0.5
c-2 -2 -4.66699 -5.66699 -8 -11l-14 -22c-5.33301 -9.33301 -10.666 -18 -15.999 -26c12 -8 18 -19.333 18 -34c0 -6 -6.5 -23.5 -19.5 -52.5s-19.5 -53.5 -19.5 -73.5c0 -24.667 7 -44.667 21 -60s30.333 -23 49 -23c28 0 54.333 25.333 79 76l13 -10
c-24.667 -57.333 -58 -86 -100 -86c-19.333 0 -37.333 6 -54 18s-30 29.333 -40 52c-22 -50.667 -48.167 -91 -78.5 -121s-62.5 -45 -96.5 -45c-14 0 -26.333 2.66699 -37 8c-33.333 -26.667 -61 -40 -83 -40c-6 0 -10.333 0.333008 -13 1zM51.999 51.001
c63.333 78 125.667 165 187 261c-34 -2 -66 -18.833 -96 -50.5s-52.667 -66.167 -68 -103.5s-23 -69.333 -23 -96v-11zM74 14.001c5.33301 -2 10.666 -3 15.999 -3c22.667 0 47.667 14.833 75 44.5s50 66.167 68 109.5c-4 15.333 -6 33 -6 53
c-69.333 -104 -118.666 -170.333 -147.999 -199z" />
    <glyph glyph-name="ugrave" unicode="&#xf9;" horiz-adv-x="438" 
d="M0 71c0 38 10.998 85.332 32.998 141.999s40.333 85 55 85c12.667 0 25 -6.66699 37 -20c-14 -22 -28.667 -53.5 -44 -94.5s-23 -76.5 -23 -106.5c0 -44.667 12 -67 36 -67c8.66699 0 17.834 3.33301 27.501 10s19.5 16.5 29.5 29.5s19.5 26 28.5 39
s18.5 29.167 28.5 48.5l26 49l24 48c8.66699 19.333 14.667 31.666 18 36.999c32 -6 48 -14.667 48 -26c0 -2 -5.66699 -15.5 -17 -40.5s-22.5 -53.833 -33.5 -86.5s-16.5 -58.667 -16.5 -78c0 -26.667 11 -40 33 -40c22.667 0 50.334 14.833 83.001 44.5
s60.667 68.834 84 117.501l13 -9c-21.333 -53.333 -51.166 -97.166 -89.499 -131.499s-75.5 -51.5 -111.5 -51.5c-46.667 0 -70 24.667 -70 74c0 13.333 2.33301 30 7 50c-46.667 -82.667 -90.334 -124 -131.001 -124c-22 0 -40 9.83301 -54 29.5s-21 43.5 -21 71.5z
M163.998 525.999c2 20.667 9.33203 31 21.999 31c18 0 39.833 -16.667 65.5 -50s38.5 -57 38.5 -71c0 -12.667 -4.66699 -21.334 -14 -26.001c-25.333 34.667 -62.666 73.334 -111.999 116.001z" />
    <glyph glyph-name="uacute" unicode="&#xfa;" horiz-adv-x="438" 
d="M0 71c0 38 10.998 85.332 32.998 141.999s40.333 85 55 85c12.667 0 25 -6.66699 37 -20c-14 -22 -28.667 -53.5 -44 -94.5s-23 -76.5 -23 -106.5c0 -44.667 12 -67 36 -67c8.66699 0 17.834 3.33301 27.501 10s19.5 16.5 29.5 29.5s19.5 26 28.5 39
s18.5 29.167 28.5 48.5l26 49l24 48c8.66699 19.333 14.667 31.666 18 36.999c32 -6 48 -14.667 48 -26c0 -2 -5.66699 -15.5 -17 -40.5s-22.5 -53.833 -33.5 -86.5s-16.5 -58.667 -16.5 -78c0 -26.667 11 -40 33 -40c22.667 0 50.334 14.833 83.001 44.5
s60.667 68.834 84 117.501l13 -9c-21.333 -53.333 -51.166 -97.166 -89.499 -131.499s-75.5 -51.5 -111.5 -51.5c-46.667 0 -70 24.667 -70 74c0 13.333 2.33301 30 7 50c-46.667 -82.667 -90.334 -124 -131.001 -124c-22 0 -40 9.83301 -54 29.5s-21 43.5 -21 71.5z
M209.998 395.999c0 14 12.832 37.667 38.499 71s47.5 50 65.5 50c12.667 0 20 -10.333 22 -31c-49.333 -42.667 -86.666 -81.334 -111.999 -116.001c-9.33301 4.66699 -14 13.334 -14 26.001z" />
    <glyph glyph-name="ucircumflex" unicode="&#xfb;" horiz-adv-x="438" 
d="M0 71c0 38 10.998 85.332 32.998 141.999s40.333 85 55 85c12.667 0 25 -6.66699 37 -20c-14 -22 -28.667 -53.5 -44 -94.5s-23 -76.5 -23 -106.5c0 -44.667 12 -67 36 -67c8.66699 0 17.834 3.33301 27.501 10s19.5 16.5 29.5 29.5s19.5 26 28.5 39
s18.5 29.167 28.5 48.5l26 49l24 48c8.66699 19.333 14.667 31.666 18 36.999c32 -6 48 -14.667 48 -26c0 -2 -5.66699 -15.5 -17 -40.5s-22.5 -53.833 -33.5 -86.5s-16.5 -58.667 -16.5 -78c0 -26.667 11 -40 33 -40c22.667 0 50.334 14.833 83.001 44.5
s60.667 68.834 84 117.501l13 -9c-21.333 -53.333 -51.166 -97.166 -89.499 -131.499s-75.5 -51.5 -111.5 -51.5c-46.667 0 -70 24.667 -70 74c0 13.333 2.33301 30 7 50c-46.667 -82.667 -90.334 -124 -131.001 -124c-22 0 -40 9.83301 -54 29.5s-21 43.5 -21 71.5z
M173.998 459.999c0 18 15 37.1641 45 57.4971s53 30.5 69 30.5s35 -13.167 57 -39.5s33 -50.166 33 -71.499c0 -15.333 -5.66699 -25.666 -17 -30.999c-14 28.667 -38.667 59.334 -74 92.001c-44.667 -16 -79 -35 -103 -57c-6.66699 4 -10 10.333 -10 19z" />
    <glyph glyph-name="udieresis" unicode="&#xfc;" horiz-adv-x="438" 
d="M0 71c0 38 10.998 85.332 32.998 141.999s40.333 85 55 85c12.667 0 25 -6.66699 37 -20c-14 -22 -28.667 -53.5 -44 -94.5s-23 -76.5 -23 -106.5c0 -44.667 12 -67 36 -67c8.66699 0 17.834 3.33301 27.501 10s19.5 16.5 29.5 29.5s19.5 26 28.5 39
s18.5 29.167 28.5 48.5l26 49l24 48c8.66699 19.333 14.667 31.666 18 36.999c32 -6 48 -14.667 48 -26c0 -2 -5.66699 -15.5 -17 -40.5s-22.5 -53.833 -33.5 -86.5s-16.5 -58.667 -16.5 -78c0 -26.667 11 -40 33 -40c22.667 0 50.334 14.833 83.001 44.5
s60.667 68.834 84 117.501l13 -9c-21.333 -53.333 -51.166 -97.166 -89.499 -131.499s-75.5 -51.5 -111.5 -51.5c-46.667 0 -70 24.667 -70 74c0 13.333 2.33301 30 7 50c-46.667 -82.667 -90.334 -124 -131.001 -124c-22 0 -40 9.83301 -54 29.5s-21 43.5 -21 71.5z
M125.998 465.999c0 12 7.16797 22.833 21.501 32.5s29.166 14.5 44.499 14.5c20 0 30 -9.33301 30 -28c0 -11.333 -6.16699 -22.333 -18.5 -33s-25.833 -16 -40.5 -16c-24.667 0 -37 10 -37 30zM269.999 444.999c0 12 7.16797 22.833 21.501 32.5s29.166 14.5 44.499 14.5
c20 0 30 -9.33301 30 -28c0 -11.333 -6.16699 -22.333 -18.5 -33s-25.833 -16 -40.5 -16c-24.667 0 -37 10 -37 30z" />
    <glyph glyph-name="yacute" unicode="&#xfd;" horiz-adv-x="389" 
d="M-20 -227c0 16.667 4 32.501 12 47.501s16.5 27.5 25.5 37.5s24.333 21.833 46 35.5s38.5 23.5 50.5 29.5l60 31c20 51.333 38.667 112.333 56 183c-52 -84.667 -100.667 -127 -146 -127c-21.333 0 -40 7 -56 21s-24 34 -24 60c0 36.667 11 82.167 33 136.5
s40.333 81.5 55 81.5c6 0 14.833 -2.5 26.5 -7.5s17.5 -10.167 17.5 -15.5c-13.333 -19.333 -27.666 -50.5 -42.999 -93.5s-23 -77.167 -23 -102.5c0 -26.667 12 -40 36 -40c18 0 39.167 12.333 63.5 37s47.5 55 69.5 91c3.33301 11.333 6.66602 26.666 9.99902 45.999
c7.33301 34 24.333 51 51 51c6 0 13 -1 21 -3c0 -18 -7.5 -55 -22.5 -111s-33.5 -112.333 -55.5 -169c75.333 29.333 130.333 86 165 170l13 -10c-24.667 -78 -87.667 -140.333 -189 -187c-66.667 -163.333 -129.667 -245 -189 -245c-18 0 -33 4.66699 -45 14
s-18 22.333 -18 39zM11 -217.999c0 -6.66699 2.33398 -13.333 7.00098 -20s11.334 -10 20.001 -10c7.33301 0 17 5.33301 29 16s27 30.167 45 58.5s35.333 62.833 52 103.5c-26.667 -14 -46.834 -25.167 -60.501 -33.5s-28.834 -18.833 -45.501 -31.5
s-28.667 -25.667 -36 -39s-11 -28 -11 -44zM244.001 396.002c0 14 12.832 37.667 38.499 71s47.5 50 65.5 50c12.667 0 20 -10.333 22 -31c-49.333 -42.667 -86.666 -81.334 -111.999 -116.001c-9.33301 4.66699 -14 13.334 -14 26.001z" />
    <glyph glyph-name="thorn" unicode="&#xfe;" horiz-adv-x="391" 
d="M-94 -242c2 8 9.66992 35.6641 23.0029 82.9971l29 98c5.33301 18.667 14 52.667 26 102s21.667 93.333 29 132s15.666 87.834 24.999 147.501s18 121.5 26 185.5c0.666992 6.66699 2.16699 11.167 4.5 13.5s7.16602 3.5 14.499 3.5c16 0 28 -4.5 36 -13.5
s12 -19.833 12 -32.5c0 -10 -5.83301 -52.167 -17.5 -126.5s-20.834 -127.166 -27.501 -158.499c20.667 40 45.834 74.5 75.501 103.5s62.167 43.5 97.5 43.5c29.333 0 53.5 -10.5 72.5 -31.5s28.5 -48.5 28.5 -82.5c0 -57.333 -23.167 -113.5 -69.5 -168.5
s-101.833 -82.5 -166.5 -82.5c-16.667 0 -30.5 1.83301 -41.5 5.5s-16.5 7.83398 -16.5 12.501c0 3.33301 8.33301 5 25 5c52 0 99 23.333 141 70s63 96.334 63 149.001c0 22.667 -4.83301 41.167 -14.5 55.5s-23.834 21.5 -42.501 21.5
c-31.333 0 -62.833 -17.667 -94.5 -53s-55.5 -71.333 -71.5 -108c-58.667 -248.667 -99.667 -384.334 -123 -407.001c-3.33301 -3.33301 -7.33301 -5 -12 -5c-7.33301 0 -14.5 5.5 -21.5 16.5s-10.167 18.167 -9.5 21.5z" />
    <glyph glyph-name="ydieresis" unicode="&#xff;" horiz-adv-x="389" 
d="M-20 -227c0 16.667 4 32.501 12 47.501s16.5 27.5 25.5 37.5s24.333 21.833 46 35.5s38.5 23.5 50.5 29.5l60 31c20 51.333 38.667 112.333 56 183c-52 -84.667 -100.667 -127 -146 -127c-21.333 0 -40 7 -56 21s-24 34 -24 60c0 36.667 11 82.167 33 136.5
s40.333 81.5 55 81.5c6 0 14.833 -2.5 26.5 -7.5s17.5 -10.167 17.5 -15.5c-13.333 -19.333 -27.666 -50.5 -42.999 -93.5s-23 -77.167 -23 -102.5c0 -26.667 12 -40 36 -40c18 0 39.167 12.333 63.5 37s47.5 55 69.5 91c3.33301 11.333 6.66602 26.666 9.99902 45.999
c7.33301 34 24.333 51 51 51c6 0 13 -1 21 -3c0 -18 -7.5 -55 -22.5 -111s-33.5 -112.333 -55.5 -169c75.333 29.333 130.333 86 165 170l13 -10c-24.667 -78 -87.667 -140.333 -189 -187c-66.667 -163.333 -129.667 -245 -189 -245c-18 0 -33 4.66699 -45 14
s-18 22.333 -18 39zM11 -217.999c0 -6.66699 2.33398 -13.333 7.00098 -20s11.334 -10 20.001 -10c7.33301 0 17 5.33301 29 16s27 30.167 45 58.5s35.333 62.833 52 103.5c-26.667 -14 -46.834 -25.167 -60.501 -33.5s-28.834 -18.833 -45.501 -31.5
s-28.667 -25.667 -36 -39s-11 -28 -11 -44zM126.001 466.002c0 12 7.16797 22.833 21.501 32.5s29.166 14.5 44.499 14.5c20 0 30 -9.33301 30 -28c0 -11.333 -6.16699 -22.333 -18.5 -33s-25.833 -16 -40.5 -16c-24.667 0 -37 10 -37 30zM270.002 445.002
c0 12 7.16797 22.833 21.501 32.5s29.166 14.5 44.499 14.5c20 0 30 -9.33301 30 -28c0 -11.333 -6.16699 -22.333 -18.5 -33s-25.833 -16 -40.5 -16c-24.667 0 -37 10 -37 30z" />
    <glyph glyph-name="dotlessi" unicode="&#x131;" horiz-adv-x="241" 
d="M-5 58c0 26 7 60.9971 21 104.997s32.667 84.333 56 121s45.666 55 66.999 55c14.667 0 22 -7.33301 22 -22c0 -8 -8.66699 -26.333 -26 -55s-34.666 -61.167 -51.999 -97.5s-26 -68.166 -26 -95.499c0 -23.333 3.83301 -39.166 11.5 -47.499s20.167 -12.5 37.5 -12.5
c52 0 103.333 51 154 153l9 -10c-18.667 -56 -46.167 -99.667 -82.5 -131s-74.5 -47 -114.5 -47c-24.667 0 -43.667 7.83301 -57 23.5s-20 35.834 -20 60.501z" />
    <glyph glyph-name="OE" unicode="&#x152;" horiz-adv-x="799" 
d="M21 161c0 62.667 12.667 127.831 38 195.498s57.666 127.834 96.999 180.501s84 96.167 134 130.5s98.333 51.5 145 51.5c24.667 0 44.667 -4 60 -12h-11c-41.333 0 -84.833 -17.833 -130.5 -53.5s-86.167 -80.667 -121.5 -135s-64.666 -115 -87.999 -182
s-35 -130.167 -35 -189.5c0 -58 11.167 -105.833 33.5 -143.5s55.833 -56.5 100.5 -56.5c51.333 0 99.833 30.167 145.5 90.5s81.167 133.333 106.5 219s38 168.5 38 248.5c0 84.667 -10 127 -30 127c-24.667 0 -64.334 -67.667 -119.001 -203
c-32 7.33301 -48 23.666 -48 48.999c0 35.333 22 76.166 66 122.499s83 69.5 117 69.5c44 2.66699 82 4 114 4c95.333 0 160 -5.66699 194 -17c-8.66699 -24 -65.334 -36 -170.001 -36c-11.333 0 -25.333 0.5 -42 1.5s-29.334 1.5 -38.001 1.5c7.33301 -22 11 -48 11 -78
c0 -65.333 -4.33301 -125.666 -13 -180.999c90.667 0 158.334 -3.33301 203.001 -10c-12 -32.667 -58.333 -49 -139 -49c-24 0 -48.667 0.666992 -74 2c-22.667 -103.333 -44.667 -180.666 -66 -231.999s-54 -90.666 -98 -117.999c34.667 -1.33301 90.334 -2 167.001 -2
c8 0 27 0.666992 57 2s50.667 2 62 2c10.667 0 17.334 -0.333008 20.001 -1c-6 -15.333 -39.167 -27 -99.5 -35s-126.5 -12 -198.5 -12c-18 0 -46.5 0.166992 -85.5 0.5s-68.167 0.5 -87.5 0.5c-66 0 -118.333 20.833 -157 62.5s-58 103.5 -58 185.5z" />
    <glyph glyph-name="oe" unicode="&#x153;" horiz-adv-x="543" 
d="M-26 36c0 39.333 13.8301 83 41.4971 131s63.5 89.333 107.5 124s86.667 52 128 52c36 0 59 -14 69 -42c44.667 39.333 88.334 59 131.001 59c41.333 0 62 -20.333 62 -61c0 -48.667 -26 -91.667 -78 -129s-108.667 -59 -170 -65c-2.66699 -11.333 -4 -23.333 -4 -36
c0 -56 26.333 -84 79 -84c40.667 0 81.667 17 123 51s75 76 101 126l12 -9c-26.667 -59.333 -63.667 -107 -111 -143s-96 -54 -146 -54c-38 0 -67.5 10.167 -88.5 30.5s-32.167 46.833 -33.5 79.5c-29.333 -38.667 -55.666 -67.167 -78.999 -85.5
s-46.666 -27.5 -69.999 -27.5c-22 0 -39.833 7.16699 -53.5 21.5s-20.5 34.833 -20.5 61.5zM42.9971 33c0 -26 9 -39 27 -39c30.667 0 73.667 35 129 105l3 15c-21.333 7.33301 -37.833 20.833 -49.5 40.5s-17.5 41.167 -17.5 64.5c0 10 1 19.333 3 28
c-27.333 -31.333 -50 -67.5 -68 -108.5s-27 -76.167 -27 -105.5zM173.997 204c0 -26.667 11.668 -48 35.001 -64c17.333 50.667 46.333 96.667 87 138c-6 25.333 -21.667 38 -47 38c-18.667 0 -35.834 -11.333 -51.501 -34s-23.5 -48.667 -23.5 -78zM269.998 124
c46.667 16.667 91.5 41.667 134.5 75s64.5 69 64.5 107c0 15.333 -7 23 -21 23c-31.333 0 -65.333 -21.833 -102 -65.5s-62 -90.167 -76 -139.5z" />
    <glyph glyph-name="Scaron" unicode="&#x160;" horiz-adv-x="536" 
d="M-6 92c0 47.333 13.001 81.5 39.001 102.5s55.667 31.5 89 31.5c-36.667 -40 -55 -84.667 -55 -134c0 -40 13.167 -73.333 39.5 -100s64.166 -40 113.499 -40s92.666 13 129.999 39s56 61.667 56 107c0 31.333 -10.5 59.5 -31.5 84.5s-46.5 46.5 -76.5 64.5l-89 53
c-29.333 18 -54.5 39.833 -75.5 65.5s-31.5 54.834 -31.5 87.501c0 38.667 11.333 78.167 34 118.5s56.5 75.166 101.5 104.499s94.833 44 149.5 44c70 0 105 -33.333 105 -100c0 -33.333 -8 -70.666 -24 -111.999s-33.667 -77.333 -53 -108c-22 4.66699 -33 19 -33 43
c0 18.667 9.83301 53.5 29.5 104.5s29.5 86.167 29.5 105.5c0 28.667 -18.667 43 -56 43c-58.667 0 -110 -25 -154 -75s-66 -98.333 -66 -145c0 -27.333 10.333 -51.833 31 -73.5s45.667 -40.5 75 -56.5l87 -51c29.333 -17.333 54.333 -40.5 75 -69.5s31 -62.167 31 -99.5
c0 -64.667 -26.667 -116.334 -80 -155.001s-113.666 -58 -180.999 -58c-58.667 0 -108.167 15.5 -148.5 46.5s-60.5 75.167 -60.5 132.5zM336.001 855c0 15.333 5.66699 25.6689 17 31.002c14 -28.667 38.667 -59.334 74 -92.001c44.667 16 79 35 103 57
c6.66699 -4 10 -10.333 10 -19c0 -18 -15 -37.167 -45 -57.5s-53 -30.5 -69 -30.5s-35 13.167 -57 39.5s-33 50.166 -33 71.499z" />
    <glyph glyph-name="scaron" unicode="&#x161;" horiz-adv-x="345" 
d="M-20 80c0 18 2.83301 33.167 8.5 45.5s12 20.666 19 24.999s14.333 8.16602 22 11.499s12.5 6 14.5 8c42.667 46.667 75.667 95 99 145v12c0 22.667 3.83301 39.667 11.5 51s16.834 17 27.501 17s16 -4.33301 16 -13c0 -1.33301 -1 -6.66602 -3 -15.999
s-3 -18.666 -3 -27.999c0 -20 8.66699 -57 26 -111s26 -97.333 26 -130c0 -18 -2 -34.333 -6 -49c49.333 8.66699 91.333 46.334 126 113.001l9 -10c-23.333 -68.667 -70 -108.334 -140 -119.001c-20.667 -55.333 -63.334 -83 -128.001 -83c-43.333 0 -75 13 -95 39
s-30 56.667 -30 92zM25 81c0 -25.333 7.5 -47.833 22.5 -67.5s34.833 -29.5 59.5 -29.5c30.667 0 51.667 16.333 63 49c-26.667 5.33301 -51 15.833 -73 31.5s-38.667 32.834 -50 51.501c-14.667 -0.666992 -22 -12.334 -22 -35.001zM51 147
c24.667 -52.667 66 -85.334 124 -98.001c2.66699 17.333 4 33 4 47c0 18.667 -1.66699 38.334 -5 59.001s-8 43.5 -14 68.5s-10 42.833 -12 53.5c-34 -56 -66.333 -99.333 -97 -130zM137 547c0 15.333 5.66699 25.6689 17 31.002c14 -28.667 38.667 -59.334 74 -92.001
c44.667 16 79 35 103 57c6.66699 -4 10 -10.333 10 -19c0 -18 -15 -37.167 -45 -57.5s-53 -30.5 -69 -30.5s-35 13.167 -57 39.5s-33 50.166 -33 71.499z" />
    <glyph glyph-name="Ydieresis" unicode="&#x178;" horiz-adv-x="666" 
d="M23 539c0 43.333 19.3301 84.333 57.9971 123s83 58 133 58c35.333 0 61.5 -10 78.5 -30s25.5 -43.667 25.5 -71c0 -22 -11.167 -73.333 -33.5 -154s-33.5 -140 -33.5 -178c0 -64 23.333 -96 70 -96c42 0 81 24 117 72s67.667 107 95 177
c45.333 186.667 85.333 280 120 280c17.333 0 36 -10.667 56 -32c-33.333 -53.333 -58.666 -106.333 -75.999 -159s-47 -164.334 -89 -335.001l-20 -76c-4.66699 -18.667 -12 -43.167 -22 -73.5s-19.667 -54.666 -29 -72.999s-21.5 -38.833 -36.5 -61.5
s-30.833 -40.167 -47.5 -52.5s-36.5 -22.833 -59.5 -31.5s-47.833 -13 -74.5 -13c-40 0 -73 8.33301 -99 25s-39 39.667 -39 69c0 36.667 20 61.667 60 75c-5.33301 -18 -8 -36 -8 -54c0 -28 7.33301 -50 22 -66s36.334 -24 65.001 -24c97.333 0 167 94.333 209 283l18 90
l24 115c-60.667 -116.667 -133 -175 -217 -175c-72.667 0 -109 39.667 -109 119c0 36 11.333 95 34 177s34 137.667 34 167c0 52 -19 78 -57 78c-33.333 0 -59.666 -19 -78.999 -57s-29 -76.667 -29 -116c0 -20 2.66699 -36.333 8 -49c-46 0 -69 23 -69 69zM376.997 804
c0 12 7.16797 22.833 21.501 32.5s29.166 14.5 44.499 14.5c20 0 30 -9.33301 30 -28c0 -11.333 -6.16699 -22.333 -18.5 -33s-25.833 -16 -40.5 -16c-24.667 0 -37 10 -37 30zM520.998 783c0 12 7.16797 22.833 21.501 32.5s29.166 14.5 44.499 14.5
c20 0 30 -9.33301 30 -28c0 -11.333 -6.16699 -22.333 -18.5 -33s-25.833 -16 -40.5 -16c-24.667 0 -37 10 -37 30z" />
    <glyph glyph-name="Zcaron" unicode="&#x17d;" horiz-adv-x="631" 
d="M-25 26c0 34.667 25.6611 52.0029 76.9941 52.0029c32 0 77.333 -8.66699 136 -26c58.667 62 123.667 151.667 195 269c-40 -0.666992 -83.333 -4.33398 -130 -11.001l-34 -5c2.66699 46.667 52.334 70 149.001 70c10 0 25 -0.666992 45 -2
c54.667 97.333 93.667 176.333 117 237c-15.333 4 -41.333 13.167 -78 27.5s-72.667 27 -108 38s-66 16.5 -92 16.5c-75.333 0 -113 -48 -113 -144c0 -14.667 1.33301 -26.334 4 -35.001c-36 6.66699 -54 30.667 -54 72c0 44 17 77.5 51 100.5s81.333 34.5 142 34.5
c49.333 0 111.333 -10.667 186 -32s128 -32 160 -32c14.667 0 25.334 0.666992 32.001 2c-18 -15.333 -34.667 -27 -50 -35c-32 -76.667 -75.333 -162 -130 -256c60 -6 95.333 -9 106 -9c-10.667 -14.667 -23.5 -23.834 -38.5 -27.501s-46.167 -6.16699 -93.5 -7.5
c-74.667 -122 -147.334 -217 -218.001 -285c118.667 -37.333 200.334 -56 245.001 -56c26.667 0 50.334 5.33301 71.001 16c-20 -56.667 -55 -85 -105 -85c-11.333 0 -24.166 1.5 -38.499 4.5s-26.666 6 -36.999 9s-25.5 8.5 -45.5 16.5l-42 17l-46 22
c-23.333 11.333 -37.666 18 -42.999 20c-48 -37.333 -90.667 -56 -128 -56c-27.333 0 -49.5 8.33301 -66.5 25s-25.5 35 -25.5 55zM0.994141 28.0029c0 -12.667 5.83203 -25 17.499 -37s26.167 -18 43.5 -18c24.667 0 55.334 15.667 92.001 47
c-52 21.333 -90.667 32 -116 32c-24.667 0 -37 -8 -37 -24zM415.993 855.003c0 15.333 5.66699 25.6689 17 31.002c14 -28.667 38.667 -59.334 74 -92.001c44.667 16 79 35 103 57c6.66699 -4 10 -10.333 10 -19c0 -18 -15 -37.167 -45 -57.5s-53 -30.5 -69 -30.5
s-35 13.167 -57 39.5s-33 50.166 -33 71.499z" />
    <glyph glyph-name="zcaron" unicode="&#x17e;" horiz-adv-x="317" 
d="M-71 -229c0 16.667 4.33398 32.5 13.001 47.5s22.334 30 41.001 45s36.667 28.167 54 39.5l68 42l69 43c0 48.667 -23 91 -69 127c32.667 9.33301 59 29 79 59s30 59.333 30 88c0 16 -3.33301 28.833 -10 38.5s-16.334 14.5 -29.001 14.5s-25.167 -3.5 -37.5 -10.5
s-22.833 -15 -31.5 -24s-18.5 -22.833 -29.5 -41.5s-19.667 -34.334 -26 -47.001s-15.5 -32 -27.5 -58l-12 10c26 70 51.833 122.333 77.5 157s59.167 52 100.5 52c23.333 0 43 -7.5 59 -22.5s24 -34.833 24 -59.5c0 -34 -11.333 -65 -34 -93s-50.667 -50.333 -84 -67
c34.667 -26.667 58 -56.667 70 -90c57.333 43.333 94.333 90.333 111 141l11 -12c-16.667 -52.667 -55.334 -102 -116.001 -148c2.66699 -8.66699 4 -19.667 4 -33c0 -61.333 -24.667 -118.166 -74 -170.499s-104.333 -78.5 -165 -78.5c-44 0 -66 17 -66 51zM-42.999 -218
c0 -22 10.333 -33 31 -33c31.333 0 68.5 20.5 111.5 61.5s67.5 92.5 73.5 154.5l-62 -38l-61 -38c-14 -8.66699 -29.333 -19.5 -46 -32.5s-28.667 -25.5 -36 -37.5s-11 -24.333 -11 -37zM165.001 517c0 15.333 5.66699 25.6689 17 31.002
c14 -28.667 38.667 -59.334 74 -92.001c44.667 16 79 35 103 57c6.66699 -4 10 -10.333 10 -19c0 -18 -15 -37.167 -45 -57.5s-53 -30.5 -69 -30.5s-35 13.167 -57 39.5s-33 50.166 -33 71.499z" />
    <glyph glyph-name="florin" unicode="&#x192;" horiz-adv-x="393" 
d="M-239 -126c0 37.333 20.002 62.6689 60.002 76.002c-5.33301 -18 -8 -35.667 -8 -53c0 -26.667 7.5 -49 22.5 -67s31.5 -27 49.5 -27c11.333 0 22.333 2.5 33 7.5s20.667 13.667 30 26s17.833 24.5 25.5 36.5s15.667 29 24 51s15.166 41.167 20.499 57.5s12 39.5 20 69.5
l18 71l19 77l19 78c-30.667 -2.66699 -51.334 -5 -62.001 -7c0.666992 32.667 25.334 51.334 74.001 56.001c14.667 58 29.167 108 43.5 150s31.5 82.833 51.5 122.5s43 69.834 69 90.501s54.667 31 86 31c12.667 0 22.167 -3 28.5 -9s9.5 -18 9.5 -36
c0 -50.667 -20.667 -109.334 -62 -176.001s-91 -123.334 -149 -170.001c17.333 -0.666992 39.666 -2.16699 66.999 -4.5s48 -3.5 62 -3.5c12 0 21.333 1 28 3c-20.667 -30 -44 -45 -70 -45c-5.33301 0 -19.833 0.166992 -43.5 0.5s-45.834 0.5 -66.501 0.5h-18l-37 -149
l-31.5 -117.5c-11 -39.667 -21.167 -70.834 -30.5 -93.501s-19.666 -44.5 -30.999 -65.5s-23.166 -36.667 -35.499 -47s-25.833 -18.333 -40.5 -24s-31.334 -8.5 -50.001 -8.5c-36 0 -65.833 9.16699 -89.5 27.5s-35.5 42.166 -35.5 71.499zM163.002 347.003
c48.667 40.667 91.667 90.001 129 148.001s56 102 56 132c0 17.333 -7 26 -21 26c-26 0 -53.5 -27.333 -82.5 -82s-56.167 -129.334 -81.5 -224.001z" />
    <glyph glyph-name="circumflex" unicode="&#x2c6;" horiz-adv-x="203" 
d="M0 460c0 18 15 37.1641 45 57.4971s53 30.5 69 30.5s35 -13.167 57 -39.5s33 -50.166 33 -71.499c0 -15.333 -5.66699 -25.666 -17 -30.999c-14 28.667 -38.667 59.334 -74 92.001c-44.667 -16 -79 -35 -103 -57c-6.66699 4 -10 10.333 -10 19z" />
    <glyph glyph-name="caron" unicode="&#x2c7;" horiz-adv-x="203" 
d="M0 517c0 15.333 5.66699 25.6689 17 31.002c14 -28.667 38.667 -59.334 74 -92.001c44.667 16 79 35 103 57c6.66699 -4 10 -10.333 10 -19c0 -18 -15 -37.167 -45 -57.5s-53 -30.5 -69 -30.5s-35 13.167 -57 39.5s-33 50.166 -33 71.499z" />
    <glyph glyph-name="ring" unicode="&#x2da;" horiz-adv-x="425" 
d="M121 450c0 25.333 12.168 50.333 36.501 75s52.833 37 85.5 37c50.667 0 76 -18 76 -54c0 -25.333 -12.833 -50.333 -38.5 -75s-54.834 -37 -87.501 -37c-48 0 -72 18 -72 54zM160.001 457c0 -10 3.66699 -19.333 11 -28s17.666 -13 30.999 -13
c18.667 0 36.667 9.83301 54 29.5s26 38.5 26 56.5c0 10 -3.83301 18.667 -11.5 26s-18.5 11 -32.5 11c-19.333 0 -37.166 -9 -53.499 -27s-24.5 -36.333 -24.5 -55z" />
    <glyph glyph-name="tilde" unicode="&#x2dc;" horiz-adv-x="306" 
d="M0 421c23.333 30.667 50.999 46 82.999 46c17.333 0 47.5 -7.33301 90.5 -22s77.5 -22 103.5 -22c10 0 20 1 30 3c-21.333 -24 -47.333 -36 -78 -36c-18.667 0 -48.5 6.5 -89.5 19.5s-72.167 19.5 -93.5 19.5c-17.333 0 -32.666 -2.66699 -45.999 -8z" />
    <glyph glyph-name="endash" unicode="&#x2013;" horiz-adv-x="677" 
d="M25 114c2.66699 31.333 28.1689 52.835 76.502 64.502s116.833 17.5 205.5 17.5c57.333 0 114.833 -3 172.5 -9s102.5 -9 134.5 -9c-34.667 -30 -78.334 -45 -131.001 -45c-34 0 -73.5 -0.166992 -118.5 -0.5s-75.333 -0.5 -91 -0.5s-36.5 -0.166992 -62.5 -0.5
s-43.333 -0.833008 -52 -1.5s-21.834 -1.83398 -39.501 -3.50098s-32.667 -3.33398 -45 -5.00098s-28.833 -4.16699 -49.5 -7.5z" />
    <glyph glyph-name="emdash" unicode="&#x2014;" horiz-adv-x="838" 
d="M35 114c3.33301 31.333 35.165 52.834 95.498 64.501s145.833 17.5 256.5 17.5c72 0 144 -3 216 -9s128 -9 168 -9c-43.333 -30 -97.666 -45 -162.999 -45c-42.667 0 -92.167 -0.166992 -148.5 -0.5s-94.166 -0.5 -113.499 -0.5s-45.333 -0.166992 -78 -0.5
s-54.5 -0.833008 -65.5 -1.5s-27.5 -1.83398 -49.5 -3.50098s-40.667 -3.5 -56 -5.5z" />
    <glyph glyph-name="quoteleft" unicode="&#x2018;" horiz-adv-x="144" 
d="M126 692c0 7.33301 2.50098 13.833 7.50098 19.5s10.833 8.5 17.5 8.5c2.66699 -11.333 12.167 -29 28.5 -53s27.166 -42 32.499 -54c1.33301 -4 2 -7 2 -9c0 -11.333 -6.33301 -20.666 -19 -27.999c-4 6 -13 18.667 -27 38s-24.5 35.166 -31.5 47.499
s-10.5 22.5 -10.5 30.5z" />
    <glyph glyph-name="quoteright" unicode="&#x2019;" horiz-adv-x="125" 
d="M124 604c0 2 0.667969 5 2.00098 9c5.33301 12 16.166 30 32.499 54s25.833 41.667 28.5 53c6.66699 0 12.5 -2.83301 17.5 -8.5s7.5 -12.167 7.5 -19.5c0 -8 -3.5 -18.167 -10.5 -30.5s-17.5 -28.166 -31.5 -47.499s-23 -32 -27 -38
c-12.667 7.33301 -19 16.666 -19 27.999z" />
    <glyph glyph-name="quotesinglbase" unicode="&#x201a;" horiz-adv-x="196" 
d="M-10 -51c0 22 6.66602 45.3311 19.999 69.998s27 37 41 37c6.66699 0 12.5 -2.83301 17.5 -8.5s7.5 -12.167 7.5 -19.5c-6 -6 -11.667 -12.5 -17 -19.5s-9.66602 -13.167 -12.999 -18.5s-7.16602 -12.166 -11.499 -20.499l-9.5 -18.5l-10 -20
c-4.66699 -9.33301 -7.33398 -15.666 -8.00098 -18.999c-11.333 6.66699 -17 19 -17 37z" />
    </font>
</defs>
</svg>
