<?xml version="1.0" standalone="no"?>
<!DOCTYPE svg PUBLIC "-//W3C//DTD SVG 1.1//EN" "http://www.w3.org/Graphics/SVG/1.1/DTD/svg11.dtd" >
<svg>
<metadata>
Created by FontForge 20090914 at Mon Aug 11 03:45:00 2014
 By www-data
Copyright (c) 2011 by Pablo Impallari. www.impallari.com Igino Marini. www.ikern.com. All rights reserved.
</metadata>
<defs>
<font id="DancingScript-Bold" horiz-adv-x="631" >
  <font-face 
    font-family="Dancing Script"
    font-weight="700"
    font-stretch="normal"
    units-per-em="1000"
    panose-1="3 8 8 0 4 5 7 0 13 0"
    ascent="800"
    descent="-200"
    x-height="298.004"
    cap-height="719"
    bbox="-197 -280 1039 950.001"
    underline-thickness="50"
    underline-position="-50"
    unicode-range="U+0020-U+FB02"
  />
<missing-glyph horiz-adv-x="278" 
 />
    <glyph glyph-name="uniFB01" unicode="fi" horiz-adv-x="574" 
d="M-66 -186c0 50.667 14.499 126.332 43.499 226.999s64.333 201.334 106 302.001s89.167 188.667 142.5 264s101.333 113 144 113c28 0 42 -16.667 42 -50c0 -55.333 -27.667 -119.666 -83 -192.999s-118.666 -134 -189.999 -182c-9.33301 -22 -14 -33.333 -14 -34
c9.33301 -4.66699 17 -13.334 23 -26.001c18 -52.667 47.667 -79 89 -79c42 0 83.667 20.667 125 62c16 36.667 33.667 66.834 53 90.501s38.666 35.5 57.999 35.5c20 0 30 -9.66699 30 -29c0 -9.33301 -8.66699 -28 -26 -56s-34.666 -59.5 -51.999 -94.5
s-26 -65.5 -26 -91.5c0 -20.667 3.66699 -34.834 11 -42.501s19.333 -11.5 36 -11.5c51.333 0 104 52 158 156l16 -15c-22.667 -59.333 -52.667 -105.833 -90 -139.5s-77 -50.5 -119 -50.5c-28 0 -49.833 8.5 -65.5 25.5s-23.5 38.5 -23.5 64.5c0 25.333 5.66699 57 17 95
c-40 -26 -79.667 -39 -119 -39c-19.333 0 -41 4 -65 12c3.33301 -28 5 -45.333 5 -52c0 -56 -7.33301 -111.5 -22 -166.5s-34.5 -100.333 -59.5 -136s-51.5 -53.5 -79.5 -53.5c-16 0 -30.833 7 -44.5 21s-20.5 38.333 -20.5 73zM10.999 -173.002c0 -30 5 -44.998 15 -44.998
c18.667 0 39 33 61 99s33 129.333 33 190c0 47.333 -8 82.666 -24 105.999c-56.667 -158.667 -85 -275.334 -85 -350.001zM167.999 366c55.333 51.333 101.167 103.331 137.5 155.998s54.5 89.334 54.5 110.001c0 4.66699 -2.66699 7 -8 7
c-23.333 0 -51.333 -25.167 -84 -75.5s-66 -116.166 -100 -197.499zM478 460.998c0 15.333 8.66895 29 26.002 41s35.666 18 54.999 18c27.333 0 41 -12.667 41 -38c0 -14.667 -7.33301 -28.334 -22 -41.001s-31.334 -19 -50.001 -19c-14 0 -25.833 3.33301 -35.5 10
s-14.5 16.334 -14.5 29.001z" />
    <glyph glyph-name="uniFB02" unicode="fl" horiz-adv-x="573" 
d="M-66 -186c0 50.667 14.498 126.331 43.498 226.998s64.333 201.334 106 302.001s89.167 188.667 142.5 264s101.333 113 144 113c28 0 42 -16.667 42 -50c0 -55.333 -27.667 -119.666 -83 -192.999s-118.666 -134 -189.999 -182c-0.666992 -2 -2.66699 -6.66699 -6 -14
s-6 -13.666 -8 -18.999c13.333 -8 21 -19.333 23 -34c10.667 -62.667 41.334 -94 92.001 -94c30.667 0 64.334 10.333 101.001 31c14.667 68.667 43 147.5 85 236.5s84.5 164.333 127.5 226s74.833 92.5 95.5 92.5c11.333 0 21.333 -9.16699 30 -27.5s13 -35.833 13 -52.5
c0 -50.667 -27.167 -125.667 -81.5 -225s-117.166 -177.333 -188.499 -234c-8 -40 -12 -73.333 -12 -100c0 -46 14 -69 42 -69c24.667 0 50.667 15.833 78 47.5s50.666 69.167 69.999 112.5l25 -14c-61.333 -128 -129 -192 -203 -192c-61.333 0 -92 40.333 -92 121
c0 10 1 21.667 3 35c-36 -17.333 -71.667 -26 -107 -26c-22.667 0 -45.334 5 -68.001 15c0 -8.66699 0.666992 -20.334 2 -35.001c0 -56 -7.33301 -111.5 -22 -166.5s-34.5 -100.333 -59.5 -136s-51.5 -53.5 -79.5 -53.5c-16 0 -30.833 7 -44.5 21s-20.5 38.333 -20.5 73z
M10.998 -175.003c0 -28.667 5.00098 -42.999 15.001 -42.999c19.333 0 39.666 33.667 60.999 101s32 131 32 191c0 43.333 -8.33301 76 -25 98c-55.333 -162.667 -83 -278.334 -83 -347.001zM167.999 365.998c55.333 51.333 101.167 103.331 137.5 155.998
s54.5 89.334 54.5 110.001c0 4.66699 -2.66699 7 -8 7c-23.333 0 -51.333 -25.167 -84 -75.5s-66 -116.166 -100 -197.499zM439 237.996c48 52 94.501 116.168 139.501 192.501s67.833 141.5 68.5 195.5c-8.66699 0 -25.834 -19.167 -51.501 -57.5
s-53.667 -88.833 -84 -151.5s-54.5 -122.334 -72.5 -179.001z" />
    <glyph glyph-name="b_r" unicode="br" horiz-adv-x="771" 
d="M-10 60c0 63.333 19.999 147.834 59.999 253.501s85.833 198.834 137.5 279.501s92.167 121 121.5 121c12 0 21.667 -7.33301 29 -22s11 -31 11 -49c0 -50 -24.167 -117 -72.5 -201s-101.5 -142.667 -159.5 -176c-9.33301 -16.667 -19.166 -45 -29.499 -85
s-15.5 -77.333 -15.5 -112c0 -60 18 -90 54 -90c17.333 0 35.666 6.83301 54.999 20.5s35.333 30.834 48 51.501c-24 13.333 -42.5 31.833 -55.5 55.5s-19.5 49.167 -19.5 76.5c0 32 8.66699 58.167 26 78.5s39 30.5 65 30.5c22.667 0 40.667 -8.5 54 -25.5
s20 -42.5 20 -76.5c0 -40 -9 -80 -27 -120c2.66699 -0.666992 6.33398 -1 11.001 -1c16.667 0 32.667 3.66699 48 11s29.333 18.666 42 33.999s23.667 30 33 44s18.666 32.167 27.999 54.5s16 39.833 20 52.5l18 50c-6 6 -9 14.333 -9 25c0 18 5.66699 35 17 51
s22.333 24 33 24c7.33301 0 12.5 -3.66699 15.5 -11s4.5 -14 4.5 -20c0 -4 -1.83301 -10.667 -5.5 -20s-5.5 -15.333 -5.5 -18c0 -5.33301 5.66699 -12 17 -20s23.833 -16.167 37.5 -24.5s26.167 -20.666 37.5 -36.999s17 -34.5 17 -54.5
c0 -21.333 -8.16699 -51.333 -24.5 -90s-24.5 -63.667 -24.5 -75c0 -14.667 8.33301 -22 25 -22c29.333 0 60.833 16.667 94.5 50s58.5 67 74.5 101l18 -12c-23.333 -50.667 -54.166 -94.834 -92.499 -132.501s-78.5 -56.5 -120.5 -56.5
c-24.667 0 -44.834 6.66699 -60.501 20s-23.5 31 -23.5 53c0 19.333 9 50.5 27 93.5s27 72.167 27 87.5c0 10 -2.83301 19.333 -8.5 28s-11.167 15.167 -16.5 19.5s-13.666 10.166 -24.999 17.499c-8.66699 -28 -16.5 -51.333 -23.5 -70s-17.333 -41.167 -31 -67.5
s-27.667 -47.333 -42 -63s-32.5 -29.334 -54.5 -41.001s-45.667 -17.5 -71 -17.5c-5.33301 0 -14 0.666992 -26 2c-45.333 -72 -101 -108 -167 -108c-37.333 0 -66 11.667 -86 35s-30 56 -30 98zM135.999 329.001c40 36.667 77.333 88 112 154s52 112 52 138
c-14 -4.66699 -39.667 -38.5 -77 -101.5s-66.333 -126.5 -87 -190.5zM202.999 177.001c0 -41.333 14.333 -72.332 43 -92.999c12 27.333 18 55.666 18 84.999c0 20.667 -2.66699 37.5 -8 50.5s-12.333 19.5 -21 19.5s-16.167 -6 -22.5 -18s-9.5 -26.667 -9.5 -44z" />
    <glyph glyph-name="e_e" unicode="ee" horiz-adv-x="682" 
d="M-17 76c0 38.667 12.6689 80.1699 38.002 124.503s58.666 82 99.999 113s82.333 46.5 123 46.5c47.333 0 71 -22 71 -66c0 -47.333 -26 -89 -78 -125s-110 -57.333 -174 -64c-1.33301 -8 -2 -16.333 -2 -25c0 -54 26 -81 78 -81c33.333 0 67 11.167 101 33.5
s64.333 51.5 91 87.5c12 56 42.167 107.833 90.5 155.5s98.833 71.5 151.5 71.5c48 0 72 -22.333 72 -67c0 -47.333 -23.667 -87.333 -71 -120s-103.333 -52.334 -168 -59.001c-1.33301 -9.33301 -2 -17.333 -2 -24c0 -55.333 25 -83 75 -83c41.333 0 83.5 17.333 126.5 52
s77.167 76.667 102.5 126l18 -14c-28 -60.667 -66.5 -110.334 -115.5 -149.001s-99.833 -58 -152.5 -58c-38.667 0 -69.334 10.5 -92.001 31.5s-36 47.5 -40 79.5c-61.333 -70.667 -131 -106 -209 -106c-42 0 -74.833 11.167 -98.5 33.5s-35.5 51.166 -35.5 86.499z
M74.002 137.003c45.333 16.667 87.333 39.833 126 69.5s58 60.167 58 91.5c0 11.333 -6 17 -18 17c-28 0 -59 -18.667 -93 -56s-58.333 -78 -73 -122zM417.002 137.002c45.333 16 85.167 36.167 119.5 60.5s51.5 52.166 51.5 83.499c0 14 -6.33301 21 -19 21
c-27.333 0 -56 -16.667 -86 -50s-52 -71.666 -66 -114.999z" />
    <glyph glyph-name="l_l" unicode="ll" horiz-adv-x="490" 
d="M2 81c0 59.333 21.1699 140.832 63.5029 244.499s89.166 195.334 140.499 275.001s89.333 119.5 114 119.5c11.333 0 21.166 -9 29.499 -27s12.5 -36.333 12.5 -55c0 -30 -11.5 -72.5 -34.5 -127.5s-56.167 -113.667 -99.5 -176s-88.666 -112.166 -135.999 -149.499
c-7.33301 -41.333 -11 -74.666 -11 -99.999c0 -46 14.333 -69 43 -69c21.333 0 43.666 12.667 66.999 38s44.666 57.333 63.999 96c12 65.333 37 140.5 75 225.5s77.333 157.167 118 216.5s71.667 89 93 89c12 0 22.167 -9.16699 30.5 -27.5s12.5 -37.166 12.5 -56.499
c0 -47.333 -23.333 -114 -70 -200s-104.667 -156.667 -174 -212c-7.33301 -32.667 -11 -64.334 -11 -95.001c0 -49.333 13.667 -74 41 -74c24 0 49.333 15.667 76 47s49.667 68.666 69 111.999l25 -13c-60 -128 -126.667 -192 -200 -192
c-29.333 0 -51.666 9.66699 -66.999 29s-23.333 45.666 -24 78.999c-48.667 -72 -100.334 -108 -155.001 -108c-30.667 0 -53.667 10 -69 30s-23 47 -23 81zM110.003 240.999c52 55.333 99.5 123.332 142.5 203.999s64.5 137.667 64.5 171c0 6.66699 -0.666992 10.667 -2 12
c-8.66699 0 -25.5 -19.167 -50.5 -57.5s-52.5 -88.666 -82.5 -150.999s-54 -121.833 -72 -178.5zM356.003 239.998c50.667 52.667 93.833 113.499 129.5 182.499s53.5 120.167 53.5 153.5c0 6 -0.333008 10 -1 12c-14 0 -41.333 -37.167 -82 -111.5
s-74 -153.166 -100 -236.499z" />
    <glyph glyph-name="o_r" unicode="or" horiz-adv-x="746" 
d="M-11 63c0 43.333 12.666 86.1729 37.999 128.506s53 63.5 83 63.5c6 0 16 -2.66699 30 -8c4 30.667 15 56 33 76s41.667 30 71 30c52.667 0 79 -27 79 -81c0 -52 -20.667 -108.333 -62 -169c12 -4 21.667 -6 29 -6c24 0 45.833 6.33301 65.5 19
s36.334 31.167 50.001 55.5s24.334 46.166 32.001 65.499s16.167 43.666 25.5 72.999c-6 7.33301 -9 15.666 -9 24.999c0 19.333 5.83301 36.5 17.5 51.5s21.834 22.5 30.501 22.5c14.667 0 22 -10.333 22 -31c0 -2.66699 -1.83301 -8.83398 -5.5 -18.501
s-5.5 -15.5 -5.5 -17.5c0 -6 5.66699 -13 17 -21s23.666 -16 36.999 -24s25.666 -20 36.999 -36s17 -33.667 17 -53c0 -22 -8 -51.667 -24 -89s-24 -61.333 -24 -72c0 -16 8.33301 -24 25 -24c28.667 0 60.5 16.5 95.5 49.5s59.5 65.5 73.5 97.5l20 -14
c-22.667 -48.667 -53.5 -91.334 -92.5 -128.001s-79.5 -55 -121.5 -55c-24.667 0 -44.834 6.5 -60.501 19.5s-23.5 30.167 -23.5 51.5c0 20 8.66699 50.667 26 92s26 69.666 26 84.999c0 27.333 -17.667 50.333 -53 69l-15.5 -44c-3 -8.66699 -8.66699 -23.167 -17 -43.5
s-15.5 -35.333 -21.5 -45s-14.667 -22 -26 -37s-22.5 -26.167 -33.5 -33.5s-24.333 -13.833 -40 -19.5s-32.5 -8.5 -50.5 -8.5c-17.333 0 -33.333 3 -48 9c-54 -66.667 -106.333 -100 -157 -100c-29.333 0 -51.666 8.83301 -66.999 26.5s-23 40.5 -23 68.5zM66.999 71.0068
c0 -35.333 10.667 -53 32 -53c26 0 59.667 24.333 101 73c-39.333 32 -59.666 81.333 -60.999 148c-14.667 -16.667 -30.334 -43.667 -47.001 -81s-25 -66.333 -25 -87zM193.999 223.007c0 -32 12 -63.667 36 -95c32 46.667 48 92.667 48 138c0 14.667 -2.66699 26 -8 34
s-11.333 12 -18 12c-14 0 -27.167 -8.66699 -39.5 -26s-18.5 -38.333 -18.5 -63z" />
    <glyph glyph-name="t_h" unicode="th" horiz-adv-x="791" 
d="M-7 58c0 56.667 19.6719 137.999 59.0049 243.999c-17.333 6 -29.333 10.333 -36 13v31c8 -1.33301 16.667 -3.16602 26 -5.49902s17 -3.83301 23 -4.5c29.333 74 60.166 136.333 92.499 187s59.5 76 81.5 76c7.33301 0 14 -2.66699 20 -8s9 -11.333 9 -18
c0 -11.333 -9.83301 -36 -29.5 -74s-41 -76.833 -64 -116.5s-35.167 -60.834 -36.5 -63.501c34 -6 64.667 -9 92 -9c34.667 0 77.667 5 129 15c37.333 100.667 80.666 190.667 129.999 270s89 119 119 119c12.667 0 22.834 -7.16699 30.501 -21.5s11.5 -30.833 11.5 -49.5
c0 -48 -22.333 -108.5 -67 -181.5s-96.334 -126.5 -155.001 -160.5c-12 -28.667 -22.667 -67.167 -32 -115.5s-14 -85.833 -14 -112.5c59.333 155.333 127 233 203 233c28.667 0 50.5 -9.5 65.5 -28.5s22.5 -41.833 22.5 -68.5c0 -21.333 -7 -50.5 -21 -87.5
s-21 -61.833 -21 -74.5c0 -21.333 9 -32 27 -32c22 0 49 16.333 81 49s57.333 70 76 112l19 -18c-23.333 -53.333 -52.833 -97.166 -88.5 -131.499s-73.167 -51.5 -112.5 -51.5c-24.667 0 -44 6.5 -58 19.5s-21 29.833 -21 50.5c0 13.333 4.83301 36.833 14.5 70.5
s14.5 58.167 14.5 73.5c0 28.667 -11.667 43 -35 43c-22 0 -42.833 -14.167 -62.5 -42.5s-35.334 -59.333 -47.001 -93s-25.334 -64.667 -41.001 -93s-30.834 -42.5 -45.501 -42.5c-17.333 0 -30 14.667 -38 44s-12 56 -12 80c-27.333 -40.667 -59 -72.667 -95 -96
s-73.333 -35 -112 -35c-32 0 -57 8.83301 -75 26.5s-27 43.5 -27 77.5zM71.0049 80.999c0 -28 3.83203 -47.834 11.499 -59.501s21.5 -17.5 41.5 -17.5c33.333 0 66.833 14.5 100.5 43.5s62.834 68.833 87.501 119.5c8.66699 42.667 19 81.334 31 116.001
c-40 -8 -77.667 -12 -113 -12c-34 0 -70.333 3.66699 -109 11c-33.333 -74.667 -50 -141.667 -50 -201zM448.004 363.998c41.333 36 77.166 81 107.499 135s45.5 94 45.5 120c-13.333 -4 -36.666 -31.5 -69.999 -82.5s-61 -108.5 -83 -172.5z" />
    <glyph glyph-name="v_r" unicode="vr" horiz-adv-x="776" 
d="M8 84c0 28.667 1.00195 68.0039 3.00195 118.004c0.666992 15.333 1.66699 26 3 32s4.66602 10.833 9.99902 14.5s14 5.5 26 5.5c14.667 0 24 -2.66699 28 -8s6 -16 6 -32c0 -12.667 -1 -37.5 -3 -74.5s-3 -62.167 -3 -75.5c0 -34 6.66699 -51 20 -51
c20.667 0 46 21.5 76 64.5s57.333 90.5 82 142.5c0.666992 76 17.334 114 50.001 114c14.667 0 25.834 -4.83301 33.501 -14.5s11.834 -19.5 12.501 -29.5c-18.667 -46 -28 -84 -28 -114c0 -33.333 13.667 -50 41 -50c20.667 0 40.167 11 58.5 33s32.166 44 41.499 66
s19.666 50.333 30.999 85c-5.33301 8 -8 16.667 -8 26c0 17.333 5.33301 33.833 16 49.5s22 23.5 34 23.5s18 -6.33301 18 -19c0 -5.33301 -1.66699 -14 -5 -26s-5 -19 -5 -21c0 -6 5.66699 -13.167 17 -21.5s23.666 -16.833 36.999 -25.5s25.666 -21.334 36.999 -38.001
s17 -35 17 -55c0 -21.333 -8 -50.333 -24 -87s-24 -60.334 -24 -71.001c0 -14.667 8.33301 -22 25 -22c28.667 0 59.834 16.5 93.501 49.5s58.834 66.167 75.501 99.5l18 -11c-22 -49.333 -52.333 -93 -91 -131s-79.334 -57 -122.001 -57c-24.667 0 -44.667 6.66699 -60 20
s-23 30.666 -23 51.999c0 19.333 8.83301 50 26.5 92s26.5 70.667 26.5 86c0 25.333 -16.667 46.666 -50 63.999c-7.33301 -21.333 -13.833 -39 -19.5 -53s-14 -31.333 -25 -52s-21.833 -37.167 -32.5 -49.5s-24 -23 -40 -32s-33 -13.5 -51 -13.5
c-20.667 0 -39.167 5.33301 -55.5 16s-28.166 24.667 -35.499 42c-28.667 -51.333 -60.334 -94.833 -95.001 -130.5s-67.334 -53.5 -98.001 -53.5c-43.333 0 -65 41 -65 123z" />
    <glyph glyph-name="w_r" unicode="wr" horiz-adv-x="996" 
d="M0 76c0 38.667 11.1699 85.833 33.5029 141.5s41.5 83.5 57.5 83.5c6.66699 0 15.834 -2.83301 27.501 -8.5s17.5 -12.5 17.5 -20.5c-14 -21.333 -28.333 -51.833 -43 -91.5s-22 -72.167 -22 -97.5c0 -40 10.667 -60 32 -60c34.667 0 82.667 60 144 180
c8 40.667 14 65.334 18 74.001s12 13 24 13c22.667 0 36.334 -8 41.001 -24c-18 -70.667 -27 -137.334 -27 -200.001c0 -35.333 6 -53 18 -53c17.333 0 41.5 22.333 72.5 67s58.833 93 83.5 145c0 34.667 2 60 6 76s8.83301 25.5 14.5 28.5s14.834 4.5 27.501 4.5
c13.333 0 24 -4.83301 32 -14.5s12.333 -19.834 13 -30.501c-6 -8 -12.167 -22.167 -18.5 -42.5s-9.5 -39.166 -9.5 -56.499c0 -36 14.333 -54 43 -54c12.667 0 24.667 4 36 12s21 17 29 27s16.5 24.167 25.5 42.5s15.833 33.333 20.5 45s10.667 27.5 18 47.5
c-6 8.66699 -9 18 -9 28c0 17.333 5.66699 33.5 17 48.5s22.666 22.5 33.999 22.5c12.667 0 19 -10 19 -30c0 -4 -2 -10.333 -6 -19s-6 -14.667 -6 -18c0 -6 5.66699 -13 17 -21s23.833 -16 37.5 -24s26.167 -20 37.5 -36s17 -34 17 -54c0 -20.667 -8 -49.667 -24 -87
s-24 -62 -24 -74c0 -15.333 8 -23 24 -23c29.333 0 61.666 16.667 96.999 50s59.333 66 72 98l22 -14c-20.667 -48 -51.334 -90.667 -92.001 -128s-82 -56 -124 -56c-24.667 0 -44.667 6.5 -60 19.5s-23 30.5 -23 52.5c0 18.667 8.66699 48.834 26 90.501s26 70.5 26 86.5
c0 28 -16.333 49.667 -49 65c-9.33301 -25.333 -18.333 -47 -27 -65s-19.834 -37.833 -33.501 -59.5s-29.334 -38.334 -47.001 -50.001s-36.834 -17.5 -57.501 -17.5c-40 0 -69 19.333 -87 58c-74 -128 -139 -192 -195 -192c-41.333 0 -62 37.333 -62 112
c0 6.66699 0.166992 13 0.5 19s0.833008 12.167 1.5 18.5s1 11.833 1 16.5c-26.667 -48.667 -52 -87 -76 -115s-50 -42 -78 -42c-23.333 0 -43 10.333 -59 31s-24 45.667 -24 75z" />
    <glyph glyph-name=".notdef" horiz-adv-x="278" 
 />
    <glyph glyph-name="space" unicode=" " horiz-adv-x="259" 
 />
    <glyph glyph-name="exclam" unicode="!" horiz-adv-x="295" 
d="M0 24c0 12 6.83301 22.833 20.5 32.5s28.5 14.5 44.5 14.5c22.667 0 34 -10.333 34 -31c0 -12 -6.16699 -23.333 -18.5 -34s-25.833 -16 -40.5 -16c-26.667 0 -40 11.333 -40 34zM61 108c0 32.667 17.999 95.6689 53.999 189.002l39 99l38 94c16 39.333 29.667 70 41 92
s23.833 45 37.5 69s26.334 41.5 38.001 52.5s22.5 16.5 32.5 16.5c7.33301 0 13.833 -3 19.5 -9s8.5 -13 8.5 -21c0 -26.667 -39.333 -116.834 -118 -270.501s-138 -258.834 -178 -315.501z" />
    <glyph glyph-name="quotedbl" unicode="&#x22;" horiz-adv-x="270" 
d="M151 620c0 21.333 6.66699 43.665 20 66.998s27.666 35 42.999 35c8.66699 0 16 -3.5 22 -10.5s9 -16.5 9 -28.5c-14 -13.333 -25.167 -27.166 -33.5 -41.499s-19.166 -36.166 -32.499 -65.499c-18.667 9.33301 -28 24 -28 44zM266 616.999c0 22 6.33105 45 18.998 69
s27 36 43 36c9.33301 0 16.833 -3.5 22.5 -10.5s8.5 -16.5 8.5 -28.5c-5.33301 -4.66699 -10.166 -9.66699 -14.499 -15l-11 -14c-3 -4 -6.5 -10 -10.5 -18l-9 -17l-11 -21c-5.33301 -10 -8.66602 -17.333 -9.99902 -22c-18 9.33301 -27 23 -27 41z" />
    <glyph glyph-name="numbersign" unicode="#" horiz-adv-x="720" 
d="M19 150c2.66699 52 77.9971 79.6689 225.997 83.002l4 23c2 12 3.66699 20.333 5 25c-10.667 0 -55 -3 -133 -9l-66 -5c3.33301 51.333 75 78.666 215 81.999c8.66699 42 19.834 99.833 33.501 173.5s23.167 122.834 28.5 147.501c2 8.66699 4 15.667 6 21
s7.66699 11 17 17s22 10.667 38 14c-2.66699 -12 -7 -35.333 -13 -70l-26 -142l-29 -159c50 -1.33301 90.667 -2.66602 122 -3.99902c11.333 54 24.333 120.333 39 199s22.334 120 23.001 124c1.33301 8.66699 3.33301 15.667 6 21s8.66699 11 18 17s22 10.667 38 14
c-3.33301 -12.667 -8.33301 -37 -15 -73l-25 -144l-30 -161c15.333 -0.666992 38.666 -1.83398 69.999 -3.50098l86 -4.5c26 -1.33301 48.667 -2 68 -2c-16.667 -14 -33.334 -24.667 -50.001 -32s-29.667 -11.5 -39 -12.5s-21.333 -1.5 -36 -1.5
c-15.333 0 -35 -0.166992 -59 -0.5s-40.667 -0.5 -50 -0.5c-0.666992 -4.66699 -2.66699 -14.334 -6 -29.001s-5.33301 -25.334 -6 -32.001c120 -6 189.333 -9 208 -9c-16.667 -14 -33.167 -24.667 -49.5 -32s-29 -11.5 -38 -12.5s-20.833 -1.5 -35.5 -1.5
c-43.333 0 -75.333 -0.333008 -96 -1c-23.333 -122 -46.666 -207.833 -69.999 -257.5s-58.666 -74.5 -105.999 -74.5c38 45.333 76.667 155 116 329h-119c-10.667 -51.333 -19.167 -91 -25.5 -119s-14.666 -57.667 -24.999 -89s-20.666 -54.333 -30.999 -69
s-23.333 -27 -39 -37s-33.834 -15 -54.501 -15c37.333 44.667 76 153.667 116 327c-4.66699 0 -53 -3.33301 -145 -10zM301.997 233.002c41.333 0 81.333 -1 120 -3l12 56c-56 0 -96.667 -0.666992 -122 -2z" />
    <glyph glyph-name="dollar" unicode="$" horiz-adv-x="565" 
d="M13 98c0 43.333 15.8359 76.832 47.5029 100.499s67.167 35.5 106.5 35.5c-43.333 -44 -65 -90 -65 -138c0 -30 10.333 -54.167 31 -72.5s49.667 -29.833 87 -34.5c19.333 68.667 41.333 159 66 271c-23.333 12.667 -41.333 23 -54 31s-27.334 19.167 -44.001 33.5
s-28.834 30.166 -36.501 47.499s-11.5 37 -11.5 59c0 54.667 21.5 102.834 64.5 144.501s96.167 67.5 159.5 77.5c0 15.333 6.16699 29.666 18.5 42.999s28.166 21.333 47.499 24c-8 -36 -12.667 -57.333 -14 -64c80 -2 120 -38.333 120 -109c0 -54.667 -17 -110 -51 -166
c-14.667 2.66699 -26.167 8.66699 -34.5 18s-12.5 19.666 -12.5 30.999c0 10.667 6 33.834 18 69.501s18 60.5 18 74.5c0 28.667 -21.667 43.334 -65 44.001l-54 -295c23.333 -12 42 -22.167 56 -30.5s29.333 -19.666 46 -33.999s29 -30.833 37 -49.5s12 -39.667 12 -63
c0 -58 -22.5 -104.833 -67.5 -140.5s-100.833 -56.5 -167.5 -62.5c-26.667 -70 -67 -105 -121 -105c20.667 26.667 38.667 61.667 54 105c-54.667 4.66699 -100.167 20.167 -136.5 46.5s-54.5 62.5 -54.5 108.5zM218.003 454.999c0 -40.667 29.332 -76 87.999 -106
c28 145.333 44.667 233 50 263c-41.333 -10 -74.666 -30.333 -99.999 -61s-38 -62.667 -38 -96zM286.002 -10.001c42 5.33301 75 19.334 99 42.001s36 50.667 36 84c0 25.333 -7.16699 47 -21.5 65s-34.833 35 -61.5 51c-24 -126.667 -41.333 -207.334 -52 -242.001z" />
    <glyph glyph-name="percent" unicode="%" horiz-adv-x="740" 
d="M88 -87c48.667 47.333 126.167 162.001 232.5 344.001s177.5 320 213.5 414c4 10.667 16 21.5 36 32.5s38.667 16.5 56 16.5c-8 -32.667 -53.167 -127.334 -135.5 -284.001s-145.833 -269.667 -190.5 -339c-39.333 -60.667 -75.5 -106.5 -108.5 -137.5
s-67.5 -46.5 -103.5 -46.5zM109 453.001c0 50 14.5 98.668 43.5 146.001s65.5 71 109.5 71c28.667 0 52 -10 70 -30s27 -46.333 27 -79c0 -48.667 -15 -97.834 -45 -147.501s-67 -74.5 -111 -74.5c-30 0 -53.167 11 -69.5 33s-24.5 49 -24.5 81zM180 451.002
c0 -40 9.66797 -60 29.001 -60c22 0 41.333 19.5 58 58.5s25 77.833 25 116.5c0 36 -9.33301 54 -28 54c-24.667 0 -44.834 -19.167 -60.501 -57.5s-23.5 -75.5 -23.5 -111.5zM454.001 112.002c0 50.667 14.3311 99.499 42.998 146.499s65.334 70.5 110.001 70.5
c28.667 0 51.834 -10 69.501 -30s26.5 -46.333 26.5 -79c0 -30 -6 -61.667 -18 -95s-30.333 -62.666 -55 -87.999s-52 -38 -82 -38c-30.667 0 -54 10.833 -70 32.5s-24 48.5 -24 80.5zM523.999 108.001c0 -38 9.66602 -57.001 28.999 -57.001c22 0 41.5 19.333 58.5 58
s25.5 77.334 25.5 116.001c0 36.667 -9.66699 55 -29 55c-25.333 0 -45.666 -19.5 -60.999 -58.5s-23 -76.833 -23 -113.5z" />
    <glyph glyph-name="ampersand" unicode="&#x26;" horiz-adv-x="675" 
d="M17 99c0 61.333 24.332 117.499 72.999 168.499s109.334 81.5 182.001 91.5c-48 42.667 -72 92.667 -72 150c0 56 20.5 105 61.5 147s93.167 63 156.5 63c40 0 70.5 -9.5 91.5 -28.5s31.5 -46.5 31.5 -82.5c0 -38 -9 -73.833 -27 -107.5s-36.667 -50.5 -56 -50.5
c-16.667 0 -32.667 13.667 -48 41c57.333 46.667 86 90.334 86 131.001c0 19.333 -5.66699 34.666 -17 45.999s-28 17 -50 17c-43.333 0 -77.333 -17.833 -102 -53.5s-37 -79.167 -37 -130.5c0 -70 24.333 -124 73 -162c-69.333 -10.667 -126 -40.167 -170 -88.5
s-66 -98.833 -66 -151.5c0 -36 10.833 -68 32.5 -96s54.167 -42 97.5 -42c70 0 133.667 30.333 191 91s91 129.334 101 206.001c-22 -1.33301 -67.333 -8 -136 -20c0.666992 56.667 38.334 85 113.001 85c21.333 0 49.666 -2.83301 84.999 -8.5s64 -8.5 86 -8.5
c-9.33301 -20 -18 -32.667 -26 -38s-17 -8 -27 -8c-8.66699 0 -18.834 -0.166992 -30.501 -0.5s-20.167 -0.5 -25.5 -0.5c-9.33301 -92 -49.166 -172.667 -119.499 -242s-149.5 -104 -237.5 -104c-63.333 0 -114.833 18 -154.5 54s-59.5 80 -59.5 132z" />
    <glyph glyph-name="quotesingle" unicode="'" horiz-adv-x="156" 
d="M151 620c0 21.333 6.66797 43.667 20.001 67s27.666 35 42.999 35c8 0 15.333 -3.33301 22 -10s10 -14.334 10 -23.001l-1 -6c-20 -19.333 -38.667 -47.666 -56 -84.999l-10 -22c-18.667 9.33301 -28 24 -28 44z" />
    <glyph glyph-name="parenleft" unicode="(" horiz-adv-x="295" 
d="M77 192c0 74.667 11.667 146.334 35 215.001s51.833 125 85.5 169s68.167 79 103.5 105s66 39 92 39c-80.667 -62.667 -141.167 -142.5 -181.5 -239.5s-60.5 -196.833 -60.5 -299.5c0 -104.667 18.333 -184.334 55 -239.001c-6.66699 -13.333 -16 -23 -28 -29
c-28 15.333 -51.833 49.5 -71.5 102.5s-29.5 111.833 -29.5 176.5z" />
    <glyph glyph-name="parenright" unicode=")" horiz-adv-x="315" 
d="M-34 -53c77.333 51.333 140.331 120.668 188.998 208.001s73 187 73 299c0 50 -6.16699 96.5 -18.5 139.5s-35.833 86.833 -70.5 131.5c38 -10 73.5 -41.667 106.5 -95s49.5 -119 49.5 -197c0 -56.667 -7.66699 -112.834 -23 -168.501s-34.666 -104 -57.999 -145
s-48.5 -77.5 -75.5 -109.5s-52.667 -56.167 -77 -72.5s-44.833 -24.5 -61.5 -24.5c-9.33301 0 -20.666 11.333 -33.999 34z" />
    <glyph glyph-name="asterisk" unicode="*" horiz-adv-x="416" 
d="M127 589c59.333 2 97.6709 3.66309 115.004 4.99609c-30 44.667 -45 78.667 -45 102c0 8.66699 3.5 16.667 10.5 24s10.5 11.666 10.5 12.999l26.5 -48c10.333 -19.333 18.5 -34.166 24.5 -44.499s12.333 -20.166 19 -29.499c22.667 69.333 58 109.333 106 120
c-6.66699 -19.333 -18.334 -45.333 -35.001 -78s-26.334 -52 -29.001 -58c63.333 0 111.666 -13.333 144.999 -40l-135 -11c11.333 -15.333 19.5 -27.166 24.5 -35.499s10.333 -21.833 16 -40.5s8.83398 -40 9.50098 -64c-26 28 -59 70.333 -99 127
c-20.667 -37.333 -39.834 -65.666 -57.501 -84.999s-38.5 -29.666 -62.5 -30.999c9.33301 13.333 18 26.833 26 40.5s16.833 30 26.5 49l19.5 38.5c-32.667 0 -58.834 3 -78.501 9s-32.167 18.333 -37.5 37z" />
    <glyph glyph-name="plus" unicode="+" horiz-adv-x="441" 
d="M13 136c13.333 40 67.999 61.001 163.999 63.001v41c0 38 13 76.667 39 116c8 -64 12.667 -116.333 14 -157c46.667 -0.666992 106 -4 178 -10c-38.667 -27.333 -80.667 -41 -126 -41h-51c-0.666992 -47.333 -5.16699 -84.333 -13.5 -111s-23.833 -41.334 -46.5 -44.001
c5.33301 43.333 8 95 8 155c-55.333 0 -110.666 -4 -165.999 -12z" />
    <glyph glyph-name="comma" unicode="," horiz-adv-x="216" 
d="M5 -44c0 21.333 6.66895 43.833 20.002 67.5s27.666 35.5 42.999 35.5c8.66699 0 16.167 -3.33301 22.5 -10s9.5 -14.334 9.5 -23.001c-5.33301 -6 -10.333 -12.167 -15 -18.5s-8.33398 -11.5 -11.001 -15.5s-6.5 -10.333 -11.5 -19s-8 -14.167 -9 -16.5
s-4.5 -9.83301 -10.5 -22.5s-9.66699 -20 -11 -22c-18 10.667 -27 25.334 -27 44.001z" />
    <glyph glyph-name="hyphen" unicode="-" horiz-adv-x="507" 
d="M55 142c4 14 13.002 25.499 27.002 34.499s30.333 15.333 49 19s34.167 6.16699 46.5 7.5s24.5 2 36.5 2c60 0 132 -2.33301 216 -7c-6.66699 -15.333 -21.834 -28.166 -45.501 -38.499s-49.167 -15.5 -76.5 -15.5c-7.33301 0 -25.333 1 -54 3s-52.334 3 -71.001 3
c-45.333 0 -88 -2.66699 -128 -8z" />
    <glyph glyph-name="period" unicode="." horiz-adv-x="242" 
d="M28 28c0 11.333 7.16797 23.001 21.501 35.001s28.166 18 41.499 18c22 0 33 -10.333 33 -31c0 -10.667 -4.83301 -23.334 -14.5 -38.001s-22.167 -22 -37.5 -22c-14.667 0 -25.667 3.83301 -33 11.5s-11 16.5 -11 26.5z" />
    <glyph glyph-name="slash" unicode="/" horiz-adv-x="355" 
d="M-63 -162c72.667 70 203.333 347.668 392 833.001c4 11.333 16.667 22.166 38 32.499s44 15.5 68 15.5c-16.667 -44 -115 -275.667 -295 -695c-24.667 -58 -55.667 -103.5 -93 -136.5s-74 -49.5 -110 -49.5z" />
    <glyph glyph-name="zero" unicode="0" horiz-adv-x="660" 
d="M63 185c0 55.333 8.83301 113.833 26.5 175.5s41.834 119.334 72.501 173.001s70.167 98.167 118.5 133.5s100.166 53 155.499 53c66 0 118.667 -24.333 158 -73s59 -117 59 -205c0 -60.667 -9.66699 -122.334 -29 -185.001s-45.5 -119.5 -78.5 -170.5
s-73.5 -92.667 -121.5 -125s-98.333 -48.5 -151 -48.5c-68 0 -120 25.5 -156 76.5s-54 116.167 -54 195.5zM163 168c0 -63.333 11 -113.669 33 -151.002s52.333 -56 91 -56c48 0 93.667 28.833 137 86.5s77.166 126.334 101.499 206.001s36.5 155.5 36.5 227.5
c0 60.667 -10.167 108.834 -30.5 144.501s-52.166 53.5 -95.499 53.5c-42 0 -81.167 -18 -117.5 -54s-65.333 -81 -87 -135s-38.5 -109.333 -50.5 -166s-18 -108.667 -18 -156z" />
    <glyph glyph-name="one" unicode="1" horiz-adv-x="392" 
d="M-34 -31c6 0 14.3301 -0.501953 24.9971 -1.50195s19.667 -1.5 27 -1.5c22.667 0 57.334 3.33301 104.001 10c17.333 39.333 34.333 96.333 51 171s32.834 156.167 48.501 244.5s26.5 145.833 32.5 172.5c-57.333 -38 -94.666 -57 -111.999 -57
c-19.333 0 -29 13.667 -29 41c22 10.667 55.667 32.834 101 66.501s87 68.5 125 104.5c8.66699 -8 13 -21 13 -39c0 -11.333 -3.16699 -28.833 -9.5 -52.5s-10.5 -42.167 -12.5 -55.5c-12.667 -81.333 -23.334 -146.5 -32.001 -195.5s-23.167 -112.167 -43.5 -189.5
s-42.833 -144.666 -67.5 -201.999c16 1.33301 27.667 2 35 2c60.667 0 96.334 -23.667 107.001 -71c-32.667 4 -63.334 6 -92.001 6c-21.333 0 -52 -1.5 -92 -4.5s-64.333 -4.5 -73 -4.5c-41.333 0 -76.666 18.667 -105.999 56z" />
    <glyph glyph-name="two" unicode="2" horiz-adv-x="599" 
d="M-6 7c0 35.333 28.001 53.001 84.001 53.001c27.333 0 63.666 -4.33301 108.999 -13c66 57.333 126.667 134.5 182 231.5s83 184.5 83 262.5c0 45.333 -9.83301 79.666 -29.5 102.999s-45.834 35 -78.501 35c-42.667 0 -75.667 -18 -99 -54s-35 -77.333 -35 -124
c0 -28.667 6.33301 -57.667 19 -87l-19 2c-51.333 5.33301 -77 37.333 -77 96c0 55.333 21.167 103.833 63.5 145.5s95.166 62.5 158.499 62.5c58 0 102.833 -18.333 134.5 -55s47.5 -84 47.5 -142c0 -78.667 -28 -164.5 -84 -257.5s-122.333 -170.5 -199 -232.5
c99.333 -22 168 -33 206 -33c16 0 29.833 2.16699 41.5 6.5s28.834 12.5 51.501 24.5c-10.667 -41.333 -25.167 -71.333 -43.5 -90s-42.166 -28 -71.499 -28c-15.333 0 -34.5 2.83301 -57.5 8.5s-42 11.167 -57 16.5l-70.5 26l-61 23c-46 -27.333 -85.667 -41 -119 -41
c-23.333 0 -42.333 5.66699 -57 17s-22 26 -22 44zM39.001 4.00098c1.33301 -11.333 12 -17 32 -17c16 0 36.333 7 61 21c-25.333 8 -46.333 12 -63 12c-20 0 -30 -5.33301 -30 -16z" />
    <glyph glyph-name="three" unicode="3" horiz-adv-x="542" 
d="M19 62c0 28.667 7.83203 54.3311 23.499 76.998s37.5 34 65.5 34c9.33301 0 21 -1.33301 35 -4c-12 -10 -22 -24.167 -30 -42.5s-12 -36.5 -12 -54.5c0 -29.333 10.333 -55.5 31 -78.5s46.334 -34.5 77.001 -34.5c40.667 0 77.167 19.667 109.5 59s48.5 88 48.5 146
c0 42.667 -10.5 81 -31.5 115s-55.5 57.333 -103.5 70c53.333 22.667 96.666 57.834 129.999 105.501s50 93.167 50 136.5c0 30 -8.66699 52.167 -26 66.5s-38.666 21.5 -63.999 21.5c-29.333 0 -55.166 -8.66699 -77.499 -26s-33.5 -40.333 -33.5 -69
c0 -21.333 6.66699 -44.333 20 -69c-4 -8.66699 -10.833 -16.667 -20.5 -24s-19.167 -11 -28.5 -11c-14 0 -25.333 9.16699 -34 27.5s-13 38.5 -13 60.5c0 45.333 20 82 60 110s86.333 42 139 42c46 0 85.833 -12.667 119.5 -38s50.5 -59.666 50.5 -102.999
c0 -42 -15.167 -84.5 -45.5 -127.5s-68.5 -73.167 -114.5 -90.5c48.667 -16.667 84.5 -43 107.5 -79s34.5 -73.667 34.5 -113c0 -65.333 -27.333 -124.333 -82 -177s-122.334 -79 -203.001 -79c-60.667 0 -106.167 15.167 -136.5 45.5s-45.5 64.833 -45.5 103.5z" />
    <glyph glyph-name="four" unicode="4" horiz-adv-x="508" 
d="M3 216c0 10.667 2.66797 21.165 8.00098 31.498s10.666 18.5 15.999 24.5s14 14.333 26 25c194 180.667 327.333 321.667 400 423c16.667 -8 25 -19.667 25 -35c0 -16 -6.66699 -34.333 -20 -55c-15.333 -62.667 -37.333 -174 -66 -334
c50.667 0 89.334 3.66699 116.001 11c-38.667 -52 -81.334 -78 -128.001 -78c-26 -147.333 -39 -252.666 -39 -315.999c-30 2 -53.167 7.83301 -69.5 17.5s-24.5 21.834 -24.5 36.501c0 10.667 14.667 98.334 44 263.001c-24 2.66699 -47.333 4 -70 4
c-24 0 -64.333 -1.83301 -121 -5.5s-89 -7.83398 -97 -12.501zM119.001 297.998c26 2 55.999 3 89.999 3c24.667 0 57 -0.666992 97 -2c20.667 98 38.334 171.333 53.001 220l-114 -103c-59.333 -54 -101.333 -93.333 -126 -118z" />
    <glyph glyph-name="five" unicode="5" horiz-adv-x="513" 
d="M9 61c0 29.333 7.66797 55.333 23.001 78s37 34 65 34c10 0 22 -1.33301 36 -4c-28 -22.667 -42 -56 -42 -100c0 -30 8.66699 -55.833 26 -77.5s43 -32.5 77 -32.5c49.333 0 89.166 21.833 119.499 65.5s45.5 92.5 45.5 146.5c0 44 -11.333 80.333 -34 109
s-56.667 43 -102 43c-24.667 0 -59.667 -4.33301 -105 -13c4.66699 32.667 14 76 28 130s29.667 111 47 171l30 104c38 -9.33301 76.333 -14 115 -14c40.667 0 96 6.66699 166 20c4.66699 -18.667 7 -31.334 7 -38.001c0 -26.667 -13.333 -46.167 -40 -58.5
s-58 -18.5 -94 -18.5c-18.667 0 -40.5 2 -65.5 6s-41.167 6 -48.5 6c-10 0 -21 -17.5 -33 -52.5s-23.667 -76.667 -35 -125s-18.333 -76.166 -21 -83.499c28.667 5.33301 56 8 82 8c70 0 123.5 -17.833 160.5 -53.5s55.5 -83.167 55.5 -142.5
c0 -72 -25.833 -132.667 -77.5 -182s-118.167 -74 -199.5 -74c-64 0 -111 14.833 -141 44.5s-45 64.167 -45 103.5z" />
    <glyph glyph-name="six" unicode="6" horiz-adv-x="592" 
d="M58 168c0 56 9.33105 115.504 27.998 178.504s44.167 122.667 76.5 179s74.333 102.833 126 139.5s106.834 55 165.501 55c32 0 57.833 -5.33301 77.5 -16s29.5 -26.667 29.5 -48c0 -26.667 -20 -45.334 -60 -56.001c1.33301 13.333 2 24.333 2 33
c0 16 -3.66699 28.333 -11 37s-21 13 -41 13c-39.333 0 -77.166 -18.333 -113.499 -55s-66.666 -80.834 -90.999 -132.501s-43.833 -107.834 -58.5 -168.501c47.333 36 102.666 54 165.999 54c57.333 0 105 -16.833 143 -50.5s57 -83.5 57 -149.5
c0 -76.667 -25.167 -140.5 -75.5 -191.5s-115.833 -76.5 -196.5 -76.5c-76 0 -132.333 23.167 -169 69.5s-55 108.166 -55 185.499zM163.998 145.004c0 -20.667 1.83496 -40.667 5.50195 -60s9.66699 -39 18 -59s21.166 -36.167 38.499 -48.5s37.666 -18.5 60.999 -18.5
c48 0 87.167 23 117.5 69s45.5 98.333 45.5 157c0 49.333 -12.167 86.333 -36.5 111s-56.833 37 -97.5 37c-52 0 -90.333 -17.833 -115 -53.5s-37 -80.5 -37 -134.5z" />
    <glyph glyph-name="seven" unicode="7" horiz-adv-x="439" 
d="M68 282c0 16 4.83301 29.498 14.5 40.498s23.5 19.167 41.5 24.5s36.5 9 55.5 11s41.5 3 67.5 3c11.333 17.333 34.333 55.333 69 114l89 147c-16 0 -41.333 -1 -76 -3s-59.667 -3 -75 -3c-79.333 0 -119 18 -119 54c0 14 5.66699 30.333 17 49
c75.333 -13.333 140 -20 194 -20c75.333 0 140 8.66699 194 26c-88 -113.333 -163 -236 -225 -368c23.333 -2.66699 49.333 -4 78 -4c26 0 47.667 2.33301 65 7c-34 -45.333 -66.667 -68 -98 -68h-75c-57.333 -130.667 -86 -220 -86 -268c0 -20.667 5.33301 -34.667 16 -42
c-11.333 -23.333 -25.833 -40.666 -43.5 -51.999s-33.167 -17 -46.5 -17c-11.333 0 -21.333 4.5 -30 13.5s-13 21.833 -13 38.5c0 47.333 42.667 156.333 128 327c-48 -1.33301 -95.333 -4.66602 -142 -9.99902z" />
    <glyph glyph-name="eight" unicode="8" horiz-adv-x="561" 
d="M43 84c0 18.667 3.33203 36.833 9.99902 54.5s14.5 33 23.5 46s22.167 27.333 39.5 43s31.833 28 43.5 37s28.667 21.333 51 37s38.5 27.5 48.5 35.5c-24.667 24.667 -44 45.667 -58 63s-27.333 39.833 -40 67.5s-19 55.834 -19 84.501c0 55.333 19.333 97 58 125
s84.667 42 138 42c50 0 90.333 -12.833 121 -38.5s46 -62.834 46 -111.501c0 -44 -12.167 -83.333 -36.5 -118s-59.166 -69 -104.499 -103c30 -30 52.667 -53.5 68 -70.5s30 -39.5 44 -67.5s21 -56.333 21 -85c0 -62 -26 -112.833 -78 -152.5s-113 -59.5 -183 -59.5
c-66 0 -114.667 17.5 -146 52.5s-47 74.5 -47 118.5zM119.999 84.999c0 -36 12.5 -64.833 37.5 -86.5s54.167 -32.5 87.5 -32.5c38.667 0 73.834 14.667 105.501 44s47.5 66 47.5 110c0 32 -8.5 61.333 -25.5 88s-42.167 57 -75.5 91c-28.667 -20 -50.834 -36 -66.501 -48
s-33.5 -27.5 -53.5 -46.5s-34.5 -38.333 -43.5 -58s-13.5 -40.167 -13.5 -61.5zM235.999 563.999c0 -54 30.333 -113 91 -177c70 58.667 105 119 105 181c0 34.667 -8.66699 61.667 -26 81s-39.333 29 -66 29c-26 0 -49.833 -9.5 -71.5 -28.5s-32.5 -47.5 -32.5 -85.5z" />
    <glyph glyph-name="nine" unicode="9" horiz-adv-x="598" 
d="M96 460c0 76.667 23.833 139.167 71.5 187.5s110.834 72.5 189.501 72.5c80 0 138.833 -26 176.5 -78s56.5 -119 56.5 -201c0 -45.333 -5.33301 -92.333 -16 -141s-26.834 -96 -48.501 -142s-47.167 -87.167 -76.5 -123.5s-64.333 -65.666 -105 -87.999
s-83.667 -33.5 -129 -33.5c-32.667 0 -59.167 5.66699 -79.5 17s-30.5 27.666 -30.5 48.999c0 26.667 19.333 45.667 58 57c0 -57.333 18 -86 54 -86c39.333 0 76.333 18.167 111 54.5s63 80.5 85 132.5s39.333 108.333 52 169c-46 -35.333 -100.667 -53 -164 -53
c-59.333 0 -108.333 18 -147 54s-58 87 -58 153zM199 457c0 -51.333 12.667 -90.167 38 -116.5s60 -39.5 104 -39.5c47.333 0 82.833 15 106.5 45s35.5 71.667 35.5 125c0 22.667 -2.16699 44.834 -6.5 66.501s-11 43.167 -20 64.5s-22.5 38.666 -40.5 51.999s-39 20 -63 20
c-46 0 -83.167 -21.833 -111.5 -65.5s-42.5 -94.167 -42.5 -151.5z" />
    <glyph glyph-name="colon" unicode=":" horiz-adv-x="251" 
d="M32 23c0 12 6.83301 22.832 20.5 32.499s28.5 14.5 44.5 14.5c22 0 33 -10.333 33 -31c0 -11.333 -6 -22.333 -18 -33s-25.333 -16 -40 -16c-10.667 0 -20 2.83301 -28 8.5s-12 13.834 -12 24.501zM88 260.999c0 12 7 22.832 21 32.499s28.667 14.5 44 14.5
c22 0 33 -10.333 33 -31c0 -11.333 -6 -22.333 -18 -33s-25.333 -16 -40 -16c-10.667 0 -20 2.83301 -28 8.5s-12 13.834 -12 24.501z" />
    <glyph glyph-name="semicolon" unicode=";" horiz-adv-x="250" 
d="M23 -43c0 22.667 7 46.666 21 71.999s29.333 38 46 38c8.66699 0 16.5 -3.5 23.5 -10.5s10.833 -14.833 11.5 -23.5c-26 -29.333 -50.667 -69.666 -74 -120.999c-18.667 10 -28 25 -28 45zM88 262.999c0 12 6.66699 22.833 20 32.5s28 14.5 44 14.5
c23.333 0 35 -10.333 35 -31c0 -11.333 -6.16699 -22.5 -18.5 -33.5s-25.833 -16.5 -40.5 -16.5c-26.667 0 -40 11.333 -40 34z" />
    <glyph glyph-name="less" unicode="&#x3c;" horiz-adv-x="328" 
d="M30 165c35.333 12.667 70.668 33.667 106.001 63s65 61 89 95c3.33301 -2.66699 6.5 -8 9.5 -16s4.5 -14.667 4.5 -20c0 -39.333 -53 -86 -159 -140c38.667 -26 93.334 -51.667 164.001 -77c-16 -17.333 -30 -26 -42 -26c-24.667 0 -57.834 14.833 -99.501 44.5
s-65.834 55.167 -72.501 76.5z" />
    <glyph glyph-name="equal" unicode="=" horiz-adv-x="517" 
d="M62 206c12 32.667 74.333 49 187 49c57.333 0 119 -3.66699 185 -11c-39.333 -26.667 -80 -40 -122 -40h-97c-54 0 -102.333 -3.33301 -145 -10zM64 118c13.333 32.667 75.668 49 187.001 49c57.333 0 119 -3.66699 185 -11c-38.667 -26.667 -79.334 -40 -122.001 -40
h-96c-54 0 -102.333 -3.33301 -145 -10z" />
    <glyph glyph-name="greater" unicode="&#x3e;" horiz-adv-x="337" 
d="M66 287c0 10.667 3.66699 21.666 11 32.999c22.667 -28.667 53.667 -58.167 93 -88.5s76.666 -52.166 111.999 -65.499c-5.33301 -21.333 -28.166 -47 -68.499 -77s-72.833 -45 -97.5 -45c-13.333 0 -28 8.66699 -44 26c67.333 24 120.666 49.667 159.999 77
c-109.333 54 -164.666 100.667 -165.999 140z" />
    <glyph glyph-name="question" unicode="?" horiz-adv-x="462" 
d="M118 497c0 59.333 20.5 111.33 61.5 155.997s94.167 67 159.5 67c46 0 82.5 -12 109.5 -36s40.5 -58 40.5 -102c0 -27.333 -5.33301 -53.166 -16 -77.499s-24.334 -46.166 -41.001 -65.499l-51 -57c-17.333 -19.333 -34.5 -41.5 -51.5 -66.5s-29.5 -51.167 -37.5 -78.5
c-4 -14 -8 -33.333 -12 -58s-9 -44.667 -15 -60c-17.333 8.66699 -28.666 16.5 -33.999 23.5s-8 17.833 -8 32.5c0 28.667 6.5 56.667 19.5 84s28.833 52.333 47.5 75l56 69c18.667 22.667 34.5 48.334 47.5 77.001s19.5 58.334 19.5 89.001
c0 35.333 -7.16699 62.666 -21.5 81.999s-32.833 29 -55.5 29c-36 0 -69.5 -20 -100.5 -60s-46.5 -86.333 -46.5 -139c0 -21.333 3.66699 -44 11 -68c-30.667 4.66699 -52 14 -64 28s-18 32.667 -18 56zM182 22.9971c0 12.667 6.99902 23.832 20.999 33.499
s28.667 14.5 44 14.5c23.333 0 35 -9.66699 35 -29c0 -13.333 -6.16699 -25.333 -18.5 -36s-26.166 -16 -41.499 -16c-11.333 0 -20.833 2.83301 -28.5 8.5s-11.5 13.834 -11.5 24.501z" />
    <glyph glyph-name="at" unicode="@" horiz-adv-x="613" 
d="M13 92c0 78.667 30.8311 148.834 92.498 210.501s140.834 92.5 237.501 92.5c73.333 0 129.833 -18.167 169.5 -54.5s59.5 -79.833 59.5 -130.5s-18 -97.5 -54 -140.5s-78.333 -64.5 -127 -64.5c-50 0 -75 24.667 -75 74c-49.333 -58 -92 -87 -128 -87
c-18.667 0 -34.5 6.33301 -47.5 19s-19.5 30.334 -19.5 53.001c0 31.333 11.167 66.166 33.5 104.499s51.833 71.5 88.5 99.5s72.667 42 108 42c24 0 43.667 -6.16699 59 -18.5s23 -28.5 23 -48.5c0 -22.667 -13.333 -35.667 -40 -39c16.667 -6 25 -14 25 -24
c0 -6.66699 -7.66699 -23.334 -23 -50.001s-23 -46.334 -23 -59.001c0 -16.667 10 -25 30 -25c30.667 0 59 16.5 85 49.5s39 68.833 39 107.5c0 40 -15.333 75 -46 105s-76 45 -136 45c-81.333 0 -148.5 -27.167 -201.5 -81.5s-79.5 -115.166 -79.5 -182.499
c0 -48 15.333 -89 46 -123s78.334 -51 143.001 -51c80.667 0 153.334 29.333 218.001 88l14 -18c-64.667 -70.667 -145.334 -106 -242.001 -106c-74.667 0 -131.5 20.5 -170.5 61.5s-58.5 91.5 -58.5 151.5zM186.998 61c0 -17.333 5 -26.001 15 -26.001
c20 0 55.167 26.333 105.5 79s75.5 92.334 75.5 119.001c0 9.33301 -0.333008 16.833 -1 22.5s-3.5 11 -8.5 16s-12.167 7.5 -21.5 7.5c-36 0 -72.5 -26.833 -109.5 -80.5s-55.5 -99.5 -55.5 -137.5z" />
    <glyph glyph-name="A" unicode="A" 
d="M0 -25c0 49.333 48.998 149.334 146.998 300.001c-40 2.66699 -89 4 -147 4c16 43.333 54.667 65 116 65c13.333 0 38 -2 74 -6c74.667 108 144.334 199 209.001 273s107.667 111 129 111c17.333 0 40 -13 68 -39c-22 -16.667 -53.5 -96.5 -94.5 -239.5
s-61.5 -254.833 -61.5 -335.5c0 -52.667 11.667 -79 35 -79c36 0 80.333 49.667 133 149l18 -19c-21.333 -56.667 -48.666 -102.167 -81.999 -136.5s-68 -51.5 -104 -51.5c-58.667 0 -88 51.667 -88 155c0 32.667 4.33301 74 13 124c-34 5.33301 -81.667 11.666 -143 18.999
c-62 -110 -120.667 -228.667 -176 -356c-30.667 16 -46 36.667 -46 62zM253.998 326.001l66.5 -15c29 -6.66699 47.167 -10.667 54.5 -12c24 114.667 59.333 226.334 106 335.001c-59.333 -46.667 -135 -149.334 -227 -308.001z" />
    <glyph glyph-name="B" unicode="B" horiz-adv-x="650" 
d="M41 -1c0 6.66699 3.66406 9.99805 10.9971 9.99805c2 0 6.5 -0.833008 13.5 -2.5s17.833 -3.16699 32.5 -4.5s32 -2 52 -2c114.667 0 210.834 22.333 288.501 67s116.5 96.334 116.5 155.001c0 79.333 -85.667 119 -257 119h-2
c-8.66699 0 -21.334 -0.166992 -38.001 -0.5s-28.667 -0.5 -36 -0.5c-10.667 -36 -25.5 -89.833 -44.5 -161.5s-33.167 -123.167 -42.5 -154.5c-20 0 -37.333 5.33301 -52 16s-22 23.667 -22 39c0 12 3.33301 27.333 10 46l4 12c1.33301 3.33301 8 23.666 20 60.999l36 108
l43 122c16.667 46 34 90.833 52 134.5s35.333 81.5 52 113.5c-23.333 -5.33301 -44.666 -12.333 -63.999 -21s-34.166 -15.834 -44.499 -21.501s-17.5 -8.5 -21.5 -8.5c-6.66699 0 -15 4.83301 -25 14.5s-15 17.834 -15 24.501c30.667 12.667 55.5 22.167 74.5 28.5
s44.667 12.5 77 18.5s65.833 9 100.5 9c22 0 43 -1 63 -3s42 -6.5 66 -13.5s44.5 -16.167 61.5 -27.5s31.333 -27.166 43 -47.499s17.5 -44.166 17.5 -71.499c0 -92.667 -69.667 -155.667 -209 -189c75.333 -10 130 -30.333 164 -61s51 -64 51 -100
c0 -46 -15.833 -88.5 -47.5 -127.5s-71.167 -70.167 -118.5 -93.5s-96.166 -41.333 -146.499 -54s-96.833 -19 -139.5 -19c-82 0 -123.333 28.667 -124 86zM231.997 377.998c40 1.33301 76.999 5.66699 110.999 13s66 18 96 32s53.5 33 70.5 57s25.5 52.333 25.5 85
c0 80 -62.667 120 -188 120c-37.333 -72 -75.666 -174.333 -114.999 -307z" />
    <glyph glyph-name="C" unicode="C" horiz-adv-x="570" 
d="M32 160c0 86 21.0029 172.669 63.0029 260.002s96.167 159 162.5 215s132.833 84 199.5 84c69.333 0 104 -30.333 104 -91c0 -43.333 -13.333 -90.333 -40 -141s-54.334 -76 -83.001 -76c-16.667 0 -30.334 10.333 -41.001 31c25.333 28 49.833 61.333 73.5 100
s35.5 70 35.5 94c0 26 -15 39 -45 39c-46.667 0 -96.334 -28.333 -149.001 -85s-96.334 -126.334 -131.001 -209.001s-52 -159.334 -52 -230.001c0 -53.333 12 -98.333 36 -135s60.333 -55 109 -55c52 0 104.167 21 156.5 63s92.5 92.333 120.5 151l26 -17
c-38 -72 -85.167 -130.833 -141.5 -176.5s-118.166 -68.5 -185.499 -68.5c-71.333 0 -125.5 24.167 -162.5 72.5s-55.5 106.5 -55.5 174.5z" />
    <glyph glyph-name="D" unicode="D" horiz-adv-x="687" 
d="M70 -37c5.33301 42.667 30.3301 136.499 74.9971 281.499s76.667 242.5 96 292.5c4.66699 12 9.83398 24 15.501 36s15.167 25.167 28.5 39.5s27 21.5 41 21.5c11.333 0 24 -4.66699 38 -14c-40 -91.333 -80.167 -200.333 -120.5 -327s-71.166 -239 -92.499 -337
c11.333 -4 28 -6 50 -6c52 0 102.833 16.333 152.5 49s92 73.667 127 123s63.167 103.333 84.5 162s32 114 32 166c0 77.333 -19.333 134.833 -58 172.5s-90.334 56.5 -155.001 56.5c-65.333 0 -119.666 -17.167 -162.999 -51.5s-65 -77.166 -65 -128.499c0 -18 3 -34 9 -48
c-53.333 0 -80 21.333 -80 64c0 49.333 33 95.833 99 139.5s143.667 65.5 233 65.5c92 0 159.833 -25.667 203.5 -77s65.5 -119 65.5 -203c0 -69.333 -14.333 -136.833 -43 -202.5s-66.167 -122 -112.5 -169s-99.5 -84.667 -159.5 -113s-120 -42.5 -180 -42.5
c-55.333 0 -95.666 16.667 -120.999 50z" />
    <glyph glyph-name="E" unicode="E" horiz-adv-x="533" 
d="M-4 101c0 60 24.499 115.5 73.499 166.5s109.5 81.5 181.5 91.5c-48 42 -72 92.333 -72 151c0 55.333 20.5 104 61.5 146s92.833 63 155.5 63c40.667 0 72 -9.83301 94 -29.5s33 -48.167 33 -85.5c0 -38 -9.5 -73.167 -28.5 -105.5s-38.167 -48.5 -57.5 -48.5
c-16.667 0 -32.667 13.667 -48 41c58.667 48 88 92.667 88 134c0 19.333 -6.5 34.333 -19.5 45s-30.5 16 -52.5 16c-42.667 0 -76.167 -18.5 -100.5 -55.5s-36.5 -80.167 -36.5 -129.5c0 -70 24.667 -124 74 -162c-69.333 -10.667 -126 -40.167 -170 -88.5
s-66 -98.833 -66 -151.5c0 -36 10.667 -68.5 32 -97.5s54 -43.5 98 -43.5c52.667 0 104.834 21.333 156.501 64s91.834 93.667 120.501 153l27 -17c-39.333 -74 -87.333 -133.333 -144 -178s-119 -67 -187 -67c-62.667 0 -113.834 18 -153.501 54s-59.5 80.667 -59.5 134z
" />
    <glyph glyph-name="F" unicode="F" horiz-adv-x="522" 
d="M73 298c4.66699 52.667 53.6689 80.3311 147.002 82.998c40.667 112 77 200.667 109 266c-10.667 1.33301 -22.667 2 -36 2c-58 0 -98 -8.83301 -120 -26.5s-33 -45.167 -33 -82.5c0 -27.333 6.66699 -57.333 20 -90c-58 9.33301 -87 38.333 -87 87
c0 51.333 27.667 93.833 83 127.5s124.333 50.5 207 50.5c24.667 0 60.167 -2.33301 106.5 -7s79.166 -7 98.499 -7c30.667 0 64.334 5 101.001 15c-30.667 -34 -56.167 -57.333 -76.5 -70s-40.833 -19 -61.5 -19c-10.667 0 -32.5 2.33301 -65.5 7s-59.167 7.66699 -78.5 9
c-18 -42.667 -48 -130.334 -90 -263.001c16 -1.33301 44.667 -4.16602 86 -8.49902s75 -6.83301 101 -7.5c-15.333 -20.667 -33.833 -33.5 -55.5 -38.5s-71.834 -8.16699 -150.501 -9.5l-41 -141c-32.667 -113.333 -49 -200.666 -49 -261.999
c-33.333 2 -56 9.83301 -68 23.5s-18 32.834 -18 57.501c0 66 31 171.667 93 317c-64.667 -6 -105.334 -10.333 -122.001 -13z" />
    <glyph glyph-name="G" unicode="G" horiz-adv-x="585" 
d="M32 164c0 62.667 12.6709 127.502 38.0039 194.502s57.666 126.833 96.999 179.5s84.666 96 135.999 130s101.666 51 150.999 51c40.667 0 70.667 -11.167 90 -33.5s29 -50.5 29 -84.5c0 -36.667 -9.33301 -71 -28 -103s-40.667 -48 -66 -48c-16.667 0 -30.667 11 -42 33
c16 11.333 33.333 32.666 52 63.999s28 58.333 28 81c0 31.333 -18 47 -54 47c-48.667 0 -99.5 -28.667 -152.5 -86s-96.667 -127 -131 -209s-51.5 -157.667 -51.5 -227c0 -58.667 12.833 -105.334 38.5 -140.001s57.5 -52 95.5 -52c51.333 0 95.833 30 133.5 90
s59.5 125 65.5 195c-32.667 6.66699 -68.334 10 -107.001 10c-12 0 -34 -0.666992 -66 -2c11.333 45.333 38 68 80 68c22.667 0 56 -7.33301 100 -22s72 -23.334 84 -26.001c-29.333 -90.667 -47.833 -151.167 -55.5 -181.5s-11.5 -60.833 -11.5 -91.5
c0 -10 0.5 -25.333 1.5 -46s1.5 -36.667 1.5 -48c-45.333 5.33301 -68 33.333 -68 84c0 8.66699 0.333008 15.334 1 20.001c-54 -65.333 -115 -98 -183 -98c-58.667 0 -107.667 22.5 -147 67.5s-59 106.167 -59 183.5z" />
    <glyph glyph-name="H" unicode="H" horiz-adv-x="663" 
d="M72 -87c14.667 94.667 49.334 225.666 104.001 392.999c-36.667 -4 -58.334 -6 -65.001 -6c0 37.333 29 62 87 74l83 242c8 24 12 40 12 48c0 9.33301 -4.33301 14 -13 14c-25.333 0 -50.833 -20.667 -76.5 -62s-38.5 -78.333 -38.5 -111
c0 -10.667 3.33301 -25.667 10 -45c-52.667 0 -79 21.667 -79 65c0 44 24.167 87.5 72.5 130.5s94.166 64.5 137.499 64.5c37.333 0 56 -18 56 -54c0 -12 -2.66699 -26.667 -8 -44l-73 -240c10.667 0.666992 27.334 1 50.001 1c60 0 118.333 -2.66699 175 -8
c40 134.667 72.667 231.334 98 290.001c16 37.333 40 56 72 56c-35.333 -96.667 -70.333 -213.667 -105 -351c5.33301 0 18.5 -0.5 39.5 -1.5s36.833 -1.5 47.5 -1.5c-30.667 -30.667 -63.667 -46 -99 -46c-38.667 -162 -58 -280.333 -58 -355c0 -17.333 1.66699 -35 5 -53
c-34 3.33301 -57.167 11.5 -69.5 24.5s-18.5 35.833 -18.5 68.5c0 57.333 24 162 72 314c-108.667 -0.666992 -185.667 -3 -231 -7c-0.666992 -2 -3 -9.83301 -7 -23.5s-14.667 -47.5 -32 -101.5l-64 -207c-6.66699 -22 -18.5 -38.833 -35.5 -50.5
s-33.167 -17.5 -48.5 -17.5z" />
    <glyph glyph-name="I" unicode="I" horiz-adv-x="503" 
d="M-18 -88c2 20.667 7.50098 37.501 16.501 50.501s22.167 22.5 39.5 28.5s34.5 10 51.5 12s38.5 3 64.5 3c27.333 58.667 60.666 174.167 99.999 346.5s63.333 271.166 72 296.499c-82.667 -1.33301 -161.667 -9.33301 -237 -24c6.66699 33.333 27.5 57.333 62.5 72
s88.167 22 159.5 22c80 0 176.667 -7.33301 290 -22c-32.667 -31.333 -71.334 -47 -116.001 -47c-50.667 0 -86.667 -0.333008 -108 -1l-6 -30c-1.33301 -8 -13.5 -75.167 -36.5 -201.5s-39.833 -210.833 -50.5 -253.5c-20 -80 -44 -133.333 -72 -160
c8.66699 -0.666992 40 -3.66699 94 -9s98 -8.33301 132 -9c-39.333 -37.333 -83.666 -56 -132.999 -56h-2c-92.667 0 -157.167 -1 -193.5 -3s-78.833 -7 -127.5 -15z" />
    <glyph glyph-name="J" unicode="J" horiz-adv-x="440" 
d="M-18 49c0 44 7.33301 83.667 22 119s34.667 53 60 53c9.33301 0 22.333 -3.66699 39 -11c-25.333 -61.333 -38 -115 -38 -161c0 -26.667 5.5 -47.667 16.5 -63s26.167 -23 45.5 -23c16.667 0 31.667 7.33301 45 22s26.666 40 39.999 76c22.667 64.667 48.667 159 78 283
s51.333 227.333 66 310c-81.333 -2 -152.666 -9.66699 -213.999 -23c4.66699 31.333 21.167 53.666 49.5 66.999s71.833 20 130.5 20c65.333 0 142 -7.33301 230 -22c-16.667 -27.333 -47 -41 -91 -41c-8 0 -19 -0.166992 -33 -0.5s-22.333 -0.5 -25 -0.5
c8.66699 -11.333 13 -24.333 13 -39c-0.666992 -35.333 -15.167 -117.166 -43.5 -245.499s-59.833 -230.5 -94.5 -306.5c-44.667 -99.333 -102.667 -149 -174 -149c-81.333 0 -122 45 -122 135z" />
    <glyph glyph-name="K" unicode="K" horiz-adv-x="637" 
d="M43 -69c14 30 28.3359 66.3301 43.0029 108.997l79 227l123 349c8 24 12 38.333 12 43c0 12.667 -6.66699 19 -20 19c-29.333 0 -56.5 -20.5 -81.5 -61.5s-37.5 -77.833 -37.5 -110.5c0 -15.333 3.33301 -30.666 10 -45.999c-53.333 0 -80 21.667 -80 65
s24.333 86.666 73 129.999s94.667 65 138 65c36.667 0 55 -19.333 55 -58c0 -12.667 -2.33301 -26 -7 -40l-74 -240c8 4.66699 31 21.667 69 51c120.667 93.333 214 190 280 290c13.333 -12.667 20 -30.667 20 -54c0 -75.333 -123 -191.666 -369 -348.999
c35.333 -54.667 63.333 -96.5 84 -125.5s52.167 -65.167 94.5 -108.5s92.166 -87 149.499 -131c-6 -11.333 -15 -21.166 -27 -29.499s-23.667 -12.5 -35 -12.5c-35.333 0 -83.166 39.5 -143.499 118.5s-112.5 160.167 -156.5 243.5l-91 -294
c-3.33301 -11.333 -8.83301 -20.666 -16.5 -27.999s-17.334 -12.5 -29.001 -15.5s-21.834 -4.83301 -30.501 -5.5s-19.334 -1 -32.001 -1z" />
    <glyph glyph-name="L" unicode="L" horiz-adv-x="610" 
d="M-64 40c0 33.333 27.332 50 81.999 50c32.667 0 74.667 -6.66699 126 -20c10.667 18.667 21.667 42.334 33 71.001s20.666 54 27.999 76l30 93l28 84c-32.667 10.667 -58.167 26 -76.5 46s-27.5 41 -27.5 63c0 21.333 7.83301 41 23.5 59s35.834 27 60.501 27
c-13.333 -17.333 -20 -40 -20 -68c0 -41.333 17.333 -72 52 -92c14 42.667 27.667 79.5 41 110.5s29 61.167 47 90.5s38.167 51.666 60.5 66.999s46.5 23 72.5 23c28 0 53.5 -8.5 76.5 -25.5s34.5 -44.5 34.5 -82.5c0 -24.667 -5.16699 -49.834 -15.5 -75.501
s-25.5 -50.5 -45.5 -74.5s-47.833 -43.667 -83.5 -59s-76.167 -23 -121.5 -23c-51.333 -156 -97 -264.667 -137 -326c129.333 -38.667 217.666 -58 264.999 -58c28.667 0 58 7.33301 88 22c-25.333 -70 -65.333 -105 -120 -105c-14 0 -29.333 1.66699 -46 5
s-35.667 8.83301 -57 16.5s-39.166 14.334 -53.499 20.001s-34.666 14.334 -60.999 26.001s-44.5 19.5 -54.5 23.5c-36 -38 -74.667 -57 -116 -57c-32.667 0 -59.667 10.167 -81 30.5s-32 41.166 -32 62.499zM-8.00098 -3.5c13.333 -8.33301 29.002 -12.5 47.002 -12.5
c15.333 0 28.166 3.16699 38.499 9.5s22.166 16.5 35.499 30.5c-47.333 17.333 -82.333 26 -105 26c-24 0 -36 -7.66699 -36 -23c0 -12 6.66699 -22.167 20 -30.5zM352.001 413c36 2.66699 68.832 17.834 98.499 45.501s51.5 57.667 65.5 90s21 61.5 21 87.5
c0 30 -11 45 -33 45c-14 0 -27.667 -6.66699 -41 -20s-26.666 -33.833 -39.999 -61.5s-25 -54.834 -35 -81.501s-22 -61.667 -36 -105z" />
    <glyph glyph-name="M" unicode="M" horiz-adv-x="806" 
d="M-5 -87c4 12 18.3359 44.333 43.0029 97l120 260l158 344c6 13.333 9 24.333 9 33c0 14.667 -9.66699 22 -29 22c-38 0 -67.5 -16.667 -88.5 -50s-31.5 -70.333 -31.5 -111c0 -14 1.33301 -30 4 -48c-22 0 -39.333 9.5 -52 28.5s-19 39.833 -19 62.5
c0 42 22.167 80.667 66.5 116s90.833 53 139.5 53c39.333 0 68.666 -17.833 87.999 -53.5s29 -100.5 29 -194.5c0 -48 -3.16699 -113.333 -9.5 -196s-9.5 -135.667 -9.5 -159c28.667 86 73.167 184.833 133.5 296.5s109.166 195.167 146.499 250.5
c10.667 16.667 19.667 28.167 27 34.5s16.666 9.5 27.999 9.5c9.33301 0 24 -3.66699 44 -11c-22 -47.333 -49.333 -151.5 -82 -312.5s-49 -285.833 -49 -374.5c0 -8.66699 0.166992 -16.5 0.5 -23.5s0.833008 -12.667 1.5 -17s2 -9.5 4 -15.5l3 -12
c0.666992 -2 2.33398 -6.66699 5.00098 -14l6 -15c-42 0 -69.667 9.33301 -83 28s-20 52.667 -20 102c0 66.667 7.16699 137.334 21.5 212.001s35.5 166 63.5 274c-42 -60 -88 -145 -138 -255s-87 -200.333 -111 -271l-7 -2c-4.66699 -2 -9.33398 -3 -14.001 -3
c-22 0 -36.5 12.667 -43.5 38s-10.5 65.666 -10.5 120.999c0 34 1.33301 92 4 174s4 142.333 4 181c0 6.66699 -0.166992 16.667 -0.5 30s-0.5 23 -0.5 29l-62 -146l-55 -128l-44 -106l-39 -90l-34 -69c-12 -23.333 -22.333 -41.333 -31 -54s-18 -24.5 -28 -35.5
s-19.667 -18.667 -29 -23s-19 -6.5 -29 -6.5z" />
    <glyph glyph-name="N" unicode="N" horiz-adv-x="674" 
d="M56 -87l212 703.001c4.66699 18.667 7 31.667 7 39c0 9.33301 -4.33301 14 -13 14c-26.667 0 -51.334 -19 -74.001 -57s-34 -73 -34 -105c0 -16 3.33301 -31.667 10 -47c-53.333 0 -80 21.667 -80 65s24.333 86.666 73 129.999s93.334 65 134.001 65
c11.333 0 21.833 -2 31.5 -6s18.334 -10.833 26.001 -20.5s14.5 -19.167 20.5 -28.5s11.667 -22.833 17 -40.5s9.66602 -32.834 12.999 -45.501s7.16602 -30.834 11.499 -54.501s7.5 -42.5 9.5 -56.5l9 -61c20.667 -143.333 36 -241 46 -293l36 152l40 170
c10.667 43.333 23 88 37 134s26.667 78.667 38 98c20 35.333 47 53 81 53c-38.667 -100.667 -81 -242.167 -127 -424.5s-69 -310.166 -69 -383.499c-26 0 -46.667 6.16699 -62 18.5s-26.666 34.833 -33.999 67.5c-2.66699 10.667 -37 196 -103 556
c-78 -283.333 -131 -461.166 -159 -533.499s-60.333 -108.5 -97 -108.5z" />
    <glyph glyph-name="O" unicode="O" horiz-adv-x="655" 
d="M32 164c0 84 20.833 169.165 62.5 255.498s96.834 157.833 165.501 214.5s138.667 85 210 85c27.333 0 50 -9.33301 68 -28c-10.667 1.33301 -20.334 2 -29.001 2c-56 0 -113.333 -28 -172 -84s-106.834 -126 -144.501 -210s-56.5 -164.333 -56.5 -241
c0 -57.333 11.5 -104.5 34.5 -141.5s58.5 -55.5 106.5 -55.5c44 0 86.167 17 126.5 51s73.833 77.167 100.5 129.5s48 109 64 170s24 119.167 24 174.5c0 36.667 -3.5 69.834 -10.5 99.501s-18.5 44.5 -34.5 44.5c-21.333 0 -46.166 -24.5 -74.499 -73.5
s-46.833 -94.833 -55.5 -137.5c-42 8.66699 -63 28 -63 58c0 36 23 77.333 69 124s88 70 126 70c18.667 0 34.667 -7 48 -21s23.166 -32.833 29.499 -56.5s10.833 -47.167 13.5 -70.5s4 -47.666 4 -72.999c0 -81.333 -13 -156.833 -39 -226.5s-59 -126.5 -99 -170.5
s-83.167 -78.333 -129.5 -103s-91.166 -37 -134.499 -37c-60 0 -110 22.833 -150 68.5s-60 106.5 -60 182.5z" />
    <glyph glyph-name="P" unicode="P" horiz-adv-x="559" 
d="M34 -30c0 11.333 4.33496 29.9971 13.002 55.9971l78 239c16.667 50.667 39.667 114.334 69 191.001s60 150.334 92 221.001c-22 -4.66699 -43.167 -11.5 -63.5 -20.5s-36.333 -16.5 -48 -22.5s-19.167 -9 -22.5 -9c-6 0 -13.833 4.83301 -23.5 14.5
s-14.5 17.834 -14.5 24.501c89.333 37.333 167.666 56 234.999 56c44 0 86.667 -7 128 -21s76.833 -36.5 106.5 -67.5s44.5 -66.833 44.5 -107.5c0 -40 -11.833 -75.167 -35.5 -105.5s-51.667 -53.333 -84 -69s-68.833 -28.5 -109.5 -38.5s-74.334 -16.167 -101.001 -18.5
s-50 -3.5 -70 -3.5h-6l-105 -376c-20.667 0 -39.667 5.5 -57 16.5s-26 24.5 -26 40.5zM231.002 319.997c53.333 3.33301 102.833 13 148.5 29s84.667 40.667 117 74s48.5 72.333 48.5 117c0 46 -17.667 81.333 -53 106s-78.333 37.667 -129 39
c-40 -77.333 -84 -199 -132 -365z" />
    <glyph glyph-name="Q" unicode="Q" horiz-adv-x="728" 
d="M44 201c0 83.333 17.502 164.501 52.502 243.501s84.5 144.667 148.5 197s133.667 78.5 209 78.5c68.667 0 123 -22 163 -66s60 -104.667 60 -182c0 -82 -21.167 -167.833 -63.5 -257.5s-95.166 -160.5 -158.499 -212.5c52 -26 99.667 -39 143 -39
c10.667 0 19.5 0.666992 26.5 2s14.667 3.5 23 6.5s15.5 5.16699 21.5 6.5c-19.333 -64.667 -56 -97 -110 -97c-28.667 0 -56 7 -82 21s-55 33.667 -87 59c-34.667 -16.667 -70.334 -25 -107.001 -25c-24 0 -44.5 3.5 -61.5 10.5s-29.333 15.667 -37 26s-13 19.833 -16 28.5
s-4.5 17 -4.5 25c0 16 6.66699 30.333 20 43s34 19 62 19c17.333 0 36.166 -3.33301 56.499 -10s37.166 -13.334 50.499 -20.001s32.666 -17.334 57.999 -32.001c54 48.667 97.5 120.167 130.5 214.5s49.5 179.5 49.5 255.5c0 56.667 -11.167 101.334 -33.5 134.001
s-56.833 49 -103.5 49c-60.667 0 -116.667 -28.333 -168 -85s-90.166 -124.5 -116.499 -203.5s-39.5 -156.833 -39.5 -233.5c0 -36 4 -69.333 12 -100c-65.333 0 -98 48 -98 144zM194.002 19.001c0 -13.333 5.83301 -25.5 17.5 -36.5s29.5 -16.5 53.5 -16.5
c26 0 55.667 8 89 24c-48.667 40 -88 60 -118 60h-1c-27.333 0 -41 -10.333 -41 -31z" />
    <glyph glyph-name="R" unicode="R" horiz-adv-x="616" 
d="M31 -30c0 7.33301 4.66602 25.6709 13.999 55.0039c51.333 156 91.5 273.167 120.5 351.5s70.5 179.166 124.5 302.499c-22.667 -4.66699 -45 -11.5 -67 -20.5s-39.167 -16.833 -51.5 -23.5s-20.166 -10 -23.499 -10c-6 0 -14.167 4.66699 -24.5 14
s-15.5 17.666 -15.5 24.999c93.333 37.333 173.666 56 240.999 56c32 0 63.333 -3.66699 94 -11s59.834 -18.333 87.501 -33s49.834 -34.834 66.501 -60.501s25 -55.167 25 -88.5c0 -36 -10.333 -67.667 -31 -95s-45.334 -48.333 -74.001 -63s-62 -26.834 -100 -36.501
s-70.333 -15.834 -97 -18.501s-52.334 -4.33398 -77.001 -5.00098l35 -55c20.667 -32.667 33.334 -52.334 38.001 -59.001l35 -51c18.667 -27.333 33.667 -47 45 -59l45 -51c19.333 -21.333 39 -40.666 59 -57.999s42 -35 66 -53
c-2.66699 -12.667 -10.5 -23.167 -23.5 -31.5s-25.5 -12.5 -37.5 -12.5c-24.667 0 -57 22.833 -97 68.5s-76.667 95.834 -110 150.501s-63 108.334 -89 161.001l-98 -347c-20.667 0 -39.167 5.5 -55.5 16.5s-24.5 24.833 -24.5 41.5zM231.999 339.005
c53.333 4 102.168 13.333 146.501 28s82.166 37.667 113.499 69s47 68.333 47 111c0 47.333 -17 81.833 -51 103.5s-76.667 33.167 -128 34.5c-37.333 -74.667 -80 -190 -128 -346z" />
    <glyph glyph-name="S" unicode="S" horiz-adv-x="567" 
d="M4 96c0 49.333 15.334 84.8311 46.001 106.498s66.667 32.5 108 32.5c-43.333 -45.333 -65 -91.666 -65 -138.999c0 -36 13.833 -66.667 41.5 -92s66.167 -38 115.5 -38c48.667 0 91.667 12 129 36s56 57 56 99c0 30 -11.167 57 -33.5 81s-49.166 44.333 -80.499 61
l-95 52c-31.333 17.333 -58.333 39.5 -81 66.5s-34 57.5 -34 91.5c0 38 11.5 77.167 34.5 117.5s57.667 75.333 104 105s97.166 44.5 152.499 44.5c83.333 0 125 -35 125 -105c0 -34 -8.16699 -71.833 -24.5 -113.5s-34.833 -78.5 -55.5 -110.5c-29.333 6 -44 23 -44 51
c0 18.667 9.5 52.5 28.5 101.5s28.5 82.5 28.5 100.5c0 12.667 -3.83301 22.167 -11.5 28.5s-21.5 9.5 -41.5 9.5c-58.667 0 -109.834 -23.333 -153.501 -70s-65.5 -92 -65.5 -136c0 -26 11 -49.5 33 -70.5s48.667 -39.333 80 -55s62.5 -32.5 93.5 -50.5
s57.5 -41.5 79.5 -70.5s33 -62.5 33 -100.5c0 -65.333 -27.833 -117.666 -83.5 -156.999s-119.167 -59 -190.5 -59c-63.333 0 -117.333 16 -162 48s-67 77 -67 135z" />
    <glyph glyph-name="T" unicode="T" horiz-adv-x="540" 
d="M76 615c2.66699 26.667 16.168 47.999 40.501 63.999s54.5 26.833 90.5 32.5s80.667 8.5 134 8.5c54 0 121 -4 201 -12c70 -6.66699 121.333 -10 154 -10c-18.667 -17.333 -44.834 -30.666 -78.501 -39.999s-63.5 -14.833 -89.5 -16.5s-58.667 -2.5 -98 -2.5
c-54.667 -134.667 -108.667 -300 -162 -496l-22 -85c-4 -16 -7.66699 -34.5 -11 -55.5s-5 -41.167 -5 -60.5c0 -9.33301 1 -19 3 -29c-64 0 -96.667 25.667 -98 77c0 26.667 11.667 75.667 35 147c14.667 44 31.834 91.833 51.501 143.5s36.167 93.5 49.5 125.5l54 129
l44 104c-110.667 -1.33301 -208.334 -9.33301 -293.001 -24z" />
    <glyph glyph-name="U" unicode="U" horiz-adv-x="750" 
d="M33 536c0 43.333 20.001 84.6689 60.001 124.002s87.333 59 142 59c77.333 0 116 -43 116 -129c0 -50 -20 -139.333 -60 -268c-38 -120.667 -57 -203 -57 -247c0 -72.667 27.667 -109 83 -109c34 0 66 15.167 96 45.5s53.333 64 70 101s29.667 75.167 39 114.5l27 107
l27 106c12.667 47.333 23.334 84 32.001 110l30 83c11.333 30 22.166 51.833 32.499 65.5s20.166 20.5 29.499 20.5c14.667 0 36 -13 64 -39c-12.667 -9.33301 -33.667 -52 -63 -128s-57 -164.333 -83 -265s-39 -181.667 -39 -243c0 -40.667 6.83301 -67.834 20.5 -81.501
s38.167 -20.5 73.5 -20.5c-7.33301 -12 -19.5 -21.833 -36.5 -29.5s-33.167 -11.5 -48.5 -11.5c-24.667 0 -45.834 10.833 -63.501 32.5s-26.5 48.167 -26.5 79.5c0 5.33301 0.666992 22.666 2 51.999c-55.333 -102 -126.333 -153 -213 -153
c-44.667 0 -79.5 13.333 -104.5 40s-37.5 64 -37.5 112s20 133.667 60 257s60 212.333 60 267c0 60 -18 90 -54 90c-31.333 0 -56.166 -18 -74.499 -54s-27.5 -69.667 -27.5 -101c0 -20.667 4.33301 -42 13 -64c-59.333 0 -89 25.667 -89 77z" />
    <glyph glyph-name="V" unicode="V" horiz-adv-x="669" 
d="M34 540c0 42.667 19.3311 83.3311 57.998 121.998s84 58 136 58c44.667 0 78.834 -16.333 102.501 -49s35.5 -78 35.5 -136c0 -52 -10.333 -114.833 -31 -188.5s-41.167 -143.167 -61.5 -208.5s-30.5 -114 -30.5 -146c0 -12 1.66699 -20.667 5 -26s9.66602 -8 18.999 -8
c27.333 0 61.333 20 102 60s79.167 88.5 115.5 145.5s67.333 119.5 93 187.5s38.5 127.667 38.5 179c0 64.667 -22.333 104.334 -67 119.001c8.66699 18.667 19.667 32.834 33 42.501s26 14.5 38 14.5c19.333 0 36.666 -12 51.999 -36s23 -55.333 23 -94
c0 -70.667 -24.833 -158.667 -74.5 -264s-110.667 -198.166 -183 -278.499s-136.5 -120.5 -192.5 -120.5c-23.333 0 -45.166 6.66699 -65.499 20s-30.5 36.333 -30.5 69c0 26 10 69.5 30 130.5s40 130.5 60 208.5s30 150.667 30 218c0 38.667 -4.33301 68.167 -13 88.5
s-24.667 30.5 -48 30.5c-31.333 0 -55.166 -16.333 -71.499 -49s-24.5 -67.334 -24.5 -104.001c0 -24 5 -45.667 15 -65c-31.333 0 -54.666 7.33301 -69.999 22s-23 34 -23 58z" />
    <glyph glyph-name="W" unicode="W" horiz-adv-x="953" 
d="M34 540c0 42.667 19.335 83.334 58.002 122.001s83.667 58 135 58c44.667 0 79 -16.667 103 -50s36 -80.666 36 -141.999c0 -66.667 -21.667 -168.667 -65 -306c-2.66699 -9.33301 -8.33398 -26.166 -17.001 -50.499s-15.334 -44.333 -20.001 -60
s-9.33398 -34.834 -14.001 -57.501s-7 -43.334 -7 -62.001c0 -12.667 1.5 -21.5 4.5 -26.5s8.83301 -7.5 17.5 -7.5c33.333 0 72.333 28 117 84s83.334 118.833 116.001 188.5s52.334 127.5 59.001 173.5c23.333 0 42.5 -6.66699 57.5 -20s22.5 -27 22.5 -41
c0 -12.667 -12.333 -47.667 -37 -105c-48.667 -113.333 -73 -194 -73 -242c0 -14 1.83301 -23.833 5.5 -29.5s10.5 -8.5 20.5 -8.5c27.333 0 61.166 20.333 101.499 61s78.5 89.834 114.5 147.501s67 120.334 93 188.001s39 126.167 39 175.5
c0 58.667 -22.667 95.667 -68 111c22.667 37.333 47.334 56 74.001 56h1c18 0 34.5 -10.667 49.5 -32s22.5 -51.333 22.5 -90c0 -52 -15.167 -116.333 -45.5 -193s-67.5 -149.334 -111.5 -218.001s-93.833 -127.667 -149.5 -177s-105.834 -74 -150.501 -74
c-26 0 -47.5 7.83301 -64.5 23.5s-25.5 36.5 -25.5 62.5c0 14 3.33301 31 10 51c-72.667 -91.333 -138 -137 -196 -137h-1c-8.66699 0 -17.5 1 -26.5 3s-19.333 5.66699 -31 11s-21.167 14.5 -28.5 27.5s-11 28.833 -11 47.5c0 27.333 14.667 88.666 44 183.999l15.5 49
l16.5 52l13 48c6 21.333 10.333 39 13 53l9 50c3.33301 19.333 5.66602 38.666 6.99902 57.999s2 38.666 2 57.999c0 42.667 -4.5 74.334 -13.5 95.001s-24.833 31 -47.5 31c-30 0 -53.5 -15 -70.5 -45s-25.5 -64 -25.5 -102c0 -30 5 -54.333 15 -73
c-31.333 0 -54.666 7.33301 -69.999 22s-23 34 -23 58z" />
    <glyph glyph-name="X" unicode="X" horiz-adv-x="706" 
d="M45 -112c2.66699 28 7.49805 48.668 14.498 62.001s19.5 29 37.5 47c76.667 80 153.334 166.667 230.001 260c-6 52 -10.5 105 -13.5 159s-5 95.167 -6 123.5s-3 54.833 -6 79.5s-8.33301 41.667 -16 51s-19.167 14 -34.5 14c-30 0 -53.667 -16.167 -71 -48.5
s-26 -66.833 -26 -103.5c0 -23.333 4.33301 -44.666 13 -63.999c-59.333 0 -89 25.333 -89 76c0 43.333 20 84 60 122s85 57 135 57c22 0 41.333 -4.33301 58 -13s29.834 -21.167 39.501 -37.5s17.5 -33.333 23.5 -51s10.333 -39 13 -64s4.33398 -46.833 5.00098 -65.5
s1.16699 -40.667 1.5 -66s0.833008 -44 1.5 -56c90 121.333 164 240.666 222 357.999c6 -4 12.167 -11.5 18.5 -22.5s9.5 -21.167 9.5 -30.5c0 -26 -23.167 -73.833 -69.5 -143.5s-105.833 -148.834 -178.5 -237.501c11.333 -215.333 43.333 -323 96 -323
c20 0 43.667 17.167 71 51.5s62.333 87.5 105 159.5l22 -18c-44.667 -88 -83 -150.667 -115 -188s-68 -56 -108 -56c-27.333 0 -50.833 8 -70.5 24s-35 38.667 -46 68s-19.333 57.5 -25 84.5s-10.167 58.5 -13.5 94.5c-56.667 -66.667 -112.334 -128.667 -167.001 -186
s-95 -96.333 -121 -117z" />
    <glyph glyph-name="Y" unicode="Y" horiz-adv-x="706" 
d="M32 536c0 43.333 19.8311 84.835 59.498 124.502s87.167 59.5 142.5 59.5c38 0 67 -10.333 87 -31s30 -47 30 -79c0 -23.333 -9.33301 -68.333 -28 -135c-24 -86 -36 -146.667 -36 -182c0 -62.667 23.333 -94 70 -94h1c42.667 0 82.334 22.833 119.001 68.5
s66.667 102.834 90 171.501l20 66l24 77c6.66699 21.333 14.5 43.5 23.5 66.5s18.5 40.667 28.5 53s20 18.5 30 18.5c20 0 42.667 -12.667 68 -38c-34.667 -53.333 -60.667 -106.166 -78 -158.499s-46.333 -162.5 -87 -330.5c-10 -41.333 -19.667 -77 -29 -107
s-22.666 -63.333 -39.999 -100s-36.166 -66.667 -56.499 -90s-46.5 -43 -78.5 -59s-67.333 -24 -106 -24c-42.667 0 -77.334 8.66699 -104.001 26s-40 41.666 -40 72.999c0 21.333 6.66699 40.166 20 56.499s32 27.166 56 32.499c-7.33301 -32.667 -11 -55.334 -11 -68.001
c0 -56.667 30.333 -85 91 -85c37.333 0 69.5 11 96.5 33s47.833 51.833 62.5 89.5s26.334 74.167 35.001 109.5s16.5 74.5 23.5 117.5s13.167 72.833 18.5 89.5c-58.667 -94.667 -128.334 -142 -209.001 -142c-42 0 -73 11.667 -93 35s-30 54.333 -30 93
c0 33.333 10.667 90 32 170s32 134.333 32 163c0 48 -18 72 -54 72c-32.667 0 -58 -17.167 -76 -51.5s-27 -71.5 -27 -111.5c0 -16 4 -34.667 12 -56c-59.333 0 -89 25.667 -89 77z" />
    <glyph glyph-name="Z" unicode="Z" horiz-adv-x="680" 
d="M-8 33c0 16.667 6.66406 30.3359 19.9971 41.0029s35 16 65 16c32 0 79 -8.33301 141 -25c56.667 56.667 119.334 139.667 188.001 249c-42 -2 -97 -7.66699 -165 -17c2.66699 56.667 55.334 85 158.001 85c10.667 0 26 -0.666992 46 -2
c51.333 87.333 88.666 160.666 111.999 219.999c-22.667 6.66699 -49.334 15.667 -80.001 27c-93.333 34 -160.666 51 -201.999 51c-73.333 0 -110 -44.667 -110 -134c2.66699 -22.667 5.66699 -37 9 -43c-49.333 8.66699 -74 35 -74 79c0 45.333 17.5 80 52.5 104
s85.833 36 152.5 36c52 0 117 -10.5 195 -31.5s133.667 -31.5 167 -31.5c22 0 38.667 1.33301 50 4c-23.333 -23.333 -44.333 -39.666 -63 -48.999c-32 -74.667 -73.333 -154.334 -124 -239.001c66.667 -5.33301 104.667 -8 114 -8c-16 -21.333 -32.333 -34.5 -49 -39.5
s-49.667 -8.16699 -99 -9.5c-72 -113.333 -142.333 -203 -211 -269c112.667 -34 192.334 -51 239.001 -51c30 0 60 7.33301 90 22c-14.667 -38.667 -31.5 -65.834 -50.5 -81.501s-43.5 -23.5 -73.5 -23.5c-16 0 -32.667 1.66699 -50 5s-37 9 -59 17s-38.667 14.333 -50 19
s-30.166 13 -56.499 25s-41.5 19 -45.5 21c-50 -36 -94.333 -54 -133 -54c-30.667 0 -55.667 9.16699 -75 27.5s-29 38.166 -29 59.499zM24.9971 27.002c0 -11.333 6.16602 -22.167 18.499 -32.5s27.166 -15.5 44.499 -15.5c16.667 0 44.334 14.667 83.001 44
c-51.333 20 -86.666 30 -105.999 30c-26.667 0 -40 -8.66699 -40 -26z" />
    <glyph glyph-name="bracketleft" unicode="[" horiz-adv-x="438" 
d="M48 -65c4.66699 8 9.16895 20.998 13.502 38.998s13.833 66.333 28.5 145l68 377c13.333 77.333 32.5 131.333 57.5 162s51.5 46 79.5 46c5.33301 0 16.666 -0.5 33.999 -1.5s31.333 -1.5 42 -1.5c45.333 0 82.333 8 111 24
c-1.33301 -40.667 -11.833 -67.167 -31.5 -79.5s-47.5 -18.5 -83.5 -18.5c-17.333 0 -53.333 5.33301 -108 16c-21.333 -62.667 -47.333 -182.667 -78 -360s-49.334 -277.666 -56.001 -300.999c74 0.666992 125.5 2.16699 154.5 4.5s59.167 7.83301 90.5 16.5
c0 -31.333 -10.833 -54.166 -32.5 -68.499s-56.5 -21.5 -104.5 -21.5c-54 0 -115.667 7.33301 -185 22z" />
    <glyph glyph-name="backslash" unicode="\" horiz-adv-x="604" 
d="M173 724c17.333 0 34 -5.5 50 -16.5s26.667 -23.167 32 -36.5c19.333 -50 45.333 -142 78 -276l92 -369c28 -112 49 -176.333 63 -193c-20 3.33301 -37.667 11 -53 23s-29.833 31.167 -43.5 57.5s-25.667 54 -36 83s-22.333 70.5 -36 124.5l-38.5 157l-48 204z" />
    <glyph glyph-name="bracketright" unicode="]" horiz-adv-x="457" 
d="M14 -88c4 57.333 43.3301 86 117.997 86c13.333 0 34.833 -1.16699 64.5 -3.5s49.167 -3.83301 58.5 -4.5c22 62.667 50.5 188.334 85.5 377.001s53.5 287.334 55.5 296.001c-123.333 0 -213.666 -7.66699 -270.999 -23c0 32 10.667 53.667 32 65s54.333 17 99 17
c56.667 0 119 -7 187 -21c-3.33301 -38.667 -14.666 -122.834 -33.999 -252.501s-36.666 -233.834 -51.999 -312.501l-9 -46c-2 -12 -7 -29.333 -15 -52s-16.333 -40.667 -25 -54s-20.667 -25.5 -36 -36.5s-32.333 -16.5 -51 -16.5c-97.333 0 -166.333 -6.33301 -207 -19z
" />
    <glyph glyph-name="asciicircum" unicode="^" horiz-adv-x="210" 
d="M1 464c0 18 14.832 36.833 44.499 56.5s52.834 29.5 69.501 29.5s36.667 -12.667 60 -38s35 -48 35 -68c0 -17.333 -8.33301 -30 -25 -38c-15.333 26 -39 53.333 -71 82c-36.667 -12 -70 -28 -100 -48c-8.66699 5.33301 -13 13.333 -13 24z" />
    <glyph glyph-name="underscore" unicode="_" horiz-adv-x="887" 
d="M-2 -73c5.33301 36.667 34.168 61.5 86.501 74.5s129.5 19.5 231.5 19.5c70 0 153.667 -3 251 -9s160.333 -9.33301 189 -10c-63.333 -41.333 -120 -62 -170 -62c-52.667 0 -118.834 1.66699 -198.501 5s-126.5 5 -140.5 5c-61.333 0 -107 -1.5 -137 -4.5
s-67.333 -9.16699 -112 -18.5z" />
    <glyph glyph-name="grave" unicode="`" horiz-adv-x="138" 
d="M-4 519c0.666992 12.667 4.16699 22.3311 10.5 28.998s13.5 10 21.5 10c18.667 0 41.667 -15.333 69 -46s41 -53 41 -67c0 -6 -2.33301 -12.667 -7 -20s-10.667 -12.666 -18 -15.999c-32.667 38.667 -71.667 75.334 -117 110.001z" />
    <glyph glyph-name="a" unicode="a" horiz-adv-x="444" 
d="M-26 41c0 38.667 13.668 81.666 41.001 128.999s63.5 88 108.5 122s89.5 51 133.5 51c29.333 0 53.833 -7.5 73.5 -22.5s29.5 -34.167 29.5 -57.5c0 -30.667 -19 -46.667 -57 -48c24 -7.33301 36 -17 36 -29c0 -8 -9.5 -28.167 -28.5 -60.5s-28.5 -56.5 -28.5 -72.5
c0 -24 10 -36 30 -36c18.667 0 42.5 13 71.5 39s57.167 65 84.5 117l19 -19c-24.667 -55.333 -55.334 -99.833 -92.001 -133.5s-73.667 -50.5 -111 -50.5c-26.667 0 -47.167 8.83301 -61.5 26.5s-21.5 37.834 -21.5 60.501c-30 -36 -55.667 -62.333 -77 -79s-44 -25 -68 -25
c-23.333 0 -42.833 7.66699 -58.5 23s-23.5 37 -23.5 65zM54.001 35.999c0 -21.333 7.66602 -32.001 22.999 -32.001c8.66699 0 17.834 2.5 27.501 7.5s20.167 12.5 31.5 22.5l31 30c10 10 21.333 23 34 39l30 38l29 39l24 33c2 3.33301 4.66699 5 8 5h2l2 -1
c3.33301 10.667 5 23 5 37c0 34.667 -14 52 -42 52c-44 0 -89.167 -32.667 -135.5 -98s-69.5 -122.666 -69.5 -171.999z" />
    <glyph glyph-name="b" unicode="b" horiz-adv-x="409" 
d="M-11 60c0 62.667 19.999 146.834 59.999 252.501s85.667 199 137 280s91.666 121.5 120.999 121.5c12.667 0 22.5 -7 29.5 -21s10.833 -30 11.5 -48c0 -32 -10.5 -73 -31.5 -123s-49.833 -99.5 -86.5 -148.5s-74.667 -84.833 -114 -107.5
c-9.33301 -17.333 -19.166 -45.833 -29.499 -85.5s-15.5 -77.834 -15.5 -114.501c0 -64.667 17.333 -97 52 -97c17.333 0 36 7.83301 56 23.5s36.333 35.167 49 58.5c-24 13.333 -42.5 31.833 -55.5 55.5s-19.5 49.167 -19.5 76.5c0 32 8.66699 58.167 26 78.5
s39 30.5 65 30.5c22.667 0 40.667 -8.5 54 -25.5s20 -41.833 20 -74.5c0 -41.333 -10 -83.333 -30 -126c2 0 4.83301 -0.166992 8.5 -0.5s6.83398 -0.5 9.50098 -0.5c50 0 93 37 129 111l15 -21c-18 -41.333 -39.167 -71.833 -63.5 -91.5s-55.5 -29.5 -93.5 -29.5
c-9.33301 0 -16.333 0.333008 -21 1c-45.333 -72 -101 -108 -167 -108c-37.333 0 -66 11.667 -86 35s-30 56 -30 98zM134.999 329c40 36.667 77.502 87.666 112.502 152.999s52.833 111.333 53.5 138c-14.667 -5.33301 -40.834 -39.166 -78.501 -101.499
s-66.834 -125.5 -87.501 -189.5zM202.001 177.999c0 -42.667 14.333 -74 43 -94c12 26.667 18 55 18 85c0 46.667 -9.66699 70 -29 70c-8.66699 0 -16.167 -6 -22.5 -18s-9.5 -26.333 -9.5 -43z" />
    <glyph glyph-name="c" unicode="c" horiz-adv-x="333" 
d="M-6 76c0 65.333 23.333 125.333 70 180s97.334 82 152.001 82c26.667 0 46.5 -6.66699 59.5 -20s19.5 -30 19.5 -50s-4.83301 -38.5 -14.5 -55.5s-21.5 -25.5 -35.5 -25.5c-12.667 0 -23 6.33301 -31 19c21.333 14.667 32 39.667 32 75c0 11.333 -6.33301 17 -19 17
c-32.667 0 -66.834 -26.667 -102.501 -80s-53.5 -102.666 -53.5 -147.999c0 -50 23.333 -75 70 -75h1c39.333 0 79.5 16.5 120.5 49.5s72.167 75.833 93.5 128.5l20 -18c-24 -60.667 -61 -111 -111 -151s-100.667 -60 -152 -60c-36 0 -64.833 11.167 -86.5 33.5
s-32.5 55.166 -32.5 98.499z" />
    <glyph glyph-name="d" unicode="d" horiz-adv-x="491" 
d="M-16 60c0 37.333 13.6689 79.835 41.002 127.502s63.666 89.5 108.999 125.5s90 54 134 54c32.667 0 49 -10.667 49 -32c0 -10.667 -4 -18.334 -12 -23.001c-5.33301 7.33301 -17 11 -35 11c-34 0 -67.167 -15.667 -99.5 -47s-57.166 -66.166 -74.499 -104.499
s-26 -70.833 -26 -97.5c0 -28 10.667 -42 32 -42c28.667 0 63.667 24.333 105 73s77.333 112.667 108 192l39 99l39 94c16 38.667 29.667 69.167 41 91.5s23.833 45.5 37.5 69.5s26.167 41.5 37.5 52.5s22 16.5 32 16.5c7.33301 0 13.833 -2.83301 19.5 -8.5
s8.5 -12.834 8.5 -21.501c0 -14 -12 -46 -36 -96l-77 -160c-28 -56 -54 -118.667 -78 -188s-36 -128.333 -36 -177c0 -16 1.5 -26.833 4.5 -32.5s8.16699 -8.5 15.5 -8.5c22.667 0 48.667 13.333 78 40s55 62.667 77 108l19 -16c-22 -54.667 -52.333 -99.334 -91 -134.001
s-77 -52 -115 -52c-48.667 0 -73 29 -73 87c0 15.333 2.66699 37 8 65c-32.667 -47.333 -66.334 -85.166 -101.001 -113.499s-66.334 -42.5 -95.001 -42.5c-22 0 -41.667 7.66699 -59 23s-26 37.666 -26 66.999z" />
    <glyph glyph-name="e" unicode="e" horiz-adv-x="341" 
d="M-17 77c0 60.667 28.168 123.167 84.501 187.5s114.5 96.5 174.5 96.5c48.667 0 73 -22.333 73 -67c0 -48 -26 -90.667 -78 -128s-110 -59.333 -174 -66c-1.33301 -6.66699 -2 -14.334 -2 -23.001c0 -6.66699 0.5 -13 1.5 -19s3.66699 -14.167 8 -24.5
s12.333 -18.666 24 -24.999s26.167 -9.5 43.5 -9.5c40.667 0 82.167 16.5 124.5 49.5s76.5 74.167 102.5 123.5l20 -16c-26.667 -60 -64.834 -108.333 -114.501 -145s-101.167 -55 -154.5 -55c-42 0 -74.667 11.333 -98 34s-35 51.667 -35 87zM74.001 137
c38.667 4.66699 79.501 24 122.501 58s64.5 68.667 64.5 104c0 12.667 -5.66699 19 -17 19c-29.333 0 -61.333 -19.333 -96 -58s-59.334 -79.667 -74.001 -123z" />
    <glyph glyph-name="f" unicode="f" horiz-adv-x="330" 
d="M-66 -184c0 50.667 14.5 126 43.5 226s64.333 200.333 106 301s89.167 188.667 142.5 264s101.333 113 144 113c28 0 42 -17 42 -51c0 -55.333 -27.833 -119.666 -83.5 -192.999s-118.834 -133.333 -189.501 -180l-16 -40c14 -6 22.333 -17.667 25 -35
c4.66699 -27.333 8.5 -47.666 11.5 -60.999s7.83301 -28 14.5 -44s15 -27.167 25 -33.5s22.333 -9.5 37 -9.5c22 0 41.833 8 59.5 24s36.834 41 57.501 75l22 -16c-20 -40.667 -43.167 -71.334 -69.5 -92.001s-51.166 -31 -74.499 -31c-22.667 0 -46.334 9 -71.001 27
c-0.666992 -54 -8.66699 -107.333 -24 -160s-35.5 -95.834 -60.5 -129.501s-50.5 -50.5 -76.5 -50.5c-16 0 -30.833 7 -44.5 21s-20.5 39 -20.5 75zM27 -218c18 0 37.833 33.667 59.5 101s32.5 126.333 32.5 177c0 33.333 -9.66699 67.333 -29 102
c-52.667 -154.667 -79 -266.667 -79 -336c0 -29.333 5.33301 -44 16 -44zM168 366c56.667 52.667 102.833 104.999 138.5 156.999s53.5 88 53.5 108c0 5.33301 -2.66699 8 -8 8c-23.333 0 -51.333 -25.167 -84 -75.5s-66 -116.166 -100 -197.499z" />
    <glyph glyph-name="g" unicode="g" horiz-adv-x="403" 
d="M-18 -216c0 16 4.66895 31.834 14.002 47.501s19.333 28.667 30 39s27.167 22.166 49.5 35.499s39.166 22.666 50.499 27.999l57 28c16.667 42 30 83.667 40 125c-54 -68 -104.667 -102 -152 -102c-26.667 0 -47.834 9.33301 -63.501 28s-23.5 43.334 -23.5 74.001
c0 66.667 30.667 126.667 92 180s123 80 185 80c20.667 0 36.5 -3.66699 47.5 -11s16.5 -16.333 16.5 -27c0 -6.66699 -2 -12.667 -6 -18s-7.33301 -8.33301 -10 -9c-12 12 -26.333 18 -43 18h-2c-49.333 0 -94.666 -25.167 -135.999 -75.5s-62 -97.5 -62 -141.5
c0 -27.333 10.333 -41 31 -41c18 0 40.167 11.667 66.5 35s52.5 53.333 78.5 90c7.33301 37.333 16 64.166 26 80.499s24.333 24.5 43 24.5c8.66699 0 18.334 -1.33301 29.001 -4c0 -17.333 -7.33301 -52 -22 -104s-32.334 -106 -53.001 -162
c33.333 14 65.5 35.833 96.5 65.5s53.167 63.834 66.5 102.501l18 -18c-14.667 -42 -40.834 -80 -78.501 -114s-76.167 -60 -115.5 -78c-66 -160 -133.333 -240 -202 -240c-18.667 0 -34.667 5.5 -48 16.5s-20 26.833 -20 47.5zM27.002 -205.999
c0 -18.667 6.33398 -28 19.001 -28c13.333 0 30.666 12.333 51.999 37s43.333 62 66 112c-43.333 -21.333 -77 -41.5 -101 -60.5s-36 -39.167 -36 -60.5z" />
    <glyph glyph-name="h" unicode="h" horiz-adv-x="494" 
d="M5 75c0 60 18.5039 141.335 55.5039 244.002s80.167 194.167 129.5 274.5s89.333 120.5 120 120.5c13.333 0 23.833 -7.33301 31.5 -22s11.5 -31 11.5 -49c0 -49.333 -24.5 -116 -73.5 -200s-102.5 -143 -160.5 -177c-22.667 -60 -34 -116.667 -34 -170
c0 -2.66699 0.166992 -6.33398 0.5 -11.001s0.5 -8 0.5 -10c1.33301 2 5.5 12.333 12.5 31s15.5 38.334 25.5 59.001s22.333 42.167 37 64.5s33 40.666 55 54.999s45.667 21.5 71 21.5c30.667 0 53 -9.83301 67 -29.5s21 -42.834 21 -69.501c0 -23.333 -7 -52.333 -21 -87
s-21 -58.667 -21 -72c0 -21.333 8.66699 -32 26 -32h1c22 0 49.167 16 81.5 48s58.833 69.667 79.5 113l16 -17c-24.667 -54.667 -54.5 -99 -89.5 -133s-72.5 -51 -112.5 -51c-24.667 0 -43.834 6.5 -57.501 19.5s-20.5 29.833 -20.5 50.5c0 13.333 4.83301 37.333 14.5 72
s14.5 59 14.5 73c0 28 -12 42 -36 42c-22.667 0 -43.834 -14.167 -63.501 -42.5s-35.334 -59.333 -47.001 -93s-25.834 -64.667 -42.501 -93s-33.667 -42.5 -51 -42.5c-14 0 -24.333 10.667 -31 32s-10 48.333 -10 81zM140.004 330.002c40 36.667 77.5 87.667 112.5 153
s52.5 111 52.5 137c-14 -5.33301 -39.5 -38.5 -76.5 -99.5s-66.5 -124.5 -88.5 -190.5z" />
    <glyph glyph-name="i" unicode="i" horiz-adv-x="244" 
d="M-8 59c0 26.667 7 61.834 21 105.501s33 83.834 57 120.501s47.667 55 71 55c8.66699 0 15.834 -2.5 21.501 -7.5s8.5 -12.167 8.5 -21.5c0 -8.66699 -8.5 -26.834 -25.5 -54.501s-34.167 -59 -51.5 -94s-26 -65.167 -26 -90.5c0 -20.667 3.66699 -34.667 11 -42
s18.666 -11 33.999 -11c52.667 0 105 51 157 153l15 -16c-23.333 -58.667 -53 -104.334 -89 -137.001s-74.667 -49 -116 -49c-28 0 -49.667 8.33301 -65 25s-23 38 -23 64zM148 460c0 15.333 8.5 28.832 25.5 40.499s35.167 17.5 54.5 17.5c28.667 0 43 -12.333 43 -37
c0 -14 -7.66699 -27.5 -23 -40.5s-32 -19.5 -50 -19.5c-14 0 -25.833 3.33301 -35.5 10s-14.5 16.334 -14.5 29.001z" />
    <glyph glyph-name="j" unicode="j" horiz-adv-x="227" 
d="M-197 -221c0 32.667 18.665 66.5029 55.998 101.503s84.333 63.833 141 86.5c24 59.333 43 127 57 203l-17 -27c-8 -12.667 -14 -22.667 -18 -30l-17 27c11.333 20.667 24.5 50.667 39.5 90s28.333 69.166 40 89.499s24.834 30.5 39.501 30.5c8.66699 0 16 -3.5 22 -10.5
s9 -15.833 9 -26.5c0 -18 -6.83301 -58.333 -20.5 -121s-30.834 -124.667 -51.501 -186c24 13.333 43.167 25 57.5 35s31.833 25.833 52.5 47.5s39.667 47.5 57 77.5l18 -12c-12 -24.667 -24.667 -46.334 -38 -65.001s-27.833 -34.834 -43.5 -48.501s-28.5 -24 -38.5 -31
s-24.5 -15.833 -43.5 -26.5s-31.5 -18 -37.5 -22c-26 -69.333 -56.167 -126.833 -90.5 -172.5s-71.166 -68.5 -110.499 -68.5c-19.333 0 -34.666 5.33301 -45.999 16s-17 25 -17 43zM-157.002 -214.997c0 -11.333 3.99902 -17 11.999 -17c13.333 0 31.333 13 54 39
s45.334 62 68.001 108c-43.333 -22 -76.5 -44.5 -99.5 -67.5s-34.5 -43.833 -34.5 -62.5zM88.9971 462.003c0 16 8.83301 30.001 26.5 42.001s36.167 18 55.5 18c27.333 0 41 -11.667 41 -35c0 -16.667 -7.33301 -31.334 -22 -44.001s-31.667 -19 -51 -19
c-13.333 0 -25 3.33301 -35 10s-15 16 -15 28z" />
    <glyph glyph-name="k" unicode="k" horiz-adv-x="462" 
d="M2 44c0 58 12.5049 127.168 37.5049 207.501s54.167 153.833 87.5 220.5s67.666 123.667 102.999 171s62.666 71 81.999 71c11.333 0 20.833 -7 28.5 -21s11.5 -31.333 11.5 -52c0 -47.333 -19.667 -101.333 -59 -162s-88.666 -108.334 -147.999 -143.001
c-35.333 -83.333 -56 -163.666 -62 -240.999c72 165.333 146 248 222 248c26.667 0 50 -9.5 70 -28.5s30 -42.167 30 -69.5c0 -24.667 -9.33301 -46.5 -28 -65.5s-38.334 -32.333 -59.001 -40s-39.667 -11.834 -57 -12.501c17.333 -78 43.666 -117 78.999 -117
c24 0 49.333 15.833 76 47.5s51 71.834 73 120.501l14 -17c-18.667 -54 -45.334 -100.667 -80.001 -140s-70 -59 -106 -59c-26 0 -48.5 11.5 -67.5 34.5s-32.333 48.167 -40 75.5s-11.5 52.666 -11.5 75.999c86 19.333 129 49 129 89c0 12 -3.83301 21.667 -11.5 29
s-18.5 11 -32.5 11c-64 0 -128 -85.667 -192 -257c-7.33301 -20 -14.333 -33.5 -21 -40.5s-16.334 -10.5 -29.001 -10.5c-26 0 -39 25 -39 75zM174.005 404.001c32.667 28.667 62.5 63.167 89.5 103.5s40.833 77.833 41.5 112.5c-10.667 -4.66699 -29 -28 -55 -70
s-51.333 -90.667 -76 -146z" />
    <glyph glyph-name="l" unicode="l" horiz-adv-x="245" 
d="M2 76c0 61.333 21.167 144.498 63.5 249.498s89.166 197 140.499 276s89.333 118.5 114 118.5c11.333 0 21 -8.83301 29 -26.5s12.333 -35.5 13 -53.5c0 -30.667 -11.5 -74.167 -34.5 -130.5s-56.167 -116.166 -99.5 -179.499s-88.666 -113.666 -135.999 -150.999
c-7.33301 -39.333 -11 -69.666 -11 -90.999v-3c0 -46 14.333 -69 43 -69c23.333 0 48.166 15.5 74.499 46.5s49.833 68.5 70.5 112.5l24 -13c-29.333 -60.667 -61.666 -107.834 -96.999 -141.501s-72 -50.5 -110 -50.5c-56 0 -84 35.333 -84 106zM110 240.998
c53.333 58 101 128.167 143 210.5s63 141.5 63 177.5c-8.66699 0 -25.667 -19.333 -51 -58s-53 -89.167 -83 -151.5s-54 -121.833 -72 -178.5z" />
    <glyph glyph-name="m" unicode="m" horiz-adv-x="660" 
d="M-35 0c40 160.667 61.3301 245.997 63.9971 255.997c2 7.33301 9.16699 13.833 21.5 19.5s23.5 8.5 33.5 8.5s18.167 -3 24.5 -9s9.5 -14 9.5 -24c0 -10.667 -4.66699 -34.667 -14 -72c74.667 102 139.667 153 195 153c42 0 63 -28 63 -84
c0 -19.333 -5.66699 -46 -17 -80c46.667 68.667 95 103 145 103c24 0 41.5 -7.16699 52.5 -21.5s16.5 -32.166 16.5 -53.499c0 -18.667 -5.66699 -46.167 -17 -82.5s-17 -59.5 -17 -69.5c0 -18 8.33301 -27 25 -27c42 0 87 52 135 156l17 -21
c-19.333 -50 -44.166 -93 -74.499 -129s-65.166 -54 -104.499 -54c-24.667 0 -43.667 7.33301 -57 22s-20 33.334 -20 56.001c0 15.333 4.66699 38.333 14 69s14 51.667 14 63c0 20 -7.66699 30 -23 30c-14.667 0 -31.667 -10.667 -51 -32s-45.333 -56.333 -78 -105
c-8.66699 -12 -19.167 -29.5 -31.5 -52.5s-20.166 -37.167 -23.499 -42.5c-12 0 -25 2.33301 -39 7s-21 11 -21 19c0 4.66699 11 36.5 33 95.5s33 100.5 33 124.5c0 20 -7 30 -21 30c-27.333 0 -64.833 -30.167 -112.5 -90.5s-83.5 -123.5 -107.5 -189.5
c-12 0 -26.167 3.33301 -42.5 10s-24.5 12.334 -24.5 17.001z" />
    <glyph glyph-name="n" unicode="n" horiz-adv-x="473" 
d="M-38 14c0 0.666992 6 15.665 18 44.998s23.333 62.333 34 99s16 67.667 16 93c14.667 16 32 24 52 24c23.333 0 35 -10 35 -30c0 -18 -5.66699 -47.667 -17 -89c68 90.667 131 136 189 136c26.667 0 47.334 -9.16699 62.001 -27.5s22 -40.166 22 -65.499
c0 -22 -6.5 -49.167 -19.5 -81.5s-19.5 -55.166 -19.5 -68.499c0 -19.333 8 -29 24 -29c22 0 45.833 15.167 71.5 45.5s48.834 66.166 69.501 107.499l17 -14c-52.667 -119.333 -112.334 -179 -179.001 -179c-25.333 0 -45 6.33301 -59 19s-21 29.334 -21 50.001
c0 13.333 4.66699 35 14 65s14 52.333 14 67c0 26 -11.667 39 -35 39c-18.667 0 -38.5 -7.5 -59.5 -22.5s-42.667 -37.167 -65 -66.5s-39.5 -53 -51.5 -71l-47 -75c-28.667 0 -50.334 9.66699 -65.001 29z" />
    <glyph glyph-name="o" unicode="o" horiz-adv-x="372" 
d="M-12 62c0 44 12.668 87.001 38.001 129.001s52.666 63 81.999 63c8 0 18.333 -2.66699 31 -8c4 30.667 14.833 56 32.5 76s42.5 30 74.5 30c26.667 0 46.334 -7.5 59.001 -22.5s19 -34.5 19 -58.5c0 -46 -22 -102.667 -66 -170c8 -4 17.333 -6 28 -6
c18.667 0 38.667 6.16699 60 18.5s37.666 31.166 48.999 56.499l18 -13c-14 -32 -32.833 -56.333 -56.5 -73s-48.167 -25 -73.5 -25c-15.333 0 -32 3 -50 9c-55.333 -66.667 -111 -100 -167 -100c-28 0 -48 9 -60 27s-18 40.333 -18 67zM68.001 65.001
c0 -30.667 11.333 -45.998 34 -45.998c24 0 56 23.667 96 71c-38 33.333 -58 82.333 -60 147c-12.667 -6.66699 -27.5 -29.834 -44.5 -69.501s-25.5 -73.834 -25.5 -102.501zM195.001 220.003c0 -15.333 2.66699 -32.832 8 -52.499s12.333 -34.834 21 -45.501
c38.667 55.333 58 105 58 149c0 29.333 -9.33301 44 -28 44c-14 0 -27.333 -9.33301 -40 -28s-19 -41 -19 -67z" />
    <glyph glyph-name="p" unicode="p" horiz-adv-x="413" 
d="M-96 -255c41.333 120 69.002 211.331 83.002 273.998s31 173 51 331c0.666992 6.66699 1.5 11.167 2.5 13.5s3.16699 4.5 6.5 6.5s8.33301 3 15 3c19.333 0 34 -5.16699 44 -15.5s15 -22.833 15 -37.5c0 -16 -4.66699 -47.333 -14 -94c49.333 76 103.666 114 162.999 114
c32.667 0 59.667 -11.167 81 -33.5s32 -51.166 32 -86.499s-9.83301 -72.166 -29.5 -110.499s-48.834 -71.5 -87.501 -99.5s-80.667 -42 -126 -42c-20.667 0 -37.5 2.66699 -50.5 8s-19.5 11.333 -19.5 18s8 10 24 10c59.333 1.33301 109.166 23.5 149.499 66.5
s60.5 88.833 60.5 137.5c0 21.333 -4.66699 39 -14 53s-23.333 21 -42 21c-30.667 0 -61.667 -17 -93 -51s-54.666 -68.333 -69.999 -103c-9.33301 -32.667 -19.666 -71.667 -30.999 -117l-27 -114c-7.33301 -30 -15.5 -59.667 -24.5 -89s-18.333 -51.333 -28 -66
s-19.834 -22 -30.501 -22c-8 0 -16.5 3 -25.5 9s-13.833 11.333 -14.5 16z" />
    <glyph glyph-name="q" unicode="q" horiz-adv-x="417" 
d="M-14 56c0 39.333 14.0049 82.501 42.0049 129.501s65.167 87.333 111.5 121s92.166 50.5 137.499 50.5c25.333 0 46.666 -5.33301 63.999 -16s26 -24 26 -40c0 -18 -7 -30.667 -21 -38c13.333 -2.66699 20 -11.334 20 -26.001c0 -12 -12 -38.833 -36 -80.5
s-41 -84.167 -51 -127.5c63.333 8 117.666 54.667 162.999 140l18 -16c-44.667 -90 -105 -141.333 -181 -154c11.333 -32.667 17 -67.667 17 -105c0 -50 -7.33301 -91.5 -22 -124.5s-34 -49.5 -58 -49.5c-28.667 0 -43 26.333 -43 79c0 32 4.16699 74.833 12.5 128.5
s19.166 103.5 32.499 149.5c-60.667 -75.333 -110.334 -113 -149.001 -113c-20 0 -38.833 7.83301 -56.5 23.5s-26.5 38.5 -26.5 68.5zM69.0049 69.001c0 -12.667 2.83203 -23.167 8.49902 -31.5s13.834 -12.5 24.501 -12.5c12 0 25.5 5.66699 40.5 17s31.667 29 50 53
s33.5 44.667 45.5 62l49 73c16 24.667 29 37 39 37c0 14.667 -5 26.334 -15 35.001s-23.333 13 -40 13c-26.667 0 -53 -9.33301 -79 -28s-47.667 -41.334 -65 -68.001s-31.333 -53.667 -42 -81s-16 -50.333 -16 -69zM233.004 -193.999c0 -14 1.33301 -21.001 4 -21.001
c10.667 0 16 38.333 16 115c0 18.667 -1 34.334 -3 47.001c-11.333 -54.667 -17 -101.667 -17 -141z" />
    <glyph glyph-name="r" unicode="r" horiz-adv-x="363" 
d="M0 130c30.667 54.667 57.668 115 81.001 181c-6.66699 6.66699 -10 15.667 -10 27c0 17.333 5.33301 33.666 16 48.999s21 23 31 23c6.66699 0 12.167 -4 16.5 -12s6.5 -14.667 6.5 -20c0 -2.66699 -1.83301 -9.16699 -5.5 -19.5s-5.5 -16.166 -5.5 -17.499
c0.666992 -6 6.66699 -13.167 18 -21.5s23.666 -16.5 36.999 -24.5s25.5 -19.833 36.5 -35.5s16.5 -33.167 16.5 -52.5c0 -21.333 -8.66699 -50.666 -26 -87.999s-26 -61.333 -26 -72c0 -15.333 8.33301 -23 25 -23c29.333 0 62 16.5 98 49.5s61.333 65.5 76 97.5l24 -18
c-20.667 -46.667 -52.5 -88.167 -95.5 -124.5s-85.833 -54.5 -128.5 -54.5c-24.667 0 -44.667 6.5 -60 19.5s-23 30.5 -23 52.5c0 19.333 9.5 50 28.5 92s28.5 70.667 28.5 86c0 25.333 -16.667 46.666 -50 63.999c-26 -64 -57.333 -126.333 -94 -187z" />
    <glyph glyph-name="s" unicode="s" horiz-adv-x="351" 
d="M-20 86c0 23.333 4.16699 41.0029 12.5 53.0029s19 20.667 32 26s20.167 8.66602 21.5 9.99902c42.667 44 75 89.667 97 137v10c0 48.667 15 73 45 73c14.667 0 22.667 -6.66699 24 -20c0 -2 -0.833008 -6.83301 -2.5 -14.5s-2.5 -14.834 -2.5 -21.501
c0 -18 9.66699 -54.167 29 -108.5s29 -97.5 29 -129.5c0 -11.333 -1.33301 -25 -4 -41c45.333 11.333 84.666 49 117.999 113l12 -9c-27.333 -79.333 -73.666 -124 -138.999 -134c-10.667 -26.667 -28 -46.834 -52 -60.501s-51.667 -20.5 -83 -20.5
c-46.667 0 -81.167 13.5 -103.5 40.5s-33.5 59.167 -33.5 96.5zM35 84.0029c0 -24 6.66895 -45.167 20.002 -63.5s31.666 -27.5 54.999 -27.5c29.333 0 50.666 13 63.999 39c-26 5.33301 -50 15.5 -72 30.5s-39.667 31.167 -53 48.5c-9.33301 -2 -14 -11 -14 -27z
M64.002 147.003c11.333 -19.333 27.333 -36.832 48 -52.499s44 -26.5 70 -32.5c2 6 3 16.333 3 31c0 14 -1.33301 29.5 -4 46.5s-5 30.333 -7 40s-6 26 -12 49s-9.66699 37.5 -11 43.5c-32.667 -56.667 -61.667 -98.334 -87 -125.001z" />
    <glyph glyph-name="t" unicode="t" horiz-adv-x="288" 
d="M-7 59c0 52 18.332 127.998 54.999 227.998c-17.333 3.33301 -29 6.33301 -35 9v31c16 -2 32 -3.66699 48 -5c30 75.333 62.167 140 96.5 194s62.166 81 83.499 81c7.33301 0 13.833 -2.66699 19.5 -8s8.5 -12.333 8.5 -21c0 -12 -6.33301 -29.833 -19 -53.5
s-30.667 -55.167 -54 -94.5s-42 -73 -56 -101c76.667 0 137.667 2.33301 183 7v-33c-79.333 -8 -146.333 -12 -201 -12c-34.667 -82 -52 -149 -52 -201c0 -27.333 4.33301 -46.666 13 -57.999s22.334 -17 41.001 -17c33.333 0 67.5 15.167 102.5 45.5s65.5 71.5 91.5 123.5
l14 -10c-27.333 -62 -62.666 -112.5 -105.999 -151.5s-88.333 -58.5 -135 -58.5c-30.667 0 -54.667 8.83301 -72 26.5s-26 43.834 -26 78.501z" />
    <glyph glyph-name="u" unicode="u" horiz-adv-x="441" 
d="M-1 74c0 38 11.0039 84.8369 33.0039 140.504s41.333 83.5 58 83.5c14 0 29.667 -8.66699 47 -26c-14 -20.667 -28.5 -50.334 -43.5 -89.001s-22.5 -72 -22.5 -100c0 -40 10 -60 30 -60c17.333 0 38.666 16.5 63.999 49.5s46.833 66.5 64.5 100.5
s33.834 67.333 48.501 100c40 -6.66699 60 -18 60 -34c0 -1.33301 -5.33301 -13.833 -16 -37.5s-21.167 -50.834 -31.5 -81.501s-15.5 -55.334 -15.5 -74.001c0 -23.333 8.66699 -35 26 -35h1c22 0 49.167 14.833 81.5 44.5s60.166 68.167 83.499 115.5l15 -12
c-22.667 -54 -54 -99 -94 -135s-78.667 -54 -116 -54c-12.667 0 -23.5 2.5 -32.5 7.5s-15.833 10.833 -20.5 17.5s-8.33398 15.667 -11.001 27s-4.16699 21 -4.5 29s-0.5 18.333 -0.5 31c-14.667 -22.667 -27.334 -40.834 -38.001 -54.501s-24.334 -26.667 -41.001 -39
s-32.667 -18.5 -48 -18.5c-22 0 -40.333 10.333 -55 31s-22 45 -22 73z" />
    <glyph glyph-name="v" unicode="v" horiz-adv-x="410" 
d="M8 81c0 18.667 1.33594 58.334 4.00293 119.001c0.666992 21.333 3 35.333 7 42s14.333 10 31 10c15.333 0 24.666 -2.83301 27.999 -8.5s5 -18.834 5 -39.501c0 -13.333 -0.833008 -34.666 -2.5 -63.999s-2.5 -51.333 -2.5 -66c0 -22.667 1.16699 -38.334 3.5 -47.001
s7.16602 -13 14.499 -13c21.333 0 47.166 21.167 77.499 63.5s56.833 89.166 79.5 140.499c1.33301 42.667 6.33301 72.334 15 89.001s21 25 37 25c14.667 0 25.5 -4.66699 32.5 -14s10.5 -19.333 10.5 -30c0 -6 -5.33301 -20 -16 -42s-16 -49.333 -16 -82
c0 -46.667 14.333 -70 43 -70c26.667 0 52.667 24.667 78 74l11 -9c-28 -66 -63.333 -99 -106 -99c-40.667 0 -69 31 -85 93c-70 -128 -131 -192 -183 -192c-44 0 -66 40 -66 120z" />
    <glyph glyph-name="w" unicode="w" 
d="M-1 74c0 38.667 11.168 85.834 33.501 141.501s41.5 83.5 57.5 83.5c6 0 14.5 -3 25.5 -9s17.833 -12.667 20.5 -20c-14 -20 -28.333 -49.333 -43 -88s-22 -72 -22 -100c0 -39.333 10.333 -59 31 -59c34 0 81.667 59.667 143 179c8 40.667 14.667 66 20 76s13 15 23 15
c26.667 0 40 -9.66699 40 -29c0 -2 -1.66699 -8 -5 -18c-14.667 -47.333 -22 -107.666 -22 -180.999c0 -34 6 -51 18 -51c17.333 0 40.166 19.5 68.499 58.5s54.5 83.167 78.5 132.5c0 84.667 18.333 127 55 127c14.667 0 25.667 -4.83301 33 -14.5s11 -19.167 11 -28.5
c0 -3.33301 -4.33301 -14.666 -13 -33.999c-13.333 -26.667 -20 -56.334 -20 -89.001c0 -49.333 14.667 -74 44 -74c25.333 0 51 25.333 77 76l19 -15c-25.333 -60.667 -60 -91 -104 -91c-41.333 0 -72 27.667 -92 83c-70 -122 -131.667 -183 -185 -183
c-36.667 0 -56.334 33.333 -59.001 100c0 3.33301 0.333008 13.666 1 30.999s1.33398 29.666 2.00098 36.999c-58.667 -106.667 -111 -160 -157 -160h-1c-22 0 -40.5 10.167 -55.5 30.5s-22.5 44.833 -22.5 73.5z" />
    <glyph glyph-name="x" unicode="x" horiz-adv-x="430" 
d="M8 144c5.33301 9.33301 12.1641 23.1641 20.4971 41.4971s15.833 33.833 22.5 46.5s14.834 25.5 24.501 38.5s21.5 23 35.5 30s30 10.5 48 10.5c25.333 0 45 -7.16699 59 -21.5s25 -35.5 33 -63.5c70.667 70.667 115 106 133 106c5.33301 0 11.333 -2.33301 18 -7
s11.667 -11 15 -19c-12.667 0 -33.5 -12.333 -62.5 -37s-60.833 -56 -95.5 -94c0.666992 -4.66699 1.83398 -14.5 3.50098 -29.5s3.5 -28.667 5.5 -41s4.83301 -25.166 8.5 -38.499s8.83398 -24 15.501 -32s14.667 -12 24 -12c20.667 0 45.167 16.667 73.5 50
s50.166 66.333 65.499 99l16 -15c-18.667 -48.667 -45.5 -91.334 -80.5 -128.001s-70.167 -55 -105.5 -55c-47.333 0 -77.666 41 -90.999 123c-40.667 -46 -81.334 -94.667 -122.001 -146c-5.33301 -6 -11 -9 -17 -9c-5.33301 0 -9.66602 2.16699 -12.999 6.5
s-5 8.83301 -5 13.5c0 26 49.667 91.667 149 197l-7.5 44c-1.66699 9.33301 -4.16699 19.333 -7.5 30s-7.33301 17.834 -12 21.501s-10.667 5.5 -18 5.5c-8.66699 0 -17 -2.66699 -25 -8s-16 -13.5 -24 -24.5s-15.167 -21.667 -21.5 -32s-14 -23.666 -23 -39.999
s-16.5 -29.166 -22.5 -38.499z" />
    <glyph glyph-name="y" unicode="y" horiz-adv-x="400" 
d="M-20 -215c0 16 4.66699 31.667 14 47s19.333 28.333 30 39s27.167 22.5 49.5 35.5s39.5 22.167 51.5 27.5l54 27c11.333 28.667 27.333 80.667 48 156c-51.333 -72.667 -99.333 -109 -144 -109c-22 0 -41.667 6.66699 -59 20s-26 34.333 -26 63
c0 36 11.333 81.333 34 136s42 82 58 82c6.66699 0 16.667 -3.5 30 -10.5s21.333 -14.5 24 -22.5c-12.667 -17.333 -26.5 -46.333 -41.5 -87s-22.5 -72.667 -22.5 -96c0 -24.667 9.33301 -37 28 -37h1c37.333 0 81.333 40.333 132 121
c0.666992 1.33301 2.16699 8.83301 4.5 22.5s4.83301 25.167 7.5 34.5s8.66699 18.5 18 27.5s20.666 13.5 33.999 13.5c2.66699 0 13.334 -1.33301 32.001 -4c-0.666992 -16.667 -8.5 -53 -23.5 -109s-32.5 -110.667 -52.5 -164c76 31.333 129.667 87.666 161 168.999
l17 -14c-25.333 -83.333 -89 -147.666 -191 -192.999c-67.333 -160 -134 -240 -200 -240c-18.667 0 -34.667 5.5 -48 16.5s-20 27.167 -20 48.5zM19 -215c0 -18.667 6.33301 -28 19 -28c14 0 32.333 14.167 55 42.5s45 67.5 67 117.5c-94 -47.333 -141 -91.333 -141 -132z
" />
    <glyph glyph-name="z" unicode="z" horiz-adv-x="331" 
d="M-55 -173.5c8.66699 15 22.3301 29.833 40.9971 44.5s37 27.334 55 38.001l70 41c29.333 17.333 53 32 71 44c-2 43.333 -30 84.333 -84 123c36.667 10 66 29 88 57s33 55.667 33 83c0 31.333 -13.667 47 -41 47c-11.333 0 -22.833 -3.5 -34.5 -10.5
s-22.167 -15.667 -31.5 -26s-19.333 -24 -30 -41s-20 -33.167 -28 -48.5l-27 -55l-19 16c25.333 69.333 51.833 122.333 79.5 159s62.834 55 105.501 55c28.667 0 52.334 -7.83301 71.001 -23.5s28 -37.834 28 -66.501c0 -30.667 -10.667 -60 -32 -88
s-48.333 -50.333 -81 -67c28.667 -22.667 50.334 -50 65.001 -82c54 41.333 91 88 111 140l13 -16c-20 -58.667 -58 -108.667 -114 -150c2.66699 -12 4 -23 4 -33c0 -60 -25.5 -116.167 -76.5 -168.5s-108.833 -78.5 -173.5 -78.5c-50.667 0 -76 19 -76 57
c0 18 4.33301 34.5 13 49.5zM-33.0039 -215c0 -18 9 -27 27 -27c30 0 66.5 19 109.5 57s68.5 84.333 76.5 139l-59 -36l-60 -34c-14.667 -8.66699 -30.167 -19 -46.5 -31s-28.333 -23.5 -36 -34.5s-11.5 -22.167 -11.5 -33.5z" />
    <glyph glyph-name="braceleft" unicode="{" horiz-adv-x="304" 
d="M62 -15c0 22.667 12.167 62.9971 36.5 120.997s36.5 101.667 36.5 131c0 40 -17.333 73.333 -52 100c32 2.66699 55.667 17.834 71 45.501s24.333 59.834 27 96.501l9 111c2.66699 36 12 66.667 28 92s40.333 38 73 38c41.333 0 62 -13 62 -39
c0 -9.33301 -2.66699 -19 -8 -29c-18.667 10 -31.667 15 -39 15c-6 0 -11.5 -1.83301 -16.5 -5.5s-9.33301 -9.66699 -13 -18s-6.83398 -16.333 -9.50098 -24s-5 -18.834 -7 -33.501l-5 -35c-1.33301 -9.33301 -3 -22.666 -5 -39.999
c-4.66699 -39.333 -8.5 -68.833 -11.5 -88.5s-9.16699 -40.167 -18.5 -61.5s-21.333 -34.666 -36 -39.999c14 -16 21 -38.667 21 -68c0 -40.667 -12.167 -91.334 -36.5 -152.001s-36.5 -102 -36.5 -124c0 -17.333 10 -26 30 -26c11.333 0 22 3.33301 32 10
c-2 -32 -20 -48 -54 -48c-27.333 0 -47.166 6.83301 -59.499 20.5s-18.5 30.834 -18.5 51.501z" />
    <glyph glyph-name="bar" unicode="|" horiz-adv-x="294" 
d="M78 -132c18 47.333 32.834 132.667 44.501 256s21.5 243.333 29.5 360s16 188 24 214c26.667 -10.667 40 -40 40 -88c-0.666992 -71.333 -3.33398 -168 -8.00098 -290s-9.66699 -210.333 -15 -265c-10.667 -124.667 -49 -187 -115 -187z" />
    <glyph glyph-name="braceright" unicode="}" horiz-adv-x="301" 
d="M4 -35c0 8.66699 0.666992 15.666 2 20.999c18 -12 32.333 -18 43 -18c16.667 0 29 14.667 37 44s15 70 21 122c4.66699 38.667 8.66699 68.667 12 90s10.333 44.833 21 70.5s24 43.834 40 54.501c-15.333 18 -23 40.667 -23 68c0 31.333 11.5 77 34.5 137
s34.5 95 34.5 105c0 14 -7.33301 21 -22 21c-10 0 -20.333 -3.66699 -31 -11c-0.666992 2 -1 5 -1 9c0 14.667 5.66699 26.834 17 36.501s28 14.5 50 14.5c41.333 0 62 -15.667 62 -47c0 -14.667 -12 -50.834 -36 -108.501s-36 -104.5 -36 -140.5
c0 -44.667 16.667 -77 50 -97c-33.333 -8 -58 -28.167 -74 -60.5s-25.333 -68.5 -28 -108.5l-8 -117c-2.66699 -38.667 -11.667 -71.167 -27 -97.5s-39.333 -39.5 -72 -39.5c-44 0 -66 17.333 -66 52z" />
    <glyph glyph-name="asciitilde" unicode="~" horiz-adv-x="477" 
d="M59 159c28.667 32.667 57.334 49 86.001 49c14 0 45 -6.5 93 -19.5s80.333 -19.5 97 -19.5c7.33301 0 27 2.66699 59 8c-35.333 -36 -66.333 -54 -93 -54c-15.333 0 -46.333 7.16699 -93 21.5s-78.334 21.5 -95.001 21.5s-34.667 -2.33301 -54 -7z" />
    <glyph glyph-name="exclamdown" unicode="&#xa1;" horiz-adv-x="297" 
d="M-60 -219c0 26.667 39.334 116.832 118.001 270.499s138 258.834 178 315.501l12 -4c0 -32.667 -18 -95.667 -54 -189l-39 -99l-38 -94c-16 -39.333 -29.667 -70 -41 -92s-23.833 -45 -37.5 -69s-26.334 -41.5 -38.001 -52.5s-22.5 -16.5 -32.5 -16.5
c-7.33301 0 -13.833 3 -19.5 9s-8.5 13 -8.5 21zM210.001 430.998c0 12 6.16699 23.333 18.5 34s25.833 16 40.5 16c26.667 0 40 -11.333 40 -34c0 -12 -6.83301 -22.833 -20.5 -32.5s-28.5 -14.5 -44.5 -14.5c-22.667 0 -34 10.333 -34 31z" />
    <glyph glyph-name="cent" unicode="&#xa2;" horiz-adv-x="426" 
d="M60 241c0 58 21.0039 112.669 63.0039 164.002s89.667 84.666 143 99.999c10.667 54.667 20 109.667 28 165c1.33301 8 3.16602 14.667 5.49902 20s8.16602 11.166 17.499 17.499s22 11.166 38 14.499l-38 -210c26 0 46.333 -7.16699 61 -21.5s22 -34.833 22 -61.5
c0 -18.667 -3.83301 -35.167 -11.5 -49.5s-18.834 -21.5 -33.501 -21.5c-12 0 -23 6.33301 -33 19c6 2.66699 11.333 10 16 22s7 24 7 36c0 10 -3.33301 18.333 -10 25s-15.334 10 -26.001 10c-28.667 -157.333 -47.667 -258.666 -57 -303.999
c43.333 8.66699 82.333 28 117 58l22 -24c-48 -43.333 -97.333 -71 -148 -83c-22 -100 -44.167 -171.5 -66.5 -214.5s-56.166 -64.5 -101.499 -64.5c29.333 31.333 63.333 122 102 272c-34.667 1.33301 -62.834 13.5 -84.501 36.5s-32.5 54.5 -32.5 94.5zM138.004 236.002
c0 -42 17.3311 -66.667 51.998 -74c18.667 72.667 40.334 168.334 65.001 287.001c-33.333 -22 -61.166 -53.833 -83.499 -95.5s-33.5 -80.834 -33.5 -117.501z" />
    <glyph glyph-name="sterling" unicode="&#xa3;" horiz-adv-x="691" 
d="M-10 40c0 33.333 27.3311 50 81.998 50c32.667 0 74.667 -6.66699 126 -20c18.667 33.333 33.334 65 44.001 95c-72 -8.66699 -111.667 -13.667 -119 -15c2.66699 53.333 50.334 81.333 143.001 84l9 29c-16 2 -40.333 3 -73 3c-26 0 -48.333 -1 -67 -3
c0 18.667 16.333 34.834 49 48.501s70 20.5 112 20.5l21 62c-32 10.667 -57.333 25.834 -76 45.501s-28 40.5 -28 62.5c0 21.333 7.66699 41.166 23 59.499s35.333 27.5 60 27.5c-12.667 -16.667 -19 -38.334 -19 -65.001c0 -42.667 17.333 -74.334 52 -95.001
c14 43.333 27.833 80.833 41.5 112.5s29.5 61.834 47.5 90.501s38 50.5 60 65.5s46 22.5 72 22.5c28 0 53.333 -8.33301 76 -25s34 -44.334 34 -83.001c0 -24 -5.16699 -49 -15.5 -75s-25.5 -51 -45.5 -75s-47.833 -43.667 -83.5 -59s-75.834 -23 -120.501 -23
c-7.33301 -19.333 -13 -36.333 -17 -51l50 -6c22 -2.66699 42 -4.5 60 -5.5s37 -1.5 57 -1.5c-16 -21.333 -34 -34.333 -54 -39s-64.667 -7.66699 -134 -9c-8.66699 -21.333 -13.334 -33.333 -14.001 -36c7.33301 -0.666992 32.833 -3.16699 76.5 -7.5
s79.167 -6.83301 106.5 -7.5c-16 -21.333 -34.667 -34.333 -56 -39s-72 -7.66699 -152 -9c-22.667 -52 -42.667 -90.333 -60 -115c129.333 -38.667 217.333 -58 264 -58c29.333 0 59 7.33301 89 22c-25.333 -70 -65.333 -105 -120 -105c-14 0 -29.333 1.66699 -46 5
s-35.667 8.83301 -57 16.5s-39.166 14.334 -53.499 20.001s-34.666 14.334 -60.999 26.001s-44.5 19.5 -54.5 23.5c-36 -38 -74.667 -57 -116 -57c-32.667 0 -59.667 10.167 -81 30.5s-32 41.166 -32 62.499zM20.998 31c0 -8.66699 7.16602 -19 21.499 -31
s29.833 -18 46.5 -18c26.667 0 52.667 14 78 42c-47.333 17.333 -82.666 26 -105.999 26c-26.667 0 -40 -6.33301 -40 -19zM405.997 413c36 2.66699 68.832 17.834 98.499 45.501s51.5 57.667 65.5 90s21 61.5 21 87.5c0 30 -11 45 -33 45c-14 0 -27.667 -6.66699 -41 -20
s-26.666 -33.833 -39.999 -61.5s-25 -54.834 -35 -81.501s-22 -61.667 -36 -105z" />
    <glyph glyph-name="currency" unicode="&#xa4;" horiz-adv-x="735" 
d="M90 47c14.667 13.333 32.1641 27.002 52.4971 41.002s39 28.5 56 43.5s34.167 34.167 51.5 57.5c-6.66699 22 -10 43.333 -10 64c0 61.333 14.333 118.666 43 171.999c-38.667 38.667 -79.334 76 -122.001 112c-13.333 11.333 -20.666 33 -21.999 65
c0 14 3.33301 28.667 10 44c32 -28.667 88 -84 168 -166c40 48 84 72 132 72c50 0 87.333 -20.667 112 -62l25 35c11.333 15.333 19.833 26.333 25.5 33s13.834 14.5 24.501 23.5s22.167 15.333 34.5 19s26.5 5.5 42.5 5.5c4.66699 0 15 -1.33301 31 -4
c-3.33301 -5.33301 -8.16602 -12 -14.499 -20s-14.833 -18 -25.5 -30l-31 -35l-42 -47l-49 -54c1.33301 -12 2 -20.667 2 -26c0 -50 -17 -106.667 -51 -170c79.333 -68.667 119.333 -124.334 120 -167.001c0 -8.66699 -2 -19.667 -6 -33
c-9.33301 14.667 -21.166 29 -35.499 43s-33.5 31.5 -57.5 52.5s-43 38.167 -57 51.5c-39.333 -46 -82 -69 -128 -69c-36.667 0 -65.667 12.333 -87 37c-56.667 -58.667 -120.667 -88 -192 -88zM311.997 245.002c0 -22.667 6.83398 -41.667 20.501 -57s28.167 -23 43.5 -23
c21.333 0 43 13.5 65 40.5s39.833 59.5 53.5 97.5s20.5 73.667 20.5 107c0 22 -6.33301 40.667 -19 56s-27 23 -43 23c-25.333 0 -49.333 -14.833 -72 -44.5s-39.834 -63 -51.501 -100s-17.5 -70.167 -17.5 -99.5z" />
    <glyph glyph-name="yen" unicode="&#xa5;" horiz-adv-x="868" 
d="M119 536c0 43.333 19.9941 84.8301 59.9941 124.497s87.333 59.5 142 59.5c38.667 0 68 -10.667 88 -32s30 -46.666 30 -75.999c0 -20.667 -10.667 -69.5 -32 -146.5s-32 -134.167 -32 -171.5c0 -63.333 23 -95 69 -95c29.333 0 58.333 13 87 39s52.334 55.667 71.001 89
s36.334 70.666 53.001 111.999c43.333 187.333 85.333 281 126 281c8 0 18.667 -3.66699 32 -11s25 -16.333 35 -27c-32 -50 -58.167 -105.667 -78.5 -167s-39.666 -132 -57.999 -212s-33.833 -140.333 -46.5 -181c17.333 -0.666992 40.333 -2.16699 69 -4.5
s45.334 -3.5 50.001 -3.5c-40 -27.333 -84 -41 -132 -41l-17 -48c24 -0.666992 64.333 -3 121 -7l30 -2c-40 -28 -82.333 -42 -127 -42h-46c-51.333 -107.333 -128.333 -161 -231 -161c-43.333 0 -79.666 8.83301 -108.999 26.5s-44 42.167 -44 73.5
c0 38.667 25.667 67 77 85c-6.66699 -25.333 -10 -48 -10 -68c0 -23.333 7.83301 -42.166 23.5 -56.499s37.167 -21.5 64.5 -21.5c62.667 0 114.667 40.667 156 122c-51.333 0 -103.666 -4 -156.999 -12c15.333 40 74.666 61.333 177.999 64l16 47
c-80.667 -1.33301 -146 -5.66602 -196 -12.999c8.66699 24.667 30.667 41.5 66 50.5s83 13.833 143 14.5c3.33301 12.667 8.33301 39.5 15 80.5s12 71.833 16 92.5c-62 -102 -131.333 -153 -208 -153c-41.333 0 -72.166 11.333 -92.499 34s-30.5 53.667 -30.5 93
c0 34.667 10.667 91.834 32 171.501s32 133.5 32 161.5c0 50.667 -18.333 76 -55 76c-32 0 -57.167 -17.5 -75.5 -52.5s-27.5 -70.833 -27.5 -107.5c0 -22 4.33301 -42.667 13 -62c-60 0 -90 25.667 -90 77z" />
    <glyph glyph-name="brokenbar" unicode="&#xa6;" horiz-adv-x="295" 
d="M79 -132c20 52 37.334 162.333 52.001 331c14.667 17.333 32.667 26 54 26c12.667 0 19 -10 19 -30c0 -54 -1.83301 -100 -5.5 -138s-10 -71.833 -19 -101.5s-21.833 -51.667 -38.5 -66s-37.334 -21.5 -62.001 -21.5zM137.001 282l8 105.999
c3.33301 45.333 5.83301 80.333 7.5 105s4 52.5 7 83.5s5.83301 56.167 8.5 75.5s5.66699 35 9 47c26.667 -10.667 40 -34.667 40 -72c0 -13.333 -1 -48.833 -3 -106.5s-3 -104.5 -3 -140.5c0 -31.333 -11.333 -54.666 -34 -69.999z" />
    <glyph glyph-name="section" unicode="&#xa7;" horiz-adv-x="443" 
d="M20 33c0 32 10.668 55.165 32.001 69.498s46.333 21.5 75 21.5c-30.667 -30.667 -46 -61.334 -46 -92.001c0 -22 8.83301 -40.833 26.5 -56.5s42.167 -23.5 73.5 -23.5c30.667 0 57.334 7.5 80.001 22.5s34 35.167 34 60.5c0 18.667 -7.33301 36 -22 52
s-32.334 30.333 -53.001 43l-62 40c-20.667 14 -38.334 31.333 -53.001 52s-22 43.667 -22 69c0 38.667 14.667 72.167 44 100.5s70.333 42.833 123 43.5c-28 16 -49.667 32.167 -65 48.5s-23 36.833 -23 61.5c0 40 18.167 79 54.5 117s81.5 57 135.5 57
c53.333 0 80 -23.333 80 -70c0 -44.667 -17 -93 -51 -145c-21.333 3.33301 -32 15 -32 35c0 12.667 6 35 18 67s18 53.333 18 64c0 13.333 -10 20 -30 20c-37.333 0 -69.833 -14.667 -97.5 -44s-41.5 -58 -41.5 -86c0 -16 6.66699 -30.5 20 -43.5s29.333 -24.5 48 -34.5
s37.334 -21.167 56.001 -33.5s34.667 -29.5 48 -51.5s20 -47.667 20 -77c0 -43.333 -13.5 -76.5 -40.5 -99.5s-62.5 -34.5 -106.5 -34.5c-8.66699 0 -14.334 0.333008 -17.001 1c20.667 -11.333 37.667 -21.666 51 -30.999s26.333 -23.166 39 -41.499s19 -38.166 19 -59.499
c0 -42 -19 -76.167 -57 -102.5s-80.667 -39.5 -128 -39.5c-40.667 0 -75.5 10.5 -104.5 31.5s-43.5 50.5 -43.5 88.5zM148.001 314.998c0 -8 1.16699 -15.832 3.5 -23.499s6.33301 -16.5 12 -26.5s15.334 -18 29.001 -24s30.167 -9 49.5 -9c30 0 53.333 7.16699 70 21.5
s25 34.5 25 60.5c0 24 -7.33301 43.667 -22 59s-36.334 23 -65.001 23c-28 0 -52 -7.33301 -72 -22s-30 -34.334 -30 -59.001z" />
    <glyph glyph-name="dieresis" unicode="&#xa8;" horiz-adv-x="230" 
d="M-4 469c0 12 7.33398 23 22.001 33s29.667 15 45 15c24 0 36 -10.667 36 -32c0 -12 -6.33301 -23.333 -19 -34s-26.334 -16 -41.001 -16c-12 0 -22.167 2.83301 -30.5 8.5s-12.5 14.167 -12.5 25.5zM141.001 449c0 12.667 7.16602 23.833 21.499 33.5
s29.5 14.5 45.5 14.5c24.667 0 37 -11 37 -33c0 -12 -6.5 -23.167 -19.5 -33.5s-27.167 -15.5 -42.5 -15.5c-11.333 0 -21.166 3 -29.499 9s-12.5 14.333 -12.5 25z" />
    <glyph glyph-name="copyright" unicode="&#xa9;" horiz-adv-x="620" 
d="M88 358c0 56.667 13.499 105.501 40.499 146.501s59.5 70.5 97.5 88.5s78 27 120 27c30.667 0 61.334 -5.5 92.001 -16.5s59 -26.667 85 -47s47 -47.5 63 -81.5s24 -71.667 24 -113c0 -56.667 -14.167 -105.5 -42.5 -146.5s-62 -70.5 -101 -88.5s-79.833 -27 -122.5 -27
c-66 0 -124.667 22.667 -176 68s-78 108.666 -80 189.999zM128.999 362.001c0 -64.667 19.6689 -117.501 59.002 -158.501s91.333 -61.5 156 -61.5c65.333 0 119.166 20.5 161.499 61.5s63.5 93.833 63.5 158.5c0 62.667 -20.833 114.334 -62.5 155.001
s-94.834 61 -159.501 61c-64 0 -116.333 -20 -157 -60s-61 -92 -61 -156zM259.001 300l0.000976562 128.999c0 63.333 29.333 95 88 95c30 0 53 -8.5 69 -25.5s24 -33.833 24 -50.5c0 -16 -7.33301 -24 -22 -24c-8.66699 0 -15 3 -19 9s-6.33301 12.833 -7 20.5
s-4.5 14.5 -11.5 20.5s-17.5 9 -31.5 9c-30.667 0 -46 -18 -46 -54v-129c0 -19.333 3.66699 -33.166 11 -41.499s20.666 -12.5 39.999 -12.5c14 0 24.333 3 31 9s10.334 12.833 11.001 20.5s2.66699 14.5 6 20.5s8.66602 9 15.999 9c16 0 24 -7 24 -21
c0 -22 -8 -40.5 -24 -55.5s-37.667 -22.5 -65 -22.5c-28 0 -50.667 7.66699 -68 23s-26 39 -26 71z" />
    <glyph glyph-name="ordfeminine" unicode="&#xaa;" horiz-adv-x="410" 
d="M125 511c0 42.667 21.168 88.168 63.501 136.501s86.5 72.5 132.5 72.5c20.667 0 38 -5.33301 52 -16s21 -24.334 21 -41.001c0 -20 -10 -31.333 -30 -34c10 -5.33301 15.333 -11.666 16 -18.999c0 -6 -6.5 -19.833 -19.5 -41.5s-19.5 -37.834 -19.5 -48.501
c0 -15.333 6 -23 18 -23c12.667 0 28.5 9.16699 47.5 27.5s38.833 44.5 59.5 78.5l10 -16c-14.667 -38 -35 -68.833 -61 -92.5s-51.333 -35.5 -76 -35.5c-30 0 -45.667 21 -47 63c-42.667 -50 -79.334 -75 -110.001 -75c-16 0 -29.5 5.5 -40.5 16.5s-16.5 26.833 -16.5 47.5
zM187.001 510.001c0 -13.333 4.33301 -20 13 -20c28 0 74 47 138 141l7 3c3.33301 10 5 18.333 5 25c0 19.333 -10 29 -30 29c-29.333 0 -58.833 -21.333 -88.5 -64s-44.5 -80.667 -44.5 -114z" />
    <glyph glyph-name="guillemotleft" unicode="&#xab;" horiz-adv-x="479" 
d="M27 165c36 14 72.1689 35.332 108.502 63.999s66.166 58.667 89.499 90c1.33301 -1.33301 3.66602 -6.16602 6.99902 -14.499s5 -14.166 5 -17.499c0 -39.333 -53.333 -86 -160 -140c40.667 -26.667 95.334 -52.334 164.001 -77.001c-16 -17.333 -29.667 -26 -41 -26
c-25.333 0 -58.833 14.833 -100.5 44.5s-65.834 55.167 -72.501 76.5zM180.002 164.999c36 14 72.1689 35.332 108.502 63.999s66.166 58.667 89.499 90c1.33301 -1.33301 3.66602 -6.16602 6.99902 -14.499s5 -14.166 5 -17.499c0 -39.333 -53.333 -86 -160 -140
c40.667 -26.667 95.334 -52.334 164.001 -77.001c-16 -17.333 -29.667 -26 -41 -26c-25.333 0 -58.833 14.833 -100.5 44.5s-65.834 55.167 -72.501 76.5z" />
    <glyph glyph-name="logicalnot" unicode="&#xac;" horiz-adv-x="676" 
d="M44 170c14 25.333 47.833 42.667 101.5 52s124.5 14 212.5 14c56 0 107 -1 153 -3c6 19.333 18.667 38 38 56c0 -5.33301 2.66699 -24.666 8 -57.999c46.667 -1.33301 72.334 -2.66602 77.001 -3.99902c-16.667 -17.333 -41.334 -29.333 -74.001 -36
c0 -12.667 0.666992 -21.667 2 -27c0 -26 -1.16699 -46.833 -3.5 -62.5s-8.66602 -30.667 -18.999 -45s-25.166 -24.5 -44.499 -30.5c10 46.667 15 76.334 15 89.001c0 5.33301 -0.166992 16.166 -0.5 32.499s-0.5 29.166 -0.5 38.499c-10 -0.666992 -24.333 -1 -43 -1
c-38 -0.666992 -83 -1.33398 -135 -2.00098s-87.333 -1.16699 -106 -1.5s-43.834 -1.5 -75.501 -3.5s-66.834 -4.66699 -105.501 -8z" />
    <glyph glyph-name="uni00AD" unicode="&#xad;" horiz-adv-x="484" 
d="M43 142c4 14 13.002 25.499 27.002 34.499s30.333 15.333 49 19s34.167 6.16699 46.5 7.5s24.5 2 36.5 2c60 0 132 -2.33301 216 -7c-6.66699 -15.333 -21.834 -28.166 -45.501 -38.499s-49.167 -15.5 -76.5 -15.5c-7.33301 0 -25.333 1 -54 3s-52.334 3 -71.001 3
c-45.333 0 -88 -2.66699 -128 -8z" />
    <glyph glyph-name="registered" unicode="&#xae;" horiz-adv-x="619" 
d="M88 358c0 56.667 13.833 105.5 41.5 146.5s60.834 70.5 99.501 88.5s79 27 121 27c42.667 0 83.167 -9.16699 121.5 -27.5s71 -47.666 98 -87.999s40.5 -87.833 40.5 -142.5c0 -56 -14.333 -104.667 -43 -146s-62.834 -71 -102.501 -89s-80.5 -27 -122.5 -27
s-81.833 9.16699 -119.5 27.5s-69.5 47.666 -95.5 87.999s-39 87.833 -39 142.5zM129 359c0 -62.667 19.332 -114.501 57.999 -155.501s90.334 -61.5 155.001 -61.5s118.667 20.5 162 61.5s65 94.167 65 159.5c0 62.667 -20 114.167 -60 154.5s-92.333 60.5 -157 60.5
s-118 -20.167 -160 -60.5s-63 -93.166 -63 -158.499zM262.999 502.999c0 5.33301 2 10 6 14s9 6 15 6h65c28 0 51.5 -7 70.5 -21s28.5 -36.667 28.5 -68c0 -46 -19.333 -74 -58 -84l25 -48l24 -44c6.66699 -12 10 -18.667 10 -20c2 -4 3 -7.66699 3 -11
c0 -4.66699 -2.5 -9.16699 -7.5 -13.5s-10.167 -6.5 -15.5 -6.5c-10 0 -20 10.333 -30 31l-55 108h-32v-118c0 -6.66699 -2.33301 -11.834 -7 -15.501s-9.66699 -5.5 -15 -5.5c-6 0 -11.333 1.83301 -16 5.5s-7 8.83398 -7 15.501zM309.999 385.999h42c34 0 51 16 51 48
c0 32.667 -17.333 49 -52 49h-41v-97z" />
    <glyph glyph-name="degree" unicode="&#xb0;" horiz-adv-x="293" 
d="M112 453c0 24.667 12.333 49 37 73s53.667 36 87 36c27.333 0 47.833 -5.33301 61.5 -16s20.5 -24.334 20.5 -41.001c0 -25.333 -12.667 -49.833 -38 -73.5s-55 -35.5 -89 -35.5c-26 0 -45.667 5.33301 -59 16s-20 24.334 -20 41.001zM158 454
c0 -17.333 12.332 -25.999 36.999 -25.999c18 0 35.667 8.66699 53 26s26 34.333 26 51c0 16 -12.667 24 -38 24c-19.333 0 -37.166 -8.33301 -53.499 -25s-24.5 -33.334 -24.5 -50.001z" />
    <glyph glyph-name="plusminus" unicode="&#xb1;" horiz-adv-x="485" 
d="M56 73c5.33301 38 68 56.999 188 56.999c64.667 0 124.667 -3 180 -9c-26.667 -14.667 -50.5 -23.667 -71.5 -27s-56.833 -5.66602 -107.5 -6.99902c-60 -1.33301 -123 -6 -189 -14zM58 282.999c12.667 32.667 62.668 50.667 150.001 54v31c0 32.667 11.333 63.667 34 93
c6 -33.333 10.667 -74.666 14 -123.999c40 -0.666992 94.667 -3.66699 164 -9c-39.333 -24 -79 -36 -119 -36h-45c-0.666992 -38 -4.83398 -68.167 -12.501 -90.5s-23.167 -37.5 -46.5 -45.5c7.33301 41.333 11 86.666 11 135.999c-57.333 0 -107.333 -3 -150 -9z" />
    <glyph glyph-name="uni00B2" unicode="&#xb2;" horiz-adv-x="397" 
d="M92 353c0 21.333 15.999 31.998 47.999 31.998c14.667 0 32 -2 52 -6c32 27.333 61 64.333 87 111s39 89.334 39 128.001c0 42 -15.333 63 -46 63c-17.333 0 -31.333 -8 -42 -24s-16 -36.667 -16 -62c0 -13.333 4 -28.333 12 -45h-19
c-31.333 7.33301 -47 24.666 -47 51.999c0 29.333 11.333 55 34 77s51.334 33 86.001 33c28 0 51 -9.33301 69 -28s27 -41.667 27 -69c0 -41.333 -12.667 -84.666 -38 -129.999s-57 -84 -95 -116c45.333 -9.33301 74.666 -14 87.999 -14c9.33301 0 28 8.33301 56 25
c-7.33301 -27.333 -16.166 -47.333 -26.499 -60s-24.166 -19 -41.499 -19c-32.667 0 -73 12 -121 36c-22.667 -13.333 -42.334 -20 -59.001 -20c-13.333 0 -24.5 3.33301 -33.5 10s-13.5 15.334 -13.5 26.001zM128.999 351.998c0 -2 2.66699 -3 8 -3
c4 0 8.66699 1.33301 14 4c-4 0.666992 -8.66699 1 -14 1s-8 -0.666992 -8 -2z" />
    <glyph glyph-name="uni00B3" unicode="&#xb3;" horiz-adv-x="334" 
d="M103 392c0 15.333 4.66699 29.167 14 41.5s22 18.5 38 18.5c6 0 16 -2.33301 30 -7c-16.667 -12.667 -25 -28 -25 -46c0 -14.667 3.83301 -27.667 11.5 -39s18.167 -17 31.5 -17c17.333 0 33.333 9.5 48 28.5s22 41.5 22 67.5c0 48 -26 78.333 -78 91
c30 12.667 54.167 30.667 72.5 54s27.5 45 27.5 65c0 13.333 -3.66699 24 -11 32s-15.666 12 -24.999 12c-12.667 0 -23.667 -5 -33 -15s-14 -22 -14 -36c0 -6.66699 3.33301 -16.667 10 -30c-3.33301 -6 -8.33301 -11.333 -15 -16s-12.334 -7 -17.001 -7
c-8.66699 0 -15.667 5.16699 -21 15.5s-8 20.833 -8 31.5c0 24.667 10.333 44.5 31 59.5s45 22.5 73 22.5c24 0 45 -6.33301 63 -19s27 -30 27 -52c0 -20 -6.33301 -40.667 -19 -62s-29.334 -37.333 -50.001 -48c40 -20 60 -51 60 -93c0 -33.333 -14 -63.333 -42 -90
s-63 -40 -105 -40c-31.333 0 -55.166 8 -71.499 24s-24.5 34 -24.5 54z" />
    <glyph glyph-name="acute" unicode="&#xb4;" horiz-adv-x="141" 
d="M93 443c0 13.333 12.499 35.834 37.499 67.501s46.833 47.5 65.5 47.5c17.333 0 27.333 -11.667 30 -35c-56.667 -54.667 -93 -92.334 -109 -113.001c-7.33301 3.33301 -13.166 8.5 -17.499 15.5s-6.5 12.833 -6.5 17.5z" />
    <glyph glyph-name="uni00B5" unicode="&#xb5;" horiz-adv-x="615" 
d="M-29 -234c8.66699 28.667 20.6699 62.999 36.0029 102.999l37 104c10 29.333 21.333 76.833 34 142.5s23.667 143.834 33 234.501c0.666992 6.66699 1.5 11.167 2.5 13.5s3.33301 4.5 7 6.5s9.16699 3 16.5 3c35.333 0 54.333 -17.333 57 -52c-30 -138 -45 -225 -45 -261
c0 -28 8.33301 -42 25 -42c12 0 24.833 6.33301 38.5 19s27.5 30.167 41.5 52.5s26.5 43.333 37.5 63s23.167 42.834 36.5 69.501l27 52c39.333 -6 59 -17 59 -33c-42.667 -86 -64 -152.333 -64 -199c0 -22.667 9.33301 -34 28 -34c22.667 0 50.5 14.833 83.5 44.5
s61.167 68.5 84.5 116.5l24 -16c-22 -54.667 -53.333 -99.834 -94 -135.501s-80.334 -53.5 -119.001 -53.5c-24.667 0 -44.334 7.33301 -59.001 22s-22 34 -22 58c0 6.66699 0.333008 12 1 16c-40.667 -64 -81.334 -96 -122.001 -96c-16 0 -30 6 -42 18
c-49.333 -174.667 -83.333 -262 -102 -262c-9.33301 0 -18 6.16699 -26 18.5s-12.667 21.5 -14 27.5z" />
    <glyph glyph-name="paragraph" unicode="&#xb6;" horiz-adv-x="686" 
d="M71 336c0 46.667 16.665 88.5 49.998 125.5s73.333 65 120 84s96.334 30.833 149.001 35.5c-2 44 -6 85.667 -12 125c13.333 6.66699 25.666 10 36.999 10c10.667 0 19.334 -4.16699 26.001 -12.5s11.334 -20.333 14.001 -36s4.33398 -29.334 5.00098 -41.001
s1 -26.167 1 -43.5c1.33301 0 7.83301 -0.833008 19.5 -2.5s19.5 -3.16699 23.5 -4.5c-3.33301 63.333 -6.66602 106.333 -9.99902 129c10.667 7.33301 22 11 34 11c24 0 39.667 -52.333 47 -157c25.333 -7.33301 55.333 -18.666 90 -33.999
c-2.66699 -6.66699 -10.667 -14.5 -24 -23.5s-22.333 -13.5 -27 -13.5c-2 0 -14.333 5.33301 -37 16c3.33301 -39.333 5 -83.666 5 -132.999c0 -246.667 -3.66699 -381.667 -11 -405c-4.66699 -16 -15.167 -28.833 -31.5 -38.5s-34.166 -14.5 -53.499 -14.5
c1.33301 4 3.5 33 6.5 87s5.83301 123.833 8.5 209.5s4 163.834 4 234.501c0 10.667 -0.166992 26.167 -0.5 46.5s-0.5 35.166 -0.5 44.499c-2.66699 0.666992 -6.33398 1.5 -11.001 2.5s-9.83398 1.83301 -15.501 2.5s-9.83398 1.33398 -12.501 2.00098
c5.33301 -93.333 8 -196 8 -308c0 -156 -3.66699 -245 -11 -267c-5.33301 -14.667 -18.666 -27.334 -39.999 -38.001s-42.666 -16 -63.999 -16c4 70.667 9.66699 150.334 17 239.001c-18 1.33301 -36 3.16602 -54 5.49902s-39.167 6 -63.5 11s-46.833 12.167 -67.5 21.5
s-40.334 20.166 -59.001 32.499s-33.334 28.333 -44.001 48s-16 41.5 -16 65.5z" />
    <glyph glyph-name="periodcentered" unicode="&#xb7;" horiz-adv-x="241" 
d="M58 152c0 10.667 7.16699 21.5 21.5 32.5s28.5 16.5 42.5 16.5c22 0 33 -9.66699 33 -29c0 -10 -5.5 -22 -16.5 -36s-24.167 -21 -39.5 -21c-27.333 0 -41 12.333 -41 37z" />
    <glyph glyph-name="cedilla" unicode="&#xb8;" horiz-adv-x="232" 
d="M13 -145c0 14 10.666 28.332 31.999 42.999c8.66699 -30 22 -45 40 -45c16 0 33.5 10 52.5 30s28.5 37.667 28.5 53c0 10.667 -5.33301 16 -16 16c-8.66699 0 -22.667 -6.16699 -42 -18.5s-31.666 -18.5 -36.999 -18.5s-10.166 2.83301 -14.499 8.5
s-6.5 11.167 -6.5 16.5c0 2 7.33301 12.833 22 32.5s25.667 32.834 33 39.501l45 35l-47 -75c22 8 40 12 54 12c16 0 29 -4.33301 39 -13s15 -21 15 -37c0 -28 -13.5 -55 -40.5 -81s-57.5 -39 -91.5 -39c-18.667 0 -34.334 4.33301 -47.001 13s-19 18 -19 28z" />
    <glyph glyph-name="uni00B9" unicode="&#xb9;" horiz-adv-x="307" 
d="M87 352c36 0 63.335 1.00098 82.002 3.00098c10.667 25.333 22.667 74.5 36 147.5s20.666 112.167 21.999 117.5c-21.333 -12 -35.333 -18 -42 -18c-14.667 0 -22 10 -22 30c24 12 64.333 40.333 121 85c6.66699 -6.66699 10 -14.334 10 -23.001
c0 -6 -13.333 -75 -40 -207l-12 -60c-6.66699 -30 -13.334 -52 -20.001 -66c34.667 0 55.334 -15.333 62.001 -46c-26 2 -43.333 3 -52 3c-13.333 0 -28.833 -0.666992 -46.5 -2s-30.834 -2 -39.501 -2s-18.5 3.33301 -29.5 10s-20.833 16 -29.5 28z" />
    <glyph glyph-name="ordmasculine" unicode="&#xba;" horiz-adv-x="310" 
d="M127 517c0 39.333 18.333 82.834 55 130.501s76.334 71.5 119.001 71.5c15.333 0 26.666 -4.33301 33.999 -13c10.667 -0.666992 18.834 -4.33398 24.501 -11.001s8.5 -13.667 8.5 -21c0 -6 -4.5 -18.667 -13.5 -38s-13.5 -33.333 -13.5 -42
c0 -7.33301 4.33301 -11 13 -11c5.33301 0 12 0.666992 20 2c3.33301 0 5.66602 0.333008 6.99902 1c0 -11.333 -3.83301 -20 -11.5 -26s-16.834 -9 -27.501 -9c-9.33301 0 -17.666 2.66699 -24.999 8c-15.333 -32.667 -34 -58.667 -56 -78s-45.333 -29 -70 -29
c-19.333 0 -34.833 6 -46.5 18s-17.5 27.667 -17.5 47zM183 524.001c0 -9.33301 2.33301 -17 7 -23s10.667 -9 18 -9c14 0 29.833 9.83301 47.5 29.5s31.834 42.167 42.501 67.5c-2.66699 10.667 -4 23 -4 37c0 24 2 41 6 51c-30.667 -4.66699 -57.834 -25 -81.501 -61
s-35.5 -66.667 -35.5 -92z" />
    <glyph glyph-name="guillemotright" unicode="&#xbb;" horiz-adv-x="491" 
d="M67 70c68.667 24.667 123.336 50.335 164.003 77.002c-106.667 54 -160 100.667 -160 140c0 3.33301 1.66699 9.16602 5 17.499s5.66602 13.166 6.99902 14.499c23.333 -31.333 53.166 -61.333 89.499 -90s72.5 -50 108.5 -64
c-6.66699 -21.333 -30.834 -46.833 -72.501 -76.5s-75.167 -44.5 -100.5 -44.5c-11.333 0 -25 8.66699 -41 26zM220.002 70.001c68.667 24.667 123.336 50.335 164.003 77.002c-106.667 54 -160 100.667 -160 140c0 3.33301 1.66699 9.16602 5 17.499
s5.66602 13.166 6.99902 14.499c23.333 -31.333 53.166 -61.333 89.499 -90s72.5 -50 108.5 -64c-6.66699 -21.333 -30.834 -46.833 -72.501 -76.5s-75.167 -44.5 -100.5 -44.5c-11.333 0 -25 8.66699 -41 26z" />
    <glyph glyph-name="onequarter" unicode="&#xbc;" horiz-adv-x="686" 
d="M52 -87c48 46.667 124.998 161.167 230.998 343.5s177.333 320.5 214 414.5c4 9.33301 14 18.5 30 27.5s32.667 13.5 50 13.5c4.66699 0 11 -0.666992 19 -2c-12.667 -31.333 -61 -125.5 -145 -282.5s-146.333 -267.167 -187 -330.5
c-39.333 -60.667 -75.666 -106.5 -108.999 -137.5s-67.666 -46.5 -102.999 -46.5zM74.998 345c41.333 0 69.333 1.33203 84 3.99902c10.667 26 23 76.667 37 152s21.333 115 22 119c-20 -12 -34 -18 -42 -18c-14.667 0 -22 8.66699 -22 26c0 0.666992 6.33301 5.66699 19 15
l51 36c20.667 14.667 37.667 27.334 51 38.001c6.66699 -6 10 -13.667 10 -23c0 -17.333 -17.333 -107.666 -52 -270.999c-6.66699 -32.667 -13.667 -55.334 -21 -68.001c35.333 0 56.333 -15.667 63 -47c-28 2 -45.667 3 -53 3c-12 0 -27 -0.666992 -45 -2
s-32.333 -2 -43 -2c-19.333 0 -39 12.667 -59 38zM376.998 120.999c0 18.667 4 31.334 12 38.001c112 94 184.667 168.667 218 224c13.333 -1.33301 20.333 -8.33301 21 -21c0 -2.66699 -1.83301 -10.334 -5.5 -23.001s-9.16699 -34 -16.5 -64s-14.333 -63.667 -21 -101h10
c2 0 19.667 2.66699 53 8c-26 -34.667 -49.667 -52 -71 -52c-11.333 -82 -17 -134.333 -17 -157c-42 2 -63 13.667 -63 35c0 13.333 7 54.333 21 123c-7.33301 0.666992 -18.333 1 -33 1c-42.667 0 -78.667 -3.66699 -108 -11zM458.998 176.999
c4 0 13.832 -0.166016 29.499 -0.499023s29.167 -0.5 40.5 -0.5c7.33301 40 13.333 67.333 18 82l-28 -25c-11.333 -11.333 -22.666 -21.833 -33.999 -31.5s-20 -17.834 -26 -24.501z" />
    <glyph glyph-name="onehalf" unicode="&#xbd;" horiz-adv-x="743" 
d="M60 -87c48 47.333 125.333 162.168 232 344.501s178 320.166 214 413.499c4 10.667 16 21.5 36 32.5s38.667 16.5 56 16.5c-8 -32 -53 -126.167 -135 -282.5s-145.667 -269.833 -191 -340.5c-39.333 -60.667 -75.5 -106.5 -108.5 -137.5s-67.5 -46.5 -103.5 -46.5z
M77 345.002c41.333 0 69.333 1.33203 84 3.99902c10.667 26 23 76.667 37 152s21.333 115 22 119c-20 -12 -34 -18 -42 -18c-14.667 0 -22 8.66699 -22 26c0 0.666992 6.33301 5.66699 19 15l51 36c20.667 14.667 37.667 27.334 51 38.001c6.66699 -6 10 -13.667 10 -23
c0 -17.333 -17.333 -107.666 -52 -270.999c-6.66699 -32.667 -13.667 -55.334 -21 -68.001c35.333 0 56.333 -15.667 63 -47c-28 2 -45.667 3 -53 3c-12 0 -27 -0.666992 -45 -2s-32.333 -2 -43 -2c-19.333 0 -39 12.667 -59 38zM376 25.001
c0 21.333 15.999 31.998 47.999 31.998c14.667 0 32 -2 52 -6c32 27.333 61 64.333 87 111s39 89.334 39 128.001c0 42 -15.333 63 -46 63c-17.333 0 -31.333 -8 -42 -24s-16 -36.667 -16 -62c0 -12.667 4 -27.667 12 -45h-19c-31.333 7.33301 -47 24.666 -47 51.999
c0 29.333 11.333 55 34 77s51.334 33 86.001 33c28 0 51 -9.33301 69 -28s27 -41.667 27 -69c0 -41.333 -12.667 -84.666 -38 -129.999s-57 -84 -95 -116c45.333 -9.33301 74.666 -14 87.999 -14c9.33301 0 28 8.33301 56 25c-7.33301 -27.333 -16.166 -47.333 -26.499 -60
s-24.166 -19 -41.499 -19c-32.667 0 -73 12 -121 36c-22.667 -13.333 -42.334 -20 -59.001 -20c-13.333 0 -24.5 3.33301 -33.5 10s-13.5 15.334 -13.5 26.001zM412.999 23.999c0 -2 2.66699 -3 8 -3c4 0 8.66699 1.33301 14 4c-4 0.666992 -8.66699 1 -14 1
s-8 -0.666992 -8 -2z" />
    <glyph glyph-name="threequarters" unicode="&#xbe;" horiz-adv-x="733" 
d="M96 386c0 16 4.50195 30.1709 13.502 42.5039s21.833 18.5 38.5 18.5c5.33301 0 15.666 -2 30.999 -6c-18 -12.667 -27 -29.334 -27 -50.001c0 -13.333 4.5 -25.333 13.5 -36s19.833 -16 32.5 -16c18 0 34.333 9.5 49 28.5s22 41.5 22 67.5c0 49.333 -26.333 80 -79 92
c29.333 12.667 53.666 31.167 72.999 55.5s29 46.166 29 65.499c0 14 -3.83301 24.833 -11.5 32.5s-16.5 11.5 -26.5 11.5c-12 0 -23 -4.83301 -33 -14.5s-15 -20.834 -15 -33.501c0 -8.66699 3.33301 -19.667 10 -33c-2.66699 -6 -7.33398 -11.333 -14.001 -16
s-12.667 -7 -18 -7c-8 0 -14.667 5 -20 15s-8.66602 20.667 -9.99902 32c0 25.333 10.667 45.5 32 60.5s46 22.5 74 22.5c24.667 0 46 -6.33301 64 -19s27 -30.667 27 -54c0 -20 -6.5 -40.833 -19.5 -62.5s-29.833 -37.834 -50.5 -48.501
c20 -9.33301 35.167 -22.833 45.5 -40.5s15.5 -35.834 15.5 -54.501c0 -33.333 -14.167 -63.666 -42.5 -90.999s-63.833 -41 -106.5 -41c-32.667 0 -57 8 -73 24s-24 34.333 -24 55zM100.002 -86.9961c42.667 52 83.1699 105.668 121.503 161.001
s75.5 115.666 111.5 180.999l80 146c17.333 32.667 43.333 85 78 157s52.667 109.667 54 113c5.33301 12 17.666 23.167 36.999 33.5s38 15.5 56 15.5c-8.66699 -33.333 -51.834 -123.833 -129.501 -271.5s-143.834 -264.5 -198.501 -350.5
c-39.333 -62 -75 -108.333 -107 -139s-66.333 -46 -103 -46zM425.005 121.005c0 18.667 3.99902 31.333 11.999 38c112.667 94.667 183.334 168.334 212.001 221.001l6 3c13.333 -1.33301 20 -8.33301 20 -21c0 -4.66699 -1.66699 -13.167 -5 -25.5s-8.5 -33.333 -15.5 -63
s-14.167 -62.834 -21.5 -99.501c8.66699 0 29.667 2.66699 63 8c-26 -34.667 -49.667 -52 -71 -52c-11.333 -82 -17 -134.333 -17 -157c-42 2 -63 13.667 -63 35c0 13.333 7 54.333 21 123c-60.667 0 -107.667 -3.33301 -141 -10zM507.004 177.004
c3.33301 0 12.667 -0.166992 28 -0.5s29.333 -0.5 42 -0.5c7.33301 40 13.333 67.333 18 82c-21.333 -20.667 -39.833 -37.667 -55.5 -51s-26.5 -23.333 -32.5 -30z" />
    <glyph glyph-name="questiondown" unicode="&#xbf;" horiz-adv-x="437" 
d="M-41 -142c0 24 5.33301 46.167 16 66.5s24.334 38.833 41.001 55.5l52 49c18 16 35.167 34.667 51.5 56s28.5 44 36.5 68c4.66699 14.667 9 34.167 13 58.5s8.66699 44.166 14 59.499c17.333 -8.66699 28.666 -16.5 33.999 -23.5s8 -17.833 8 -32.5
c0 -25.333 -6.5 -49.833 -19.5 -73.5s-28.833 -45.5 -47.5 -65.5l-56 -59c-18.667 -20 -34.5 -42.667 -47.5 -68s-19.5 -51.333 -19.5 -78c0 -35.333 7.16699 -62.666 21.5 -81.999s32.833 -29 55.5 -29c36 0 69.5 20 100.5 60s46.5 86.333 46.5 139
c0 21.333 -3.66699 44 -11 68c30.667 -4.66699 52 -14 64 -28s18 -32.667 18 -56c0 -59.333 -20.5 -111.333 -61.5 -156s-94.167 -67 -159.5 -67c-46 0 -82.5 12 -109.5 36s-40.5 58 -40.5 102zM166 348c0 13.333 6.16797 25.335 18.501 36.002s26.166 16 41.499 16
c11.333 0 20.833 -2.83301 28.5 -8.5s11.5 -13.834 11.5 -24.501c0 -12.667 -7 -23.834 -21 -33.501s-28.667 -14.5 -44 -14.5c-23.333 0 -35 9.66699 -35 29z" />
    <glyph glyph-name="Agrave" unicode="&#xc0;" 
d="M0 -25c0 49.333 48.998 149.334 146.998 300.001c-40 2.66699 -89 4 -147 4c16 43.333 54.667 65 116 65c13.333 0 38 -2 74 -6c74.667 108 144.334 199 209.001 273s107.667 111 129 111c17.333 0 40 -13 68 -39c-22 -16.667 -53.5 -96.5 -94.5 -239.5
s-61.5 -254.833 -61.5 -335.5c0 -52.667 11.667 -79 35 -79c36 0 80.333 49.667 133 149l18 -19c-21.333 -56.667 -48.666 -102.167 -81.999 -136.5s-68 -51.5 -104 -51.5c-58.667 0 -88 51.667 -88 155c0 32.667 4.33301 74 13 124c-34 5.33301 -81.667 11.666 -143 18.999
c-62 -110 -120.667 -228.667 -176 -356c-30.667 16 -46 36.667 -46 62zM253.998 326.001l66.5 -15c29 -6.66699 47.167 -10.667 54.5 -12c24 114.667 59.333 226.334 106 335.001c-59.333 -46.667 -135 -149.334 -227 -308.001zM419.998 907.001
c0.666992 12.667 4.16699 22.3311 10.5 28.998s13.5 10 21.5 10c18.667 0 41.667 -15.333 69 -46s41 -53 41 -67c0 -6 -2.33301 -12.667 -7 -20s-10.667 -12.666 -18 -15.999c-32.667 38.667 -71.667 75.334 -117 110.001z" />
    <glyph glyph-name="Aacute" unicode="&#xc1;" 
d="M0 -25c0 49.333 48.998 149.334 146.998 300.001c-40 2.66699 -89 4 -147 4c16 43.333 54.667 65 116 65c13.333 0 38 -2 74 -6c74.667 108 144.334 199 209.001 273s107.667 111 129 111c17.333 0 40 -13 68 -39c-22 -16.667 -53.5 -96.5 -94.5 -239.5
s-61.5 -254.833 -61.5 -335.5c0 -52.667 11.667 -79 35 -79c36 0 80.333 49.667 133 149l18 -19c-21.333 -56.667 -48.666 -102.167 -81.999 -136.5s-68 -51.5 -104 -51.5c-58.667 0 -88 51.667 -88 155c0 32.667 4.33301 74 13 124c-34 5.33301 -81.667 11.666 -143 18.999
c-62 -110 -120.667 -228.667 -176 -356c-30.667 16 -46 36.667 -46 62zM253.998 326.001l66.5 -15c29 -6.66699 47.167 -10.667 54.5 -12c24 114.667 59.333 226.334 106 335.001c-59.333 -46.667 -135 -149.334 -227 -308.001zM554.998 831.001
c0 13.333 12.499 35.834 37.499 67.501s46.833 47.5 65.5 47.5c17.333 0 27.333 -11.667 30 -35c-56.667 -54.667 -93 -92.334 -109 -113.001c-7.33301 3.33301 -13.166 8.5 -17.499 15.5s-6.5 12.833 -6.5 17.5z" />
    <glyph glyph-name="Acircumflex" unicode="&#xc2;" 
d="M0 -25c0 49.333 48.998 149.334 146.998 300.001c-40 2.66699 -89 4 -147 4c16 43.333 54.667 65 116 65c13.333 0 38 -2 74 -6c74.667 108 144.334 199 209.001 273s107.667 111 129 111c17.333 0 40 -13 68 -39c-22 -16.667 -53.5 -96.5 -94.5 -239.5
s-61.5 -254.833 -61.5 -335.5c0 -52.667 11.667 -79 35 -79c36 0 80.333 49.667 133 149l18 -19c-21.333 -56.667 -48.666 -102.167 -81.999 -136.5s-68 -51.5 -104 -51.5c-58.667 0 -88 51.667 -88 155c0 32.667 4.33301 74 13 124c-34 5.33301 -81.667 11.666 -143 18.999
c-62 -110 -120.667 -228.667 -176 -356c-30.667 16 -46 36.667 -46 62zM253.998 326.001l66.5 -15c29 -6.66699 47.167 -10.667 54.5 -12c24 114.667 59.333 226.334 106 335.001c-59.333 -46.667 -135 -149.334 -227 -308.001zM464.998 852.001
c0 18 14.999 36.834 44.999 56.501s53.667 29.5 71 29.5c16.667 0 36.834 -12.667 60.501 -38s35.5 -48 35.5 -68c0 -17.333 -8.33301 -30.333 -25 -39c-15.333 26 -39.333 53.667 -72 83c-30.667 -10 -64.667 -27.333 -102 -52c-8.66699 5.33301 -13 14.666 -13 27.999z
" />
    <glyph glyph-name="Atilde" unicode="&#xc3;" 
d="M0 -25c0 49.333 48.998 149.334 146.998 300.001c-40 2.66699 -89 4 -147 4c16 43.333 54.667 65 116 65c13.333 0 38 -2 74 -6c74.667 108 144.334 199 209.001 273s107.667 111 129 111c17.333 0 40 -13 68 -39c-22 -16.667 -53.5 -96.5 -94.5 -239.5
s-61.5 -254.833 -61.5 -335.5c0 -52.667 11.667 -79 35 -79c36 0 80.333 49.667 133 149l18 -19c-21.333 -56.667 -48.666 -102.167 -81.999 -136.5s-68 -51.5 -104 -51.5c-58.667 0 -88 51.667 -88 155c0 32.667 4.33301 74 13 124c-34 5.33301 -81.667 11.666 -143 18.999
c-62 -110 -120.667 -228.667 -176 -356c-30.667 16 -46 36.667 -46 62zM253.998 326.001l66.5 -15c29 -6.66699 47.167 -10.667 54.5 -12c24 114.667 59.333 226.334 106 335.001c-59.333 -46.667 -135 -149.334 -227 -308.001zM377.998 802.001
c12.667 14.667 27.6699 27.833 45.0029 39.5s32.333 17.5 45 17.5c19.333 0 49.666 -6.66699 90.999 -20s73.333 -20 96 -20c18 0 40.667 2.33301 68 7c-34 -36 -64.667 -54 -92 -54c-20.667 0 -52.834 6.33301 -96.501 19s-75.167 19 -94.5 19
c-10.667 0 -31.334 -2.66699 -62.001 -8z" />
    <glyph glyph-name="Adieresis" unicode="&#xc4;" 
d="M0 -25c0 49.333 48.998 149.334 146.998 300.001c-40 2.66699 -89 4 -147 4c16 43.333 54.667 65 116 65c13.333 0 38 -2 74 -6c74.667 108 144.334 199 209.001 273s107.667 111 129 111c17.333 0 40 -13 68 -39c-22 -16.667 -53.5 -96.5 -94.5 -239.5
s-61.5 -254.833 -61.5 -335.5c0 -52.667 11.667 -79 35 -79c36 0 80.333 49.667 133 149l18 -19c-21.333 -56.667 -48.666 -102.167 -81.999 -136.5s-68 -51.5 -104 -51.5c-58.667 0 -88 51.667 -88 155c0 32.667 4.33301 74 13 124c-34 5.33301 -81.667 11.666 -143 18.999
c-62 -110 -120.667 -228.667 -176 -356c-30.667 16 -46 36.667 -46 62zM253.998 326.001l66.5 -15c29 -6.66699 47.167 -10.667 54.5 -12c24 114.667 59.333 226.334 106 335.001c-59.333 -46.667 -135 -149.334 -227 -308.001zM435.998 857.001c0 12 7.33398 23 22.001 33
s29.667 15 45 15c24 0 36 -10.667 36 -32c0 -12 -6.33301 -23.333 -19 -34s-26.334 -16 -41.001 -16c-12 0 -22.167 2.83301 -30.5 8.5s-12.5 14.167 -12.5 25.5zM580.999 837.001c0 12.667 7.16602 23.833 21.499 33.5s29.5 14.5 45.5 14.5c24.667 0 37 -11 37 -33
c0 -12 -6.5 -23.167 -19.5 -33.5s-27.167 -15.5 -42.5 -15.5c-11.333 0 -21.166 3 -29.499 9s-12.5 14.333 -12.5 25z" />
    <glyph glyph-name="Aring" unicode="&#xc5;" 
d="M0 -25c0 49.333 48.998 149.334 146.998 300.001c-40 2.66699 -89 4 -147 4c16 43.333 54.667 65 116 65c13.333 0 38 -2 74 -6c74.667 108 144.334 199 209.001 273s107.667 111 129 111c17.333 0 40 -13 68 -39c-22 -16.667 -53.5 -96.5 -94.5 -239.5
s-61.5 -254.833 -61.5 -335.5c0 -52.667 11.667 -79 35 -79c36 0 80.333 49.667 133 149l18 -19c-21.333 -56.667 -48.666 -102.167 -81.999 -136.5s-68 -51.5 -104 -51.5c-58.667 0 -88 51.667 -88 155c0 32.667 4.33301 74 13 124c-34 5.33301 -81.667 11.666 -143 18.999
c-62 -110 -120.667 -228.667 -176 -356c-30.667 16 -46 36.667 -46 62zM253.998 326.001l66.5 -15c29 -6.66699 47.167 -10.667 54.5 -12c24 114.667 59.333 226.334 106 335.001c-59.333 -46.667 -135 -149.334 -227 -308.001zM498.998 841.001c0 24.667 12.333 49 37 73
s53.667 36 87 36c27.333 0 47.833 -5.33301 61.5 -16s20.5 -24.334 20.5 -41.001c0 -25.333 -12.833 -49.833 -38.5 -73.5s-55.5 -35.5 -89.5 -35.5c-26 0 -45.5 5.33301 -58.5 16s-19.5 24.334 -19.5 41.001zM550.998 847.001
c0.666992 -7.33301 3.83105 -13.833 9.49805 -19.5s13.834 -8.5 24.501 -8.5c16.667 0 32.334 7.5 47.001 22.5s22 29.833 22 44.5c0 17.333 -11.667 26 -35 26c-16.667 0 -32.167 -7.16699 -46.5 -21.5s-21.5 -28.833 -21.5 -43.5z" />
    <glyph glyph-name="AE" unicode="&#xc6;" horiz-adv-x="790" 
d="M-1 -26c0 50 48.999 150.334 146.999 301.001c-40 2.66699 -73.333 4 -100 4h-47c16 43.333 55 65 117 65c12.667 0 37 -2 73 -6c74 106.667 143.333 197.334 208 272.001s108.334 112 131.001 112c103.333 0 214.333 -7.66699 333 -23c-12 -32.667 -74 -49 -186 -49
c-25.333 0 -60 0.666992 -104 2c-26 -52 -52 -128.333 -78 -229c38 -1.33301 83.5 -5.66602 136.5 -12.999s80.167 -11 81.5 -11c-12.667 -32.667 -74.667 -49 -186 -49c-24 0 -41 0.333008 -51 1c-23.333 -104.667 -35 -188.334 -35 -251.001c0 -4 1 -15 3 -33
c24 -3.33301 72.5 -8 145.5 -14s120.5 -11.667 142.5 -17c-11.333 -32 -73 -48 -185 -48c-77.333 0 -130 1.33301 -158 4c-24.667 22 -37 66.667 -37 134c0 31.333 4.66699 72.666 14 123.999c-34 5.33301 -81.667 11.666 -143 18.999c-62 -110 -120.667 -228.667 -176 -356
c-30.667 16 -46 36.333 -46 61zM252.999 326.001c14.667 -2.66699 35.832 -7.33301 63.499 -14s46.834 -11 57.501 -13c24 114.667 59.333 226.334 106 335.001c-59.333 -46.667 -135 -149.334 -227 -308.001z" />
    <glyph glyph-name="Ccedilla" unicode="&#xc7;" horiz-adv-x="569" 
d="M32 160c0 86 21 172.669 63 260.002s96.167 159 162.5 215s132.833 84 199.5 84c69.333 0 104 -30.333 104 -91c0 -43.333 -13.333 -90.333 -40 -141s-54.334 -76 -83.001 -76c-16.667 0 -30.334 10.333 -41.001 31c25.333 28 49.833 61.333 73.5 100s35.5 70 35.5 94
c0 26 -15 39 -45 39c-46.667 0 -96.334 -28.333 -149.001 -85s-96.334 -126.334 -131.001 -209.001s-52 -159.334 -52 -230.001c0 -53.333 12 -98.333 36 -135s60.333 -55 109 -55c52 0 104.167 21 156.5 63s92.5 92.333 120.5 151l26 -17
c-28.667 -54 -62.667 -101 -102 -141s-82.666 -68.667 -129.999 -86l-23 -38c22 8 40 12 54 12c16 0 29 -4.33301 39 -13s15 -21 15 -37c0 -28 -13.5 -55 -40.5 -81s-57.5 -39 -91.5 -39c-18.667 0 -34.334 4.33301 -47.001 13s-19 18 -19 28c0 14 10.667 28.333 32 43
c8.66699 -30 22 -45 40 -45c16 0 33.5 10 52.5 30s28.5 37.667 28.5 53c0 10.667 -5.33301 16 -16 16c-8.66699 0 -22.667 -6.16699 -42 -18.5s-31.666 -18.5 -36.999 -18.5s-10.166 2.83301 -14.499 8.5s-6.5 11.167 -6.5 16.5c0 1.33301 4.83301 9 14.5 23
s18.834 26 27.501 36c-23.333 -4.66699 -43.666 -7 -60.999 -7c-71.333 0 -125.5 24.167 -162.5 72.5s-55.5 106.5 -55.5 174.5z" />
    <glyph glyph-name="Egrave" unicode="&#xc8;" horiz-adv-x="533" 
d="M-4 101c0 60 24.499 115.5 73.499 166.5s109.5 81.5 181.5 91.5c-48 42 -72 92.333 -72 151c0 55.333 20.5 104 61.5 146s92.833 63 155.5 63c40.667 0 72 -9.83301 94 -29.5s33 -48.167 33 -85.5c0 -38 -9.5 -73.167 -28.5 -105.5s-38.167 -48.5 -57.5 -48.5
c-16.667 0 -32.667 13.667 -48 41c58.667 48 88 92.667 88 134c0 19.333 -6.5 34.333 -19.5 45s-30.5 16 -52.5 16c-42.667 0 -76.167 -18.5 -100.5 -55.5s-36.5 -80.167 -36.5 -129.5c0 -70 24.667 -124 74 -162c-69.333 -10.667 -126 -40.167 -170 -88.5
s-66 -98.833 -66 -151.5c0 -36 10.667 -68.5 32 -97.5s54 -43.5 98 -43.5c52.667 0 104.834 21.333 156.501 64s91.834 93.667 120.501 153l27 -17c-39.333 -74 -87.333 -133.333 -144 -178s-119 -67 -187 -67c-62.667 0 -113.834 18 -153.501 54s-59.5 80.667 -59.5 134z
M406.999 907c0.666992 12.667 4.16699 22.3311 10.5 28.998s13.5 10 21.5 10c18.667 0 41.667 -15.333 69 -46s41 -53 41 -67c0 -6 -2.33301 -12.667 -7 -20s-10.667 -12.666 -18 -15.999c-32.667 38.667 -71.667 75.334 -117 110.001z" />
    <glyph glyph-name="Eacute" unicode="&#xc9;" horiz-adv-x="533" 
d="M-4 101c0 60 24.499 115.5 73.499 166.5s109.5 81.5 181.5 91.5c-48 42 -72 92.333 -72 151c0 55.333 20.5 104 61.5 146s92.833 63 155.5 63c40.667 0 72 -9.83301 94 -29.5s33 -48.167 33 -85.5c0 -38 -9.5 -73.167 -28.5 -105.5s-38.167 -48.5 -57.5 -48.5
c-16.667 0 -32.667 13.667 -48 41c58.667 48 88 92.667 88 134c0 19.333 -6.5 34.333 -19.5 45s-30.5 16 -52.5 16c-42.667 0 -76.167 -18.5 -100.5 -55.5s-36.5 -80.167 -36.5 -129.5c0 -70 24.667 -124 74 -162c-69.333 -10.667 -126 -40.167 -170 -88.5
s-66 -98.833 -66 -151.5c0 -36 10.667 -68.5 32 -97.5s54 -43.5 98 -43.5c52.667 0 104.834 21.333 156.501 64s91.834 93.667 120.501 153l27 -17c-39.333 -74 -87.333 -133.333 -144 -178s-119 -67 -187 -67c-62.667 0 -113.834 18 -153.501 54s-59.5 80.667 -59.5 134z
M465.999 831c0 13.333 12.499 35.834 37.499 67.501s46.833 47.5 65.5 47.5c17.333 0 27.333 -11.667 30 -35c-56.667 -54.667 -93 -92.334 -109 -113.001c-7.33301 3.33301 -13.166 8.5 -17.499 15.5s-6.5 12.833 -6.5 17.5z" />
    <glyph glyph-name="Ecircumflex" unicode="&#xca;" horiz-adv-x="533" 
d="M-4 101c0 60 24.499 115.5 73.499 166.5s109.5 81.5 181.5 91.5c-48 42 -72 92.333 -72 151c0 55.333 20.5 104 61.5 146s92.833 63 155.5 63c40.667 0 72 -9.83301 94 -29.5s33 -48.167 33 -85.5c0 -38 -9.5 -73.167 -28.5 -105.5s-38.167 -48.5 -57.5 -48.5
c-16.667 0 -32.667 13.667 -48 41c58.667 48 88 92.667 88 134c0 19.333 -6.5 34.333 -19.5 45s-30.5 16 -52.5 16c-42.667 0 -76.167 -18.5 -100.5 -55.5s-36.5 -80.167 -36.5 -129.5c0 -70 24.667 -124 74 -162c-69.333 -10.667 -126 -40.167 -170 -88.5
s-66 -98.833 -66 -151.5c0 -36 10.667 -68.5 32 -97.5s54 -43.5 98 -43.5c52.667 0 104.834 21.333 156.501 64s91.834 93.667 120.501 153l27 -17c-39.333 -74 -87.333 -133.333 -144 -178s-119 -67 -187 -67c-62.667 0 -113.834 18 -153.501 54s-59.5 80.667 -59.5 134z
M381.999 852c0 18 14.999 36.834 44.999 56.501s53.667 29.5 71 29.5c16.667 0 36.834 -12.667 60.501 -38s35.5 -48 35.5 -68c0 -17.333 -8.33301 -30.333 -25 -39c-15.333 26 -39.333 53.667 -72 83c-30.667 -10 -64.667 -27.333 -102 -52
c-8.66699 5.33301 -13 14.666 -13 27.999z" />
    <glyph glyph-name="Edieresis" unicode="&#xcb;" horiz-adv-x="533" 
d="M-4 101c0 60 24.499 115.5 73.499 166.5s109.5 81.5 181.5 91.5c-48 42 -72 92.333 -72 151c0 55.333 20.5 104 61.5 146s92.833 63 155.5 63c40.667 0 72 -9.83301 94 -29.5s33 -48.167 33 -85.5c0 -38 -9.5 -73.167 -28.5 -105.5s-38.167 -48.5 -57.5 -48.5
c-16.667 0 -32.667 13.667 -48 41c58.667 48 88 92.667 88 134c0 19.333 -6.5 34.333 -19.5 45s-30.5 16 -52.5 16c-42.667 0 -76.167 -18.5 -100.5 -55.5s-36.5 -80.167 -36.5 -129.5c0 -70 24.667 -124 74 -162c-69.333 -10.667 -126 -40.167 -170 -88.5
s-66 -98.833 -66 -151.5c0 -36 10.667 -68.5 32 -97.5s54 -43.5 98 -43.5c52.667 0 104.834 21.333 156.501 64s91.834 93.667 120.501 153l27 -17c-39.333 -74 -87.333 -133.333 -144 -178s-119 -67 -187 -67c-62.667 0 -113.834 18 -153.501 54s-59.5 80.667 -59.5 134z
M356.999 857c0 12 7.33398 23 22.001 33s29.667 15 45 15c24 0 36 -10.667 36 -32c0 -12 -6.33301 -23.333 -19 -34s-26.334 -16 -41.001 -16c-12 0 -22.167 2.83301 -30.5 8.5s-12.5 14.167 -12.5 25.5zM502 837c0 12.667 7.16602 23.833 21.499 33.5s29.5 14.5 45.5 14.5
c24.667 0 37 -11 37 -33c0 -12 -6.5 -23.167 -19.5 -33.5s-27.167 -15.5 -42.5 -15.5c-11.333 0 -21.166 3 -29.499 9s-12.5 14.333 -12.5 25z" />
    <glyph glyph-name="Igrave" unicode="&#xcc;" horiz-adv-x="503" 
d="M-18 -88c2 20.667 7.50195 37.501 16.502 50.501s22.167 22.5 39.5 28.5s34.5 10 51.5 12s38.5 3 64.5 3c27.333 58.667 60.666 174.167 99.999 346.5s63.333 271.166 72 296.499c-82.667 -1.33301 -161.667 -9.33301 -237 -24c6.66699 33.333 27.5 57.333 62.5 72
s88.167 22 159.5 22c80 0 176.667 -7.33301 290 -22c-32.667 -31.333 -71.334 -47 -116.001 -47c-50.667 0 -86.667 -0.333008 -108 -1l-6 -30c-1.33301 -8 -13.5 -75.167 -36.5 -201.5s-39.833 -210.833 -50.5 -253.5c-20 -80 -44 -133.333 -72 -160
c8.66699 -0.666992 40 -3.66699 94 -9s98 -8.33301 132 -9c-39.333 -37.333 -84.333 -56 -135 -56c-92.667 0 -157.167 -1 -193.5 -3s-78.833 -7 -127.5 -15zM287.002 907.001c0.666992 12.667 4.16699 22.3311 10.5 28.998s13.5 10 21.5 10c18.667 0 41.667 -15.333 69 -46
s41 -53 41 -67c0 -6 -2.33301 -12.667 -7 -20s-10.667 -12.666 -18 -15.999c-32.667 38.667 -71.667 75.334 -117 110.001z" />
    <glyph glyph-name="Iacute" unicode="&#xcd;" horiz-adv-x="503" 
d="M-18 -88c2 20.667 7.50195 37.501 16.502 50.501s22.167 22.5 39.5 28.5s34.5 10 51.5 12s38.5 3 64.5 3c27.333 58.667 60.666 174.167 99.999 346.5s63.333 271.166 72 296.499c-82.667 -1.33301 -161.667 -9.33301 -237 -24c6.66699 33.333 27.5 57.333 62.5 72
s88.167 22 159.5 22c80 0 176.667 -7.33301 290 -22c-32.667 -31.333 -71.334 -47 -116.001 -47c-50.667 0 -86.667 -0.333008 -108 -1l-6 -30c-1.33301 -8 -13.5 -75.167 -36.5 -201.5s-39.833 -210.833 -50.5 -253.5c-20 -80 -44 -133.333 -72 -160
c8.66699 -0.666992 40 -3.66699 94 -9s98 -8.33301 132 -9c-39.333 -37.333 -84.333 -56 -135 -56c-92.667 0 -157.167 -1 -193.5 -3s-78.833 -7 -127.5 -15zM371.002 831.001c0 13.333 12.499 35.834 37.499 67.501s46.833 47.5 65.5 47.5c17.333 0 27.333 -11.667 30 -35
c-56.667 -54.667 -93 -92.334 -109 -113.001c-7.33301 3.33301 -13.166 8.5 -17.499 15.5s-6.5 12.833 -6.5 17.5z" />
    <glyph glyph-name="Icircumflex" unicode="&#xce;" horiz-adv-x="503" 
d="M-18 -88c2 20.667 7.50195 37.501 16.502 50.501s22.167 22.5 39.5 28.5s34.5 10 51.5 12s38.5 3 64.5 3c27.333 58.667 60.666 174.167 99.999 346.5s63.333 271.166 72 296.499c-82.667 -1.33301 -161.667 -9.33301 -237 -24c6.66699 33.333 27.5 57.333 62.5 72
s88.167 22 159.5 22c80 0 176.667 -7.33301 290 -22c-32.667 -31.333 -71.334 -47 -116.001 -47c-50.667 0 -86.667 -0.333008 -108 -1l-6 -30c-1.33301 -8 -13.5 -75.167 -36.5 -201.5s-39.833 -210.833 -50.5 -253.5c-20 -80 -44 -133.333 -72 -160
c8.66699 -0.666992 40 -3.66699 94 -9s98 -8.33301 132 -9c-39.333 -37.333 -84.333 -56 -135 -56c-92.667 0 -157.167 -1 -193.5 -3s-78.833 -7 -127.5 -15zM294.002 852.001c0 18 14.999 36.834 44.999 56.501s53.667 29.5 71 29.5c16.667 0 36.834 -12.667 60.501 -38
s35.5 -48 35.5 -68c0 -17.333 -8.33301 -30.333 -25 -39c-15.333 26 -39.333 53.667 -72 83c-30.667 -10 -64.667 -27.333 -102 -52c-8.66699 5.33301 -13 14.666 -13 27.999z" />
    <glyph glyph-name="Idieresis" unicode="&#xcf;" horiz-adv-x="503" 
d="M-18 -88c2 20.667 7.50195 37.501 16.502 50.501s22.167 22.5 39.5 28.5s34.5 10 51.5 12s38.5 3 64.5 3c27.333 58.667 60.666 174.167 99.999 346.5s63.333 271.166 72 296.499c-82.667 -1.33301 -161.667 -9.33301 -237 -24c6.66699 33.333 27.5 57.333 62.5 72
s88.167 22 159.5 22c80 0 176.667 -7.33301 290 -22c-32.667 -31.333 -71.334 -47 -116.001 -47c-50.667 0 -86.667 -0.333008 -108 -1l-6 -30c-1.33301 -8 -13.5 -75.167 -36.5 -201.5s-39.833 -210.833 -50.5 -253.5c-20 -80 -44 -133.333 -72 -160
c8.66699 -0.666992 40 -3.66699 94 -9s98 -8.33301 132 -9c-39.333 -37.333 -84.333 -56 -135 -56c-92.667 0 -157.167 -1 -193.5 -3s-78.833 -7 -127.5 -15zM293.002 857.001c0 12 7.33398 23 22.001 33s29.667 15 45 15c24 0 36 -10.667 36 -32
c0 -12 -6.33301 -23.333 -19 -34s-26.334 -16 -41.001 -16c-12 0 -22.167 2.83301 -30.5 8.5s-12.5 14.167 -12.5 25.5zM438.003 837.001c0 12.667 7.16602 23.833 21.499 33.5s29.5 14.5 45.5 14.5c24.667 0 37 -11 37 -33c0 -12 -6.5 -23.167 -19.5 -33.5
s-27.167 -15.5 -42.5 -15.5c-11.333 0 -21.166 3 -29.499 9s-12.5 14.333 -12.5 25z" />
    <glyph glyph-name="Eth" unicode="&#xd0;" horiz-adv-x="688" 
d="M28 265c19.333 37.333 66.6641 58.332 141.997 62.999c28.667 92 52.334 161.667 71.001 209c4.66699 12 9.83398 24 15.501 36s15.167 25.167 28.5 39.5s27 21.5 41 21.5c11.333 0 24 -4.66699 38 -14c-38 -85.333 -74.333 -182 -109 -290c40 0 101 -3.33301 183 -10
c-40 -27.333 -82.333 -41 -127 -41h-72c-38 -118.667 -67.333 -226.334 -88 -323.001c15.333 -2 28 -3 38 -3c69.333 0 135.833 24.5 199.5 73.5s114.334 111.5 152.001 187.5s56.5 153.333 56.5 232c0 77.333 -19.167 135.5 -57.5 174.5s-90.5 58.5 -156.5 58.5
c-65.333 0 -119.5 -17.167 -162.5 -51.5s-64.5 -77.166 -64.5 -128.499c0 -18 3 -34 9 -48c-53.333 0 -80 21.333 -80 64c0 48.667 33 95 99 139s143 66 231 66c92.667 0 161 -26.333 205 -79s66 -121.334 66 -206.001c0 -69.333 -14.333 -136.666 -43 -201.999
s-66.167 -121.166 -112.5 -167.499s-99.333 -83.333 -159 -111s-119.5 -41.5 -179.5 -41.5c-56 0 -96.667 16.667 -122 50c16.667 82.667 44.667 187.667 84 315c-26 -0.666992 -68 -5 -126 -13z" />
    <glyph glyph-name="Ntilde" unicode="&#xd1;" horiz-adv-x="674" 
d="M56 -87l212 703.001c4.66699 18.667 7 31.667 7 39c0 9.33301 -4.33301 14 -13 14c-26.667 0 -51.334 -19 -74.001 -57s-34 -73 -34 -105c0 -16 3.33301 -31.667 10 -47c-53.333 0 -80 21.667 -80 65s24.333 86.666 73 129.999s93.334 65 134.001 65
c11.333 0 21.833 -2 31.5 -6s18.334 -10.833 26.001 -20.5s14.5 -19.167 20.5 -28.5s11.667 -22.833 17 -40.5s9.66602 -32.834 12.999 -45.501s7.16602 -30.834 11.499 -54.501s7.5 -42.5 9.5 -56.5l9 -61c20.667 -143.333 36 -241 46 -293l36 152l40 170
c10.667 43.333 23 88 37 134s26.667 78.667 38 98c20 35.333 47 53 81 53c-38.667 -100.667 -81 -242.167 -127 -424.5s-69 -310.166 -69 -383.499c-26 0 -46.667 6.16699 -62 18.5s-26.666 34.833 -33.999 67.5c-2.66699 10.667 -37 196 -103 556
c-78 -283.333 -131 -461.166 -159 -533.499s-60.333 -108.5 -97 -108.5zM363 802.001c12.667 14.667 27.6699 27.833 45.0029 39.5s32.333 17.5 45 17.5c19.333 0 49.666 -6.66699 90.999 -20s73.333 -20 96 -20c18 0 40.667 2.33301 68 7c-34 -36 -64.667 -54 -92 -54
c-20.667 0 -52.834 6.33301 -96.501 19s-75.167 19 -94.5 19c-10.667 0 -31.334 -2.66699 -62.001 -8z" />
    <glyph glyph-name="Ograve" unicode="&#xd2;" horiz-adv-x="655" 
d="M32 164c0 84 20.833 169.165 62.5 255.498s96.834 157.833 165.501 214.5s138.667 85 210 85c27.333 0 50 -9.33301 68 -28c-10.667 1.33301 -20.334 2 -29.001 2c-56 0 -113.333 -28 -172 -84s-106.834 -126 -144.501 -210s-56.5 -164.333 -56.5 -241
c0 -57.333 11.5 -104.5 34.5 -141.5s58.5 -55.5 106.5 -55.5c44 0 86.167 17 126.5 51s73.833 77.167 100.5 129.5s48 109 64 170s24 119.167 24 174.5c0 36.667 -3.5 69.834 -10.5 99.501s-18.5 44.5 -34.5 44.5c-21.333 0 -46.166 -24.5 -74.499 -73.5
s-46.833 -94.833 -55.5 -137.5c-42 8.66699 -63 28 -63 58c0 36 23 77.333 69 124s88 70 126 70c18.667 0 34.667 -7 48 -21s23.166 -32.833 29.499 -56.5s10.833 -47.167 13.5 -70.5s4 -47.666 4 -72.999c0 -81.333 -13 -156.833 -39 -226.5s-59 -126.5 -99 -170.5
s-83.167 -78.333 -129.5 -103s-91.166 -37 -134.499 -37c-60 0 -110 22.833 -150 68.5s-60 106.5 -60 182.5zM437 906.998c0.666992 12.667 4.16699 22.3311 10.5 28.998s13.5 10 21.5 10c18.667 0 41.667 -15.333 69 -46s41 -53 41 -67c0 -6 -2.33301 -12.667 -7 -20
s-10.667 -12.666 -18 -15.999c-32.667 38.667 -71.667 75.334 -117 110.001z" />
    <glyph glyph-name="Oacute" unicode="&#xd3;" horiz-adv-x="655" 
d="M32 164c0 84 20.833 169.165 62.5 255.498s96.834 157.833 165.501 214.5s138.667 85 210 85c27.333 0 50 -9.33301 68 -28c-10.667 1.33301 -20.334 2 -29.001 2c-56 0 -113.333 -28 -172 -84s-106.834 -126 -144.501 -210s-56.5 -164.333 -56.5 -241
c0 -57.333 11.5 -104.5 34.5 -141.5s58.5 -55.5 106.5 -55.5c44 0 86.167 17 126.5 51s73.833 77.167 100.5 129.5s48 109 64 170s24 119.167 24 174.5c0 36.667 -3.5 69.834 -10.5 99.501s-18.5 44.5 -34.5 44.5c-21.333 0 -46.166 -24.5 -74.499 -73.5
s-46.833 -94.833 -55.5 -137.5c-42 8.66699 -63 28 -63 58c0 36 23 77.333 69 124s88 70 126 70c18.667 0 34.667 -7 48 -21s23.166 -32.833 29.499 -56.5s10.833 -47.167 13.5 -70.5s4 -47.666 4 -72.999c0 -81.333 -13 -156.833 -39 -226.5s-59 -126.5 -99 -170.5
s-83.167 -78.333 -129.5 -103s-91.166 -37 -134.499 -37c-60 0 -110 22.833 -150 68.5s-60 106.5 -60 182.5zM482 830.998c0 13.333 12.499 35.834 37.499 67.501s46.833 47.5 65.5 47.5c17.333 0 27.333 -11.667 30 -35c-56.667 -54.667 -93 -92.334 -109 -113.001
c-7.33301 3.33301 -13.166 8.5 -17.499 15.5s-6.5 12.833 -6.5 17.5z" />
    <glyph glyph-name="Ocircumflex" unicode="&#xd4;" horiz-adv-x="655" 
d="M32 164c0 84 20.833 169.165 62.5 255.498s96.834 157.833 165.501 214.5s138.667 85 210 85c27.333 0 50 -9.33301 68 -28c-10.667 1.33301 -20.334 2 -29.001 2c-56 0 -113.333 -28 -172 -84s-106.834 -126 -144.501 -210s-56.5 -164.333 -56.5 -241
c0 -57.333 11.5 -104.5 34.5 -141.5s58.5 -55.5 106.5 -55.5c44 0 86.167 17 126.5 51s73.833 77.167 100.5 129.5s48 109 64 170s24 119.167 24 174.5c0 36.667 -3.5 69.834 -10.5 99.501s-18.5 44.5 -34.5 44.5c-21.333 0 -46.166 -24.5 -74.499 -73.5
s-46.833 -94.833 -55.5 -137.5c-42 8.66699 -63 28 -63 58c0 36 23 77.333 69 124s88 70 126 70c18.667 0 34.667 -7 48 -21s23.166 -32.833 29.499 -56.5s10.833 -47.167 13.5 -70.5s4 -47.666 4 -72.999c0 -81.333 -13 -156.833 -39 -226.5s-59 -126.5 -99 -170.5
s-83.167 -78.333 -129.5 -103s-91.166 -37 -134.499 -37c-60 0 -110 22.833 -150 68.5s-60 106.5 -60 182.5zM422 851.998c0 18 14.999 36.834 44.999 56.501s53.667 29.5 71 29.5c16.667 0 36.834 -12.667 60.501 -38s35.5 -48 35.5 -68
c0 -17.333 -8.33301 -30.333 -25 -39c-15.333 26 -39.333 53.667 -72 83c-30.667 -10 -64.667 -27.333 -102 -52c-8.66699 5.33301 -13 14.666 -13 27.999z" />
    <glyph glyph-name="Otilde" unicode="&#xd5;" horiz-adv-x="655" 
d="M32 164c0 84 20.833 169.165 62.5 255.498s96.834 157.833 165.501 214.5s138.667 85 210 85c27.333 0 50 -9.33301 68 -28c-10.667 1.33301 -20.334 2 -29.001 2c-56 0 -113.333 -28 -172 -84s-106.834 -126 -144.501 -210s-56.5 -164.333 -56.5 -241
c0 -57.333 11.5 -104.5 34.5 -141.5s58.5 -55.5 106.5 -55.5c44 0 86.167 17 126.5 51s73.833 77.167 100.5 129.5s48 109 64 170s24 119.167 24 174.5c0 36.667 -3.5 69.834 -10.5 99.501s-18.5 44.5 -34.5 44.5c-21.333 0 -46.166 -24.5 -74.499 -73.5
s-46.833 -94.833 -55.5 -137.5c-42 8.66699 -63 28 -63 58c0 36 23 77.333 69 124s88 70 126 70c18.667 0 34.667 -7 48 -21s23.166 -32.833 29.499 -56.5s10.833 -47.167 13.5 -70.5s4 -47.666 4 -72.999c0 -81.333 -13 -156.833 -39 -226.5s-59 -126.5 -99 -170.5
s-83.167 -78.333 -129.5 -103s-91.166 -37 -134.499 -37c-60 0 -110 22.833 -150 68.5s-60 106.5 -60 182.5zM393 801.998c12.667 14.667 27.6699 27.833 45.0029 39.5s32.333 17.5 45 17.5c19.333 0 49.666 -6.66699 90.999 -20s73.333 -20 96 -20
c18 0 40.667 2.33301 68 7c-34 -36 -64.667 -54 -92 -54c-20.667 0 -52.834 6.33301 -96.501 19s-75.167 19 -94.5 19c-10.667 0 -31.334 -2.66699 -62.001 -8z" />
    <glyph glyph-name="Odieresis" unicode="&#xd6;" horiz-adv-x="655" 
d="M32 164c0 84 20.833 169.165 62.5 255.498s96.834 157.833 165.501 214.5s138.667 85 210 85c27.333 0 50 -9.33301 68 -28c-10.667 1.33301 -20.334 2 -29.001 2c-56 0 -113.333 -28 -172 -84s-106.834 -126 -144.501 -210s-56.5 -164.333 -56.5 -241
c0 -57.333 11.5 -104.5 34.5 -141.5s58.5 -55.5 106.5 -55.5c44 0 86.167 17 126.5 51s73.833 77.167 100.5 129.5s48 109 64 170s24 119.167 24 174.5c0 36.667 -3.5 69.834 -10.5 99.501s-18.5 44.5 -34.5 44.5c-21.333 0 -46.166 -24.5 -74.499 -73.5
s-46.833 -94.833 -55.5 -137.5c-42 8.66699 -63 28 -63 58c0 36 23 77.333 69 124s88 70 126 70c18.667 0 34.667 -7 48 -21s23.166 -32.833 29.499 -56.5s10.833 -47.167 13.5 -70.5s4 -47.666 4 -72.999c0 -81.333 -13 -156.833 -39 -226.5s-59 -126.5 -99 -170.5
s-83.167 -78.333 -129.5 -103s-91.166 -37 -134.499 -37c-60 0 -110 22.833 -150 68.5s-60 106.5 -60 182.5zM404 856.998c0 12 7.33398 23 22.001 33s29.667 15 45 15c24 0 36 -10.667 36 -32c0 -12 -6.33301 -23.333 -19 -34s-26.334 -16 -41.001 -16
c-12 0 -22.167 2.83301 -30.5 8.5s-12.5 14.167 -12.5 25.5zM549.001 836.998c0 12.667 7.16602 23.833 21.499 33.5s29.5 14.5 45.5 14.5c24.667 0 37 -11 37 -33c0 -12 -6.5 -23.167 -19.5 -33.5s-27.167 -15.5 -42.5 -15.5c-11.333 0 -21.166 3 -29.499 9
s-12.5 14.333 -12.5 25z" />
    <glyph glyph-name="multiply" unicode="&#xd7;" horiz-adv-x="405" 
d="M58 46c0 27.333 27.3379 70.668 82.0049 130.001c-45.333 46.667 -68 83 -68 109c0 7.33301 3 17 9 29c25.333 -32 57 -66.667 95 -104c45.333 42.667 89.666 80 132.999 112c-2.66699 -21.333 -8.33398 -40.833 -17.001 -58.5s-16.334 -30.5 -23.001 -38.5
s-16.834 -18 -30.501 -30s-21.167 -18.667 -22.5 -20l49 -45c30 -28.667 50 -65.334 60 -110.001c-49.333 36 -97.333 75 -144 117l-3 3c-42.667 -40 -79.334 -80.333 -110.001 -121c-6.66699 10.667 -10 19.667 -10 27z" />
    <glyph glyph-name="Oslash" unicode="&#xd8;" horiz-adv-x="654" 
d="M30 166c0 82.667 21.1738 167.167 63.5068 253.5s97.166 157.666 164.499 213.999s134.666 84.5 201.999 84.5c29.333 0 50.333 -8.66699 63 -26h-14c-56.667 0 -114.334 -28 -173.001 -84s-106.834 -125.833 -144.501 -209.5s-56.5 -163.834 -56.5 -240.501
c0 -52.667 8.66699 -96 26 -130c101.333 122.667 238.333 314.334 411 575.001c-7.33301 17.333 -16 26 -26 26c-21.333 0 -46.333 -24.833 -75 -74.5s-47.334 -95.167 -56.001 -136.5c-41.333 9.33301 -62 28.666 -62 57.999c0 36 23 77.333 69 124s87 70 123 70
c21.333 0 39.666 -9.33301 54.999 -28c5.33301 7.33301 16.333 14 33 20s32.667 9 48 9c8 0 17.667 -1 29 -3c-4.66699 -6 -30 -42.333 -76 -109c6.66699 -29.333 10 -63.666 10 -102.999c0 -67.333 -8.5 -130.833 -25.5 -190.5s-39.5 -110.5 -67.5 -152.5
s-59.667 -78.5 -95 -109.5s-71.166 -54 -107.499 -69s-71.5 -22.5 -105.5 -22.5c-28.667 0 -57.334 6 -86.001 18c-31.333 -20.667 -60.333 -31 -87 -31c-8.66699 0 -21.334 1.66699 -38.001 5c25.333 16.667 49.333 37.334 72 62.001c-49.333 47.333 -74 114 -74 200z
M211.007 -25c18.667 -10 39.333 -15 62 -15c45.333 0 88.333 17.167 129 51.5s74.5 78 101.5 131s48.333 110.833 64 173.5s23.5 123 23.5 181l-320 -451c-23.333 -31.333 -43.333 -55 -60 -71z" />
    <glyph glyph-name="Ugrave" unicode="&#xd9;" horiz-adv-x="750" 
d="M33 536c0 43.333 20.001 84.6689 60.001 124.002s87.333 59 142 59c77.333 0 116 -43 116 -129c0 -50 -20 -139.333 -60 -268c-38 -120.667 -57 -203 -57 -247c0 -72.667 27.667 -109 83 -109c34 0 66 15.167 96 45.5s53.333 64 70 101s29.667 75.167 39 114.5l27 107
l27 106c12.667 47.333 23.334 84 32.001 110l30 83c11.333 30 22.166 51.833 32.499 65.5s20.166 20.5 29.499 20.5c14.667 0 36 -13 64 -39c-12.667 -9.33301 -33.667 -52 -63 -128s-57 -164.333 -83 -265s-39 -181.667 -39 -243c0 -40.667 6.83301 -67.834 20.5 -81.501
s38.167 -20.5 73.5 -20.5c-7.33301 -12 -19.5 -21.833 -36.5 -29.5s-33.167 -11.5 -48.5 -11.5c-24.667 0 -45.834 10.833 -63.501 32.5s-26.5 48.167 -26.5 79.5c0 5.33301 0.666992 22.666 2 51.999c-55.333 -102 -126.333 -153 -213 -153
c-44.667 0 -79.5 13.333 -104.5 40s-37.5 64 -37.5 112s20 133.667 60 257s60 212.333 60 267c0 60 -18 90 -54 90c-31.333 0 -56.166 -18 -74.499 -54s-27.5 -69.667 -27.5 -101c0 -20.667 4.33301 -42 13 -64c-59.333 0 -89 25.667 -89 77zM422.001 907.003
c0.666992 12.667 4.16699 22.3311 10.5 28.998s13.5 10 21.5 10c18.667 0 41.667 -15.333 69 -46s41 -53 41 -67c0 -6 -2.33301 -12.667 -7 -20s-10.667 -12.666 -18 -15.999c-32.667 38.667 -71.667 75.334 -117 110.001z" />
    <glyph glyph-name="Uacute" unicode="&#xda;" horiz-adv-x="750" 
d="M33 536c0 43.333 20.001 84.6689 60.001 124.002s87.333 59 142 59c77.333 0 116 -43 116 -129c0 -50 -20 -139.333 -60 -268c-38 -120.667 -57 -203 -57 -247c0 -72.667 27.667 -109 83 -109c34 0 66 15.167 96 45.5s53.333 64 70 101s29.667 75.167 39 114.5l27 107
l27 106c12.667 47.333 23.334 84 32.001 110l30 83c11.333 30 22.166 51.833 32.499 65.5s20.166 20.5 29.499 20.5c14.667 0 36 -13 64 -39c-12.667 -9.33301 -33.667 -52 -63 -128s-57 -164.333 -83 -265s-39 -181.667 -39 -243c0 -40.667 6.83301 -67.834 20.5 -81.501
s38.167 -20.5 73.5 -20.5c-7.33301 -12 -19.5 -21.833 -36.5 -29.5s-33.167 -11.5 -48.5 -11.5c-24.667 0 -45.834 10.833 -63.501 32.5s-26.5 48.167 -26.5 79.5c0 5.33301 0.666992 22.666 2 51.999c-55.333 -102 -126.333 -153 -213 -153
c-44.667 0 -79.5 13.333 -104.5 40s-37.5 64 -37.5 112s20 133.667 60 257s60 212.333 60 267c0 60 -18 90 -54 90c-31.333 0 -56.166 -18 -74.499 -54s-27.5 -69.667 -27.5 -101c0 -20.667 4.33301 -42 13 -64c-59.333 0 -89 25.667 -89 77zM527.001 831.003
c0 13.333 12.499 35.834 37.499 67.501s46.833 47.5 65.5 47.5c17.333 0 27.333 -11.667 30 -35c-56.667 -54.667 -93 -92.334 -109 -113.001c-7.33301 3.33301 -13.166 8.5 -17.499 15.5s-6.5 12.833 -6.5 17.5z" />
    <glyph glyph-name="Ucircumflex" unicode="&#xdb;" horiz-adv-x="750" 
d="M33 536c0 43.333 20.001 84.6689 60.001 124.002s87.333 59 142 59c77.333 0 116 -43 116 -129c0 -50 -20 -139.333 -60 -268c-38 -120.667 -57 -203 -57 -247c0 -72.667 27.667 -109 83 -109c34 0 66 15.167 96 45.5s53.333 64 70 101s29.667 75.167 39 114.5l27 107
l27 106c12.667 47.333 23.334 84 32.001 110l30 83c11.333 30 22.166 51.833 32.499 65.5s20.166 20.5 29.499 20.5c14.667 0 36 -13 64 -39c-12.667 -9.33301 -33.667 -52 -63 -128s-57 -164.333 -83 -265s-39 -181.667 -39 -243c0 -40.667 6.83301 -67.834 20.5 -81.501
s38.167 -20.5 73.5 -20.5c-7.33301 -12 -19.5 -21.833 -36.5 -29.5s-33.167 -11.5 -48.5 -11.5c-24.667 0 -45.834 10.833 -63.501 32.5s-26.5 48.167 -26.5 79.5c0 5.33301 0.666992 22.666 2 51.999c-55.333 -102 -126.333 -153 -213 -153
c-44.667 0 -79.5 13.333 -104.5 40s-37.5 64 -37.5 112s20 133.667 60 257s60 212.333 60 267c0 60 -18 90 -54 90c-31.333 0 -56.166 -18 -74.499 -54s-27.5 -69.667 -27.5 -101c0 -20.667 4.33301 -42 13 -64c-59.333 0 -89 25.667 -89 77zM447.001 852.003
c0 18 14.999 36.834 44.999 56.501s53.667 29.5 71 29.5c16.667 0 36.834 -12.667 60.501 -38s35.5 -48 35.5 -68c0 -17.333 -8.33301 -30.333 -25 -39c-15.333 26 -39.333 53.667 -72 83c-30.667 -10 -64.667 -27.333 -102 -52c-8.66699 5.33301 -13 14.666 -13 27.999z
" />
    <glyph glyph-name="Udieresis" unicode="&#xdc;" horiz-adv-x="750" 
d="M33 536c0 43.333 20.001 84.6689 60.001 124.002s87.333 59 142 59c77.333 0 116 -43 116 -129c0 -50 -20 -139.333 -60 -268c-38 -120.667 -57 -203 -57 -247c0 -72.667 27.667 -109 83 -109c34 0 66 15.167 96 45.5s53.333 64 70 101s29.667 75.167 39 114.5l27 107
l27 106c12.667 47.333 23.334 84 32.001 110l30 83c11.333 30 22.166 51.833 32.499 65.5s20.166 20.5 29.499 20.5c14.667 0 36 -13 64 -39c-12.667 -9.33301 -33.667 -52 -63 -128s-57 -164.333 -83 -265s-39 -181.667 -39 -243c0 -40.667 6.83301 -67.834 20.5 -81.501
s38.167 -20.5 73.5 -20.5c-7.33301 -12 -19.5 -21.833 -36.5 -29.5s-33.167 -11.5 -48.5 -11.5c-24.667 0 -45.834 10.833 -63.501 32.5s-26.5 48.167 -26.5 79.5c0 5.33301 0.666992 22.666 2 51.999c-55.333 -102 -126.333 -153 -213 -153
c-44.667 0 -79.5 13.333 -104.5 40s-37.5 64 -37.5 112s20 133.667 60 257s60 212.333 60 267c0 60 -18 90 -54 90c-31.333 0 -56.166 -18 -74.499 -54s-27.5 -69.667 -27.5 -101c0 -20.667 4.33301 -42 13 -64c-59.333 0 -89 25.667 -89 77zM428.001 857.003
c0 12 7.33398 23 22.001 33s29.667 15 45 15c24 0 36 -10.667 36 -32c0 -12 -6.33301 -23.333 -19 -34s-26.334 -16 -41.001 -16c-12 0 -22.167 2.83301 -30.5 8.5s-12.5 14.167 -12.5 25.5zM573.002 837.003c0 12.667 7.16602 23.833 21.499 33.5s29.5 14.5 45.5 14.5
c24.667 0 37 -11 37 -33c0 -12 -6.5 -23.167 -19.5 -33.5s-27.167 -15.5 -42.5 -15.5c-11.333 0 -21.166 3 -29.499 9s-12.5 14.333 -12.5 25z" />
    <glyph glyph-name="Yacute" unicode="&#xdd;" horiz-adv-x="706" 
d="M32 536c0 43.333 19.8311 84.835 59.498 124.502s87.167 59.5 142.5 59.5c38 0 67 -10.333 87 -31s30 -47 30 -79c0 -23.333 -9.33301 -68.333 -28 -135c-24 -86 -36 -146.667 -36 -182c0 -62.667 23.667 -94 71 -94c42.667 0 82.334 22.833 119.001 68.5
s66.667 102.834 90 171.501l20 66l24 77c6.66699 21.333 14.5 43.5 23.5 66.5s18.5 40.667 28.5 53s20 18.5 30 18.5c20 0 42.667 -12.667 68 -38c-34.667 -53.333 -60.667 -106.166 -78 -158.499s-46.333 -162.5 -87 -330.5c-10 -41.333 -19.667 -77 -29 -107
s-22.666 -63.333 -39.999 -100s-36.166 -66.667 -56.499 -90s-46.5 -43 -78.5 -59s-67.333 -24 -106 -24c-42.667 0 -77.334 8.66699 -104.001 26s-40 41.666 -40 72.999c0 21.333 6.66699 40.166 20 56.499s32 27.166 56 32.499c-7.33301 -32.667 -11 -55.334 -11 -68.001
c0 -56.667 30.333 -85 91 -85c37.333 0 69.5 11 96.5 33s47.833 51.833 62.5 89.5s26.334 74.167 35.001 109.5s16.5 74.5 23.5 117.5s13.167 72.833 18.5 89.5c-58.667 -94.667 -128.334 -142 -209.001 -142c-42 0 -73 11.667 -93 35s-30 54.333 -30 93
c0 33.333 10.667 90 32 170s32 134.333 32 163c0 48 -18 72 -54 72c-32.667 0 -58 -17.167 -76 -51.5s-27 -71.5 -27 -111.5c0 -16 4 -34.667 12 -56c-59.333 0 -89 25.667 -89 77zM507.998 831.002c0 13.333 12.499 35.834 37.499 67.501s46.833 47.5 65.5 47.5
c17.333 0 27.333 -11.667 30 -35c-56.667 -54.667 -93 -92.334 -109 -113.001c-7.33301 3.33301 -13.166 8.5 -17.499 15.5s-6.5 12.833 -6.5 17.5z" />
    <glyph glyph-name="Thorn" unicode="&#xde;" horiz-adv-x="543" 
d="M49 -30c0 11.333 4.32812 30.0029 12.9951 56.0029c68 212 128 384 180 516c-22.667 -4.66699 -45 -11.5 -67 -20.5s-39.333 -16.833 -52 -23.5s-20.667 -10 -24 -10c-6 0 -14.167 4.66699 -24.5 14s-15.5 17.666 -15.5 24.999c78 30.667 144.667 48.667 200 54
c2.66699 6 6.83398 16.5 12.501 31.5s10.667 27.5 15 37.5s9.83301 20.667 16.5 32s14.167 19.833 22.5 25.5s17.5 8.5 27.5 8.5c10.667 0 21.334 -6 32.001 -18c-19.333 -38.667 -36.333 -77.667 -51 -117c65.333 -8.66699 121.5 -29.834 168.5 -63.501
s70.5 -79.167 70.5 -136.5c0 -34.667 -9.66699 -65.834 -29 -93.501s-43 -49.5 -71 -65.5s-60.167 -29.333 -96.5 -40s-68.666 -18.167 -96.999 -22.5s-55.166 -6.83301 -80.499 -7.5c-8.66699 -29.333 -20.167 -71 -34.5 -125s-24.833 -92 -31.5 -114
c-21.333 0 -40.666 5.5 -57.999 16.5s-26 24.5 -26 40.5zM207.995 186.003c78.667 10 145.499 33.499 200.499 70.499s82.5 85.5 82.5 145.5c0 46.667 -16.5 81.834 -49.5 105.501s-73.5 36.5 -121.5 38.5c-33.333 -90.667 -70.666 -210.667 -111.999 -360z" />
    <glyph glyph-name="germandbls" unicode="&#xdf;" horiz-adv-x="471" 
d="M-43 -115c10 12.667 19.335 38.502 28.002 77.502s17 83.167 25 132.5l25 162c9.33301 58 21.333 114.5 36 169.5s31.5 105 50.5 150s43.5 81.167 73.5 108.5s63.667 41 101 41c34 0 62.333 -10.5 85 -31.5s34 -49.833 34 -86.5c0 -46 -16.833 -89.5 -50.5 -130.5
s-73.5 -74.833 -119.5 -101.5c46.667 -14 83 -40.667 109 -80s39 -84.333 39 -135c0 -60.667 -17.167 -116.334 -51.5 -167.001s-76.166 -76 -125.499 -76c-35.333 0 -60.333 13 -75 39s-22 58 -22 96c0 35.333 5.66699 65 17 89s28 36 50 36
c8.66699 0 21.667 -1.66699 39 -5c-14 -7.33301 -26 -25.333 -36 -54s-15 -59.667 -15 -93c0 -49.333 10.667 -74 32 -74c22 0 45.167 23.167 69.5 69.5s36.5 93.833 36.5 142.5c0 74.667 -27.667 135 -83 181c-16 12.667 -24 23.667 -24 33s9 21.666 27 36.999
c22.667 20 40.667 37 54 51s26.666 34.167 39.999 60.5s20 53.5 20 81.5c0 51.333 -19.333 77 -58 77c-37.333 0 -68.333 -25.5 -93 -76.5s-43.334 -113.833 -56.001 -188.5l-39 -227c-12.667 -76.667 -30.834 -144.5 -54.501 -203.5s-53.167 -93.833 -88.5 -104.5z" />
    <glyph glyph-name="agrave" unicode="&#xe0;" horiz-adv-x="444" 
d="M-26 41c0 38.667 13.668 81.665 41.001 128.998s63.5 88 108.5 122s89.5 51 133.5 51c29.333 0 53.833 -7.5 73.5 -22.5s29.5 -34.167 29.5 -57.5c0 -30.667 -19 -46.667 -57 -48c24 -7.33301 36 -17.333 36 -30c0 -7.33301 -9.5 -27.166 -28.5 -59.499
s-28.5 -56.5 -28.5 -72.5c0 -24 10 -36 30 -36c18.667 0 42.5 13 71.5 39s57.167 65 84.5 117l19 -19c-24.667 -55.333 -55.334 -99.833 -92.001 -133.5s-73.667 -50.5 -111 -50.5c-26.667 0 -47.167 8.83301 -61.5 26.5s-21.5 37.834 -21.5 60.501
c-30 -36 -55.667 -62.333 -77 -79s-44 -25 -68 -25c-23.333 0 -42.833 7.66699 -58.5 23s-23.5 37 -23.5 65zM54.001 35.998c0 -21.333 7.66602 -32.001 22.999 -32.001c8.66699 0 17.834 2.5 27.501 7.5s20.167 12.5 31.5 22.5l31 30c10 10 21.333 23 34 39l30 38l29 39
l24 33c2 3.33301 4.66699 5 8 5h2l2 -1c3.33301 10.667 5 23 5 37c0 34.667 -14 52 -42 52c-44 0 -89.167 -32.667 -135.5 -98s-69.5 -122.666 -69.5 -171.999zM179 518.997c0.666992 12.667 4.16699 22.3311 10.5 28.998s13.5 10 21.5 10c18.667 0 41.667 -15.333 69 -46
s41 -53 41 -67c0 -6 -2.33301 -12.667 -7 -20s-10.667 -12.666 -18 -15.999c-32.667 38.667 -71.667 75.334 -117 110.001z" />
    <glyph glyph-name="aacute" unicode="&#xe1;" horiz-adv-x="444" 
d="M-26 41c0 38.667 13.668 81.665 41.001 128.998s63.5 88 108.5 122s89.5 51 133.5 51c29.333 0 53.833 -7.5 73.5 -22.5s29.5 -34.167 29.5 -57.5c0 -30.667 -19 -46.667 -57 -48c24 -7.33301 36 -17.333 36 -30c0 -7.33301 -9.5 -27.166 -28.5 -59.499
s-28.5 -56.5 -28.5 -72.5c0 -24 10 -36 30 -36c18.667 0 42.5 13 71.5 39s57.167 65 84.5 117l19 -19c-24.667 -55.333 -55.334 -99.833 -92.001 -133.5s-73.667 -50.5 -111 -50.5c-26.667 0 -47.167 8.83301 -61.5 26.5s-21.5 37.834 -21.5 60.501
c-30 -36 -55.667 -62.333 -77 -79s-44 -25 -68 -25c-23.333 0 -42.833 7.66699 -58.5 23s-23.5 37 -23.5 65zM54.001 35.998c0 -21.333 7.66602 -32.001 22.999 -32.001c8.66699 0 17.834 2.5 27.501 7.5s20.167 12.5 31.5 22.5l31 30c10 10 21.333 23 34 39l30 38l29 39
l24 33c2 3.33301 4.66699 5 8 5h2l2 -1c3.33301 10.667 5 23 5 37c0 34.667 -14 52 -42 52c-44 0 -89.167 -32.667 -135.5 -98s-69.5 -122.666 -69.5 -171.999zM274 442.997c0 13.333 12.499 35.834 37.499 67.501s46.833 47.5 65.5 47.5c17.333 0 27.333 -11.667 30 -35
c-56.667 -54.667 -93 -92.334 -109 -113.001c-7.33301 3.33301 -13.166 8.5 -17.499 15.5s-6.5 12.833 -6.5 17.5z" />
    <glyph glyph-name="acircumflex" unicode="&#xe2;" horiz-adv-x="444" 
d="M-26 41c0 38.667 13.668 81.665 41.001 128.998s63.5 88 108.5 122s89.5 51 133.5 51c29.333 0 53.833 -7.5 73.5 -22.5s29.5 -34.167 29.5 -57.5c0 -30.667 -19 -46.667 -57 -48c24 -7.33301 36 -17.333 36 -30c0 -7.33301 -9.5 -27.166 -28.5 -59.499
s-28.5 -56.5 -28.5 -72.5c0 -24 10 -36 30 -36c18.667 0 42.5 13 71.5 39s57.167 65 84.5 117l19 -19c-24.667 -55.333 -55.334 -99.833 -92.001 -133.5s-73.667 -50.5 -111 -50.5c-26.667 0 -47.167 8.83301 -61.5 26.5s-21.5 37.834 -21.5 60.501
c-30 -36 -55.667 -62.333 -77 -79s-44 -25 -68 -25c-23.333 0 -42.833 7.66699 -58.5 23s-23.5 37 -23.5 65zM54.001 35.998c0 -21.333 7.66602 -32.001 22.999 -32.001c8.66699 0 17.834 2.5 27.501 7.5s20.167 12.5 31.5 22.5l31 30c10 10 21.333 23 34 39l30 38l29 39
l24 33c2 3.33301 4.66699 5 8 5h2l2 -1c3.33301 10.667 5 23 5 37c0 34.667 -14 52 -42 52c-44 0 -89.167 -32.667 -135.5 -98s-69.5 -122.666 -69.5 -171.999zM234 463.997c0 18 14.999 36.834 44.999 56.501s53.667 29.5 71 29.5c16.667 0 36.834 -12.667 60.501 -38
s35.5 -48 35.5 -68c0 -17.333 -8.33301 -30.333 -25 -39c-15.333 26 -39.333 53.667 -72 83c-30.667 -10 -64.667 -27.333 -102 -52c-8.66699 5.33301 -13 14.666 -13 27.999z" />
    <glyph glyph-name="atilde" unicode="&#xe3;" horiz-adv-x="444" 
d="M-26 41c0 38.667 13.668 81.665 41.001 128.998s63.5 88 108.5 122s89.5 51 133.5 51c29.333 0 53.833 -7.5 73.5 -22.5s29.5 -34.167 29.5 -57.5c0 -30.667 -19 -46.667 -57 -48c24 -7.33301 36 -17.333 36 -30c0 -7.33301 -9.5 -27.166 -28.5 -59.499
s-28.5 -56.5 -28.5 -72.5c0 -24 10 -36 30 -36c18.667 0 42.5 13 71.5 39s57.167 65 84.5 117l19 -19c-24.667 -55.333 -55.334 -99.833 -92.001 -133.5s-73.667 -50.5 -111 -50.5c-26.667 0 -47.167 8.83301 -61.5 26.5s-21.5 37.834 -21.5 60.501
c-30 -36 -55.667 -62.333 -77 -79s-44 -25 -68 -25c-23.333 0 -42.833 7.66699 -58.5 23s-23.5 37 -23.5 65zM54.001 35.998c0 -21.333 7.66602 -32.001 22.999 -32.001c8.66699 0 17.834 2.5 27.501 7.5s20.167 12.5 31.5 22.5l31 30c10 10 21.333 23 34 39l30 38l29 39
l24 33c2 3.33301 4.66699 5 8 5h2l2 -1c3.33301 10.667 5 23 5 37c0 34.667 -14 52 -42 52c-44 0 -89.167 -32.667 -135.5 -98s-69.5 -122.666 -69.5 -171.999zM148 413.997c12.667 14.667 27.6699 27.833 45.0029 39.5s32.333 17.5 45 17.5
c19.333 0 49.666 -6.66699 90.999 -20s73.333 -20 96 -20c18 0 40.667 2.33301 68 7c-34 -36 -64.667 -54 -92 -54c-20.667 0 -52.834 6.33301 -96.501 19s-75.167 19 -94.5 19c-10.667 0 -31.334 -2.66699 -62.001 -8z" />
    <glyph glyph-name="adieresis" unicode="&#xe4;" horiz-adv-x="444" 
d="M-26 41c0 38.667 13.668 81.665 41.001 128.998s63.5 88 108.5 122s89.5 51 133.5 51c29.333 0 53.833 -7.5 73.5 -22.5s29.5 -34.167 29.5 -57.5c0 -30.667 -19 -46.667 -57 -48c24 -7.33301 36 -17.333 36 -30c0 -7.33301 -9.5 -27.166 -28.5 -59.499
s-28.5 -56.5 -28.5 -72.5c0 -24 10 -36 30 -36c18.667 0 42.5 13 71.5 39s57.167 65 84.5 117l19 -19c-24.667 -55.333 -55.334 -99.833 -92.001 -133.5s-73.667 -50.5 -111 -50.5c-26.667 0 -47.167 8.83301 -61.5 26.5s-21.5 37.834 -21.5 60.501
c-30 -36 -55.667 -62.333 -77 -79s-44 -25 -68 -25c-23.333 0 -42.833 7.66699 -58.5 23s-23.5 37 -23.5 65zM54.001 35.998c0 -21.333 7.66602 -32.001 22.999 -32.001c8.66699 0 17.834 2.5 27.501 7.5s20.167 12.5 31.5 22.5l31 30c10 10 21.333 23 34 39l30 38l29 39
l24 33c2 3.33301 4.66699 5 8 5h2l2 -1c3.33301 10.667 5 23 5 37c0 34.667 -14 52 -42 52c-44 0 -89.167 -32.667 -135.5 -98s-69.5 -122.666 -69.5 -171.999zM216 468.997c0 12 7.33398 23 22.001 33s29.667 15 45 15c24 0 36 -10.667 36 -32
c0 -12 -6.33301 -23.333 -19 -34s-26.334 -16 -41.001 -16c-12 0 -22.167 2.83301 -30.5 8.5s-12.5 14.167 -12.5 25.5zM361.001 448.997c0 12.667 7.16602 23.833 21.499 33.5s29.5 14.5 45.5 14.5c24.667 0 37 -11 37 -33c0 -12 -6.5 -23.167 -19.5 -33.5
s-27.167 -15.5 -42.5 -15.5c-11.333 0 -21.166 3 -29.499 9s-12.5 14.333 -12.5 25z" />
    <glyph glyph-name="aring" unicode="&#xe5;" horiz-adv-x="444" 
d="M-26 41c0 38.667 13.668 81.665 41.001 128.998s63.5 88 108.5 122s89.5 51 133.5 51c29.333 0 53.833 -7.5 73.5 -22.5s29.5 -34.167 29.5 -57.5c0 -30.667 -19 -46.667 -57 -48c24 -7.33301 36 -17.333 36 -30c0 -7.33301 -9.5 -27.166 -28.5 -59.499
s-28.5 -56.5 -28.5 -72.5c0 -24 10 -36 30 -36c18.667 0 42.5 13 71.5 39s57.167 65 84.5 117l19 -19c-24.667 -55.333 -55.334 -99.833 -92.001 -133.5s-73.667 -50.5 -111 -50.5c-26.667 0 -47.167 8.83301 -61.5 26.5s-21.5 37.834 -21.5 60.501
c-30 -36 -55.667 -62.333 -77 -79s-44 -25 -68 -25c-23.333 0 -42.833 7.66699 -58.5 23s-23.5 37 -23.5 65zM54.001 35.998c0 -21.333 7.66602 -32.001 22.999 -32.001c8.66699 0 17.834 2.5 27.501 7.5s20.167 12.5 31.5 22.5l31 30c10 10 21.333 23 34 39l30 38l29 39
l24 33c2 3.33301 4.66699 5 8 5h2l2 -1c3.33301 10.667 5 23 5 37c0 34.667 -14 52 -42 52c-44 0 -89.167 -32.667 -135.5 -98s-69.5 -122.666 -69.5 -171.999zM258 452.997c0 24.667 12.333 49 37 73s53.667 36 87 36c27.333 0 47.833 -5.33301 61.5 -16
s20.5 -24.334 20.5 -41.001c0 -25.333 -12.833 -49.833 -38.5 -73.5s-55.5 -35.5 -89.5 -35.5c-26 0 -45.5 5.33301 -58.5 16s-19.5 24.334 -19.5 41.001zM310 458.997c0.666992 -7.33301 3.83105 -13.833 9.49805 -19.5s13.834 -8.5 24.501 -8.5
c16.667 0 32.334 7.5 47.001 22.5s22 29.833 22 44.5c0 17.333 -11.667 26 -35 26c-16.667 0 -32.167 -7.16699 -46.5 -21.5s-21.5 -28.833 -21.5 -43.5z" />
    <glyph glyph-name="ae" unicode="&#xe6;" horiz-adv-x="556" 
d="M-26 41c0 38.667 13.8311 81.668 41.498 129.001s64.167 88.166 109.5 122.499s90 51.5 134 51.5c36 0 60.333 -12.333 73 -37c46.667 35.333 90.667 53 132 53c47.333 0 71 -22 71 -66c0 -48 -26 -90.667 -78 -128s-110 -59.333 -174 -66
c-1.33301 -6.66699 -2 -16 -2 -28c2.66699 -48.667 28.334 -73 77.001 -73c40.667 0 81.667 16.5 123 49.5s75 74.167 101 123.5l19 -16c-27.333 -60.667 -65.166 -109.167 -113.499 -145.5s-98.5 -54.5 -150.5 -54.5c-37.333 0 -67.5 9.33301 -90.5 28
s-36.833 42.667 -41.5 72c-56 -68.667 -105 -103 -147 -103c-24 0 -44 7.66699 -60 23s-24 37 -24 65zM57.998 39.001c0 -20.667 7.33301 -31.001 22 -31.001c30.667 0 72 32.333 124 97c9.33301 61.333 41 118.333 95 171c-5.33301 18 -19.333 27 -42 27
c-29.333 0 -60 -15.667 -92 -47s-57.833 -67.666 -77.5 -108.999s-29.5 -77.333 -29.5 -108zM292.998 137c46 17.333 88.333 40.668 127 70.001s58 60.666 58 93.999c0 9.33301 -5.33301 14 -16 14c-29.333 0 -61 -18.5 -95 -55.5s-58.667 -77.833 -74 -122.5z" />
    <glyph glyph-name="ccedilla" unicode="&#xe7;" horiz-adv-x="333" 
d="M-6 76c0 65.333 23.332 125.331 69.999 179.998s97.334 82 152.001 82c26.667 0 46.5 -6.66699 59.5 -20s19.5 -30 19.5 -50s-4.83301 -38.5 -14.5 -55.5s-21.5 -25.5 -35.5 -25.5c-12.667 0 -23 6.33301 -31 19c21.333 14.667 32 39.667 32 75
c0 11.333 -6.33301 17 -19 17c-32.667 0 -66.834 -26.667 -102.501 -80s-53.5 -102.666 -53.5 -147.999c0 -50 23.667 -75 71 -75c39.333 0 79.5 16.5 120.5 49.5s72.167 75.833 93.5 128.5l20 -18c-31.333 -79.333 -81.333 -138.666 -150 -177.999l-37 -59
c22 8 40 12 54 12c16 0 29 -4.33301 39 -13s15 -21 15 -37c0 -28 -13.5 -55 -40.5 -81s-57.5 -39 -91.5 -39c-18.667 0 -34.334 4.33301 -47.001 13s-19 18 -19 28c0 14 10.667 28.333 32 43c8.66699 -30 22 -45 40 -45c16 0 33.5 10 52.5 30s28.5 37.667 28.5 53
c0 10.667 -5.33301 16 -16 16c-8.66699 0 -22.667 -6.16699 -42 -18.5s-31.666 -18.5 -36.999 -18.5s-10.166 2.83301 -14.499 8.5s-6.5 11.167 -6.5 16.5c0 2 7.33301 12.833 22 32.5s25.667 32.834 33 39.501l6 5c-29.333 -12.667 -57.333 -19 -84 -19
c-36 0 -64.833 11.167 -86.5 33.5s-32.5 55.166 -32.5 98.499z" />
    <glyph glyph-name="egrave" unicode="&#xe8;" horiz-adv-x="341" 
d="M-17 77c0 60.667 28.168 123.167 84.501 187.5s114.5 96.5 174.5 96.5c48.667 0 73 -22.333 73 -67c0 -48 -26 -90.667 -78 -128s-110 -59.333 -174 -66c-1.33301 -6.66699 -2 -14.334 -2 -23.001c0 -6.66699 0.5 -13 1.5 -19s3.66699 -14.167 8 -24.5
s12.333 -18.666 24 -24.999s26.167 -9.5 43.5 -9.5c40.667 0 82.167 16.5 124.5 49.5s76.5 74.167 102.5 123.5l20 -16c-26.667 -60 -64.834 -108.333 -114.501 -145s-101.167 -55 -154.5 -55c-42 0 -74.667 11.333 -98 34s-35 51.667 -35 87zM74.001 137
c38.667 4.66699 79.501 24 122.501 58s64.5 68.667 64.5 104c0 12.667 -5.66699 19 -17 19c-29.333 0 -61.333 -19.333 -96 -58s-59.334 -79.667 -74.001 -123zM178.002 519c0.666992 12.667 4.16699 22.3311 10.5 28.998s13.5 10 21.5 10c18.667 0 41.667 -15.333 69 -46
s41 -53 41 -67c0 -6 -2.33301 -12.667 -7 -20s-10.667 -12.666 -18 -15.999c-32.667 38.667 -71.667 75.334 -117 110.001z" />
    <glyph glyph-name="eacute" unicode="&#xe9;" horiz-adv-x="341" 
d="M-17 77c0 60.667 28.168 123.167 84.501 187.5s114.5 96.5 174.5 96.5c48.667 0 73 -22.333 73 -67c0 -48 -26 -90.667 -78 -128s-110 -59.333 -174 -66c-1.33301 -6.66699 -2 -14.334 -2 -23.001c0 -6.66699 0.5 -13 1.5 -19s3.66699 -14.167 8 -24.5
s12.333 -18.666 24 -24.999s26.167 -9.5 43.5 -9.5c40.667 0 82.167 16.5 124.5 49.5s76.5 74.167 102.5 123.5l20 -16c-26.667 -60 -64.834 -108.333 -114.501 -145s-101.167 -55 -154.5 -55c-42 0 -74.667 11.333 -98 34s-35 51.667 -35 87zM74.001 137
c38.667 4.66699 79.501 24 122.501 58s64.5 68.667 64.5 104c0 12.667 -5.66699 19 -17 19c-29.333 0 -61.333 -19.333 -96 -58s-59.334 -79.667 -74.001 -123zM273.002 443c0 13.333 12.499 35.834 37.499 67.501s46.833 47.5 65.5 47.5c17.333 0 27.333 -11.667 30 -35
c-56.667 -54.667 -93 -92.334 -109 -113.001c-7.33301 3.33301 -13.166 8.5 -17.499 15.5s-6.5 12.833 -6.5 17.5z" />
    <glyph glyph-name="ecircumflex" unicode="&#xea;" horiz-adv-x="341" 
d="M-17 77c0 60.667 28.168 123.167 84.501 187.5s114.5 96.5 174.5 96.5c48.667 0 73 -22.333 73 -67c0 -48 -26 -90.667 -78 -128s-110 -59.333 -174 -66c-1.33301 -6.66699 -2 -14.334 -2 -23.001c0 -6.66699 0.5 -13 1.5 -19s3.66699 -14.167 8 -24.5
s12.333 -18.666 24 -24.999s26.167 -9.5 43.5 -9.5c40.667 0 82.167 16.5 124.5 49.5s76.5 74.167 102.5 123.5l20 -16c-26.667 -60 -64.834 -108.333 -114.501 -145s-101.167 -55 -154.5 -55c-42 0 -74.667 11.333 -98 34s-35 51.667 -35 87zM74.001 137
c38.667 4.66699 79.501 24 122.501 58s64.5 68.667 64.5 104c0 12.667 -5.66699 19 -17 19c-29.333 0 -61.333 -19.333 -96 -58s-59.334 -79.667 -74.001 -123zM193.002 464c0 18 14.999 36.834 44.999 56.501s53.667 29.5 71 29.5c16.667 0 36.834 -12.667 60.501 -38
s35.5 -48 35.5 -68c0 -17.333 -8.33301 -30.333 -25 -39c-15.333 26 -39.333 53.667 -72 83c-30.667 -10 -64.667 -27.333 -102 -52c-8.66699 5.33301 -13 14.666 -13 27.999z" />
    <glyph glyph-name="edieresis" unicode="&#xeb;" horiz-adv-x="341" 
d="M-17 77c0 60.667 28.168 123.167 84.501 187.5s114.5 96.5 174.5 96.5c48.667 0 73 -22.333 73 -67c0 -48 -26 -90.667 -78 -128s-110 -59.333 -174 -66c-1.33301 -6.66699 -2 -14.334 -2 -23.001c0 -6.66699 0.5 -13 1.5 -19s3.66699 -14.167 8 -24.5
s12.333 -18.666 24 -24.999s26.167 -9.5 43.5 -9.5c40.667 0 82.167 16.5 124.5 49.5s76.5 74.167 102.5 123.5l20 -16c-26.667 -60 -64.834 -108.333 -114.501 -145s-101.167 -55 -154.5 -55c-42 0 -74.667 11.333 -98 34s-35 51.667 -35 87zM74.001 137
c38.667 4.66699 79.501 24 122.501 58s64.5 68.667 64.5 104c0 12.667 -5.66699 19 -17 19c-29.333 0 -61.333 -19.333 -96 -58s-59.334 -79.667 -74.001 -123zM174.002 479c0 12 7.33398 23 22.001 33s29.667 15 45 15c24 0 36 -10.667 36 -32
c0 -12 -6.33301 -23.333 -19 -34s-26.334 -16 -41.001 -16c-12 0 -22.167 2.83301 -30.5 8.5s-12.5 14.167 -12.5 25.5zM319.003 459c0 12.667 7.16602 23.833 21.499 33.5s29.5 14.5 45.5 14.5c24.667 0 37 -11 37 -33c0 -12 -6.5 -23.167 -19.5 -33.5
s-27.167 -15.5 -42.5 -15.5c-11.333 0 -21.166 3 -29.499 9s-12.5 14.333 -12.5 25z" />
    <glyph glyph-name="igrave" unicode="&#xec;" horiz-adv-x="244" 
d="M-8 59c0 26.667 7 61.834 21 105.501s33 83.834 57 120.501s47.667 55 71 55c8.66699 0 15.834 -2.5 21.501 -7.5s8.5 -12.167 8.5 -21.5c0 -8.66699 -8.5 -26.834 -25.5 -54.501s-34.167 -59 -51.5 -94s-26 -65.167 -26 -90.5c0 -20.667 3.66699 -34.667 11 -42
s18.666 -11 33.999 -11c52.667 0 105 51 157 153l15 -16c-23.333 -58.667 -53 -104.334 -89 -137.001s-74.667 -49 -116 -49c-28 0 -49.667 8.33301 -65 25s-23 38 -23 64zM50 509c0.666992 12.667 4.16699 22.3311 10.5 28.998s13.5 10 21.5 10
c18.667 0 41.667 -15.333 69 -46s41 -53 41 -67c0 -6 -2.33301 -12.667 -7 -20s-10.667 -12.666 -18 -15.999c-32.667 38.667 -71.667 75.334 -117 110.001z" />
    <glyph glyph-name="iacute" unicode="&#xed;" horiz-adv-x="244" 
d="M-8 59c0 26.667 7 61.834 21 105.501s33 83.834 57 120.501s47.667 55 71 55c8.66699 0 15.834 -2.5 21.501 -7.5s8.5 -12.167 8.5 -21.5c0 -8.66699 -8.5 -26.834 -25.5 -54.501s-34.167 -59 -51.5 -94s-26 -65.167 -26 -90.5c0 -20.667 3.66699 -34.667 11 -42
s18.666 -11 33.999 -11c52.667 0 105 51 157 153l15 -16c-23.333 -58.667 -53 -104.334 -89 -137.001s-74.667 -49 -116 -49c-28 0 -49.667 8.33301 -65 25s-23 38 -23 64zM184 433c0 13.333 12.499 35.834 37.499 67.501s46.833 47.5 65.5 47.5
c17.333 0 27.333 -11.667 30 -35c-56.667 -54.667 -93 -92.334 -109 -113.001c-7.33301 3.33301 -13.166 8.5 -17.499 15.5s-6.5 12.833 -6.5 17.5z" />
    <glyph glyph-name="icircumflex" unicode="&#xee;" horiz-adv-x="244" 
d="M-8 59c0 26.667 7 61.834 21 105.501s33 83.834 57 120.501s47.667 55 71 55c8.66699 0 15.834 -2.5 21.501 -7.5s8.5 -12.167 8.5 -21.5c0 -8.66699 -8.5 -26.834 -25.5 -54.501s-34.167 -59 -51.5 -94s-26 -65.167 -26 -90.5c0 -20.667 3.66699 -34.667 11 -42
s18.666 -11 33.999 -11c52.667 0 105 51 157 153l15 -16c-23.333 -58.667 -53 -104.334 -89 -137.001s-74.667 -49 -116 -49c-28 0 -49.667 8.33301 -65 25s-23 38 -23 64zM73 454c0 18 14.999 36.833 44.999 56.5s53.667 29.5 71 29.5c16.667 0 36.834 -12.667 60.501 -38
s35.5 -48 35.5 -68c0 -17.333 -8.33301 -30.333 -25 -39c-15.333 26 -39.333 53.667 -72 83c-30.667 -10 -64.667 -27.333 -102 -52c-8.66699 4.66699 -13 14 -13 28z" />
    <glyph glyph-name="idieresis" unicode="&#xef;" horiz-adv-x="244" 
d="M-8 59c0 26.667 7 61.834 21 105.501s33 83.834 57 120.501s47.667 55 71 55c8.66699 0 15.834 -2.5 21.501 -7.5s8.5 -12.167 8.5 -21.5c0 -8.66699 -8.5 -26.834 -25.5 -54.501s-34.167 -59 -51.5 -94s-26 -65.167 -26 -90.5c0 -20.667 3.66699 -34.667 11 -42
s18.666 -11 33.999 -11c52.667 0 105 51 157 153l15 -16c-23.333 -58.667 -53 -104.334 -89 -137.001s-74.667 -49 -116 -49c-28 0 -49.667 8.33301 -65 25s-23 38 -23 64zM75 450c0 12 7.33398 23 22.001 33s29.667 15 45 15c24 0 36 -10.667 36 -32
c0 -12 -6.33301 -23.333 -19 -34s-26.334 -16 -41.001 -16c-12 0 -22.167 2.83301 -30.5 8.5s-12.5 14.167 -12.5 25.5zM220.001 430c0 12.667 7.16602 23.833 21.499 33.5s29.5 14.5 45.5 14.5c24.667 0 37 -11 37 -33c0 -11.333 -6.5 -22.333 -19.5 -33
s-27.167 -16 -42.5 -16c-11.333 0 -21.166 3 -29.499 9s-12.5 14.333 -12.5 25z" />
    <glyph glyph-name="eth" unicode="&#xf0;" horiz-adv-x="488" 
d="M-19 58c0 37.333 13.667 80.334 41 129.001s62.833 90.834 106.5 126.501s85.834 53.5 126.501 53.5c19.333 0 34.333 -4 45 -12s16 -17.667 16 -29c0 -6.66699 -2.66699 -15.334 -8 -26.001c-12 15.333 -28.333 23 -49 23c-31.333 0 -62.833 -16 -94.5 -48
s-56.334 -67.667 -74.001 -107s-26.5 -72.333 -26.5 -99c0 -28 10.333 -42 31 -42c26.667 0 61 23.167 103 69.5s79.5 105.833 112.5 178.5s49.5 140.334 49.5 203.001c0 12 -1.33301 26.333 -4 43c-42 -6.66699 -83.333 -15.334 -124 -26.001c0 24 9.66699 41 29 51
s47 17.333 83 22c-16 46 -47.667 87.333 -95 124c14 18 31 27 51 27c30 0 56.333 -13.667 79 -41s40 -61 52 -101c48.667 4.66699 84 10.334 106 17.001c-14.667 -24 -28.167 -39.5 -40.5 -46.5s-30.833 -12.167 -55.5 -15.5c2.66699 -20 4 -34.333 4 -43
c0 -44 -18 -117 -54 -219s-54 -170.333 -54 -205c0 -24.667 8 -37 24 -37c22 0 48.333 14.167 79 42.5s56 64.166 76 107.499l19 -12c-24 -56.667 -55 -102.834 -93 -138.501s-76 -53.5 -114 -53.5c-48.667 0 -73 29.333 -73 88c0 16 3 40.667 9 74
c-32.667 -47.333 -67.667 -86.833 -105 -118.5s-70.666 -47.5 -99.999 -47.5c-20.667 0 -38.834 7.66699 -54.501 23s-23.5 37 -23.5 65z" />
    <glyph glyph-name="ntilde" unicode="&#xf1;" horiz-adv-x="473" 
d="M-38 14c0 0.666992 6 15.665 18 44.998s23.333 62.333 34 99s16 67.667 16 93c14.667 16 32 24 52 24c23.333 0 35 -10 35 -30c0 -18 -5.66699 -47.667 -17 -89c68 90.667 131 136 189 136c26.667 0 47.334 -9.16699 62.001 -27.5s22 -40.166 22 -65.499
c0 -22 -6.5 -49.167 -19.5 -81.5s-19.5 -55.166 -19.5 -68.499c0 -19.333 8 -29 24 -29c22 0 45.833 15.167 71.5 45.5s48.834 66.166 69.501 107.499l17 -14c-52.667 -119.333 -112.334 -179 -179.001 -179c-25.333 0 -45 6.33301 -59 19s-21 29.334 -21 50.001
c0 13.333 4.66699 35 14 65s14 52.333 14 67c0 26 -11.667 39 -35 39c-18.667 0 -38.5 -7.5 -59.5 -22.5s-42.667 -37.167 -65 -66.5s-39.5 -53 -51.5 -71l-47 -75c-28.667 0 -50.334 9.66699 -65.001 29zM112 369.998c12.667 14.667 27.6699 27.833 45.0029 39.5
s32.333 17.5 45 17.5c19.333 0 49.666 -6.66699 90.999 -20s73.333 -20 96 -20c18 0 40.667 2.33301 68 7c-34 -36 -64.667 -54 -92 -54c-20.667 0 -52.834 6.33301 -96.501 19s-75.167 19 -94.5 19c-10.667 0 -31.334 -2.66699 -62.001 -8z" />
    <glyph glyph-name="ograve" unicode="&#xf2;" horiz-adv-x="372" 
d="M-12 62c0 44 12.668 87.001 38.001 129.001s52.666 63 81.999 63c8 0 18.333 -2.66699 31 -8c4 30.667 14.833 56 32.5 76s42.5 30 74.5 30c26.667 0 46.334 -7.5 59.001 -22.5s19 -34.5 19 -58.5c0 -46 -22 -102.667 -66 -170c8 -4 17.333 -6 28 -6
c18.667 0 38.667 6.16699 60 18.5s37.666 31.166 48.999 56.499l18 -13c-14 -32 -32.833 -56.333 -56.5 -73s-48.167 -25 -73.5 -25c-15.333 0 -32 3 -50 9c-55.333 -66.667 -111 -100 -167 -100c-28 0 -48 9 -60 27s-18 40.333 -18 67zM68.001 65.001
c0 -30.667 11.333 -45.998 34 -45.998c24 0 56 23.667 96 71c-38 33.333 -58 82.333 -60 147c-12.667 -6.66699 -27.5 -29.834 -44.5 -69.501s-25.5 -73.834 -25.5 -102.501zM195.001 220.003c0 -15.333 2.66699 -32.832 8 -52.499s12.333 -34.834 21 -45.501
c38.667 55.333 58 105 58 149c0 29.333 -9.33301 44 -28 44c-14 0 -27.333 -9.33301 -40 -28s-19 -41 -19 -67zM227.001 515.004c0.666992 12.667 4.16699 22.3311 10.5 28.998s13.5 10 21.5 10c18.667 0 41.667 -15.333 69 -46s41 -53 41 -67c0 -6 -2.33301 -12.667 -7 -20
s-10.667 -12.666 -18 -15.999c-32.667 38.667 -71.667 75.334 -117 110.001z" />
    <glyph glyph-name="oacute" unicode="&#xf3;" horiz-adv-x="372" 
d="M-12 62c0 44 12.668 87.001 38.001 129.001s52.666 63 81.999 63c8 0 18.333 -2.66699 31 -8c4 30.667 14.833 56 32.5 76s42.5 30 74.5 30c26.667 0 46.334 -7.5 59.001 -22.5s19 -34.5 19 -58.5c0 -46 -22 -102.667 -66 -170c8 -4 17.333 -6 28 -6
c18.667 0 38.667 6.16699 60 18.5s37.666 31.166 48.999 56.499l18 -13c-14 -32 -32.833 -56.333 -56.5 -73s-48.167 -25 -73.5 -25c-15.333 0 -32 3 -50 9c-55.333 -66.667 -111 -100 -167 -100c-28 0 -48 9 -60 27s-18 40.333 -18 67zM68.001 65.001
c0 -30.667 11.333 -45.998 34 -45.998c24 0 56 23.667 96 71c-38 33.333 -58 82.333 -60 147c-12.667 -6.66699 -27.5 -29.834 -44.5 -69.501s-25.5 -73.834 -25.5 -102.501zM195.001 220.003c0 -15.333 2.66699 -32.832 8 -52.499s12.333 -34.834 21 -45.501
c38.667 55.333 58 105 58 149c0 29.333 -9.33301 44 -28 44c-14 0 -27.333 -9.33301 -40 -28s-19 -41 -19 -67zM331.001 443.004c0 13.333 12.499 35.834 37.499 67.501s46.833 47.5 65.5 47.5c17.333 0 27.333 -11.667 30 -35c-56.667 -54.667 -93 -92.334 -109 -113.001
c-7.33301 3.33301 -13.166 8.5 -17.499 15.5s-6.5 12.833 -6.5 17.5z" />
    <glyph glyph-name="ocircumflex" unicode="&#xf4;" horiz-adv-x="372" 
d="M-12 62c0 44 12.668 87.001 38.001 129.001s52.666 63 81.999 63c8 0 18.333 -2.66699 31 -8c4 30.667 14.833 56 32.5 76s42.5 30 74.5 30c26.667 0 46.334 -7.5 59.001 -22.5s19 -34.5 19 -58.5c0 -46 -22 -102.667 -66 -170c8 -4 17.333 -6 28 -6
c18.667 0 38.667 6.16699 60 18.5s37.666 31.166 48.999 56.499l18 -13c-14 -32 -32.833 -56.333 -56.5 -73s-48.167 -25 -73.5 -25c-15.333 0 -32 3 -50 9c-55.333 -66.667 -111 -100 -167 -100c-28 0 -48 9 -60 27s-18 40.333 -18 67zM68.001 65.001
c0 -30.667 11.333 -45.998 34 -45.998c24 0 56 23.667 96 71c-38 33.333 -58 82.333 -60 147c-12.667 -6.66699 -27.5 -29.834 -44.5 -69.501s-25.5 -73.834 -25.5 -102.501zM195.001 220.003c0 -15.333 2.66699 -32.832 8 -52.499s12.333 -34.834 21 -45.501
c38.667 55.333 58 105 58 149c0 29.333 -9.33301 44 -28 44c-14 0 -27.333 -9.33301 -40 -28s-19 -41 -19 -67zM197.001 464.004c0 18 14.999 36.834 44.999 56.501s53.667 29.5 71 29.5c16.667 0 36.834 -12.667 60.501 -38s35.5 -48 35.5 -68
c0 -17.333 -8.33301 -30.333 -25 -39c-15.333 26 -39.333 53.667 -72 83c-30.667 -10 -64.667 -27.333 -102 -52c-8.66699 5.33301 -13 14.666 -13 27.999z" />
    <glyph glyph-name="otilde" unicode="&#xf5;" horiz-adv-x="372" 
d="M-12 62c0 44 12.668 87.001 38.001 129.001s52.666 63 81.999 63c8 0 18.333 -2.66699 31 -8c4 30.667 14.833 56 32.5 76s42.5 30 74.5 30c26.667 0 46.334 -7.5 59.001 -22.5s19 -34.5 19 -58.5c0 -46 -22 -102.667 -66 -170c8 -4 17.333 -6 28 -6
c18.667 0 38.667 6.16699 60 18.5s37.666 31.166 48.999 56.499l18 -13c-14 -32 -32.833 -56.333 -56.5 -73s-48.167 -25 -73.5 -25c-15.333 0 -32 3 -50 9c-55.333 -66.667 -111 -100 -167 -100c-28 0 -48 9 -60 27s-18 40.333 -18 67zM68.001 65.001
c0 -30.667 11.333 -45.998 34 -45.998c24 0 56 23.667 96 71c-38 33.333 -58 82.333 -60 147c-12.667 -6.66699 -27.5 -29.834 -44.5 -69.501s-25.5 -73.834 -25.5 -102.501zM141.001 414.003c12.667 14.667 27.6699 27.833 45.0029 39.5s32.333 17.5 45 17.5
c19.333 0 49.666 -6.66699 90.999 -20s73.333 -20 96 -20c18 0 40.667 2.33301 68 7c-34 -36 -64.667 -54 -92 -54c-20.667 0 -52.834 6.33301 -96.501 19s-75.167 19 -94.5 19c-10.667 0 -31.334 -2.66699 -62.001 -8zM195.004 220.002
c0 -15.333 2.66699 -32.832 8 -52.499s12.333 -34.834 21 -45.501c38.667 55.333 58 105 58 149c0 29.333 -9.33301 44 -28 44c-14 0 -27.333 -9.33301 -40 -28s-19 -41 -19 -67z" />
    <glyph glyph-name="odieresis" unicode="&#xf6;" horiz-adv-x="372" 
d="M-12 62c0 44 12.668 87.001 38.001 129.001s52.666 63 81.999 63c8 0 18.333 -2.66699 31 -8c4 30.667 14.833 56 32.5 76s42.5 30 74.5 30c26.667 0 46.334 -7.5 59.001 -22.5s19 -34.5 19 -58.5c0 -46 -22 -102.667 -66 -170c8 -4 17.333 -6 28 -6
c18.667 0 38.667 6.16699 60 18.5s37.666 31.166 48.999 56.499l18 -13c-14 -32 -32.833 -56.333 -56.5 -73s-48.167 -25 -73.5 -25c-15.333 0 -32 3 -50 9c-55.333 -66.667 -111 -100 -167 -100c-28 0 -48 9 -60 27s-18 40.333 -18 67zM68.001 65.001
c0 -30.667 11.333 -45.998 34 -45.998c24 0 56 23.667 96 71c-38 33.333 -58 82.333 -60 147c-12.667 -6.66699 -27.5 -29.834 -44.5 -69.501s-25.5 -73.834 -25.5 -102.501zM189.001 469.003c0 12 7.33398 23 22.001 33s29.667 15 45 15c24 0 36 -10.667 36 -32
c0 -12 -6.33301 -23.333 -19 -34s-26.334 -16 -41.001 -16c-12 0 -22.167 2.83301 -30.5 8.5s-12.5 14.167 -12.5 25.5zM195.002 220.003c0 -15.333 2.66699 -32.832 8 -52.499s12.333 -34.834 21 -45.501c38.667 55.333 58 105 58 149c0 29.333 -9.33301 44 -28 44
c-14 0 -27.333 -9.33301 -40 -28s-19 -41 -19 -67zM334.002 449.004c0 12.667 7.16602 23.833 21.499 33.5s29.5 14.5 45.5 14.5c24.667 0 37 -11 37 -33c0 -12 -6.5 -23.167 -19.5 -33.5s-27.167 -15.5 -42.5 -15.5c-11.333 0 -21.166 3 -29.499 9s-12.5 14.333 -12.5 25z
" />
    <glyph glyph-name="divide" unicode="&#xf7;" horiz-adv-x="491" 
d="M26 116c7.33301 26.667 28.332 43.833 62.999 51.5s83.334 11.5 146.001 11.5c46.667 0 111 -3.33301 193 -10c-22.667 -15.333 -48 -26 -76 -32s-69.333 -9 -124 -9c-72 0 -139.333 -4 -202 -12zM143.999 17.999c0 12 7 22.832 21 32.499s28.667 14.5 44 14.5
c22.667 0 34 -10.333 34 -31c0 -11.333 -6.16699 -22.333 -18.5 -33s-25.5 -16 -39.5 -16c-11.333 0 -21 2.83301 -29 8.5s-12 13.834 -12 24.501zM201.999 266.998c0 12 7 22.832 21 32.499s28.667 14.5 44 14.5c22.667 0 34 -10.333 34 -31c0 -11.333 -6 -22.333 -18 -33
s-25.333 -16 -40 -16c-11.333 0 -21 2.83301 -29 8.5s-12 13.834 -12 24.501z" />
    <glyph glyph-name="oslash" unicode="&#xf8;" horiz-adv-x="372" 
d="M-45 -48c14.667 8.66699 31.667 22.999 51 42.999c-12 16.667 -18 39 -18 67c0 44 12.667 87 38 129s52.666 63 81.999 63c8 0 18.333 -2.66699 31 -8c4 30.667 14.833 56 32.5 76s42.5 30 74.5 30c16 0 30 -3.33301 42 -10l24 32c6.66699 10 21.334 15 44.001 15
c8 0 16 -1 24 -3c-7.33301 -10.667 -27.666 -37.667 -60.999 -81c3.33301 -11.333 5 -22.666 5 -33.999c0 -46 -22 -102.667 -66 -170c11.333 -6.66699 23.666 -10 36.999 -10c19.333 0 37.833 6.83301 55.5 20.5s32.5 33.167 44.5 58.5l18 -13
c-14 -32 -32.833 -56.333 -56.5 -73s-48.167 -25 -73.5 -25c-15.333 0 -32 3 -50 9c-55.333 -66.667 -111 -100 -167 -100c-11.333 0 -20 1.33301 -26 4c-23.333 -15.333 -45.333 -23 -66 -23c-6.66699 0 -13 1 -19 3zM68 61.999c40.667 48 68 81.333 82 100
c-6.66699 20 -10.667 45 -12 75c-12.667 -6.66699 -27.5 -30 -44.5 -70s-25.5 -75 -25.5 -105zM93 19.999c2 -0.666992 5 -1.00098 9 -1.00098c24 0 56 23.667 96 71c-12 10.667 -20.667 20.334 -26 29.001l-71 -90zM195 217.998l71 94c-2.66699 2 -6.66699 3 -12 3
c-14 0 -27.333 -9.5 -40 -28.5s-19 -41.833 -19 -68.5zM205 159.998c4 -16 10.333 -28.667 19 -38c34 48 53 93.333 57 136z" />
    <glyph glyph-name="ugrave" unicode="&#xf9;" horiz-adv-x="441" 
d="M-1 74c0 38 11.0039 84.8369 33.0039 140.504s41.333 83.5 58 83.5c14 0 29.667 -8.66699 47 -26c-14 -20.667 -28.5 -50.334 -43.5 -89.001s-22.5 -72 -22.5 -100c0 -40 10 -60 30 -60c17.333 0 38.666 16.5 63.999 49.5s46.833 66.5 64.5 100.5
s33.834 67.333 48.501 100c40 -6.66699 60 -18 60 -34c0 -1.33301 -5.33301 -13.833 -16 -37.5s-21.167 -50.834 -31.5 -81.501s-15.5 -55.334 -15.5 -74.001c0 -23.333 9 -35 27 -35c22 0 49.167 14.833 81.5 44.5s60.166 68.167 83.499 115.5l15 -12
c-22.667 -54 -54 -99 -94 -135s-78.667 -54 -116 -54c-12.667 0 -23.5 2.5 -32.5 7.5s-15.833 10.833 -20.5 17.5s-8.33398 15.667 -11.001 27s-4.16699 21 -4.5 29s-0.5 18.333 -0.5 31c-14.667 -22.667 -27.334 -40.834 -38.001 -54.501s-24.334 -26.667 -41.001 -39
s-32.667 -18.5 -48 -18.5c-22 0 -40.333 10.333 -55 31s-22 45 -22 73zM118.004 484.004c0.666992 12.667 4.16699 22.3311 10.5 28.998s13.5 10 21.5 10c18.667 0 41.667 -15.333 69 -46s41 -53 41 -67c0 -6 -2.33301 -12.667 -7 -20s-10.667 -12.666 -18 -15.999
c-32.667 38.667 -71.667 75.334 -117 110.001z" />
    <glyph glyph-name="uacute" unicode="&#xfa;" horiz-adv-x="441" 
d="M-1 74c0 38 11.0039 84.8369 33.0039 140.504s41.333 83.5 58 83.5c14 0 29.667 -8.66699 47 -26c-14 -20.667 -28.5 -50.334 -43.5 -89.001s-22.5 -72 -22.5 -100c0 -40 10 -60 30 -60c17.333 0 38.666 16.5 63.999 49.5s46.833 66.5 64.5 100.5
s33.834 67.333 48.501 100c40 -6.66699 60 -18 60 -34c0 -1.33301 -5.33301 -13.833 -16 -37.5s-21.167 -50.834 -31.5 -81.501s-15.5 -55.334 -15.5 -74.001c0 -23.333 9 -35 27 -35c22 0 49.167 14.833 81.5 44.5s60.166 68.167 83.499 115.5l15 -12
c-22.667 -54 -54 -99 -94 -135s-78.667 -54 -116 -54c-12.667 0 -23.5 2.5 -32.5 7.5s-15.833 10.833 -20.5 17.5s-8.33398 15.667 -11.001 27s-4.16699 21 -4.5 29s-0.5 18.333 -0.5 31c-14.667 -22.667 -27.334 -40.834 -38.001 -54.501s-24.334 -26.667 -41.001 -39
s-32.667 -18.5 -48 -18.5c-22 0 -40.333 10.333 -55 31s-22 45 -22 73zM216.004 377.004c0 13.333 12.499 35.834 37.499 67.501s46.833 47.5 65.5 47.5c17.333 0 27.333 -11.667 30 -35c-56.667 -54.667 -93 -92.334 -109 -113.001
c-7.33301 3.33301 -13.166 8.5 -17.499 15.5s-6.5 12.833 -6.5 17.5z" />
    <glyph glyph-name="ucircumflex" unicode="&#xfb;" horiz-adv-x="441" 
d="M-1 74c0 38 11.0039 84.8369 33.0039 140.504s41.333 83.5 58 83.5c14 0 29.667 -8.66699 47 -26c-14 -20.667 -28.5 -50.334 -43.5 -89.001s-22.5 -72 -22.5 -100c0 -40 10 -60 30 -60c17.333 0 38.666 16.5 63.999 49.5s46.833 66.5 64.5 100.5
s33.834 67.333 48.501 100c40 -6.66699 60 -18 60 -34c0 -1.33301 -5.33301 -13.833 -16 -37.5s-21.167 -50.834 -31.5 -81.501s-15.5 -55.334 -15.5 -74.001c0 -23.333 9 -35 27 -35c22 0 49.167 14.833 81.5 44.5s60.166 68.167 83.499 115.5l15 -12
c-22.667 -54 -54 -99 -94 -135s-78.667 -54 -116 -54c-12.667 0 -23.5 2.5 -32.5 7.5s-15.833 10.833 -20.5 17.5s-8.33398 15.667 -11.001 27s-4.16699 21 -4.5 29s-0.5 18.333 -0.5 31c-14.667 -22.667 -27.334 -40.834 -38.001 -54.501s-24.334 -26.667 -41.001 -39
s-32.667 -18.5 -48 -18.5c-22 0 -40.333 10.333 -55 31s-22 45 -22 73zM145.004 414.004c0 18 14.999 36.834 44.999 56.501s53.667 29.5 71 29.5c16.667 0 36.834 -12.667 60.501 -38s35.5 -48 35.5 -68c0 -17.333 -8.33301 -30.333 -25 -39
c-15.333 26 -39.333 53.667 -72 83c-30 -10 -64 -27.333 -102 -52c-8.66699 5.33301 -13 14.666 -13 27.999z" />
    <glyph glyph-name="udieresis" unicode="&#xfc;" horiz-adv-x="441" 
d="M-1 74c0 38 11.0039 84.8369 33.0039 140.504s41.333 83.5 58 83.5c14 0 29.667 -8.66699 47 -26c-14 -20.667 -28.5 -50.334 -43.5 -89.001s-22.5 -72 -22.5 -100c0 -40 10 -60 30 -60c17.333 0 38.666 16.5 63.999 49.5s46.833 66.5 64.5 100.5
s33.834 67.333 48.501 100c40 -6.66699 60 -18 60 -34c0 -1.33301 -5.33301 -13.833 -16 -37.5s-21.167 -50.834 -31.5 -81.501s-15.5 -55.334 -15.5 -74.001c0 -23.333 9 -35 27 -35c22 0 49.167 14.833 81.5 44.5s60.166 68.167 83.499 115.5l15 -12
c-22.667 -54 -54 -99 -94 -135s-78.667 -54 -116 -54c-12.667 0 -23.5 2.5 -32.5 7.5s-15.833 10.833 -20.5 17.5s-8.33398 15.667 -11.001 27s-4.16699 21 -4.5 29s-0.5 18.333 -0.5 31c-14.667 -22.667 -27.334 -40.834 -38.001 -54.501s-24.334 -26.667 -41.001 -39
s-32.667 -18.5 -48 -18.5c-22 0 -40.333 10.333 -55 31s-22 45 -22 73zM134.004 420.004c0 12 7.33398 23 22.001 33s29.667 15 45 15c24 0 36 -10.667 36 -32c0 -12 -6.33301 -23.333 -19 -34s-26.334 -16 -41.001 -16c-12 0 -22.167 2.83301 -30.5 8.5
s-12.5 14.167 -12.5 25.5zM279.005 400.004c0 12.667 7.16602 23.833 21.499 33.5s29.5 14.5 45.5 14.5c24.667 0 37 -11 37 -33c0 -11.333 -6.5 -22.333 -19.5 -33s-27.167 -16 -42.5 -16c-11.333 0 -21.166 3 -29.499 9s-12.5 14.333 -12.5 25z" />
    <glyph glyph-name="yacute" unicode="&#xfd;" horiz-adv-x="400" 
d="M-20 -215c0 16 4.66699 31.667 14 47s19.333 28.333 30 39s27.167 22.5 49.5 35.5s39.5 22.167 51.5 27.5l54 27c11.333 28.667 27.333 80.667 48 156c-51.333 -72.667 -99.333 -109 -144 -109c-22 0 -41.667 6.66699 -59 20s-26 34.333 -26 63
c0 36 11.333 81.333 34 136s42 82 58 82c6.66699 0 16.667 -3.5 30 -10.5s21.333 -14.5 24 -22.5c-12.667 -17.333 -26.5 -46.333 -41.5 -87s-22.5 -72.667 -22.5 -96c0 -24.667 9.66699 -37 29 -37c37.333 0 81.333 40.333 132 121
c0.666992 1.33301 2.16699 8.83301 4.5 22.5s4.83301 25.167 7.5 34.5s8.66699 18.5 18 27.5s20.666 13.5 33.999 13.5c2.66699 0 13.334 -1.33301 32.001 -4c-0.666992 -16.667 -8.5 -53 -23.5 -109s-32.5 -110.667 -52.5 -164c76 31.333 129.667 87.666 161 168.999
l17 -14c-25.333 -83.333 -89 -147.666 -191 -192.999c-67.333 -160 -134 -240 -200 -240c-18.667 0 -34.667 5.5 -48 16.5s-20 27.167 -20 48.5zM19 -215c0 -18.667 6.33301 -28 19 -28c14 0 32.333 14.167 55 42.5s45 67.5 67 117.5c-94 -47.333 -141 -91.333 -141 -132z
M237 398c0 13.333 12.499 35.834 37.499 67.501s46.833 47.5 65.5 47.5c17.333 0 27.333 -11.667 30 -35c-56.667 -54.667 -93 -92.334 -109 -113.001c-7.33301 3.33301 -13.166 8.5 -17.499 15.5s-6.5 12.833 -6.5 17.5z" />
    <glyph glyph-name="thorn" unicode="&#xfe;" horiz-adv-x="415" 
d="M-92 -234c38.667 128 69.335 243.331 92.002 345.998s42 232 58 388c0.666992 6.66699 1.5 11.334 2.5 14.001s3.33301 4.83398 7 6.50098s9.5 2.5 17.5 2.5c19.333 0 33.166 -4.16699 41.499 -12.5s12.5 -23.5 12.5 -45.5c0 -32.667 -10.667 -112.334 -32 -239.001
c49.333 77.333 104 116 164 116c32.667 0 59.834 -11 81.501 -33s32.5 -51 32.5 -87c0 -57.333 -24 -113.833 -72 -169.5s-106 -83.5 -174 -83.5c-20.667 0 -37.334 2.66699 -50.001 8s-19 11.333 -19 18c0 7.33301 11 11 33 11c52 0 98.667 21.833 140 65.5
s62 90.167 62 139.5c0 47.333 -18.333 71 -55 71c-31.333 0 -62.833 -17.167 -94.5 -51.5s-54.5 -68.166 -68.5 -101.499c-32 -135.333 -59.333 -237.333 -82 -306s-42.334 -103 -59.001 -103c-8 0 -16.333 6.33301 -25 19s-13 21.667 -13 27z" />
    <glyph glyph-name="ydieresis" unicode="&#xff;" horiz-adv-x="400" 
d="M-20 -215c0 16 4.66699 31.667 14 47s19.333 28.333 30 39s27.167 22.5 49.5 35.5s39.5 22.167 51.5 27.5l54 27c11.333 28.667 27.333 80.667 48 156c-51.333 -72.667 -99.333 -109 -144 -109c-22 0 -41.667 6.66699 -59 20s-26 34.333 -26 63
c0 36 11.333 81.333 34 136s42 82 58 82c6.66699 0 16.667 -3.5 30 -10.5s21.333 -14.5 24 -22.5c-12.667 -17.333 -26.5 -46.333 -41.5 -87s-22.5 -72.667 -22.5 -96c0 -24.667 9.66699 -37 29 -37c37.333 0 81.333 40.333 132 121
c0.666992 1.33301 2.16699 8.83301 4.5 22.5s4.83301 25.167 7.5 34.5s8.66699 18.5 18 27.5s20.666 13.5 33.999 13.5c2.66699 0 13.334 -1.33301 32.001 -4c-0.666992 -16.667 -8.5 -53 -23.5 -109s-32.5 -110.667 -52.5 -164c76 31.333 129.667 87.666 161 168.999
l17 -14c-25.333 -83.333 -89 -147.666 -191 -192.999c-67.333 -160 -134 -240 -200 -240c-18.667 0 -34.667 5.5 -48 16.5s-20 27.167 -20 48.5zM19 -215c0 -18.667 6.33301 -28 19 -28c14 0 32.333 14.167 55 42.5s45 67.5 67 117.5c-94 -47.333 -141 -91.333 -141 -132z
M138 433c0 12 7.33398 23 22.001 33s29.667 15 45 15c24 0 36 -10.667 36 -32c0 -12 -6.33301 -23.333 -19 -34s-26.334 -16 -41.001 -16c-12 0 -22.167 2.83301 -30.5 8.5s-12.5 14.167 -12.5 25.5zM283.001 413c0 12.667 7.16602 23.833 21.499 33.5s29.5 14.5 45.5 14.5
c24.667 0 37 -11 37 -33c0 -12 -6.5 -23.167 -19.5 -33.5s-27.167 -15.5 -42.5 -15.5c-11.333 0 -21.166 3 -29.499 9s-12.5 14.333 -12.5 25z" />
    <glyph glyph-name="dotlessi" unicode="&#x131;" horiz-adv-x="244" 
d="M-8 59c0 26.667 7 61.834 21 105.501s33 83.834 57 120.501s47.667 55 71 55c8.66699 0 15.834 -2.5 21.501 -7.5s8.5 -12.167 8.5 -21.5c0 -8.66699 -8.5 -26.834 -25.5 -54.501s-34.167 -59 -51.5 -94s-26 -65.167 -26 -90.5c0 -20.667 3.66699 -34.667 11 -42
s18.666 -11 33.999 -11c52.667 0 105 51 157 153l15 -16c-23.333 -58.667 -53 -104.334 -89 -137.001s-74.667 -49 -116 -49c-28 0 -49.667 8.33301 -65 25s-23 38 -23 64z" />
    <glyph glyph-name="OE" unicode="&#x152;" horiz-adv-x="848" 
d="M32 164c0 84 21 169.161 63 255.494s96.5 157.833 163.5 214.5s133.833 85 200.5 85c31.333 0 53.333 -8.66699 66 -26c-60.667 0 -121.667 -28.167 -183 -84.5s-111 -126.166 -149 -209.499s-57 -163.666 -57 -240.999c0 -56.667 11.5 -103.667 34.5 -141
s57.5 -56 103.5 -56c51.333 0 99.5 28.667 144.5 86s79.833 126.833 104.5 208.5s37 161.167 37 238.5c0 28.667 -1.5 52.834 -4.5 72.501s-6.5 33.334 -10.5 41.001s-8.66699 11.5 -14 11.5c-24 0 -62.333 -66.667 -115 -200c-41.333 9.33301 -62 28 -62 56
c0 36.667 22.333 78.167 67 124.5s85.334 70.5 122.001 72.5c34 2 75 3 123 3c101.333 0 172 -6.33301 212 -19c-10.667 -31.333 -72.334 -47 -185.001 -47c-6 0 -17.167 0.333008 -33.5 1s-30.166 1 -41.499 1c6.66699 -23.333 10 -51.666 10 -84.999
c0 -58.667 -2.66699 -110 -8 -154c95.333 -1.33301 166.333 -5 213 -11c-15.333 -41.333 -66.333 -62 -153 -62c-21.333 0 -45.333 0.666992 -72 2c-20.667 -93.333 -40.667 -164.666 -60 -213.999s-48.333 -88 -87 -116c32 -0.666992 82.667 -1 152 -1
c9.33301 0 29.5 0.666992 60.5 2s52.167 2 63.5 2c12 0 22 -1 30 -3c-7.33301 -19.333 -43.5 -34 -108.5 -44s-135.5 -15 -211.5 -15c-18.667 0 -48.334 0.166992 -89.001 0.5s-71 0.5 -91 0.5c-71.333 0 -128.333 21.167 -171 63.5s-64 104.833 -64 187.5z" />
    <glyph glyph-name="oe" unicode="&#x153;" horiz-adv-x="553" 
d="M-28 41c0 38.667 13.832 81.668 41.499 129.001s64 88.166 109 122.499s88.833 51.5 131.5 51.5c32.667 0 55.667 -13 69 -39c48.667 36.667 95.334 55 140.001 55c46.667 0 70 -22 70 -66c0 -48 -26 -90.667 -78 -128s-110 -59.333 -174 -66
c-1.33301 -6.66699 -2 -14.667 -2 -24c0 -51.333 24.667 -77 74 -77c40.667 0 82.167 16.667 124.5 50s76.5 74.333 102.5 123l17 -15c-27.333 -60 -65.333 -108.5 -114 -145.5s-99.667 -55.5 -153 -55.5c-38 0 -67.5 9.16699 -88.5 27.5s-33.833 41.5 -38.5 69.5
c-54.667 -66.667 -103.667 -100 -147 -100c-24 0 -44 7.66699 -60 23s-24 37 -24 65zM52.999 35.001c0 -21.333 7 -31.998 21 -31.998c17.333 0 42 14 74 42s50.667 50 56 66c-45.333 16.667 -68.666 53.667 -69.999 111c-22.667 -28.667 -41.834 -60.834 -57.501 -96.501
s-23.5 -65.834 -23.5 -90.501zM183.999 207.003c0 -21.333 10.334 -39.668 31.001 -55.001c19.333 49.333 46.333 91 81 125c-8 19.333 -21.333 29 -40 29s-35.334 -10.667 -50.001 -32s-22 -43.666 -22 -66.999zM291 137.001c45.333 16.667 87.5 40 126.5 70
s58.5 60.667 58.5 92c0 10.667 -5.66699 16 -17 16c-28.667 0 -60.167 -18.833 -94.5 -56.5s-58.833 -78.167 -73.5 -121.5z" />
    <glyph glyph-name="Scaron" unicode="&#x160;" horiz-adv-x="567" 
d="M4 96c0 49.333 15.334 84.8311 46.001 106.498s66.667 32.5 108 32.5c-43.333 -45.333 -65 -91.666 -65 -138.999c0 -36 13.833 -66.667 41.5 -92s66.167 -38 115.5 -38c48.667 0 91.667 12 129 36s56 57 56 99c0 30 -11.167 57 -33.5 81s-49.166 44.333 -80.499 61
l-95 52c-31.333 17.333 -58.333 39.5 -81 66.5s-34 57.5 -34 91.5c0 38 11.5 77.167 34.5 117.5s57.667 75.333 104 105s97.166 44.5 152.499 44.5c83.333 0 125 -35 125 -105c0 -34 -8.16699 -71.833 -24.5 -113.5s-34.833 -78.5 -55.5 -110.5c-29.333 6 -44 23 -44 51
c0 18.667 9.5 52.5 28.5 101.5s28.5 82.5 28.5 100.5c0 12.667 -3.83301 22.167 -11.5 28.5s-21.5 9.5 -41.5 9.5c-58.667 0 -109.834 -23.333 -153.501 -70s-65.5 -92 -65.5 -136c0 -26 11 -49.5 33 -70.5s48.667 -39.333 80 -55s62.5 -32.5 93.5 -50.5
s57.5 -41.5 79.5 -70.5s33 -62.5 33 -100.5c0 -65.333 -27.833 -117.666 -83.5 -156.999s-119.167 -59 -190.5 -59c-63.333 0 -117.333 16 -162 48s-67 77 -67 135zM358.001 905.998c0 18 9 31.334 27 40.001c16 -30.667 41.667 -61.334 77 -92.001
c44 15.333 78 33.333 102 54c14 -4.66699 21 -12.667 21 -24c0 -19.333 -16 -39.833 -48 -61.5s-57 -32.5 -75 -32.5s-39.833 13.833 -65.5 41.5s-38.5 52.5 -38.5 74.5z" />
    <glyph glyph-name="scaron" unicode="&#x161;" horiz-adv-x="351" 
d="M-20 86c0 23.333 4.16699 41.0029 12.5 53.0029s19 20.667 32 26s20.167 8.66602 21.5 9.99902c42.667 44 75 89.667 97 137v10c0 48.667 15 73 45 73c14.667 0 22.667 -6.66699 24 -20c0 -2 -0.833008 -6.83301 -2.5 -14.5s-2.5 -14.834 -2.5 -21.501
c0 -18 9.66699 -54.167 29 -108.5s29 -97.5 29 -129.5c0 -11.333 -1.33301 -25 -4 -41c45.333 11.333 84.666 49 117.999 113l12 -9c-27.333 -79.333 -73.666 -124 -138.999 -134c-10.667 -26.667 -28 -46.834 -52 -60.501s-51.667 -20.5 -83 -20.5
c-46.667 0 -81.167 13.5 -103.5 40.5s-33.5 59.167 -33.5 96.5zM35 84.0029c0 -24 6.66895 -45.167 20.002 -63.5s31.666 -27.5 54.999 -27.5c29.333 0 50.666 13 63.999 39c-26 5.33301 -50 15.5 -72 30.5s-39.667 31.167 -53 48.5c-9.33301 -2 -14 -11 -14 -27z
M64.002 147.003c11.333 -19.333 27.333 -36.832 48 -52.499s44 -26.5 70 -32.5c2 6 3 16.333 3 31c0 14 -1.33301 29.5 -4 46.5s-5 30.333 -7 40s-6 26 -12 49s-9.66699 37.5 -11 43.5c-32.667 -56.667 -61.667 -98.334 -87 -125.001zM121.002 538.004
c0 18 9 31.334 27 40.001c16 -30.667 41.667 -61.334 77 -92.001c44 15.333 78 33.333 102 54c14 -4.66699 21 -12.667 21 -24c0 -19.333 -16 -39.833 -48 -61.5s-57 -32.5 -75 -32.5s-39.833 13.833 -65.5 41.5s-38.5 52.5 -38.5 74.5z" />
    <glyph glyph-name="Ydieresis" unicode="&#x178;" horiz-adv-x="706" 
d="M32 536c0 43.333 19.8311 84.835 59.498 124.502s87.167 59.5 142.5 59.5c38 0 67 -10.333 87 -31s30 -47 30 -79c0 -23.333 -9.33301 -68.333 -28 -135c-24 -86 -36 -146.667 -36 -182c0 -62.667 23.667 -94 71 -94c42.667 0 82.334 22.833 119.001 68.5
s66.667 102.834 90 171.501l20 66l24 77c6.66699 21.333 14.5 43.5 23.5 66.5s18.5 40.667 28.5 53s20 18.5 30 18.5c20 0 42.667 -12.667 68 -38c-34.667 -53.333 -60.667 -106.166 -78 -158.499s-46.333 -162.5 -87 -330.5c-10 -41.333 -19.667 -77 -29 -107
s-22.666 -63.333 -39.999 -100s-36.166 -66.667 -56.499 -90s-46.5 -43 -78.5 -59s-67.333 -24 -106 -24c-42.667 0 -77.334 8.66699 -104.001 26s-40 41.666 -40 72.999c0 21.333 6.66699 40.166 20 56.499s32 27.166 56 32.499c-7.33301 -32.667 -11 -55.334 -11 -68.001
c0 -56.667 30.333 -85 91 -85c37.333 0 69.5 11 96.5 33s47.833 51.833 62.5 89.5s26.334 74.167 35.001 109.5s16.5 74.5 23.5 117.5s13.167 72.833 18.5 89.5c-58.667 -94.667 -128.334 -142 -209.001 -142c-42 0 -73 11.667 -93 35s-30 54.333 -30 93
c0 33.333 10.667 90 32 170s32 134.333 32 163c0 48 -18 72 -54 72c-32.667 0 -58 -17.167 -76 -51.5s-27 -71.5 -27 -111.5c0 -16 4 -34.667 12 -56c-59.333 0 -89 25.667 -89 77zM398.998 857.002c0 12 7.33398 23 22.001 33s29.667 15 45 15c24 0 36 -10.667 36 -32
c0 -12 -6.33301 -23.333 -19 -34s-26.334 -16 -41.001 -16c-12 0 -22.167 2.83301 -30.5 8.5s-12.5 14.167 -12.5 25.5zM543.999 837.002c0 12.667 7.16602 23.833 21.499 33.5s29.5 14.5 45.5 14.5c24.667 0 37 -11 37 -33c0 -12 -6.5 -23.167 -19.5 -33.5
s-27.167 -15.5 -42.5 -15.5c-11.333 0 -21.166 3 -29.499 9s-12.5 14.333 -12.5 25z" />
    <glyph glyph-name="Zcaron" unicode="&#x17d;" horiz-adv-x="680" 
d="M-8 33c0 16.667 6.66406 30.3359 19.9971 41.0029s35 16 65 16c32 0 79 -8.33301 141 -25c56.667 56.667 119.334 139.667 188.001 249c-42 -2 -97 -7.66699 -165 -17c2.66699 56.667 55.334 85 158.001 85c10.667 0 26 -0.666992 46 -2
c51.333 87.333 88.666 160.666 111.999 219.999c-22.667 6.66699 -49.334 15.667 -80.001 27c-93.333 34 -160.666 51 -201.999 51c-73.333 0 -110 -44.667 -110 -134c2.66699 -22.667 5.66699 -37 9 -43c-49.333 8.66699 -74 35 -74 79c0 45.333 17.5 80 52.5 104
s85.833 36 152.5 36c52 0 117 -10.5 195 -31.5s133.667 -31.5 167 -31.5c22 0 38.667 1.33301 50 4c-23.333 -23.333 -44.333 -39.666 -63 -48.999c-32 -74.667 -73.333 -154.334 -124 -239.001c66.667 -5.33301 104.667 -8 114 -8c-16 -21.333 -32.333 -34.5 -49 -39.5
s-49.667 -8.16699 -99 -9.5c-72 -113.333 -142.333 -203 -211 -269c112.667 -34 192.334 -51 239.001 -51c30 0 60 7.33301 90 22c-14.667 -38.667 -31.5 -65.834 -50.5 -81.501s-43.5 -23.5 -73.5 -23.5c-16 0 -32.667 1.66699 -50 5s-37 9 -59 17s-38.667 14.333 -50 19
s-30.166 13 -56.499 25s-41.5 19 -45.5 21c-50 -36 -94.333 -54 -133 -54c-30.667 0 -55.667 9.16699 -75 27.5s-29 38.166 -29 59.499zM24.9971 27.002c0 -11.333 6.16602 -22.167 18.499 -32.5s27.166 -15.5 44.499 -15.5c16.667 0 44.334 14.667 83.001 44
c-51.333 20 -86.666 30 -105.999 30c-26.667 0 -40 -8.66699 -40 -26zM444.996 906.001c0 18 9 31.334 27 40.001c16 -30.667 41.667 -61.334 77 -92.001c44 15.333 78 33.333 102 54c14 -4.66699 21 -12.667 21 -24c0 -19.333 -16 -39.833 -48 -61.5s-57 -32.5 -75 -32.5
s-39.833 13.833 -65.5 41.5s-38.5 52.5 -38.5 74.5z" />
    <glyph glyph-name="zcaron" unicode="&#x17e;" horiz-adv-x="331" 
d="M-68 -222c0 17.333 4.3291 33.5 12.9961 48.5s22.334 29.833 41.001 44.5s37 27.334 55 38.001l70 41c29.333 17.333 53 32 71 44c-2 43.333 -30 84.333 -84 123c36.667 10 66 29 88 57s33 55.667 33 83c0 31.333 -13.667 47 -41 47c-11.333 0 -22.833 -3.5 -34.5 -10.5
s-22.167 -15.667 -31.5 -26s-19.333 -24 -30 -41s-20 -33.167 -28 -48.5l-27 -55l-19 16c25.333 69.333 51.833 122.333 79.5 159s62.834 55 105.501 55c28.667 0 52.334 -7.83301 71.001 -23.5s28 -37.834 28 -66.501c0 -30.667 -10.667 -60 -32 -88
s-48.333 -50.333 -81 -67c28.667 -22.667 50.334 -50 65.001 -82c54 41.333 91 88 111 140l13 -16c-20 -58.667 -58 -108.667 -114 -150c2.66699 -12 4 -23 4 -33c0 -60 -25.5 -116.167 -76.5 -168.5s-108.833 -78.5 -173.5 -78.5c-50.667 0 -76 19.333 -76 58z
M-33.0039 -215c0 -18 9 -27 27 -27c30 0 66.5 19 109.5 57s68.5 84.333 76.5 139l-59 -36l-60 -34c-14.667 -8.66699 -30.167 -19 -46.5 -31s-28.333 -23.5 -36 -34.5s-11.5 -22.167 -11.5 -33.5zM127.996 518c0 18 9 31.334 27 40.001
c16 -30.667 41.667 -61.334 77 -92.001c44 15.333 78 33.333 102 54c14 -4.66699 21 -12.667 21 -24c0 -19.333 -16 -39.833 -48 -61.5s-57 -32.5 -75 -32.5s-39.833 13.833 -65.5 41.5s-38.5 52.5 -38.5 74.5z" />
    <glyph glyph-name="florin" unicode="&#x192;" horiz-adv-x="537" 
d="M-87 -121c0 40.667 25.999 69.3379 77.999 86.0049c-7.33301 -22.667 -11 -43.334 -11 -62.001c0 -24.667 6.66699 -45.334 20 -62.001s30 -25 50 -25c14.667 0 28.334 4.66699 41.001 14s24 23.166 34 41.499s19.167 37.833 27.5 58.5s16.666 46.167 24.999 76.5
s15.5 58.166 21.5 83.499l22 91c8 35.333 15.667 64.666 23 87.999l-68 -10c4.66699 42.667 32.334 67 83.001 73c14.667 57.333 29 106.666 43 147.999s31.167 81.5 51.5 120.5s44.333 68.667 72 89s58.167 30.5 91.5 30.5c15.333 0 27.166 -3.5 35.499 -10.5
s12.5 -20.5 12.5 -40.5c0 -48 -21.5 -103.333 -64.5 -166s-94.833 -119 -155.5 -169c10.667 0 29.334 -1.16699 56.001 -3.5s47.667 -3.5 63 -3.5c22.667 0 43 2.66699 61 8c-30 -42.667 -59.667 -64 -89 -64c-9.33301 0 -27.5 0.333008 -54.5 1s-51.5 1 -73.5 1
c-16 -69.333 -29.667 -125.833 -41 -169.5s-23.5 -86.167 -36.5 -127.5s-25.333 -73.166 -37 -95.499s-25 -42.333 -40 -60s-31 -29.667 -48 -36s-36.833 -9.5 -59.5 -9.5c-39.333 0 -71.333 9.66699 -96 29s-37 44.333 -37 75zM333.999 364.004
c46 40 85.999 86.001 119.999 138.001s51 91.333 51 118c0 13.333 -5.66699 20 -17 20c-23.333 0 -48.666 -24.333 -75.999 -73s-53.333 -116.334 -78 -203.001z" />
    <glyph glyph-name="circumflex" unicode="&#x2c6;" horiz-adv-x="210" 
d="M-1 464c0 18 14.999 36.834 44.999 56.501s53.667 29.5 71 29.5c16.667 0 36.834 -12.667 60.501 -38s35.5 -48 35.5 -68c0 -17.333 -8.33301 -30.333 -25 -39c-15.333 26 -39.333 53.667 -72 83c-30 -10 -64 -27.333 -102 -52c-8.66699 5.33301 -13 14.666 -13 27.999z
" />
    <glyph glyph-name="caron" unicode="&#x2c7;" horiz-adv-x="210" 
d="M-13 518c0 18 9 31.334 27 40.001c16 -30.667 41.667 -61.334 77 -92.001c44 15.333 78 33.333 102 54c14 -4.66699 21 -12.667 21 -24c0 -19.333 -16 -39.833 -48 -61.5s-57 -32.5 -75 -32.5s-39.833 13.833 -65.5 41.5s-38.5 52.5 -38.5 74.5z" />
    </font>
</defs>
</svg>
